<svg xmlns="http://www.w3.org/2000/svg" width="4200" height="4200" viewBox="0 0 4200 4200"><style>
.overlay rect {
    mix-blend-mode: lighten;
}
</style>
<g>

  <path fill="#C36549" d="M0 0h4200v4200H0z"/>
  <path fill="#E96F58" d="M1950 2625l-150-262.5-150 262.5h300z"/>
  <path fill="#BE4947" d="M1950 2625l150 262.5 150-262.5z"/>
  <path fill="#276759" d="M3750 3675l150 262.5 150-262.5h-300z"/>
  <path fill="#1D2D44" d="M4050 1050l-150-262.5-150 262.5z"/>
  <path fill="#26BEA3" d="M2850 2100l-150-262.5-150 262.5z"/>
  <path fill="#476250" d="M2550 2625l150 262.5 150-262.5h-300z"/>
  <path fill="#23736D" d="M3750 2625l150 262.5 150-262.5h-300z"/>
  <path fill="#1D5C4C" d="M3150 3675l150 262.5 150-262.5z"/>
  <path fill="#146A80" d="M4050 2100l-150-262.5-150 262.5z"/>
  <path fill="#145672" d="M3750 1575l150 262.5 150-262.5h-300z"/>
  <path fill="#3BB391" d="M2550 1575l150 262.5 150-262.5h-300z"/>
  <path fill="#2D705D" d="M4050 3150l-150-262.5-150 262.5z"/>
  <path fill="#974C3A" d="M300 1837.5L450 1575H150z"/>
  <path fill="#C1B861" d="M1800 1312.5l150-262.5h-300z"/>
  <path fill="#166B61" d="M2850 3150l150 262.5 150-262.5z"/>
  <path fill="#9DBD6B" d="M2250 2100l150 262.5 150-262.5h-300z"/>
  <path fill="#30735D" d="M3450 3150l-150-262.5-150 262.5z"/>
  <path fill="#6B3837" d="M450 1050L300 787.5 150 1050h300z"/>
  <path fill="#BDC85C" d="M2100 1837.5L1950 2100h300z"/>
  <path fill="#76515B" d="M2250 3150l150 262.5 150-262.5z"/>
  <path fill="#A95C3D" d="M450 2100l-150-262.5L150 2100h300z"/>
  <path fill="#7C7C5A" d="M300 2887.5L450 2625H150z"/>
  <path fill="#53323A" d="M300 787.5L450 525H150z"/>
  <path fill="#3B3244" d="M3150 525l-150-262.5L2850 525z"/>
  <path fill="#586566" d="M2550 525l-150-262.5L2250 525z"/>
  <path fill="#17243F" d="M3750 525l150 262.5L4050 525h-300z"/>
  <path d="M3750 525l-150-262.5L3450 525z"/>
  <path fill="#879570" d="M2400 1312.5l150-262.5h-300z"/>
  <path fill="#A2A077" d="M1950 525l-150-262.5L1650 525z"/>
  <path fill="#7E4840" d="M750 525L600 262.5 450 525z"/>
  <path fill="#C2C55C" d="M2100 1837.5l150-262.5h-300z"/>
  <path fill="#C5B14D" d="M1350 525l-150-262.5L1050 525z"/>
  <path fill="#09B4AA" d="M3000 2362.5l150-262.5h-300z"/>
  <path fill="#E53843" d="M1500 2887.5l150-262.5h-300z"/>
  <path fill="#9D8F9C" d="M1050 3675h300l-150-262.5z"/>
  <path fill="#358A7A" d="M450 3150l-150-262.5L150 3150h300z"/>
  <path fill="#DFA83F" d="M1650 2100l-150-262.5-150 262.5h300z"/>
  <path fill="#777071" d="M900 2887.5L750 3150h300z"/>
  <path fill="#E32545" d="M1500 2887.5L1350 3150h300z"/>
  <path fill="#099799" d="M3150 1575l150 262.5 150-262.5h-300z"/>
  <path fill="#D9B445" d="M1500 1837.5l150-262.5h-300z"/>
  <path fill="#D66E7B" d="M1650 3675h300l-150-262.5z"/>
  <path fill="#466070" d="M2250 3675h300l-150-262.5z"/>
  <path fill="#D97836" d="M900 1837.5L750 2100h300z"/>
  <path fill="#C1BC8E" d="M2250 1050l-150-262.5-150 262.5z"/>
  <path fill="#AF6850" d="M900 2887.5l150-262.5H750z"/>
  <path fill="#1C8D7E" d="M3150 2625l-150-262.5-150 262.5z"/>
  <path fill="#525F59" d="M2850 1050l-150-262.5-150 262.5z"/>
  <path fill="#D5A246" d="M900 787.5L750 1050h300z"/>
  <path fill="#D8C571" d="M1650 1050l-150-262.5-150 262.5z"/>
  <path fill="#23565E" d="M2550 3675l150 262.5 150-262.5z"/>
  <path fill="#1A6457" d="M2850 3675h300l-150-262.5z"/>
  <path fill="#C52945" d="M1950 3150h300l-150-262.5z"/>
  <path fill="#DC8B3A" d="M900 1837.5l150-262.5H750z"/>
  <path fill="#356453" d="M2550 3150h300l-150-262.5z"/>
  <path fill="#303A51" d="M3450 1050l-150-262.5-150 262.5z"/>
  <path fill="#248472" d="M3150 2625l150 262.5 150-262.5h-300z"/>
  <path fill="#CF7038" d="M750 1575l-150-262.5L450 1575h300z"/>
  <path fill="#169B8C" d="M3150 1575l-150-262.5-150 262.5z"/>
  <path fill="#D0C656" d="M1950 1575l-150-262.5-150 262.5z"/>
  <path fill="#99B475" d="M2550 1575l-150-262.5-150 262.5z"/>
  <path fill="#2A6F5F" d="M3450 3150l150 262.5 150-262.5h-300z"/>
  <path fill="#CE8E90" d="M1350 3675l150 262.5 150-262.5z"/>
  <path fill="#3A999F" d="M750 3675l150 262.5 150-262.5z"/>
  <path fill="#0FBAB7" d="M750 3675l-150-262.5L450 3675h300z"/>
  <path fill="#A67A80" d="M1950 3675l150 262.5 150-262.5z"/>
  <path fill="#125776" d="M3750 1575l-150-262.5-150 262.5z"/>
  <path fill="#1A3857" d="M3450 1050l150 262.5 150-262.5h-300z"/>
  <path fill="#0E1821" d="M3300 787.5L3450 525h-300z"/>
  <path fill="#0A969F" d="M3450 2100l150 262.5 150-262.5h-300z"/>
  <path fill="#1B887D" d="M3750 2625l-150-262.5-150 262.5z"/>
  <path fill="#02AEB0" d="M3450 2100l-150-262.5-150 262.5z"/>
  <path fill="#575258" d="M2700 787.5L2850 525h-300z"/>
  <path fill="#BAAB60" d="M1500 787.5L1650 525h-300z"/>
  <path fill="#B47B44" d="M900 787.5L1050 525H750z"/>
  <path fill="#A4A687" d="M2100 787.5L2250 525h-300z"/>
  <path fill="#C49154" d="M750 2625l-150-262.5L450 2625h300z"/>
  <path fill="#DDA446" d="M1350 1575l-150-262.5-150 262.5h300z"/>
  <path fill="#28585C" d="M4200 2625v-262.5L4050 2625z"/>
  <path fill="#2F374C" d="M2550 4200h300l-150-262.5z"/>
  <path fill="#505F68" d="M1950 4200h300l-150-262.5z"/>
  <path fill="#616F58" d="M1200 262.5L1350 0h-300z"/>
  <path fill="#2CB3B7" d="M450 3150l150 262.5L750 3150z"/>
  <path fill="#14203A" d="M4200 525V262.5L4050 525z"/>
  <path fill="#23515C" d="M3150 1050h-300l150 262.5z"/>
  <path fill="#23565E" d="M4050 2100l150 262.5V2100h-150z"/>
  <path fill="#3E3E40" d="M600 262.5L750 0H450z"/>
  <path fill="#546374" d="M1350 4200h300l-150-262.5z"/>
  <path fill="#D9654B" d="M1350 2625l-150-262.5-150 262.5h300z"/>
  <path fill="#182840" d="M4050 1050l150 262.5V1050h-150z"/>
  <path fill="#A7506B" d="M1050 3150l150 262.5 150-262.5z"/>
  <path fill="#264451" d="M3150 0h-300l150 262.5z"/>
  <path fill="#DA8139" d="M1050 2100l150 262.5 150-262.5z"/>
  <path fill="#1D4452" d="M3600 262.5L3750 0h-300z"/>
  <path fill="#20515D" d="M4200 3675v-262.5L4050 3675z"/>
  <path fill="#294B43" d="M3150 4200h300l-150-262.5z"/>
  <path fill="#2C544A" d="M3750 4200h300l-150-262.5z"/>
  <path fill="#2D5F55" d="M4050 3150l150 262.5V3150h-150z"/>
  <path fill="#4D6E67" d="M1800 262.5L1950 0h-300z"/>
  <path fill="#DFA745" d="M1200 1312.5l150-262.5h-300z"/>
  <path fill="#E62E4F" d="M1650 3150l150 262.5 150-262.5z"/>
  <path fill="#345053" d="M2400 262.5L2550 0h-300z"/>
  <path fill="#132038" d="M4200 262.5V0h-150z"/>
  <path fill="#226458" d="M3750 3675l-150-262.5-150 262.5z"/>
  <path fill="#E47C34" d="M450 2100l150 262.5L750 2100z"/>
  <path fill="#3A737D" d="M150 4200h300l-150-262.5z"/>
  <path fill="#AB563A" d="M450 1050l150 262.5L750 1050z"/>
  <path fill="#E2B645" d="M1650 2100l150 262.5 150-262.5z"/>
  <path fill="#946953" d="M2550 2625l-150-262.5-150 262.5z"/>
  <path fill="#0A8790" d="M300 3937.5L450 3675H150z"/>
  <path d="M4200 1575v-262.5L4050 1575z"/>
  <path fill="#347983" d="M750 4200h300l-150-262.5z"/>
  <path fill="#17192D" d="M4050 1050l150-262.5h-300z"/>
  <path fill="#205561" d="M150 3675H0v262.5z"/>
  <path fill="#196773" d="M300 3937.5L150 3675 0 3937.5z"/>
  <path fill="#377C86" d="M0 3937.5L150 4200l150-262.5z"/>
  <path fill="#2E8C96" d="M300 3937.5L450 4200l150-262.5z"/>
  <path fill="#347983" d="M450 4200h300l-150-262.5z"/>
  <path fill="#078F97" d="M300 3937.5h300L450 3675z"/>
  <path fill="#059DA4" d="M450 3675l150 262.5L750 3675z"/>
  <path fill="#178A94" d="M750 3675l-150 262.5h300L750 3675z"/>
  <path fill="#39808B" d="M600 3937.5L750 4200l150-262.5z"/>
  <path fill="#507E8B" d="M900 3937.5l150 262.5 150-262.5z"/>
  <path fill="#4A6876" d="M1050 4200h300l-150-262.5z"/>
  <path fill="#5E929A" d="M900 3937.5h300L1050 3675z"/>
  <path fill="#8B9097" d="M1050 3675l150 262.5 150-262.5z"/>
  <path fill="#B18D94" d="M1350 3675l-150 262.5h300L1350 3675z"/>
  <path fill="#6A7181" d="M1200 3937.5l150 262.5 150-262.5z"/>
  <path fill="#726F7C" d="M1500 3937.5l150 262.5 150-262.5z"/>
  <path fill="#545E6B" d="M1650 4200h300l-150-262.5z"/>
  <path fill="#B9898B" d="M1500 3937.5h300L1650 3675z"/>
  <path fill="#B9908F" d="M1650 3675l150 262.5 150-262.5z"/>
  <path fill="#9A7D80" d="M1950 3675l-150 262.5h300L1950 3675z"/>
  <path fill="#7F7A80" d="M1800 3937.5l150 262.5 150-262.5z"/>
  <path fill="#5D6774" d="M2100 3937.5l150 262.5 150-262.5z"/>
  <path fill="#303E4C" d="M2250 4200h300l-150-262.5z"/>
  <path fill="#6E6874" d="M2100 3937.5h300L2250 3675z"/>
  <path fill="#5A5E6F" d="M2250 3675l150 262.5 150-262.5z"/>
  <path fill="#3A4F62" d="M2550 3675l-150 262.5h300L2550 3675z"/>
  <path fill="#2A495A" d="M2400 3937.5l150 262.5 150-262.5z"/>
  <path fill="#204D4F" d="M2700 3937.5l150 262.5 150-262.5z"/>
  <path fill="#274245" d="M2850 4200h300l-150-262.5z"/>
  <path fill="#1D4E52" d="M2700 3937.5h300L2850 3675z"/>
  <path fill="#1A5A52" d="M2850 3675l150 262.5 150-262.5z"/>
  <path fill="#1C5B4F" d="M3150 3675l-150 262.5h300L3150 3675z"/>
  <path fill="#21524B" d="M3000 3937.5l150 262.5 150-262.5z"/>
  <path fill="#25574A" d="M3300 3937.5l150 262.5 150-262.5z"/>
  <path fill="#2A5043" d="M3450 4200h300l-150-262.5z"/>
  <path fill="#20594B" d="M3300 3937.5h300L3450 3675z"/>
  <path fill="#235C51" d="M3450 3675l150 262.5 150-262.5z"/>
  <path fill="#275F54" d="M3750 3675l-150 262.5h300L3750 3675z"/>
  <path fill="#27594C" d="M3600 3937.5l150 262.5 150-262.5z"/>
  <path fill="#2D5C52" d="M4050 4200l150-262.5h-300z"/>
  <path fill="#245561" d="M4200 4200v-262.5L4050 4200z"/>
  <path fill="#2B5F54" d="M3900 3937.5h300L4050 3675z"/>
  <path fill="#1F4F5B" d="M4050 3675l150 262.5V3675h-150z"/>
  <path fill="#0F828C" d="M300 3412.5H0L150 3675z"/>
  <path fill="#079CA2" d="M450 3675l-150-262.5L150 3675h300z"/>
  <path fill="#1B7679" d="M150 3150L0 3412.5h300z"/>
  <path fill="#07969E" d="M450 3150H150l150 262.5z"/>
  <path fill="#04A6AD" d="M450 3150l-150 262.5h300z"/>
  <path fill="#06A7AC" d="M300 3412.5L450 3675l150-262.5z"/>
  <path fill="#695E4E" d="M0 2362.5L150 2625l150-262.5z"/>
  <path fill="#877150" d="M450 2625l-150-262.5L150 2625h300z"/>
  <path fill="#635147" d="M150 2100L0 2362.5h300z"/>
  <path fill="#B7643C" d="M450 2100H150l150 262.5z"/>
  <path fill="#D07038" d="M450 2100l-150 262.5h300z"/>
  <path fill="#C78245" d="M300 2362.5L450 2625l150-262.5z"/>
  <path fill="#432D3A" d="M0 1312.5L150 1575l150-262.5z"/>
  <path fill="#AC5437" d="M450 1575l-150-262.5L150 1575h300z"/>
  <path fill="#553037" d="M150 1050L0 1312.5h300z"/>
  <path fill="#693736" d="M450 1050H150l150 262.5z"/>
  <path fill="#8F4837" d="M450 1050l-150 262.5h300z"/>
  <path fill="#BD6037" d="M300 1312.5L450 1575l150-262.5z"/>
  <path fill="#342537" d="M0 262.5L150 525l150-262.5z"/>
  <path fill="#482F3B" d="M450 525L300 262.5 150 525h300z"/>
  <path fill="#303E4C" d="M300 262.5L150 0 0 262.5z"/>
  <path fill="#352C3F" d="M450 0H150l150 262.5z"/>
  <path fill="#423140" d="M600 262.5L450 0 300 262.5z"/>
  <path fill="#613A40" d="M600 262.5H300L450 525z"/>
  <path fill="#09ADB3" d="M600 3412.5L750 3675l150-262.5z"/>
  <path fill="#459BA4" d="M750 3675h300l-150-262.5z"/>
  <path fill="#289A9D" d="M750 3150l-150 262.5h300z"/>
  <path fill="#5C7A83" d="M1050 3150H750l150 262.5z"/>
  <path fill="#826C85" d="M1050 3150l-150 262.5h300L1050 3150z"/>
  <path fill="#798698" d="M900 3412.5l150 262.5 150-262.5z"/>
  <path fill="#CE7C3F" d="M600 2362.5L750 2625l150-262.5z"/>
  <path fill="#C06F45" d="M1050 2625l-150-262.5L750 2625h300z"/>
  <path fill="#DB7D3D" d="M750 2100l-150 262.5h300z"/>
  <path fill="#D87535" d="M1050 2100H750l150 262.5z"/>
  <path fill="#D67138" d="M1050 2100l-150 262.5h300z"/>
  <path fill="#D37754" d="M900 2362.5l150 262.5 150-262.5z"/>
  <path fill="#D6883C" d="M600 1312.5L750 1575l150-262.5z"/>
  <path fill="#DD973F" d="M1050 1575l-150-262.5L750 1575h300z"/>
  <path fill="#C46F3C" d="M750 1050l-150 262.5h300z"/>
  <path fill="#D08A42" d="M1050 1050H750l150 262.5z"/>
  <path fill="#D59944" d="M1050 1050l-150 262.5h300z"/>
  <path fill="#DFA044" d="M900 1312.5l150 262.5 150-262.5z"/>
  <path fill="#835B42" d="M900 262.5H600L750 525z"/>
  <path fill="#AE8A44" d="M1050 525L900 262.5 750 525z"/>
  <path fill="#5A513F" d="M900 262.5L750 0 600 262.5z"/>
  <path fill="#536053" d="M1050 0H750l150 262.5z"/>
  <path fill="#747557" d="M1200 262.5L1050 0 900 262.5z"/>
  <path fill="#AD9646" d="M1200 262.5H900L1050 525z"/>
  <path fill="#D27B8A" d="M1200 3412.5l150 262.5 150-262.5z"/>
  <path fill="#E17C8B" d="M1350 3675h300l-150-262.5z"/>
  <path fill="#CE5772" d="M1200 3412.5h300L1350 3150z"/>
  <path fill="#E23A57" d="M1350 3150l150 262.5 150-262.5z"/>
  <path fill="#E7536B" d="M1650 3150l-150 262.5h300L1650 3150z"/>
  <path fill="#E46174" d="M1500 3412.5l150 262.5 150-262.5z"/>
  <path fill="#E06E55" d="M1200 2362.5l150 262.5 150-262.5z"/>
  <path fill="#E65041" d="M1650 2625l-150-262.5-150 262.5h300z"/>
  <path fill="#DF8F3D" d="M1350 2100l-150 262.5h300z"/>
  <path fill="#E2A241" d="M1650 2100h-300l150 262.5z"/>
  <path fill="#E6AA42" d="M1650 2100l-150 262.5h300z"/>
  <path fill="#EA7D57" d="M1500 2362.5l150 262.5 150-262.5z"/>
  <path fill="#D9AF48" d="M1200 1312.5l150 262.5 150-262.5z"/>
  <path fill="#D5B84A" d="M1650 1575l-150-262.5-150 262.5h300z"/>
  <path fill="#D5B74C" d="M1500 1312.5L1350 1050l-150 262.5z"/>
  <path fill="#D6BF61" d="M1650 1050h-300l150 262.5z"/>
  <path fill="#CFBF56" d="M1800 1312.5L1650 1050l-150 262.5z"/>
  <path fill="#CCB64E" d="M1800 1312.5h-300l150 262.5z"/>
  <path fill="#A39450" d="M1500 262.5h-300L1350 525z"/>
  <path fill="#ABA25D" d="M1650 525l-150-262.5L1350 525z"/>
  <path fill="#7F8562" d="M1500 262.5L1350 0l-150 262.5z"/>
  <path fill="#4E6B61" d="M1650 0h-300l150 262.5z"/>
  <path fill="#5F7A6F" d="M1800 262.5L1650 0l-150 262.5z"/>
  <path fill="#828967" d="M1800 262.5h-300L1650 525z"/>
  <path fill="#C26173" d="M1800 3412.5l150 262.5 150-262.5z"/>
  <path fill="#9B6E7B" d="M1950 3675h300l-150-262.5z"/>
  <path fill="#C74A62" d="M1800 3412.5h300L1950 3150z"/>
  <path fill="#C03D59" d="M1950 3150l150 262.5 150-262.5z"/>
  <path fill="#944F64" d="M2250 3150l-150 262.5h300L2250 3150z"/>
  <path fill="#8B5C72" d="M2100 3412.5l150 262.5 150-262.5z"/>
  <path fill="#E18159" d="M1800 2362.5l150 262.5 150-262.5z"/>
  <path fill="#C36549" d="M1950 2625h300l-150-262.5z"/>
  <path fill="#E09C46" d="M1950 2100l-150 262.5h300z"/>
  <path fill="#D6B749" d="M2250 2100h-300l150 262.5z"/>
  <path fill="#B7AC58" d="M2250 2100l-150 262.5h300L2250 2100z"/>
  <path fill="#B78964" d="M2250 2625l150-262.5h-300z"/>
  <path fill="#CCC45B" d="M2100 1312.5h-300l150 262.5z"/>
  <path fill="#BEC060" d="M2250 1575l-150-262.5-150 262.5z"/>
  <path fill="#C5BF6A" d="M2100 1312.5L1950 1050l-150 262.5z"/>
  <path fill="#B8B375" d="M2250 1050h-300l150 262.5z"/>
  <path fill="#A4A972" d="M2400 1312.5L2250 1050l-150 262.5z"/>
  <path fill="#ADB470" d="M2400 1312.5h-300l150 262.5z"/>
  <path fill="#879480" d="M2100 262.5h-300L1950 525z"/>
  <path fill="#879582" d="M2250 525l-150-262.5L1950 525z"/>
  <path fill="#5B7971" d="M2100 262.5L1950 0l-150 262.5z"/>
  <path fill="#4A7169" d="M2250 0h-300l150 262.5z"/>
  <path fill="#597170" d="M2400 262.5L2250 0l-150 262.5z"/>
  <path fill="#5E716E" d="M2400 262.5h-300L2250 525z"/>
  <path fill="#345F69" d="M2400 3412.5l150 262.5 150-262.5z"/>
  <path fill="#20615D" d="M2550 3675h300l-150-262.5z"/>
  <path fill="#545A60" d="M2400 3412.5h300L2550 3150z"/>
  <path fill="#2A6456" d="M2550 3150l150 262.5 150-262.5z"/>
  <path fill="#226856" d="M2700 3412.5h300L2850 3150z"/>
  <path fill="#1B6459" d="M2700 3412.5l150 262.5 150-262.5z"/>
  <path fill="#568261" d="M2550 2625l150-262.5h-300z"/>
  <path fill="#2D8D71" d="M2850 2625l-150-262.5-150 262.5z"/>
  <path fill="#7DA56D" d="M2400 2362.5h300L2550 2100z"/>
  <path fill="#50BB8C" d="M2700 2362.5l150-262.5h-300z"/>
  <path fill="#1FAA93" d="M2700 2362.5h300L2850 2100z"/>
  <path fill="#199988" d="M2850 2625l150-262.5h-300z"/>
  <path fill="#92AA76" d="M2700 1312.5h-300l150 262.5z"/>
  <path fill="#68A77E" d="M2850 1575l-150-262.5-150 262.5z"/>
  <path fill="#6B9272" d="M2700 1312.5L2550 1050l-150 262.5z"/>
  <path fill="#5C8C6F" d="M2850 1050h-300l150 262.5z"/>
  <path fill="#2E7368" d="M3000 1312.5L2850 1050l-150 262.5z"/>
  <path fill="#318C77" d="M2850 1575l150-262.5h-300z"/>
  <path fill="#3A4851" d="M2700 262.5h-300L2550 525z"/>
  <path fill="#39374A" d="M2850 525l-150-262.5L2550 525z"/>
  <path fill="#31454F" d="M2700 262.5L2550 0l-150 262.5z"/>
  <path fill="#2B4A53" d="M2850 0h-300l150 262.5z"/>
  <path fill="#29444F" d="M3000 262.5L2850 0l-150 262.5z"/>
  <path fill="#443B4E" d="M3000 262.5h-300L2850 525z"/>
  <path fill="#1E6E5B" d="M3000 3412.5l150 262.5 150-262.5z"/>
  <path fill="#1C6452" d="M3150 3675h300l-150-262.5z"/>
  <path fill="#226E57" d="M3000 3412.5h300L3150 3150z"/>
  <path fill="#236B58" d="M3300 3412.5l150-262.5h-300z"/>
  <path fill="#276D5C" d="M3450 3150l-150 262.5h300L3450 3150z"/>
  <path fill="#206858" d="M3450 3675l150-262.5h-300z"/>
  <path fill="#119A91" d="M3150 2625l150-262.5h-300z"/>
  <path fill="#179187" d="M3450 2625l-150-262.5-150 262.5z"/>
  <path fill="#09A5A1" d="M3000 2362.5h300L3150 2100z"/>
  <path fill="#05A9A9" d="M3300 2362.5l150-262.5h-300z"/>
  <path fill="#08A4A5" d="M3450 2100l-150 262.5h300L3450 2100z"/>
  <path fill="#109892" d="M3450 2625l150-262.5h-300z"/>
  <path fill="#128C83" d="M3150 1575l150-262.5h-300z"/>
  <path fill="#0D8088" d="M3450 1575l-150-262.5-150 262.5z"/>
  <path fill="#16616D" d="M3000 1312.5h300L3150 1050z"/>
  <path fill="#194D64" d="M3300 1312.5l150-262.5h-300z"/>
  <path fill="#174F6A" d="M3450 1050l-150 262.5h300L3450 1050z"/>
  <path fill="#12617A" d="M3450 1575l150-262.5h-300z"/>
  <path fill="#232E44" d="M3300 262.5h-300L3150 525z"/>
  <path fill="#22263F" d="M3450 525l-150-262.5L3150 525z"/>
  <path fill="#223D4C" d="M3300 262.5L3150 0l-150 262.5z"/>
  <path fill="#1D4653" d="M3450 0h-300l150 262.5z"/>
  <path fill="#1D4150" d="M3600 262.5L3450 0l-150 262.5z"/>
  <path fill="#142230" d="M3600 262.5h-300L3450 525z"/>
  <path fill="#27675A" d="M3750 3675l150-262.5h-300z"/>
  <path fill="#2D6E5F" d="M4050 3675l-150-262.5-150 262.5z"/>
  <path fill="#2A6A5A" d="M3600 3412.5h300L3750 3150z"/>
  <path fill="#2E6A58" d="M3900 3412.5l150-262.5h-300z"/>
  <path fill="#2E6556" d="M4050 3150l-150 262.5h300L4050 3150z"/>
  <path fill="#2B6557" d="M4050 3675l150-262.5h-300z"/>
  <path fill="#167D84" d="M3750 2625l150-262.5h-300z"/>
  <path fill="#1D7273" d="M4050 2625l-150-262.5-150 262.5z"/>
  <path fill="#0D8B96" d="M3600 2362.5h300L3750 2100z"/>
  <path fill="#107A8E" d="M3900 2362.5l150-262.5h-300z"/>
  <path fill="#156E81" d="M4050 2100l-150 262.5h300L4050 2100z"/>
  <path fill="#22616A" d="M4050 2625l150-262.5h-300z"/>
  <path fill="#174663" d="M3750 1575l150-262.5h-300z"/>
  <path fill="#17405B" d="M4050 1575l-150-262.5-150 262.5z"/>
  <path fill="#193754" d="M3600 1312.5h300L3750 1050z"/>
  <path fill="#1A2A44" d="M3900 1312.5l150-262.5h-300z"/>
  <path fill="#193551" d="M4050 1050l-150 262.5h300L4050 1050z"/>
  <path fill="#19364B" d="M4050 1575l150-262.5h-300z"/>
  <path fill="#1E213C" d="M3900 262.5h-300L3750 525z"/>
  <path fill="#142230" d="M4050 525l-150-262.5L3750 525z"/>
  <path fill="#16334B" d="M3900 262.5L3750 0l-150 262.5z"/>
  <path fill="#152F45" d="M4050 0h-300l150 262.5z"/>
  <path fill="#14273F" d="M4200 262.5L4050 0l-150 262.5z"/>
  <path fill="#203749" d="M4050 525l150-262.5h-300z"/>
  <path fill="#2D5B57" d="M0 2887.5V3150h150L0 2887.5z"/>
  <path fill="#2E4951" d="M150 2625H0v262.5z"/>
  <path fill="#456860" d="M300 2887.5L150 2625 0 2887.5z"/>
  <path fill="#2F6F6B" d="M0 2887.5L150 3150l150-262.5z"/>
  <path fill="#20525A" d="M0 1837.5V2100h150L0 1837.5z"/>
  <path fill="#1C4151" d="M150 1575H0v262.5z"/>
  <path fill="#603B3A" d="M300 1837.5L150 1575 0 1837.5z"/>
  <path fill="#554344" d="M0 1837.5L150 2100l150-262.5z"/>
  <path fill="#17243E" d="M0 787.5V1050h150L0 787.5z"/>
  <path fill="#2F1F33" d="M150 525H0v262.5z"/>
  <path fill="#332133" d="M300 787.5L150 525 0 787.5z"/>
  <path fill="#4D2D36" d="M0 787.5L150 1050l150-262.5z"/>
  <path fill="#589073" d="M300 2887.5L450 3150l150-262.5z"/>
  <path fill="#429D86" d="M750 3150l-150-262.5L450 3150z"/>
  <path fill="#7C9065" d="M450 2625l-150 262.5h300z"/>
  <path fill="#A08B5A" d="M750 2625H450l150 262.5z"/>
  <path fill="#947D5F" d="M750 2625l-150 262.5h300z"/>
  <path fill="#748D70" d="M600 2887.5L750 3150l150-262.5z"/>
  <path fill="#D36A36" d="M300 1837.5L450 2100l150-262.5z"/>
  <path fill="#E5894E" d="M750 2100l-150-262.5L450 2100z"/>
  <path fill="#B35738" d="M450 1575l-150 262.5h300z"/>
  <path fill="#CF6636" d="M750 1575H450l150 262.5z"/>
  <path fill="#DA7535" d="M750 1575l-150 262.5h300z"/>
  <path fill="#DE7F35" d="M600 1837.5L750 2100l150-262.5z"/>
  <path fill="#824239" d="M300 787.5L450 1050l150-262.5z"/>
  <path fill="#B86740" d="M750 1050L600 787.5 450 1050z"/>
  <path fill="#743E3B" d="M450 525L300 787.5h300z"/>
  <path fill="#874840" d="M750 525H450l150 262.5z"/>
  <path fill="#B36844" d="M900 787.5L750 525 600 787.5z"/>
  <path fill="#BA7242" d="M600 787.5L750 1050l150-262.5z"/>
  <path fill="#AB525C" d="M900 2887.5l150 262.5 150-262.5z"/>
  <path fill="#B8415B" d="M1350 3150l-150-262.5-150 262.5z"/>
  <path fill="#B55651" d="M1050 2625l-150 262.5h300z"/>
  <path fill="#C95349" d="M1350 2625h-300l150 262.5z"/>
  <path fill="#DB3846" d="M1350 2625l-150 262.5h300z"/>
  <path fill="#D1354F" d="M1200 2887.5l150 262.5 150-262.5z"/>
  <path fill="#DB833A" d="M900 1837.5l150 262.5 150-262.5z"/>
  <path fill="#E5894E" d="M1350 2100l-150-262.5-150 262.5z"/>
  <path fill="#DD8D3D" d="M1050 1575l-150 262.5h300z"/>
  <path fill="#DD9442" d="M1350 1575h-300l150 262.5z"/>
  <path fill="#DCA442" d="M1350 1575l-150 262.5h300z"/>
  <path fill="#DD9A40" d="M1200 1837.5l150 262.5 150-262.5z"/>
  <path fill="#DDBB49" d="M1200 787.5H900l150 262.5z"/>
  <path fill="#DDC55E" d="M1050 1050h300l-150-262.5-150 262.5z"/>
  <path fill="#DDC357" d="M1200 787.5L1050 525 900 787.5z"/>
  <path fill="#D6BF5B" d="M1350 525h-300l150 262.5z"/>
  <path fill="#C6B560" d="M1500 787.5L1350 525l-150 262.5z"/>
  <path fill="#D1BD56" d="M1500 787.5h-300l150 262.5z"/>
  <path fill="#D80B2C" d="M1650 3150l150-262.5h-300z"/>
  <path fill="#DA2451" d="M1650 3150h300l-150-262.5z"/>
  <path fill="#E92D41" d="M1500 2887.5h300L1650 2625z"/>
  <path fill="#E7535D" d="M1650 2625l150 262.5 150-262.5z"/>
  <path fill="#DC4655" d="M1950 2625l-150 262.5h300L1950 2625z"/>
  <path fill="#D72143" d="M1800 2887.5l150 262.5 150-262.5z"/>
  <path fill="#DEC845" d="M1500 1837.5l150 262.5 150-262.5z"/>
  <path fill="#D6C44F" d="M1950 2100l-150-262.5-150 262.5z"/>
  <path fill="#E0CB51" d="M1650 1575l-150 262.5h300z"/>
  <path fill="#D5CA4E" d="M1950 1575h-300l150 262.5z"/>
  <path fill="#D9D16A" d="M2100 1837.5L1950 1575l-150 262.5z"/>
  <path fill="#D0CB53" d="M1800 1837.5l150 262.5 150-262.5z"/>
  <path fill="#C7BB63" d="M1800 787.5h-300l150 262.5z"/>
  <path fill="#BFB664" d="M1650 1050h300l-150-262.5-150 262.5z"/>
  <path fill="#BFB66D" d="M1800 787.5L1650 525l-150 262.5z"/>
  <path fill="#B2AF78" d="M1950 525h-300l150 262.5z"/>
  <path fill="#ADAA7F" d="M2100 787.5L1950 525l-150 262.5z"/>
  <path fill="#BAB67B" d="M2100 787.5h-300l150 262.5z"/>
  <path fill="#A93749" d="M2100 2887.5l150 262.5 150-262.5z"/>
  <path fill="#734D4D" d="M2250 3150h300l-150-262.5z"/>
  <path fill="#9F4247" d="M2100 2887.5h300L2250 2625z"/>
  <path fill="#94524B" d="M2250 2625l150 262.5 150-262.5z"/>
  <path fill="#6B514A" d="M2550 2625l-150 262.5h300L2550 2625z"/>
  <path fill="#52584F" d="M2400 2887.5l150 262.5 150-262.5z"/>
  <path fill="#A2C66D" d="M2250 2100l150-262.5h-300z"/>
  <path fill="#87C47B" d="M2250 2100h300l-150-262.5-150 262.5z"/>
  <path fill="#A0BD66" d="M2400 1837.5L2250 1575l-150 262.5z"/>
  <path fill="#88BA7E" d="M2550 1575h-300l150 262.5z"/>
  <path fill="#5CB78B" d="M2550 1575l-150 262.5h300L2550 1575z"/>
  <path fill="#54C091" d="M2550 2100l150-262.5h-300z"/>
  <path fill="#A6A37F" d="M2400 787.5h-300l150 262.5z"/>
  <path fill="#8B8F6E" d="M2250 1050h300l-150-262.5-150 262.5z"/>
  <path fill="#94977E" d="M2400 787.5L2250 525l-150 262.5z"/>
  <path fill="#717870" d="M2550 525h-300l150 262.5z"/>
  <path fill="#6C6D67" d="M2700 787.5L2550 525l-150 262.5z"/>
  <path fill="#707364" d="M2700 787.5h-300l150 262.5z"/>
  <path fill="#306E53" d="M2850 3150l150-262.5h-300z"/>
  <path fill="#2B6C54" d="M3150 3150l-150-262.5-150 262.5z"/>
  <path fill="#376B51" d="M2700 2887.5h300L2850 2625z"/>
  <path fill="#2A7B63" d="M3000 2887.5l150-262.5h-300z"/>
  <path fill="#30826B" d="M3150 2625l-150 262.5h300L3150 2625z"/>
  <path fill="#2F7259" d="M3150 3150l150-262.5h-300z"/>
  <path fill="#0EB5A5" d="M2850 2100l150-262.5h-300z"/>
  <path fill="#04ADA8" d="M3150 2100l-150-262.5-150 262.5z"/>
  <path fill="#15B0A3" d="M2700 1837.5h300L2850 1575z"/>
  <path fill="#0BA399" d="M3000 1837.5l150-262.5h-300z"/>
  <path fill="#04AAA8" d="M3150 1575l-150 262.5h300L3150 1575z"/>
  <path fill="#03B8B7" d="M3150 2100l150-262.5h-300z"/>
  <path fill="#445154" d="M3000 787.5h-300l150 262.5z"/>
  <path fill="#3B4D52" d="M3150 1050l-150-262.5-150 262.5z"/>
  <path fill="#443B4E" d="M3000 787.5L2850 525l-150 262.5z"/>
  <path fill="#34273E" d="M3150 525h-300l150 262.5z"/>
  <path fill="#323249" d="M3300 787.5L3150 525l-150 262.5z"/>
  <path fill="#282641" d="M3300 787.5h-300l150 262.5z"/>
  <path fill="#307660" d="M3450 3150l150-262.5h-300z"/>
  <path fill="#2F7560" d="M3750 3150l-150-262.5-150 262.5z"/>
  <path fill="#2D8C77" d="M3300 2887.5h300L3450 2625z"/>
  <path fill="#228273" d="M3600 2887.5l150-262.5h-300z"/>
  <path fill="#278777" d="M3750 2625l-150 262.5h300L3750 2625z"/>
  <path fill="#2D7460" d="M3750 3150l150-262.5h-300z"/>
  <path fill="#03A4AE" d="M3450 2100l150-262.5h-300z"/>
  <path fill="#0890A1" d="M3750 2100l-150-262.5-150 262.5z"/>
  <path fill="#04A1A9" d="M3300 1837.5h300L3450 1575z"/>
  <path fill="#09889A" d="M3600 1837.5l150-262.5h-300z"/>
  <path fill="#0F6F89" d="M3750 1575l-150 262.5h300L3750 1575z"/>
  <path fill="#0C7B93" d="M3750 2100l150-262.5h-300z"/>
  <path fill="#22233F" d="M3450 1050l150-262.5h-300z"/>
  <path fill="#24415B" d="M3750 1050l-150-262.5-150 262.5z"/>
  <path fill="#151942" d="M3600 787.5L3450 525l-150 262.5z"/>
  <path fill="#1E213C" d="M3750 525h-300l150 262.5z"/>
  <path fill="#303249" d="M3750 525l-150 262.5h300L3750 525z"/>
  <path fill="#22233F" d="M3750 1050l150-262.5h-300z"/>
  <path fill="#2C655B" d="M4050 3150l150-262.5h-300z"/>
  <path fill="#2D5B57" d="M4050 3150h150v-262.5L4050 3150z"/>
  <path fill="#2D6E69" d="M3900 2887.5h300L4050 2625z"/>
  <path fill="#2A5A5B" d="M4050 2625l150 262.5V2625h-150z"/>
  <path fill="#1B5B6C" d="M4050 2100l150-262.5h-300z"/>
  <path fill="#20525A" d="M4050 2100h150v-262.5L4050 2100z"/>
  <path fill="#1A5364" d="M3900 1837.5h300L4050 1575z"/>
  <path fill="#1C4151" d="M4050 1575l150 262.5V1575h-150z"/>
  <path fill="#17243E" d="M4050 1050h150V787.5L4050 1050z"/>
  <path fill="#16223D" d="M3900 787.5h300L4050 525z"/>
  <path fill="#2F1F33" d="M4050 525l150 262.5V525h-150z"/>
  <path fill="#1B5D69" d="M0 3675h150L0 3412.5z"/>
  <path fill="#23525B" d="M0 3412.5L150 3150H0z"/>
  <path fill="#415351" d="M0 2625h150L0 2362.5z"/>
  <path fill="#23565E" d="M0 2362.5L150 2100H0z"/>
  <path fill="#1B3A4C" d="M0 1575h150L0 1312.5z"/>
  <path fill="#182840" d="M0 1312.5L150 1050H0z"/>
  <path fill="#14203A" d="M0 525h150L0 262.5z"/>
  <path fill="#1C4951" d="M0 262.5L150 0H0z"/>
  <path fill="#245561" d="M0 4200h150L0 3937.5z"/>
</g>
<g class="overlay">
  <rect fill="#E7536B" width="4200" height="4200"/>
</g>
</svg>
