<svg width="300" height="300" viewBox="0 0 300 300" xmlns="http://www.w3.org/2000/svg">
  <g fill="none" fill-rule="evenodd">
    <g stroke="#FFF">
      <path d="M38.5 59.5h61v192h-61z"/>
      <path d="M39.5 97.5h60.13m-60.13 81h60.13m-60.13-73h60.13m-60.13 81h60.13" stroke-linecap="square"/>
    </g>
    <g stroke="#FFF">
      <path d="M105.5 98.5h44v153h-44z"/>
      <path d="M106.1 128.72h43.63m-43.63 64.63h43.63M106.1 135.1h43.63m-43.63 64.64h43.63" stroke-linecap="square"/>
    </g>
    <g stroke="#FFF">
      <path d="M155.5 98.5h29v153h-29z"/>
      <path d="M155.73 128.72h29.1m-29.1 64.63h29.1m-29.1-58.25h29.1m-29.1 64.64h29.1" stroke-linecap="square"/>
    </g>
    <g stroke="#FFF">
      <path d="M190.5 98.5h29v153h-29z"/>
      <path d="M190.73 128.72h29.1m-29.1 64.63h29.1m-29.1-58.25h29.1m-29.1 64.64h29.1" stroke-linecap="square"/>
    </g>
    <g stroke="#FFF">
      <path d="M220.3 100.84l28.77-3.54 18.64 151.86-28.7 3.54z"/>
      <path d="M224.2 130.8l28.87-3.54m-21 67.7l28.88-3.55m-35.98-54.2l28.88-3.5m-21 67.7l28.88-3.5" stroke-linecap="square"/>
    </g>
    <path d="M110.76 158.84h4.2c.65 0 1.28.06 1.87.2.6.12 1.12.33 1.58.63.5.3.9.7 1.1 1.2.3.5.5 1.12.5 1.85 0 .77-.1 1.4-.4 1.92-.3.5-.6.9-1.1 1.2-.4.3-.9.5-1.5.62s-1.1.18-1.5.18h-2.8V173H111v-14.16zm1.68 6.24h2.84c.84 0 1.52-.2 2.05-.57.53-.3.8-.9.8-1.7s-.27-1.4-.8-1.7c-.53-.4-1.2-.5-2.05-.5h-2.84v4.7zm10.04-7.2h1.56V173h-1.56v-15.12zm4.54 6.96c.48-.5 1.05-.86 1.7-1.1.67-.22 1.34-.34 2.02-.34 1.4 0 2.4.33 3 .98.6.65.92 1.65.92 2.98v4.02c0 .27 0 .54.04.83l.1.8h-1.5c-.05-.2-.08-.4-.1-.7v-.7h-.04c-.3.5-.72.9-1.23 1.2-.5.3-1.13.5-1.85.5-.48 0-.93 0-1.35-.2-.42-.1-.8-.3-1.1-.5-.3-.2-.56-.5-.75-.8-.2-.3-.28-.7-.28-1.2 0-.8.2-1.4.6-1.8.4-.4.9-.7 1.5-1 .58-.2 1.22-.3 1.9-.4.7 0 1.33-.1 1.9-.1h.6v-.3c0-.6-.2-1.2-.6-1.5-.42-.3-1-.5-1.72-.5-.5 0-1 .1-1.5.3-.48.2-.9.4-1.28.8l-.98-1zm4.52 3.66c-1 0-1.8.14-2.38.42-.6.28-.88.74-.88 1.38 0 .6.2 1 .6 1.25.38.25.87.37 1.46.37.45 0 .85-.08 1.2-.23.33-.2.6-.4.84-.7.23-.3.4-.6.52-.9.12-.4.2-.7.2-1.1v-.6h-1.56zm12.64-2.52c-.33-.4-.7-.7-1.08-.87-.4-.1-.8-.2-1.28-.2-.52 0-.98.1-1.38.3-.4.2-.73.5-1 .8-.25.3-.45.7-.58 1.1-.13.5-.2.9-.2 1.4 0 .5.08 1 .23 1.4.1.4.3.8.6 1.1.2.4.6.6 1 .8.4.2.8.3 1.3.3 1 0 1.8-.4 2.3-1.1l1.1 1.1c-.5.6-1 .9-1.6 1.2-.6.3-1.3.4-2 .4s-1.4-.1-2-.3c-.6-.22-1.1-.6-1.6-1-.4-.44-.8-1-1-1.6-.3-.6-.4-1.24-.4-2 0-.7.1-1.32.3-1.92.2-.6.5-1.12 1-1.56.4-.4.9-.75 1.5-1 .6-.27 1.2-.4 2-.4.7 0 1.3.13 1.9.37.6.26 1.1.6 1.6 1.14l-1.3 1.1zm11.34 5.32c-.56.72-1.17 1.22-1.84 1.5-.67.3-1.44.44-2.32.44-.73 0-1.4-.13-1.98-.4-.6-.25-1.08-.6-1.5-1.04-.4-.44-.7-.96-.93-1.56-.22-.6-.33-1.24-.33-1.92 0-.72.12-1.38.36-2 .24-.6.57-1.12 1-1.55.43-.43.93-.77 1.52-1 .6-.25 1.23-.37 1.92-.37.65 0 1.25.1 1.8.33.55.22 1.02.54 1.4.96.4.4.7.9.92 1.5.2.6.32 1.3.32 2v.5h-7.56c.03.4.12.7.3 1.1.16.3.37.7.64.9.27.3.58.5.94.6.36.1.75.2 1.18.2.68 0 1.25-.1 1.72-.4s.9-.6 1.26-1.1l1.18.9zm-1.34-3.82c-.03-.8-.3-1.44-.78-1.92-.5-.48-1.17-.72-2.04-.72-.87 0-1.57.24-2.1.72s-.85 1.12-.96 1.92h5.88zm4.1-9.6h1.56v7.06h.04c.1-.2.25-.37.44-.55.2-.2.4-.4.67-.5.2-.2.5-.3.8-.4.3-.1.6-.2 1-.2.6 0 1.1.1 1.6.2.4.2.8.4 1.1.8.3.3.5.7.6 1.2.1.5.2 1 .2 1.5v5.8h-1.6v-5.7c0-.8-.2-1.4-.5-1.9-.4-.5-.9-.7-1.6-.7-.5 0-1 .1-1.3.2s-.7.4-.9.7c-.3.3-.4.7-.6 1.1-.1.4-.2.9-.2 1.42v4.6H158v-15.1zm10.58 10.44c0-.73.13-1.4.38-2 .25-.6.6-1.12 1.04-1.55.44-.43.97-.77 1.58-1 .6-.25 1.28-.37 2-.37s1.4.12 2 .36c.6.24 1.14.58 1.58 1 .44.44.8.96 1.04 1.56.25.6.38 1.27.38 2s-.13 1.4-.38 2c-.25.6-.6 1.12-1.04 1.55-.44.43-.97.77-1.58 1-.6.25-1.28.37-2 .37s-1.4-.12-2-.36c-.6-.24-1.14-.58-1.58-1-.44-.44-.8-.96-1.04-1.56-.25-.6-.38-1.27-.38-2zm1.68 0c0 .5.08.95.23 1.37.15.4.38.7.67 1.1.3.3.64.5 1.05.7.4.2.8.2 1.3.2s.9-.1 1.3-.3c.4-.2.7-.5 1-.8.3-.3.5-.7.6-1.1.1-.5.2-.9.2-1.4 0-.5-.1-1-.3-1.4-.2-.4-.4-.8-.7-1.1-.3-.3-.7-.6-1.1-.8-.4-.2-.9-.3-1.4-.3-.5 0-1 .1-1.4.2-.4.2-.8.4-1.1.7-.3.3-.5.6-.7 1.1-.18.4-.26.8-.26 1.3zm10.88-10.44h1.56V173h-1.56v-15.12zm12.44 13.46h-.04c-.3.53-.76.98-1.4 1.35-.62.3-1.36.5-2.2.5-.65 0-1.27-.1-1.84-.4-.57-.3-1.07-.6-1.5-1.1-.4-.5-.74-1-.98-1.6-.24-.6-.36-1.3-.36-2s.12-1.4.36-2c.24-.6.57-1.1 1-1.6.43-.5.94-.8 1.55-1.1.6-.3 1.28-.4 2-.4.7 0 1.3.1 1.88.4.57.3 1.06.6 1.5 1.2h.03v-7.2h1.56V173h-1.56v-1.66zm0-3.02c0-.5-.08-.95-.23-1.37-.15-.42-.38-.8-.67-1.1-.3-.3-.64-.56-1.05-.74-.4-.1-.8-.2-1.3-.2s-.9.1-1.3.3c-.4.2-.7.5-1 .8-.3.3-.5.7-.6 1.1-.1.4-.2.9-.2 1.4 0 .5.1 1 .3 1.4.2.4.4.8.7 1.1.3.3.7.6 1.1.8.4.2.9.3 1.4.3.5 0 1-.1 1.4-.2.4-.2.8-.4 1.1-.7.3-.3.5-.7.7-1.1.18-.4.26-.9.26-1.4zm12.8 2.98c-.56.72-1.17 1.22-1.84 1.5-.67.3-1.44.44-2.32.44-.73 0-1.4-.13-1.98-.4-.6-.25-1.08-.6-1.5-1.04-.4-.44-.7-.96-.93-1.56-.3-.6-.4-1.24-.4-1.92 0-.72.1-1.38.3-2 .2-.6.5-1.12 1-1.55.4-.43.9-.77 1.5-1 .6-.25 1.2-.37 1.9-.37.6 0 1.2.1 1.8.33.5.22 1 .54 1.4.96.4.4.7.9.9 1.5.2.6.3 1.3.3 2v.5h-7.6c0 .4.1.7.3 1.1.1.3.4.7.6.9.2.3.6.5.9.6.3.1.7.2 1.2.2.6 0 1.2-.1 1.7-.4s.9-.6 1.2-1.1l1.2.9zm-1.34-3.82c-.03-.8-.3-1.44-.78-1.92-.5-.48-1.17-.72-2.04-.72-.87 0-1.57.24-2.1.72s-.85 1.12-.96 1.92h5.88zm4.1-1.62c0-.43 0-.83-.04-1.2-.03-.37-.04-.7-.04-1.02h1.48c0 .25 0 .5.02.76l.02.78h.04c.1-.23.26-.45.45-.66.2-.2.42-.4.7-.57.26-.17.56-.3.9-.4.32-.1.68-.15 1.07-.15.1 0 .2 0 .32.02.1 0 .2.04.32.08l-.1 1.58c-.27-.08-.55-.12-.84-.12-.96 0-1.66.3-2.1.93-.42.6-.64 1.4-.64 2.5v4.6h-1.56v-7.2z" fill="#FFF"/>
  </g>
</svg>
