<svg width="264" height="178" viewBox="0 0 264 178" xmlns="http://www.w3.org/2000/svg" xmlns:xlink="http://www.w3.org/1999/xlink">
  <defs>
    <path id="a" d="M263.82 0v172.94H0V0h263.82z"/>
    <path id="c" d="M8.03 4.67H.17V.17h7.86v4.5z"/>
  </defs>
  <g fill="none" fill-rule="evenodd">
    <path fill="#FFF" d="M205.04 49.55L74 50.1l1.08-17.76 128.18-.77"/>
    <path stroke="#FFF" stroke-width="1.01" d="M205.04 49.55L74 50.1l1.08-17.76 128.18-.77z"/>
    <g fill="#FFF">
      <path d="M210.83 35.9c.9-.43 2.02-.3 2.8.3 1.13.86 1.38 2.42 1.48 3.83.1.54.1 1.13-.3 1.54-.3.46-1 .54-1.6.6-.9.06-1.9.14-2.8-.07-.9-.2-1.8-.73-2.2-1.57-.5-1-.2-2.26.6-3.1.8-.84 1.8-1.3 2.9-1.52"/>
      <path d="M210.92 36.24c1.82-.74 3.22.5 3.63 2.24.15.64.32 1.5.2 2.16-.2 1.24-1.4 1.17-2.36 1.22-1.6.08-4-.22-4.2-2.28-.1-1.95 1.8-2.98 3.4-3.33.4-.1.2-.77-.2-.68-2.1.45-4.4 2-3.9 4.43.5 2.53 3.5 2.7 5.5 2.5.8-.07 1.6-.22 2-1.02.4-.9.1-2.25-.1-3.2-.5-2.08-2.3-3.6-4.5-2.7-.4.16-.3.83.2.66m12.9-.04c-1.1-.98-3-.8-4 .3s-1 2.9-.1 4.1c.8 1.2 2.4 1.8 3.8 1.64 1.7-.18 3.4-1.67 3.2-3.4-.2-1.7-2.1-2.76-3.8-2.84"/>
      <path d="M224.06 35.96c-1.64-1.33-4.18-.77-5 1.23-.96 2.3.62 4.7 2.92 5.2 2.1.5 4.82-.6 5.17-3 .34-2.4-2.1-3.7-4.1-3.9-.46-.1-.46.6 0 .7 1.5.1 3.47 1 3.43 2.8-.04 1.9-2.2 2.9-3.85 2.7-1.8-.2-3.28-1.7-3.14-3.5.1-2 2.4-3.2 4-1.9.3.3.8-.2.5-.5m10.2.5c-1.4-.1-2.9.5-3.7 1.6-.8 1.1-.8 2.9.4 3.8.7.5 1.7.6 2.7.6 1.2 0 2.6-.1 3.2-1.1.3-.5.3-1.2.3-1.7 0-1.1-.2-2.4-1.2-2.8-.6-.2-1.2 0-1.8-.3"/>
      <path d="M234.25 36.13c-2.02 0-4.3 1.03-4.57 3.27-.28 2.23 1.43 3.32 3.44 3.4 1.9.1 4.1-.15 4.33-2.44.1-.92.05-2.1-.42-2.93-.64-1.14-1.7-.8-2.75-1.13-.43-.15-.6.53-.18.67.8.26 1.84-.02 2.33.8.32.54.34 1.27.34 1.87 0 1.1-.28 2-1.4 2.33-.6.17-1.27.16-1.9.15-1.78-.04-3.6-.86-3.03-2.98.44-1.67 2.26-2.3 3.8-2.3.46 0 .47-.7 0-.7m3.06 11.1c-1.1-.4-2.25-.8-3.42-.7-1.17.07-2.38.7-2.85 1.75-.42.9-.2 2 .38 2.9.6.8 1.5 1.3 2.5 1.7 1.2.4 2.6.4 3.7-.3 1-.7 1.5-2 1.3-3.2-.2-1.2-.9-2.3-2-2.9"/>
      <path d="M237.4 46.9c-2.08-.77-5.14-1.37-6.53.94-1.25 2.08.43 4.35 2.35 5.2 1.93.83 4.5.73 5.58-1.34 1.07-2.05 0-4.27-1.8-5.46-.37-.25-.72.35-.34.6 1.5 1 2.46 2.94 1.46 4.65-1 1.7-3.3 1.5-4.86.7-1.58-.8-3-3-1.45-4.5 1.5-1.5 3.8-.8 5.4-.2.5.1.7-.6.2-.7m-9.9 1.1c-1-.8-2-1.6-3.2-2-1.2-.4-2.7-.2-3.5.7-.9 1-.9 2.6-.2 3.7s2.1 1.8 3.4 1.9c1.3.1 2.6-.2 3.5-1.1 1-.9 1.4-2.3.8-3.4"/>
      <path d="M227.72 47.73c-1.72-1.4-3.9-2.94-6.22-2-1.9.76-2.44 3.07-1.46 4.77 2.2 3.87 10.27 2.22 8.4-2.7-.17-.43-.84-.25-.68.17 1.6 4.18-5.3 5.38-7.12 2.18-.97-1.7-.03-3.8 1.97-4 1.8-.17 3.4 1 4.7 2.08.4.28.9-.2.5-.5m-11.7.97c-1.3-1.6-3.4-2.44-5.4-2.2-1.2.16-2.5.86-2.7 2.07-.1.45 0 .92.2 1.35.7 1.95 3 3.26 5 2.8 2-.46 3.5-2.8 2.8-4.77"/>
      <path d="M216.3 48.44c-1.57-1.8-4.2-2.84-6.53-2.1-2.2.7-2.77 2.75-1.5 4.63 1.15 1.73 3.53 2.72 5.52 1.9 1.9-.8 3-3 2.4-5.02-.1-.43-.8-.25-.7.2.4 1.67-.5 3.47-2.1 4.15-1.7.7-3.7-.13-4.7-1.6-.6-.82-1-1.97-.2-2.82.5-.64 1.4-.9 2.3-.95 1.8-.12 3.6.72 4.8 2.1.3.34.8-.15.5-.5m-1.4 8.74c-1.4-1.58-4.2-1.5-5.5.12-1.3 1.6-.9 4.2.8 5.4 1.7 1.2 4.3.7 5.5-1 1.2-1.7.5-3.2-1-4.6"/>
      <path d="M215.2 56.92c-1.42-1.5-3.94-1.66-5.53-.3-1.63 1.42-1.62 4.06-.3 5.68 1.44 1.77 4.15 1.86 5.93.54 2.3-1.7 1.65-4.12-.1-5.92-.32-.32-.82.17-.5.5.72.73 1.53 1.64 1.46 2.75-.06.97-.8 1.84-1.6 2.33-1.53.9-3.67.7-4.76-.78-.98-1.35-.97-3.43.34-4.56 1.32-1.14 3.38-1 4.56.26.3.33.8-.17.5-.5m10.4-.84c-1.36-.22-2.9-.4-4.02.4-1.12.83-1.4 2.38-1.4 3.77 0 .72.07 1.5.5 2.1.67.92 1.95 1.12 3.1 1.23.9.1 1.85.17 2.6-.3.5-.3.85-.8 1.12-1.33.65-1.27.96-2.8.48-4.15-.48-1.35-1.87-2.42-3.3-2.22"/>
      <path d="M225.7 55.75c-2.52-.4-5.07-.13-5.7 2.78-.26 1.13-.35 2.6.2 3.67.52 1.04 1.6 1.44 2.7 1.62 1.16.2 2.6.42 3.66-.24 1.1-.67 1.7-2.18 1.9-3.4.44-2.4-1.05-5.15-3.77-4.95-.5.03-.5.73 0 .7 2.4-.18 3.5 2.38 3 4.46-.3 1.1-.9 2.5-2.1 2.8-.9.2-2 0-2.9-.2-1.1-.3-1.9-.7-2.2-1.9-.2-.9-.1-1.9.1-2.7.6-2.4 2.7-2.5 4.8-2.2.4 0 .6-.6.2-.7m13.3 1.8c-.1-.3-.4-.5-.7-.6-3-.8-5 0-4.6.8.4.9.3 1.1 0 2.1-.2.8-.1 1.8.4 2.4.6.7 1.7.8 2.7.8.7 0 1.5-.1 2.1-.4.8-.5 1.3-1.5 1.3-2.5s-.5-1.9-1.1-2.7c-.8-1-2.2-1.7-3.3-1.2"/>
      <path d="M239.3 57.36c-.65-1.1-2.46-1.1-3.62-1-.7.03-1.87.16-2.2.9-.17.37 0 .57.1.93.2.7-.08 1.3-.17 2-.1 1.1.3 2.3 1.4 2.9 2.2 1.1 5.7.4 6-2.4.3-2.5-2.1-5.5-4.7-4.6-.4.1-.2.8.2.6 2.2-.8 4.3 2 3.9 4-.4 2-3.9 2.7-5.3 1.3-1.2-1.3.1-2.7-.3-4.1-.2-.8.2-.9.9-1.1.9-.2 3-.3 3.6.6.3.4.9 0 .6-.4m-10.8 10.8c-1.1-.7-2.3-1.2-3.6-1.5-1.1-.3-2.4-.3-3.3.4-.9.8-1 2.4-.4 3.5.7 1.1 1.9 1.7 3.1 2 1.5.3 3.1.1 4.1-.9 1.1-1 1.4-2.8.4-3.9"/>
      <path d="M229.04 67.55c-1.84-1.1-4.96-2.5-7.03-1.22-1.8 1.14-1.5 3.7-.1 5.05 1.6 1.52 4.5 1.98 6.4.86 1.7-1 2.3-3.28 1-4.83-.3-.3-.8.2-.5.5 1.4 1.7-.1 3.8-1.9 4.2-1.6.4-3.6-.1-4.7-1.4-1.4-1.6-.5-4 1.7-4.1 1.7 0 3.5.8 4.9 1.6.4.2.8-.4.4-.6m9.2.1c-1-.8-2.6-.3-3.6.7-1.2 1.4-1.4 3.9.2 4.9.6.4 1.4.5 2.2.6.8.1 1.7.1 2.4-.2 1.6-.6 2.5-2.5 2.1-4.1-.5-1.6-2.3-2.7-3.9-2.3"/>
      <path d="M238.37 67.33c-1.95-1.25-4.34.38-4.94 2.36-.7 2.3.68 4.1 3.05 4.3 2.52.2 5.25-.8 5.28-3.8.03-2.4-2.3-4-4.52-3.6-.44.1-.26.7.2.7 1.9-.4 3.8 1.1 3.6 3.1-.23 2.2-2.22 2.9-4.2 2.8-1.9-.2-3.27-1.2-2.8-3.3.37-1.7 2.3-3.3 3.97-2.2.4.2.8-.4.4-.6m-20.9 1.3c-1.1-.7-2.3-1.4-3.6-1.6-1.3-.2-2.8.4-3.4 1.6-.5 1-.2 2.4.7 3.3.9.8 2.1 1.2 3.3 1.3.7 0 1.3-.1 1.9-.4 1.2-.6 2-2 1.7-3.3-.3-1.3-1.6-2.3-2.9-2.1"/>
      <path d="M217.7 68.34c-2-1.28-4.9-2.65-6.96-.7-1.74 1.6-.72 4.3 1.16 5.3 2.06 1.07 5.15.83 6.1-1.56.88-2.14-.84-4.37-3.1-4.2-.46.04-.46.74 0 .7 2.3-.18 3.5 2.54 1.85 4.17-1.33 1.3-4.02.93-5.3-.28-1.46-1.4-1.06-3.73.97-4.28 1.78-.5 3.47.5 4.92 1.4.38.2.73-.4.35-.6"/>
    </g>
    <g transform="translate(0 .687)">
      <mask id="b" fill="#fff">
        <use xlink:href="#a"/>
      </mask>
      <path d="M18.86 3.28c-5 19-5.53 38.72-7.23 58.2-1.76 20.14-5.6 40-8.6 59.97-1.42 9.42-3 19-3.03 28.55-.02 4.32.37 8.68 1.55 12.85.55 1.95 1.23 4.02 2.25 5.78.64 1.14 2.16 2.4 3.54 2.02.2-.06.33-.18.5-.2.45-.03 1.16.17 1.64.22 1.37.13 2.73.24 4.1.35 2.48.2 4.97.34 7.46.45 5.06.24 10.12.34 15.2.38 10.27.06 20.55-.1 30.83-.13 20.55-.07 41.1.04 61.66.2 20.57.15 41.15.33 61.73.5l61.38.52c1.24 0 2.5.02 3.75-.13 1.3-.1 2.5-1.3 3.5-2.3 2.5-2.6 3.9-6.2 4.4-9.7.7-4.7-.2-9.4-1-14.1-.9-4.9-1.6-9.9-2-15-1-9.8-1.4-19.6-2.4-29.5-.5-4.8-1.1-9.6-1.9-14.3-.9-4.9-2.1-9.8-3.3-14.7-1.2-4.9-2.3-9.9-2.9-14.9s-.8-10-1.2-15c-.8-9.8-2.5-19.4-5-29-1.1-4.3-2.3-8.7-3.7-12.9-.1-.3-.4-.6-.8-.6C211 .3 182.5.1 154 .2c-28.46.07-56.96.4-85.45 1-15.96.3-31.96.7-47.93 1.2-1.04.04-1.04 1.67 0 1.64 28.53-.9 57-1.54 85.5-1.9 28.5-.36 57-.46 85.48-.3 16 .1 32 .26 48 .5l-.8-.6c3 8.8 5.3 18.04 6.9 27.2 1.77 9.8 1.8 19.8 2.96 29.6 1.15 9.7 4.2 18.9 5.9 28.4 1.77 9.56 2.48 19.2 3.16 28.9.67 9.57 1.32 19.15 2.86 28.63 1.33 8.24 3.96 18.9-3.03 25.46-.46.46-1.34 1.3-1.76 1.46-.4.1-1.1 0-1.5.1-1.8.1-3.5 0-5.3 0l-14.8-.1-30.2-.3-60.4-.5c-20.1-.2-40.3-.4-60.4-.4-10.1 0-20.2 0-30.3.1-10 0-20 .1-29.9-.3-5-.2-10-.5-14.9-1-.5 0-.8-.1-1.2 0-.2 0-.6.2-.4.2-.7-.1-1.6-1.4-1.9-2.2-1-2-1.7-4.2-2.2-6.3-2-8.7-.9-17.9.2-26.6 2.5-19.9 6.4-39.3 8.9-59 2.4-19.3 2.5-38.8 5.7-58 .8-4.6 1.7-9.1 2.9-13.6.2-1-1.3-1.5-1.6-.5" fill="#FFF" mask="url(#b)"/>
    </g>
    <path d="M27.26 9.2l19.3.12 4.65.04c1.5 0 3.2-.2 4.6.2 2.7.7 3.3 4.84 3.6 7.1.9 5.9-.2 12-.9 17.85-.7 6.3-1.4 12.6-2 18.9-1.2 12.8-2.2 25.5-2.3 38.3 0 6.3.2 12.6 0 18.9-.2 6.2-.9 12.4-2.2 18.4-.3 1.8-.8 3.5-1.2 5.2-.2.7-.3 1.5-.6 2.2-.4.9-1.2.7-2 .7-3.5.1-7.1 0-10.6 0-7.3-.1-14.5-.4-21.7-.8l.8.8c0-2.4-.3-4.9-.9-7.3-.3-1-1.8-.6-1.6.4.6 2.3.8 4.6.9 6.9 0 .5.4.8.8.8 6.8.4 13.5.7 20.3.8 3.4.1 6.8.1 10.2.1 1.3 0 2.7.2 3.9-.1 1.1-.3 1.5-1.3 1.8-2.4 1.8-6.1 3-12.4 3.6-18.7.7-6.7.6-13.4.5-20.1-.1-13.4.7-26.8 2-40.1l2.1-19.8c.7-6.3 2-12.8 1.4-19.1-.2-2.8-.8-6.2-2.5-8.4-2-2.6-5.7-1.9-8.5-1.9l-23-.3c-1 0-1 1.7 0 1.7" fill="#FFF"/>
    <path d="M26.5 8.66c-2.56 7.24-1.94 15-3.22 22.48-1.33 7.8-4.1 15.25-5.26 23.1-1.17 7.8-1.5 15.7-1.9 23.6-.43 8.14-1.3 16.23-2.06 24.34-.86 9.03-1.34 18.12-.05 27.13.2 1.1 1.8.6 1.6-.4-2.3-16 1.1-32.1 2-48.1.5-7.9.7-15.8 1.7-23.6.5-3.9 1.2-7.8 2.2-11.6 1-3.7 2.1-7.5 2.9-11.3 1.8-8.2.9-17 3.7-25 .4-1-1.2-1.4-1.5-.4m30.7 1.4c-5.2 15.5-3.7 32.1-4.3 48.3-.6 17.3-3.5 34.4-5 51.6-.4 4.8-.8 9.6-.9 14.4 0 4.5.3 9 1.8 13.2.2.4.9.3.7-.2-2.7-7.8-1.7-16.5-1.1-24.6.7-8.5 1.8-16.9 2.8-25.4 1-8.5 2-17 2.4-25.5.5-8.2.3-16.4.5-24.6.3-9.2 1.1-18.4 3.9-27.2.2-.5-.5-.6-.6-.2" fill="#FFF"/>
    <path d="M47.36 131.48c-2.6-.35-5.2-.1-7.82-.15-2.8-.04-5.6-.26-8.4-.52-5.5-.5-11-1.1-16.54-.7-.45 0-.46.8 0 .7 5.38-.3 10.74.3 16.1.8 2.63.3 5.28.5 7.93.6 2.84.1 5.72-.2 8.54.2.44.1.63-.6.2-.7M236.07 2c.45 5.05 1.08 10.1 1.9 15.1.4 2.46.86 4.94 1.36 7.4.2.98.32 4.18 2.04 3.75.44-.1.25-.8-.18-.68-.9.2-1.7-5.46-1.8-6.18-.4-2.1-.8-4.2-1.1-6.4-.7-4.4-1.2-8.7-1.6-13.1-.1-.5-.8-.5-.7 0" fill="#FFF"/>
    <path d="M69.57 82.87c23.4.92 46.82 1.85 70.25 2.34 23.27.5 46.54.5 69.82 0 13.2-.3 26.37-.7 39.56-1.1.17 0 .37-.1.35-.3l-2.3-18.8-3.65-30-.84-6.8c-.03-.2-.14-.3-.35-.3-22.1-.6-44.2-.9-66.3-1.1-22.1-.1-44.2-.1-66.3.2-12.4.2-24.8.4-37.2.7-.4 0-.4.7 0 .7 22.1-.5 44.3-.8 66.4-.8 22.2-.1 44.3 0 66.4.4 12.5.2 24.9.4 37.3.8l-.3-.4 2.3 18.8 3.6 30 .9 6.9.4-.3c-23.4.8-46.8 1.5-70.3 1.6-23.3.1-46.5-.4-69.8-1.2-13.2-.4-26.4-.9-39.5-1.5-.4 0-.4.7 0 .7" fill="#FFF"/>
    <path d="M245.56 80.64c-22.87.48-45.75.76-68.63.83-22.83.07-45.67-.07-68.5-.4-6.36-.1-12.72-.22-19.08-.34-5.67-.12-11.4-.53-17.08-.3-.14 0-.3.1-.33.26.1-.6 0-1.3.05-1.9l.1-1.6.2-3.5.5-6.5 1-13.1c.3-4.3.5-8.5.7-12.7.1-2.1.1-4.1.3-6.1.1-1.9.3-3.7.3-5.6l-.4.3c21.5-.3 43.1-.4 64.6-.4 21.4 0 42.8.1 64.2.4 12.2.1 24.4.3 36.6.5l-.4-.4c.2 1.9.6 3.7 1 5.6.4 2.1.5 4.2.7 6.3.3 4.4.7 8.9 1.1 13.3l1.2 13.3.7 6.4c.2 1.8.6 3.7.5 5.5-.1.4.7.4.7 0 .1-1.8-.4-3.8-.6-5.6l-.7-6.5c-.5-4.4-.9-8.9-1.3-13.3s-.8-8.8-1.1-13.3c-.2-1.9-.3-3.8-.6-5.7-.4-2.1-.9-4.2-1.1-6.3 0-.2-.1-.4-.4-.4-21.5-.4-43-.7-64.6-.9-21.4-.2-42.8-.2-64.2-.1-12.2 0-24.4.2-36.6.3-.2 0-.3.2-.3.4 0 3.4-.4 6.8-.6 10.1-.2 3.8-.3 7.6-.6 11.5l-1.8 23.4L71 78c-.04.7-.3 1.6-.06 2.26.2.58 1.2 1.2 1.33.3l-.36.28c4.9-.2 9.9.15 14.8.25l17.2.3c11.4.2 22.8.3 34.2.4 22.9.2 45.7.1 68.5-.1l38.7-.6c.5-.1.5-.8 0-.8M69.7 89.2h5.06l-.37-.34c-1.1 8.36-.4 16.8-.3 25.2.1 8.44-.8 16.86-1.5 25.3l-1.3 14.4.3-.38h-5c-.5 0-.5.7 0 .7h5c.2 0 .3-.17.3-.36.7-8.44 1.5-16.87 2.2-25.3.3-4.2.6-8.37.6-12.57 0-4.24-.2-8.5-.3-12.73-.1-4.76-.1-9.53.5-14.26 0-.2-.2-.33-.4-.34h-5.1c-.5 0-.5.7 0 .7m8.1 19.53c4.3 0 8.6.03 12.9.1l-.3-.35c-.3 4.53 0 9.04.7 13.52l.3-.45-6.7.2c-2.2.07-4.4.27-6.4-.3.1.1.1.2.2.32l.4-13.1c0-.5-.7-.5-.7 0l-.4 13.1c0 .1.1.3.2.3 2 .5 4 .4 6.1.3l7.2-.2c.2 0 .4-.2.3-.5-.7-4.4-1-8.9-.7-13.4 0-.2-.2-.4-.4-.4-4.3-.1-8.6-.1-12.9-.1-.5 0-.5.7 0 .7m156.5-3.2c1.7 3.7 1.3 7.9 1.4 11.9 0 1.7.1 3.5.5 5.2.3 1.1 1 2.1 2.3 2 3.6-.2 1.8-6.3 1.4-8.2-.4-2.3-.8-4.5-.9-6.8-.1-1.2 0-2.3.2-3.5.1-.6.2-1.2-.2-1.7-.7-.9-2.6-1-3.5-.6-1.6.5-1.3 1.9-.6 3 .2.4.8 0 .6-.4-.4-.6-.9-1.4 0-2 .4-.2.8-.2 1.2-.2.3 0 .9 0 1.2.2.4.3.6 1.4.5 1.9-.2 1.8-.2 3.6 0 5.3.2 1.8.5 3.6.9 5.4.3 1.7 1.4 4.9 0 6.2-2.3 2.2-2.8-2.8-2.9-4.1-.2-1.7-.1-3.4-.1-5.1 0-3.2-.2-6.4-1.5-9.3-.2-.4-.8 0-.6.4" fill="#FFF"/>
    <path d="M234.35 105.56c-1.05 2.7-.68 5.5-.5 8.32.2 2.88.18 5.85.6 8.7.27 1.8 1.3 3.88 3.35 4 1.76.13 2.95-1.57 2.7-3.2-.06-.44-.74-.25-.67.2.2 1.28-.9 2.54-2.25 2.28-1.12-.22-1.87-1.3-2.2-2.3-.58-1.8-.46-3.94-.58-5.82l-.38-5.9c-.13-2.1-.18-4.1.6-6.1.17-.4-.5-.6-.67-.18" fill="#FFF"/>
    <path d="M233.78 109.65c-17.06-.1-34.16-.52-51.2.72-1.03.08-1.04 1.7 0 1.64 17.04-1.2 34.14-.8 51.2-.7 1.05 0 1.05-1.6 0-1.6" fill="#FFF"/>
    <path d="M182.12 110.94c.5 3.15 1 6.3 1.52 9.43.03.16.2.25.34.26 16.98.7 34 .75 50.98.12.45 0 .45-.72 0-.7-17 .63-34 .6-50.98-.12l.34.26c-.5-3.2-1.02-6.3-1.53-9.5-.1-.5-.8-.3-.7.2M73.7 12c.12-.1.24-.22.35-.34.1-.15.1-.38 0-.5-.16-.15-.4-.15-.5 0l-.37.34c-.12.13-.12.36 0 .5.14.13.37.13.5 0" fill="#FFF"/>
    <path d="M73.53 11.72l65.06.76c21.5.24 43.1.5 64.6.73l18 .3c2.9.1 5.8.1 8.7 0 2.5 0 5.1.2 7.6-.2.4 0 .2-.7-.2-.7-2.5.4-4.9.2-7.3.2-2.6 0-5.3.1-7.9 0l-15.7-.2-32.4-.3-64.7-.7-36.3-.4c-.5 0-.5.7 0 .7m0-2.1l65.1.8 64.6.7 18 .2c2.9.1 5.8.1 8.7 0 2.5 0 5.1.2 7.6-.1.5 0 .3-.7-.2-.6-2.5.4-4.9.2-7.3.2-2.6 0-5.3.1-7.9 0l-15.6-.2-32.3-.3-64.7-.7-36-.6c-.5 0-.5.7 0 .7m0-2.5l65 .8c21.5.3 43.1.5 64.6.7l18 .2c2.9.1 5.8.1 8.7.1 2.3 0 4.6.2 7-.2.4 0 .2-.7-.2-.7-2.2.4-4.4.2-6.6.2H222L206.5 8l-32.35-.36c-21.55-.2-43.1-.45-64.6-.7l-36.3-.4c-.5 0-.5.7 0 .7m0-2.37c21.7.28 43.4.53 65 .78 21.5.27 43.1.5 64.6.75l18 .2h8.7c2.22 0 4.5.1 6.7-.2.5-.1.3-.8-.2-.7-2.1.3-4.2.1-6.3.1-2.6 0-5.2.03-7.8 0l-15.6-.2-32.3-.36-64.6-.8-36-.5c-.5 0-.5.7 0 .7M97 15.2c.5 3.72.75 7.46.8 11.2 0 .08.1.08.1 0-.03-3.74-.3-7.48-.8-11.2 0-.07-.12-.07-.1 0m20.4.26l.4 6.04c.05.9.12 1.82.03 2.73-.04.5-.14 1-.3 1.45-.06.22-.26.56-.1.78.27.35.48-.34.18-.24 0 .03 0 .14.1.1 0 .14 0 .1-.1-.07l.1-.1c0-.1.1-.1.1-.2l.2-.6c.1-.3.1-.7.2-1.1.1-.9 0-1.8-.1-2.7l-.4-5.8c0-.1-.1-.1-.1 0m18-.3c-.1 3.74-.3 7.5-.4 11.2 0 .1.1.1.1 0l.4-11.2c0-.07-.1-.07-.1 0m1.7.5c.1 3.6-.2 7.15-.9 10.7 0 .04.1.1.2 0 .7-3.5 1-7.1.9-10.7 0-.1-.1-.1-.1 0m17.7 1l-.8 9.56c0 .1.1.1.1 0 .3-3.1.6-6.3.8-9.5h-.1m18.1.5c.2 3 0 6-.5 8.9 0 .1.1.1.1.1.5-2.9.7-5.9.6-8.9 0-.1-.1-.1-.1 0m1.2-.2c.2 2 .3 4.1.3 6.1v2.3c0 .3 0 .6-.2.8 0 .1-.2.3-.1.4.1.1.3 0 .3-.1h-.1s-.1.1 0 .2c-.2 0 .1-.3.1-.3.1-.1.1-.2.1-.3l.1-1.2c.1-.8.1-1.7.1-2.5 0-1.6 0-3.3-.2-5h-.1m18.5-.4c.6 3.4 1 6.8 1.3 10.2 0 .1.1.1.1 0-.3-3.4-.7-6.8-1.2-10.2 0-.1-.1-.1-.1 0m1.4.4l.6 10.1c0 .1.1.1.1 0l-.6-10.1c0-.1-.2-.1-.2 0m17.2-.9c.3 3.5 1 6.9 2 10.2 0 .1.1.1.1 0-1-3.3-1.7-6.7-2-10.2 0-.1-.1-.1-.1 0m1.1 0c1.1 3.5 1.6 7.1 1.7 10.8h.1c.3 0 .5-.1.5-.4 0-.1-.1-.1-.1 0-.2.2-.3.3-.3.1v-1.2l-.1-1.4-.3-2.6c-.3-1.8-.7-3.6-1.3-5.4 0 0-.1 0-.1.1m12.5 1.1c.5 3.2 1.1 6.4 1.6 9.6 0 .1.1 0 .1-.1l-1.6-9.6s-.1 0-.1.1m1.6.4c-.3 1.6 0 3.2.4 4.8.4 1.7 1 3.3 1.5 5 .1.1.2.1.1 0-.4-1.6-.9-3.2-1.4-4.8-.4-1.6-.7-3.3-.4-4.9.1 0-.1-.1-.1 0M94.3 113l8.3.1-.35-.3v3.6l.3-.4-5.6.1c-.12 0-.3.1-.3.3l.3 3.5c.05.7.14 1.5-.86 1.3-.9-.2-1.1-1.2-1.2-1.9-.1-1.1.2-2.2.3-3.3l.4-3.6c0-.5-.7-.5-.7 0-.3 2-.7 4-.8 6-.1 1.1 0 2.4 1.1 3 .6.3 1.9.6 2.3-.2.3-.5 0-1.5-.1-2l-.3-3.1-.3.3 5.5-.2c.2 0 .4-.2.4-.4V112c0-.2-.2-.36-.3-.36l-8.3-.1c-.5 0-.5.7 0 .7M68.6 2.6c-.86 19.15-2.12 38.26-4.22 57.3-1.08 9.82-2.04 19.6-2.47 29.47-.4 10-.5 20-.3 30.02.2 11.2.6 22.4.9 33.7 0 .2.2.3.4.3 1.2-.1 2.3.4 3.5.3.5-.1.5-.8 0-.7-1.2.1-2.3-.5-3.5-.4l.4.3c-.7-19.9-1.3-39.9-.7-59.8.7-19.5 3.5-38.7 4.9-58.1.8-10.8 1.5-21.7 1.9-32.6.1-.5-.6-.5-.7 0m-2.3.9c-3.4 26.9-6.8 53.9-7.6 81-.4 13.5.5 27.1-1.4 40.6-.9 6.3-2.1 12.8-1.6 19.2.1 1.5.4 3 .7 4.5.3 1.4.9 3.3-.2 4.5-1.2 1.3-3.6.5-5.2.4l-4.9-.3c-14.6-.4-29.3 2.2-43.9-.4-.4-.1-.6.6-.2.7 13.2 2.3 26.5.4 39.7.3 3.5-.1 7 0 10.4.3 2.2.2 5 .5 5.6-2.3.2-1.1 0-2.2-.2-3.3-.4-1.9-.7-3.7-.8-5.6-.1-3.4.1-6.9.6-10.3.8-6.8 1.9-13.5 2.2-20.3.2-6.9.1-13.8.1-20.6.1-14 1-28 2.3-42 1-15.1 3-30.7 5-46.3.1-.5-.6-.5-.7 0" fill="#FFF"/>
    <path d="M248.66 83.82l3.37 30.43c1.17 10.53 2.62 21.1 2.7 31.7.05 6.26-.47 12.5-1.56 18.67l.34-.26c-1.6 0-3.3-.02-4.9-.04l-13.4-.12c-6.6-.05-13.3-.1-20-.17l-24.3-.2c-8.9-.1-17.8-.16-26.7-.24l-26.8-.3-25.1-.2c-7-.1-14.1-.1-21.1-.2l-15.3-.1-4.7-.1c-.7 0-1.7-.2-2.5 0h-.3l.4.2c-1.6-4.7-1.8-9.6-1.7-14.5.2-5.2.5-10.3.7-15.5l1.4-31.6L72 38.1c.6-11.8 1-23.6 2.5-35.3.07-.47-.63-.46-.7 0-1.3 10.4-1.77 20.9-2.25 31.32-.5 10.6-1 21.22-1.47 31.83l-3 63.7c-.25 5.8-.56 11.62-.8 17.44-.2 5.4-.15 10.8 1.66 15.9.05.2.17.3.3.3h5l13.5.1 20 .1 24.3.2 26.7.2 26.87.2 25.2.2 21.2.2c5.1 0 10.2.1 15.3.1 2.4 0 4.8.1 7.2 0h.3c.1 0 .3-.1.3-.3 1.9-10.7 1.9-21.4.9-32.2-.9-10.5-2.2-21-3.4-31.5l-2-17.3c0-.5-.7-.5-.7 0" fill="#FFF"/>
    <path d="M.77 156.9c.74.15 1.55.1 2.3.12 1.82.05 3.65.08 5.47.1 6.44.1 12.88.17 19.32.23 9.34.08 18.67.14 28 .2l34.1.15c12.37.05 24.74.1 37.12.12 12.52.04 25.05.06 37.58.08 11.7 0 23.4.02 35.1 0 9.9 0 19.8 0 29.7-.05 7.24-.02 14.47-.05 21.7-.13 3.56-.04 7.16.02 10.72-.23.23-.1.5-.1.73-.1.5-.1.3-.8-.1-.7s-1.5.1-2.2.1c-1.8 0-3.7.1-5.5.1-6.4.1-12.9.1-19.3.1h-62c-12.3 0-24.6-.1-37-.1l-37.6-.1-34.8-.2c-9.9-.1-19.8-.1-29.7-.2l-21.7-.2c-3.6-.1-7.2-.1-10.8-.3l-.6-.1c-.4-.1-.6.6-.2.7m70.6-2.5c1.9.2 3.9.1 5.8.1h32.2l22.9-.1 24.8-.1 25.2-.1 23.5-.1 20.1-.2c5 0 9.9-.1 14.8-.1 2.6 0 5.2 0 7.8-.1h.6c.5 0 .5-.8 0-.7-1.9.1-3.8 0-5.7.1-4.4 0-8.9.1-13.3.1-6.3 0-12.6.1-18.9.1l-22.9.1c-8.2 0-16.5.1-24.8.1l-25.1.1h-44c-4.9 0-9.8 0-14.8-.1-2.5 0-5.1 0-7.7-.1h-.6c-.4-.1-.4.6 0 .7" fill="#FFF"/>
    <path d="M249.43 88.4c-2.22-.28-4.44-.35-6.67-.18-.2 0-.35.15-.36.35 0 2.32.43 4.65.7 6.95l1.65 14.38 3.55 30.97.52 4.5c.34 2.88-.03 5.8.04 8.7 0 .2.16.32.35.34 1.9.2 3.8.3 5.7.4 2.5.1 5.3.4 7.7-.4.4-.1.3-.8-.2-.6-2.4.8-5.3.5-7.7.4l-5.3-.3.4.4c0-2.7.4-5.6 0-8.3l-.4-3.5-1.5-13.3-3.6-31.8c-.3-2.8-.8-5.6-.8-8.4l-.4.4c2.2-.1 4.5-.1 6.7.2.5.1.5-.6 0-.7" fill="#FFF"/>
    <path d="M72.82 144.28c23.14-.84 46.25 1.3 69.4 1.14 11.45-.08 22.84-1 34.25-1.97 11.38-.95 22.73-1.65 34.15-1.37 12.62.3 25.26 1.18 37.85-.27.08 0 .08-.1 0-.1-11.23 1.3-22.5.8-33.78.4-5.7-.2-11.3-.3-16.9-.1-5.8.2-11.5.6-17.3 1-11.4.9-22.8 2.1-34.2 2.3-11.6.3-23.1-.2-34.6-.6-13-.5-26.1-.9-39.1-.5-.1 0-.1.1 0 .1m-72.2.6c9.4.7 18.8 1.1 28.3 1.2 9.4.1 18.8-.1 28.2-.5 5.2-.2 10.6-.5 15.8.1.1 0 .1-.1 0-.1-4.7-.5-9.5-.3-14.2-.1-4.7.2-9.4.5-14.1.6-9.4.2-18.8.2-28.2-.2-5.3-.2-10.7-.5-16-.9-.1 0-.1.1 0 .1m56.3-132c1.1 2.5 2.2 5.1 3.8 7.3 0 .1.1 0 .1 0-1.6-2.2-2.8-4.7-3.9-7.2-.1-.1-.2 0-.1.1m-.7 2.3l4 7.2c0 .1.1 0 .1 0L56 15.6c-.1 0-.2 0-.1.1m-.6 2.2c.3 1.6 1.4 2.9 2.2 4.2.4.7.8 1.4 1.1 2.2.2.7.4 1.5 1 2 .03 0 .1 0 .05-.1-.6-.5-.75-1.4-1-2.1-.27-.7-.65-1.4-1.07-2-.88-1.3-1.9-2.6-2.27-4.1 0-.1-.1-.1-.1 0m-.2 2.6c.3.25.4.55.6.84l.6.9 1.2 1.9 2.4 3.8c0 .07.1 0 .1-.1l-2.4-3.9-1.1-2c-.3-.53-.6-1.2-1.1-1.7 0 0-.1.07-.1.1m-.9 1.9c.7.25 1 .9 1.4 1.47l1.2 2.3 2.4 4.6h.1l-.2-.3s-.1 0-.1.1l.2.3c0 .1.1 0 .1 0-.9-1.6-1.8-3.2-2.6-4.8-.4-.8-.8-1.5-1.3-2.3-.3-.5-.7-1-1.3-1.2 0 0-.1.1 0 .1m-.1 3.1c.9 1.4 1.8 2.8 2.5 4.3.4.7.7 1.5 1 2.2.2.6.6 1.3 1.1 1.7.1.1.1 0 .1-.1-.6-.4-.9-1.1-1.2-1.8l-.9-2.1c-.7-1.5-1.5-2.9-2.4-4.2-.1-.1-.2 0-.1 0m-.8 3.5c1.7 2.6 3.4 5.4 5.5 7.7.1.1.1 0 .1-.1-2.1-2.3-3.8-5-5.5-7.6 0 0-.1 0-.1.1m.2 3.5c1.6 2.2 3.3 4.4 5 6.5 0 .1.1 0 .1-.1-1.7-2.1-3.4-4.2-5-6.4-.1-.1-.2 0-.1 0M47.8 129c.33.94 1.1 1.6 1.8 2.25.77.68 1.6 1.4 1.76 2.46 0 .1.13.1.1 0-.33-2.1-2.88-2.7-3.55-4.7 0 0-.1 0-.1.1m-.1 2.4l3.5 2.9c.1.1.2 0 .1-.1l-3.4-2.8-.1.1m.6 2.3c.9.1 1.6.5 2.2 1.2.1.1.2 0 .1-.1-.6-.6-1.3-1-2.2-1.1 0 0-.1.1 0 .1m-.9-6.6l4.4 4.1c.1.1.2 0 .1-.1l-4.4-4.1c-.1 0-.1.1-.1.1m-.3-2.1c1.6 1.4 3.3 2.7 5 3.9.1.1.1 0 .1-.1-1.7-1.2-3.3-2.5-4.9-3.9l-.1.1m-.1-1.7l2.7 1.8 1.3.9.7.5c.1.1.3.2.4.2l.2.1c.1 0 .2.1.2.2-.1-.1-.2 0-.1.1.1.2.3 0 .2-.2-.1-.1-.2-.2-.3-.2l-.5-.3-.9-.6-3.7-2.5s-.1.1 0 .1m.5-2c2.3 1.5 4.5 3 6.9 4.3l.1-.1c-.2 0-.3 0-.5-.1 0 0-.1.1 0 .1.2.1.4.2.6.2.1 0 .1-.1.1-.1-2.4-1.3-4.6-2.7-6.8-4.3-.1 0-.2.1-.1.1m.7-2.5c1.3 1.1 2.6 2 4 2.9l1 .7.5.3c.1.1.2.2.4.2.4.1.1-.4 0-.2-.1.1 0 .2.1.1-.1.2-2.8-1.6-3.1-1.7-1-.7-1.9-1.4-2.8-2.2-.1 0-.2.1-.1.1m-1-2.5c1.8 1.5 3.7 3 5.7 4.3.1 0 .1-.1.1-.1-1.9-1.3-3.8-2.7-5.6-4.2-.1 0-.1.1-.1.1m.5-1.9c2 1.7 4 3.2 6.1 4.7.1 0 .1 0 .1-.1h-.4c-.1 0-.1.1 0 .1.1.1.3.1.4.1.1 0 .1 0 .1-.1-2.1-1.5-4.1-3-6-4.7 0 0-.1.1 0 .1m-.2-1.6c2 1.6 4.1 3.2 6.1 4.8l.05-.1c-.26 0-.4-.1-.5-.3-.07-.1-.17 0-.1 0 .1.2.3.4.5.3 0 0 .1 0 0-.1-2-1.6-4.1-3.2-6.2-4.7 0 0-.1.1 0 .1m0-2.3l7 4.9v-.1c-.1 0-.25.1-.4.1-.1 0-.1.2 0 .2l.4-.1c.08 0 .1 0 .05-.1l-7-4.9c-.1 0-.2.1-.1.1m.6-2.2c2.1 1.5 4.1 3 6.1 4.6.1.1.1 0 .1-.1-2-1.5-4-3.1-6.1-4.6-.1 0-.1.1-.1.1m5-75c1.5 1.7 3 3.4 4.6 5 .1.1.1 0 .1-.1-1.6-1.6-3.1-3.2-4.6-4.9-.1 0-.1 0-.1.1m-.2 2l4.4 4.9c0 .1.1 0 .1-.1-1.5-1.6-3-3.2-4.4-4.9-.1 0-.2.1-.1.1m.3 2.1c1.3 1.5 2.6 3 3.8 4.5.1.1.1 0 .1-.1-1.2-1.5-2.5-3-3.8-4.5l-.1.1m-.2 2.6c1 1.7 2.4 3 3.7 4.5 0 .1.1 0 0-.1-1.3-1.4-2.7-2.7-3.8-4.4 0 0-.1 0-.1.1m0 2.9l3.8 2.8s.1-.1 0-.1l-3.8-3c-.1-.1-.2 0-.1.1m0 2l3.8 2.1s.1-.1 0-.1l-3.8-2.1s-.1.1 0 .1M48.4 107c2 .6 3.8 1.5 5.4 2.9.1 0 .1 0 .1-.1-1.6-1.4-3.5-2.4-5.5-2.9-.1 0-.1.1 0 .1m.1-1.9c1.6 1.1 3.3 2.1 5.1 2.8.1.1.1 0 .1-.1-1.7-.7-3.4-1.7-5-2.8 0 0-.1.1 0 .1m.4-1.5c1.7 1.2 3.9 1.3 5.5 2.7h.1l-.3-.2c-.1 0-.2.1-.1.1l.3.3c0 .1.1 0 .1-.1-1.6-1.3-3.8-1.4-5.5-2.6-.1 0-.2.1-.1.1m0-2l5.3 2.5c.1 0 .1-.1 0-.1l-5.3-2.5c-.1 0-.2.1-.1.1m.4-1.4c1.9.3 3.8 1.1 5.3 2.4.05 0 .1-.1.1-.1-1.5-1.3-3.4-2.2-5.4-2.4-.1 0-.1.1 0 .1m.1-2l5.2 2.1c.1 0 .1-.1 0-.1l-5.4-2.2c-.04 0-.1.1 0 .1M52.7 48c.4-.2.8.1 1.1.3l.9.6c.65.4 1.3.9 1.9 1.4.03 0 .1-.1.1-.1-.7-.5-1.37-1.1-2.08-1.5-.3-.3-.7-.5-1.1-.7-.3-.1-.6-.2-.9-.1-.1 0 0 .1 0 .1m.6 1.8c1.2.6 2.3 1.4 3.2 2.3.1.1.1 0 .1-.1-1-.9-2.1-1.7-3.2-2.3-.1-.1-.1 0-.1.1m0 1.8l3 2.3c.1.1.2 0 .1-.1l-3-2.3c-.1 0-.1.1-.08.1m-.1 1.9c1.2.7 2.2 1.5 3.3 2.3 0 .1.1 0 .1-.1-1-.8-2.1-1.6-3.2-2.2-.1-.1-.2 0-.1.1m.1 2.1l2.5 1.3c.1 0 .1-.1 0-.1L53.6 55c-.03-.1-.1 0-.02.1m-.3 1.5l2.8 1.7s.1-.1 0-.1l-2.8-2c-.03-.02-.1.08 0 .1m-.1 1.68l3.1 1.4c.1 0 .1-.1.1-.1l-3.1-1.5c-.1 0-.1.1-.1.1m-.1 1.9l2.3 1.3c0 .05.1-.05 0-.1l-2.2-1.4c-.1-.04-.17.06-.1.1m-.15 2c1 .5 1.92 1.1 2.82 1.77 0 0 .1-.1 0-.1-.9-.7-1.9-1.3-2.9-1.8-.1-.1-.2 0-.1.1M53 63l2.6 2c.1 0 .17-.1.1-.1l-2.55-2c-.06-.1-.14 0-.1 0m-.15 1.7c1.1.3 2.04 1.1 2.63 2.04 0 .07.1 0 .1-.06-.6-1-1.6-1.78-2.7-2.1-.1-.05-.1.1-.07.1m-.4 2c1.1.3 2.07.82 2.9 1.53.08.1.16 0 .1-.1-.9-.7-1.9-1.2-2.95-1.5 0 0-.1.1 0 .1m.1 1.5c.9.2 1.6.6 2.3 1.3.1.1.1 0 .1-.1-.6-.6-1.4-1.1-2.3-1.3-.1 0-.1.1 0 .1m0 1.6c.9.2 1.7.7 2.3 1.3.1.1.1 0 .1-.1-.6-.7-1.4-1.2-2.4-1.4 0 0-.1.1 0 .1m-.7 1.3c.9.3 1.7.8 2.4 1.5.1.1.2 0 .1-.1-.7-.6-1.5-1.1-2.4-1.5 0 0-.1.1 0 .1m-.3 1.7c.9.7 1.9 1.3 3 1.8.1.1.1 0 .1-.1-1.1-.5-2.1-1.1-3-1.7-.1 0-.1.1-.1.1m0 2c1 1 2 1.8 3.2 2.4.1.1.1 0 .1-.1-1.1-.6-2.2-1.4-3.1-2.4-.1 0-.1.1-.1.1m-.1 2.1c1.2.7 2.4 1.4 3.4 2.2.1.1.2 0 .1-.1-1.1-.8-2.2-1.6-3.4-2.2 0-.1-.1 0 0 .1m-.1 1.9c1.1.6 2.2 1.4 3 2.3.1 0 .2 0 .1-.1-.8-.9-1.9-1.7-3-2.3-.1-.1-.1 0-.1.1m-.1 1.4c1.4.5 2.6 1.4 3.5 2.5.1 0 .2 0 .1-.1-.9-1.2-2.1-2.1-3.4-2.6-.1-.1-.1.1 0 .1m-.2 2c1.2.6 2.4 1.3 3.5 2.1.1 0 .1-.1.1-.1-1.1-.8-2.3-1.5-3.5-2.2 0-.1-.1 0 0 .1m-.6 1.7c1.3 1 2.5 2.1 3.8 3.1.1 0 .1-.1.1-.1-1.2-1.1-2.5-2.1-3.8-3.2 0 0-.1 0-.1.1m.2 2.6c1.3.6 2.5 1.4 3.6 2.4.1.1.2 0 .1 0-1.1-1-2.3-1.8-3.6-2.4-.1-.1-.1 0 0 .1m-.2 2l3.5 2.3c.1.1.1 0 0-.1l-3.6-2s-.1.1 0 .1m0 1.8c1.5.5 3 1.2 4.4 2 .1 0 .2-.1.1-.1-1.4-.8-2.8-1.5-4.3-2-.1 0-.1.1 0 .1m-.8 2.2l4.5 2c.1.1.1 0 0-.1-1.5-.6-3-1.1-4.5-1.7-.1 0-.1.1 0 .1m.1 1.9c1.9.3 3.7.9 5.3 1.8.1 0 .2-.1.1-.1-1.7-.9-3.5-1.5-5.3-1.8 0 0-.1.1 0 .1m-.2 2.2c1.2.2 2.3.5 3.3 1.1.6.3 1.6 1 2.2.3.1 0 0-.1-.1-.1-.3.4-.9.2-1.3 0-.4-.1-.8-.4-1.2-.6-.8-.4-1.7-.6-2.7-.8-.1 0-.1.1 0 .1M258 168c-1.2 1.34-2.2 2.84-3 4.47 0 .07.1.13.1.06.8-1.62 1.8-3.1 3-4.44.1-.1 0-.2-.1-.1m-3 0l-1.5 4.2c-.04 0 .07.1.1 0l1.5-4.2c.1-.1 0-.1-.1-.1m-2-.2l-1 4.4c0 .1.1.1.1 0l1-4.4c0-.1-.1-.1-.1-.1m-1.7.6c-.5 1.3-.8 2.6-.9 4 0 .1.1.1.1 0 .2-1.4.5-2.7 1-4 0-.1-.1-.1-.1 0m-247.5-2c2.5-.3 5.1-.1 7.63-.1h18.94c9.14 0 18.28 0 27.4.1l33.34.1 36.4.2 36.6.2 34.3.2c9.8 0 19.5.1 29.2.1l21.2.1 10.7.1h.7c.1 0 .1-.1 0-.1-2.5-.1-5.1-.1-7.6-.1l-18.9-.1-27.4-.2-33.3-.2-36.4-.2-36.6-.2-34.3-.2-29.1-.1c-7 0-14.1-.1-21.2-.1-3.5 0-7.1-.1-10.6 0h-.7s-.1.1 0 .1m244.6 1.8l-.7 4.2c0 .1.1.1.1 0 .3-1.4.5-2.8.7-4.2.1-.1-.1-.1-.1-.1m-2.6.3l-.7 3.5c0 .1.1.1.1 0l.7-3.5s-.1-.1-.1 0m-7.6 1c-.3 1.1-.5 2.2-.4 3.3 0 .1.1.1.1 0 0-1.1.1-2.2.5-3.3.1-.1-.1-.1-.1 0m-2.6-1l-.6 4c0 .1.1.1.1.1l.6-4c0-.1-.1-.1-.1-.1m-7.8.2c-.2 1.3-.5 2.6-.7 3.9 0 .1.1.1.1 0l.8-4c0-.1-.1-.1-.1-.1M7 167.2l.4 2.6c0 .1.12.04.1 0l-.38-2.6c-.05 0-.16 0-.15.1m3.96.2c-.2 1.05-.06 2.12.4 3.1 0 .1.1 0 .1-.06-.45-.95-.6-2-.4-3.02.03-.06-.1-.1-.1 0m8.2-.5c-.25 1.26-.13 2.57.33 3.8.05.05.16 0 .14-.05-.5-1.2-.6-2.5-.35-3.7.03-.1-.1-.1-.1 0m11.14.5l.5 3.92h.1l-.5-4c0-.1-.2-.1-.2 0m2.8.9c0 1.1.2 2.2.7 3.3 0 0 .1 0 .1-.1-.5-1.1-.7-2.2-.7-3.3 0-.1-.1-.1-.1 0m188.9 1.1l-.7 3.2c0 .1.1.1.1.1l.7-3.3c0-.1-.1-.1-.1 0m-3.3-1c-.3 1.4-.7 2.7-1 4-.1.1.1.1.1.1l.9-4c0-.1-.1-.1-.1-.1m-3.1.2l-.5 3.7c0 .1.1.1.1 0l.5-3.7c0-.1-.2-.1-.2 0m-7.9-1c-.5 1.4-.8 2.9-1 4.4 0 .1.1.1.1 0 .1-1.5.5-3 .9-4.4 0-.1-.1-.1-.1-.1m-12.2.9l-.5 3.2c0 .1.1.1.1 0l.5-3.3s-.1-.1-.1 0m-131-.6c-.3 1-.4 2-.4 3h.1c0-1.1.1-2.1.4-3 0-.1-.1-.1-.1-.1m7.2.5c.4.8.5 1.8.4 2.7 0 .1.1.1.1 0 .1-1-.1-2-.5-2.9 0-.1-.1 0-.1.1m8.4-.1c-.4 1-.6 2.1-.5 3.3h.1c0-1.2.1-2.3.5-3.3 0-.1-.1-.1-.1-.1m22 0c.1 1 .3 2 .8 2.9 0 0 .1 0 .1-.1-.4-.9-.7-1.8-.8-2.8 0-.1-.1-.1-.1 0m14.2-.2c-.2 1.1-.1 2.3.4 3.3 0 0 .1 0 .1-.1-.5-1-.6-2.2-.5-3.3 0-.1-.1-.1-.1 0m2.5.3c.4 1 .7 2.1.7 3.2 0 .1.1.1.1 0 0-1.2-.2-2.3-.7-3.3 0-.1-.1 0-.1 0m3-.3l.4 3.3c0 .1.1 0 .1 0l-.4-3.3c0-.1-.1-.1-.1 0m25.2.3l.4 3.8c0 .1.1.1.1 0l-.4-3.7c0-.1-.1-.1-.1 0m42.2.2c-.3 1.2-.5 2.4-.6 3.7 0 .1.1.1.1 0 .1-1.3.3-2.5.7-3.7 0-.1-.1-.1-.1 0m-10.9-.3c-.5 1.1-.6 2.3-.3 3.5 0 .1.1 0 .1 0-.3-1.2-.2-2.4.3-3.5 0-.1-.1-.1-.1-.1m-2.8-1.2l-.6 4.7h.1l.6-4.7c0-.1-.1-.1-.2 0m-17.6.7l-.9 3.5s.1.1.1 0l.9-3.5c0-.1-.1-.1-.1-.1m-4.6.2c-.2 1.3 0 2.6.7 3.8 0 0 .1 0 .1-.1-.7-1.1-.9-2.4-.7-3.7 0-.1-.1-.1-.1 0m-77-74c6.5-.1 13 0 19.4 0 12.8 0 25.6 0 38.4.1l45 .1h39.9c7.5 0 15 .1 22.4 0h1c1.1 0 1.1-1.6 0-1.6-6.5.1-13 .1-19.4 0H184l-44.9-.1h-63c-1.07 0-1.1 1.7 0 1.7" fill="#FFF"/>
    <path d="M241.9 89.78c-.44 1.3-.74 2.62-.87 3.98 0 .07.1.07.1 0 .14-1.35.44-2.67.9-3.95 0 0-.1-.1-.12 0m-2.5-.2l-.6 4.2c0 .1.1.1.1.1l.7-4.2s-.1-.1-.1 0m-2.4.2l-.6 3.5c0 .1.1.1.1.1l.7-3.5s-.1-.1-.1 0m-7 1c-.4 1.1-.5 2.2-.4 3.3 0 .1.1.1.1 0-.1-1.1.1-2.2.4-3.2.1 0-.1-.1-.1 0m-2.5-1l-.5 4c0 .1.1.1.1 0l.6-4s-.1-.1-.1 0m-7.2.3l-.7 4c-.1.1.1.1.1 0l.7-3.9s-.1-.1-.1 0m-5.5 1l-.6 3.3c0 .1.1.1.1.1l.7-3.3c0-.1-.1-.1-.1 0m-3-1l-.9 4c0 .1.1.1.1.1l.9-3.9c.1-.1 0-.1-.1 0m-2.8.3l-.4 3.8c0 .1.1.1.1 0l.5-3.7c0-.1-.1-.1-.1 0m-7.4-1c-.4 1.5-.7 3-.9 4.5 0 .1.1.1.1 0 .2-1.5.5-3 .9-4.4 0-.1-.1-.1-.1 0m-11.3.9l-.4 3.2c0 .1.1.1.1.1l.4-3.3c0-.1-.1-.1-.1 0M76 90.7c.3.9.5 1.9.4 2.8 0 .1.1.1.1 0 .1-1-.08-1.9-.4-2.8-.06 0-.17 0-.1.1m7.7 0c-.34 1.1-.5 2.2-.43 3.3 0 .1.1.1.1 0-.1-1.1.1-2.2.4-3.3 0-.1-.1-.1-.1 0m20.3 0c.1 1 .3 2 .74 2.9.1 0 .2 0 .1-.1-.4-.9-.6-1.8-.7-2.8-.1-.1-.2-.1-.2 0M117 90c-.18 1.1-.04 2.25.4 3.3.02.06.13.03.1-.04-.43-1.02-.56-2.14-.4-3.24.02-.06-.1-.1-.1 0m2.36.22c.43 1.05.65 2.15.64 3.28 0 .07.14.07.14 0 0-1.14-.2-2.25-.65-3.3-.1-.06-.2-.03-.2.03m2.7-.2l.4 3.27c0 .1.1.1.1 0l-.4-3.24c0-.07-.2-.07-.1 0m62.4.43c-.4 1.3-.6 2.5-.7 3.8 0 .1.1.1.1 0 .1-1.2.3-2.5.6-3.7 0-.1-.1-.1-.1 0m-10.1-.2c-.4 1.2-.5 2.4-.3 3.6 0 .1.1.1.1 0-.2-1.1-.1-2.4.3-3.5 0-.1-.1-.1-.1 0M172 89l-.57 4.7c0 .06.1.06.1 0 .2-1.57.4-3.13.58-4.7 0-.06-.1-.06-.1 0m-16.2.68l-.7 3.54c0 .06.1.1.1.02l.8-3.53s-.1-.1-.1 0m-4.2.3c-.2 1.3 0 2.6.6 3.8.1.1.2 0 .1 0-.6-1.1-.8-2.4-.6-3.7 0 0-.1-.1-.1 0M203 30.3c-.1 2.02.16 4.08.3 6.1.25 3.93.54 7.86.84 11.8.67 8.75 1.37 17.5 2.1 26.25.2 2.45.38 4.87.64 7.3.05.43.76.43.7 0-.65-5.93-1.02-11.9-1.5-17.83-.7-8.76-1.4-17.5-2-26.28-.17-2.4-.5-4.9-.38-7.3.02-.47-.68-.47-.7 0m-70.7 19.9c-.18 3.7.06 7.42.16 11.1.14 5.18.3 10.35.55 15.5.1 1.63.1 3.26.3 4.88.1.44.8.44.7 0-.4-3.66-.4-7.38-.5-11.05-.2-5.2-.3-10.38-.4-15.56 0-1.6-.1-3.3 0-4.9 0-.4-.7-.4-.7 0" fill="#FFF"/>
    <path d="M75.08 32.7c4.4.14 8.86-.04 13.28-.06l30.42-.2 36.45-.24L187 32c5.3-.03 10.63.07 15.93-.08h.33c.46.02.46-.68 0-.7-4.4-.15-8.86.03-13.27.06l-30.5.2-36.5.23-31.8.3c-5.3.1-10.7 0-16 .1H75c-.45 0-.45.7 0 .7m-.7 17.9c4.5.2 9 0 13.5 0 10.3 0 20.6-.1 30.9-.2l37.13-.2 32.23-.2c5.35 0 10.74.1 16.12 0h.32c.46 0 .46-.7 0-.7-4.48-.1-9 0-13.48.1l-30.9.2-37.14.3-32.23.2c-5.38.1-10.77 0-16.14.1h-.3c-.5 0-.5.7 0 .7m58.7-6c-14.7-.1-29.4.3-44.1 1.2V46c.3-1.8.3-3.7.1-5.5h.2c2.6.1 5.2.16 7.8.16 6.5 0 13-.3 19.5-.4 5.5-.1 11.1-.2 16.6-.2-.2 1.6-.2 3.1 0 4.7l-.1.4z" fill="#FFF"/>
    <path d="M133.08 44.56c-14.7-.14-29.4.24-44.08 1.14l.34.26c-.23-.62.13-1.76.15-2.42 0-1.07-.1-2.13-.2-3.2l-.4.36c7.2.13 14.5.12 21.7-.12 7.4-.25 14.9-.42 22.4-.4l-.4-.34c-.1.92-.2 1.83-.1 2.76 0 .72.1 1.5 0 2.22-.1.44.6.63.7.18.1-.66 0-1.3-.1-1.98-.1-1.06 0-2.12.1-3.18 0-.2-.2-.35-.4-.35-7.5-.1-14.9.1-22.4.3-7.3.2-14.5.2-21.8.1-.2 0-.4.1-.4.3.1 1.1.2 2.2.2 3.4 0 .7-.4 1.7-.1 2.4 0 .1.1.2.3.2 14.7-.9 29.4-1.3 44.1-1.2.4 0 .4-.7 0-.7m-13 14.9l8.4.1c.2 0 .4 0 .6.1.5.2.6.8.4 1.3-.2.5-.7.8-1.2 1-2 .8-4.2.2-6.4.1-.5 0-1.1 0-1.7-.2-.5-.2-1-.6-1.1-1.2-.2-.6.3-1.3.8-1.3" fill="#FFF"/>
    <path d="M120 59.76l4.66.05 2.33.1c.3 0 .8-.1 1.1 0 .3 0 .5.2.4.7.4.5.3.8-.3 1-1.3.7-2.9.6-4.3.4-.7 0-1.4-.1-2-.2h-1.1l-.8-.1c-.8-.2-.9-.7-.4-1.7.4 0 .2-.7-.2-.6-1.8.3-1.1 2.5.2 3 1.2.5 2.7.4 3.9.5 1.3.2 2.7.3 4-.1.7-.3 1.5-.7 1.8-1.5.1-.6-.1-1.3-.7-1.6-.5-.2-1-.1-1.5-.1h-7.7c-.5 0-.5.7 0 .7m-13-.1l6.3-.2c.7 0 1.4 0 1.9.3.6.3 1 1 .8 1.6-.2.5-.6.7-1.1.8-.5.1-.9 0-1.4 0-2.1-.2-4.2.1-6.3 0-.2 0-.4 0-.6-.1-.2-.1-.3-.4-.3-.6-.1-.4-.1-.9 0-1.3s.6-.7 1-.6" fill="#FFF"/>
    <path d="M106.95 60l4.5-.14c.73-.02 1.47-.08 2.2-.06.94 0 1.03-.05 1.35.97.5.6.47.92-.08.95-.23.1-.46.12-.7.1-1.35 0-2.7-.15-4.06-.1-.75 0-1.5.03-2.25.02-.3 0-.9.06-1.1-.32-.3-.5.2-1.77.8-1.76.5 0 .5-.7 0-.7-.8 0-1.3.5-1.5 1.3-.1.56-.1 1.58.5 1.96.4.3 1 .22 1.5.22.9 0 1.7-.02 2.5-.04 1.5-.04 3 .25 4.4.1 1.7-.2 2.3-2.05.8-3-1-.65-2.4-.4-3.6-.35l-4.9.15c-.4 0-.4.7 0 .7m-13.8 2.52c2.6 0 5.1.03 7.7.05.6 0 1.2 0 1.7-.25.5-.26.9-.85.8-1.4-.2-.72-1.1-.9-1.9-.93-2.1-.2-4.1-.3-6.2-.4-.7-.1-1.6-.1-2.2.5-.7.6-.4 2 .5 2.3" fill="#FFF"/>
    <path d="M93.2 62.87c1.73 0 3.45.02 5.17.03 1.27 0 2.88.3 4.1-.18 1.8-.7 1.3-2.7-.42-3-1.36-.26-2.83-.2-4.2-.27-1.3-.06-2.82-.37-4.1-.06-1.67.4-2.04 2.5-.46 3.4.4.2.7-.4.3-.6-.4-.3-.8-.7-.7-1.2.1-.9.9-1.1 1.5-1.1.8-.1 1.6 0 2.4.1 1.6.1 3.4 0 4.9.3.6.1 1 .4.9 1.1-.1.6-1.3.6-1.7.6h-2.6l-5.4-.1c-.5 0-.5.7 0 .7m-3.9.1c-2.7-.3-5.5-.4-8.2-.2-.6 0-1.3 0-1.6-.4-.2-.3-.2-.6-.2-1 0-.6.1-1.2.5-1.5.2-.2.5-.2.8-.2 2.4-.2 4.9-.4 7.3-.4.6 0 1.3 0 1.8.5.2.3.3.7.4 1.1 0 .4 0 1-.3 1.4-.3.3-.9.5-1.3.2" fill="#FFF"/>
    <path d="M89.3 62.63c-1.8-.2-3.6-.3-5.42-.28-.82 0-1.65.06-2.48.12-.57.04-.72.1-1.2-.3-.4-.38-.48-.64-.32-1.2.3-1.04 1.88-.9 2.76-.97.9-.07 1.83-.14 2.74-.18.9-.04 1.84-.08 2.75-.03.5 0 .84 0 1.27.3.35.1.53.4.55.7.2.7-.14 1.2-1.02 1.5-.4-.2-.76.4-.36.6 1.98.9 2.7-2.1 1.6-3.4-.8-.9-2.36-.7-3.4-.7-1.84 0-3.68.2-5.5.3-1.08.1-1.84.2-2.08 1.4-.2.8-.2 1.8.6 2.2 1 .5 2.7 0 3.8 0 1.8-.1 3.7 0 5.6.3.4 0 .4-.7 0-.7m-9.5 8.4l8.9.1c.2 0 .5 0 .7.2.1.1.1.4.1.6v.9c0 .2 0 .5-.2.6-.2.1-.4.1-.6.1h-6.9c-1 0-2.2-.1-2.6-1-.4-.8.2-1.8 1-1.8" fill="#FFF"/>
    <path d="M79.8 71.38l5.38.08c.9 0 1.8.03 2.68.04.5 0 1.2-.14 1.4.5.05.1.06.83.02.94-.25.73-2.03.43-2.66.44-.93 0-1.85.02-2.77.03-.77.1-1.54.1-2.3.1-.4 0-.83 0-1.2-.2-.94-.5-.84-1.6.18-1.9.44-.1.26-.7-.18-.6-1.66.4-1.82 2.5-.3 3.2 1 .5 2.27.3 3.34.3h5.3c.9 0 1.2-.3 1.2-1.3 0-.7.1-1.6-.8-1.9-.6-.2-1.3-.1-1.8-.1h-2.4l-5.2-.1c-.5 0-.5.7 0 .7m13.5 0c1.9.1 3.8 0 5.7-.2.9-.1 1.8-.3 2.7.1.8.4 1.4 1.5.8 2.2-.4.5-1.1.6-1.7.6-2.5.2-5 .2-7.4.1-.2 0-.4 0-.6-.2-.2-.1-.3-.4-.3-.7-.1-.7-.1-1.6.6-1.8" fill="#FFF"/>
    <path d="M93.34 71.76c1.62.07 3.25.02 4.87-.17.7-.1 1.4-.3 2.1-.3.6-.1 1.3 0 1.8.4.6.5.3 1.5-.5 1.8-.6.2-1.5.1-2.2.1h-2.5c-.7 0-1.5 0-2.3-.1-.4 0-1.1.1-1.3-.4-.2-.5.1-1.6.4-1.8.4-.3 0-.9-.3-.6-1 .6-1.3 3 .1 3.3 1.5.4 3.4.1 4.9.1 1.3 0 2.8.1 4-.3 1.7-.6 1.2-2.7-.2-3.3-1.1-.5-2.5-.1-3.7 0-1.6.1-3.2.2-4.8.1-.4 0-.4.7 0 .7m13-.1c3 .4 5.9.1 8.9-.3.3 0 .5 0 .8.1.6.3.6 1.3 0 1.8-.6.4-1.3.5-2 .5l-6.2.2c-.4 0-.9 0-1.3-.2s-.8-.5-.9-.9c0-.5.3-.9.7-.9" fill="#FFF"/>
    <path d="M106.22 71.98c1.5.22 2.98.27 4.5.2.73-.04 1.47-.1 2.2-.18.87-.08 1.9-.4 2.67.02.5.1.6.34.2.7-.2.4-.5.6-.9.6-.4.1-.8.1-1.2.1l-2.5.07h-3.9c-.7 0-1-.4-1.1-1.3.4-.1.3-.8-.2-.7-.7.1-1.1.6-1 1.3.1.7.8 1.1 1.5 1.2 1.4.2 3 0 4.5-.1 1.3-.1 2.7.1 4-.3.7-.2 1.3-.7 1.4-1.4.1-.7-.2-1.3-.9-1.5-.7-.2-1.4 0-2 .1-.8.1-1.5.2-2.2.2-1.8.1-3.5.1-5.2-.1-.5-.1-.7.6-.2.6m12.8-.4l8.8.1c.6 0 1.3 0 1.5.5s0 1.2-.5 1.5c-.5.3-1.1.3-1.7.4-2.6.1-5.3.1-7.8-.4-.3-.1-.5-.1-.7-.2-.4-.3-.6-.8-.5-1.3.1-.5.6-.8 1.1-.8" fill="#FFF"/>
    <path d="M119.07 72l5.12.05 2.3.03c.4 0 .9-.02 1.4 0 .6.05.7-.07.9.68.3.42.2.67-.2.75-.3.2-.6.3-.9.3-.4.1-.7.1-1 .1-.8.1-1.6.1-2.4.1-.8 0-1.5 0-2.2-.1-.6 0-1.1-.1-1.7-.2h-.5c-.8 0-1-.6-.6-1.7.4 0 .4-.7 0-.7-1.8.2-2 2.4-.3 3 1.4.5 3 .5 4.5.6 1.4.1 2.9.1 4.2-.1.8-.1 1.6-.6 1.7-1.5.1-.7-.4-1.2-1-1.4-1.3-.4-3-.1-4.3-.1h-5.6c-.4 0-.4.7 0 .7m-8.4-15.7c-.4.7-.5 1.7.2 2 .3.1.6.1.8 0 .7-.3 1.1-1.1.8-1.8-.3-.6-1.5-.6-1.7 0" fill="#FFF"/>
    <path d="M110.34 56.1c-.36.65-.57 1.65 0 2.23.7.7 1.84.2 2.3-.5.4-.7.35-1.67-.43-2.06-.6-.33-1.5-.1-1.7.62-.1.4.5.6.7.1.1-.3.6-.3.9-.2.4.2.3.8.1 1.1-.2.3-1 .7-1.2.1-.1-.4.1-.9.2-1.2.3-.4-.3-.8-.6-.4m-12.1.1c.7.3.9 1.2.5 1.8-.4.6-1.4.6-1.9.1-.1-.2-.2-.4-.2-.6 0-.9 1-1.5 1.9-1.3" fill="#FFF"/>
    <path d="M98.05 56.57c.92.5.4 1.9-.64 1.6-.4-.15-.7-.7-.4-1.1.3-.35.9-.47 1.3-.4.5.1.7-.6.2-.67-.8-.14-1.7.1-2.1.8-.4.76 0 1.72.8 2s1.7-.03 2-.78c.3-.75 0-1.66-.7-2.05-.4-.22-.7.4-.3.6m-13.4-.67c-.4.4-.6.96-.5 1.5.1.52.7.96 1.2.8.5-.12.8-.73.7-1.24-.1-.5-.6-.87-1.1-1.03" fill="#FFF"/>
    <path d="M84.5 55.66c-.5.53-.84 1.3-.56 2 .23.6.9 1.07 1.57.9.7-.18 1-.86 1-1.48-.1-.74-.7-1.25-1.3-1.5-.4-.15-.6.53-.2.68.4.14.8.4.9.8.1.3 0 .73-.4.82-.3.1-.7-.26-.7-.58-.1-.43.2-.85.5-1.14.3-.33-.2-.83-.5-.5m1 12.32c0-.64-.8-1.1-1.4-.78-.6.3-.6 1.24-.1 1.6.6.37 1.4-.02 1.5-.65" fill="#FFF"/>
    <path d="M85.82 67.98c-.06-.68-.63-1.2-1.32-1.23-.7-.02-1.18.54-1.23 1.2-.04.66.4 1.27 1.07 1.34.66 0 1.34-.4 1.46-1.1.08-.5-.6-.7-.68-.2-.12.7-1.16.7-1.15 0 0-.3.18-.6.5-.6.3 0 .62.2.65.5.04.4.74.4.7 0m11.74.9c.4.2.94 0 1.18-.3.25-.4.18-1-.16-1.3-.44-.4-1.2-.3-1.46.2-.28.5-.02 1.2.5 1.4.52.2 1.2 0 1.45-.6" fill="#FFF"/>
    <path d="M97.38 69.22c.88.38 1.92-.18 1.86-1.2-.06-.95-1.08-1.45-1.9-1.02-.83.44-.88 1.58-.22 2.2.7.64 1.8.33 2.25-.45.23-.4-.38-.74-.6-.35-.2.35-.68.6-1.06.36-.3-.2-.4-.76-.1-1.05.3-.2.9-.2 1 .2.2.5-.3.9-.7.8-.4-.2-.7.5-.3.6m13.4-.9c.3-.2-.1-.7-.4-.6-.3.1-.5.5-.4.8.1.7.7 1.3 1.4 1.2.7 0 1.2-.7 1-1.4-.1-.6-1-.9-1.5-.6" fill="#FFF"/>
    <path d="M111.05 68.47c.26-.35.08-.83-.28-1.04-.4-.23-.84-.05-1.08.3-.6.9.1 2.08 1.1 2.26.9.1 1.9-.8 1.7-1.7-.2-1-1.3-1.4-2.1-1-.4.2-.1.8.3.6.7-.5 1.4.5.7 1.1-.3.3-.8.2-1.1-.1-.2-.2-.3-.4-.3-.6V68c0-.1.3-.2.2-.1-.3.4.3.72.6.35m56.7-30.53c0 1.36 0 2.72-.1 4.1 4.8.4 9.7.53 14.5.36 1-.05 2-.1 3-.5.9-.4 1.8-1.24 1.9-2.27 0-.3 0-.7-.2-.9-.4-.4-1.1-.5-1.7-.5-5.9-.2-11.7-.2-17.5.1" fill="#FFF"/>
    <path d="M167.35 37.93c.07 1.36.05 2.72-.05 4.08-.02.2.17.4.35.4 4.08.4 8.18.5 12.27.4 2.4 0 7.1.3 7.56-3 .14-1-.47-1.7-1.48-1.9-1.83-.3-3.9-.1-5.76-.2-4.14 0-8.28.1-12.42.2-.45.1-.45.8 0 .7 3.22-.1 6.44-.2 9.66-.2 1.6 0 3.22 0 4.83.1.8 0 1.6.1 2.3.1.4 0 .7 0 1 .1.6 0 .8.2.9.8.4.4.4.8.1 1.2-.8 1.5-2.8 1.6-4.3 1.7-1.6.1-3.2.1-4.7.1-3.2 0-6.5-.1-9.7-.4l.4.3c.1-1.3.2-2.7.1-4 0-.5-.7-.5-.7 0m-2 .6c.1 0 0-.2-.1-.1s-.1.2-.1.3c0 1.2.5 2.5-.2 3.4-.7 1-2.2.8-3.3.6-1.5-.2-3.1-.3-4.7-.2-.9.1-1.9.2-2.6-.4-.7-.6-.9-1.7-.9-2.6 0-.2 0-.4.1-.6.2-.1.3-.2.5-.2 3.7-.8 7.5-1 11.3-.6" fill="#FFF"/>
    <path d="M165.63 38.62c.07-.33-.14-.64-.5-.6-.67.06-.45 1.13-.4 1.52.06.72.23 1.48-.18 2.12-.47.74-1.22.8-2.02.75-1.38 0-2.72-.3-4.1-.3-1.3 0-3.57.6-4.46-.6-.28-.4-.62-1.5-.47-2 .23-.7 1.43-.7 2.04-.8 3.13-.5 6.32-.6 9.47-.3.5.1.5-.6 0-.7-3.5-.3-7-.2-10.5.5-1.1.3-1.7.4-1.6 1.7.1 1 .3 2.2 1.3 2.7 1.2.8 2.7.4 4 .4 1.6 0 3.1.3 4.7.4.9 0 1.9-.1 2.4-.9.3-.4.4-.9.5-1.4 0-.4 0-.8-.1-1.2v-.5c.1-.3 0-.5-.4-.6-.1.4.6.6.7.2m21.1-2.6l-.7 6.9c0 .1.1.1.1 0l.8-6.9c0-.1-.1-.1-.1 0m-8.8-.3l-.9 8.9c0 .1.1.1.1 0l1-8.9h-.1m-1.8.7l-.7 7.8c0 .1.1.1.1 0l.8-7.8c0-.1-.1-.1-.1 0" fill="#FFF"/>
    <path d="M164.2 36.37c-.1 2.75-.25 5.5-.5 8.25 0 .08.12.08.13 0 .24-2.74.4-5.5.48-8.25 0-.08-.1-.08-.1 0m-4.5.63c.4 2.73.5 5.5.5 8.25 0 .07.1.07.1 0 .1-2.76-.1-5.52-.4-8.26 0-.1-.1-.1-.1 0m-3.8-.7c.6 3 .7 6.2.2 9.3 0 0 .1.1.2 0 .5-3.1.5-6.3-.1-9.4 0-.1-.1-.1-.1 0m-.7.1c-.7 3.3-.9 6.7-.6 10.1 0 .1.1.1.1 0-.3-3.4-.1-6.8.6-10.1 0-.1-.1-.1-.1-.1M138 52.6l48.9.4 14 .1-.3-.4-.18 5.3.3-.4c-16.6.4-33.15-.5-49.7-.3-4.65.02-9.3.2-13.9.42l.3.44c.34-2 .44-4 .3-6l-.36.3.6-.1c.46-.06.47-.76 0-.7l-.6.1c-.2 0-.4.1-.37.3.1 1.96 0 3.9-.3 5.8-.1.2.1.5.3.46 16.4-.95 32.9-.2 49.4-.05 4.7.05 9.5.03 14.2-.1.2 0 .3-.14.3-.33l.1-5.3c0-.2-.2-.36-.4-.37l-48.9-.43-14-.15c-.5 0-.5.7 0 .7m62 16.7l-48.9-.4-14-.1.3.4.2-5.3-.4.3c16.6-.4 33.1.5 49.7.3 4.6-.1 9.3-.2 13.9-.5l-.3-.5c-.4 2-.5 4-.3 6l.3-.4-.7.1c-.5 0-.5.7 0 .7l.6-.1c.1 0 .3-.2.3-.4-.2-2-.1-3.9.2-5.8.1-.2-.1-.5-.3-.5-16.4.9-32.9.2-49.3 0-4.7-.1-9.5 0-14.2.1-.2 0-.3.1-.3.3l-.2 5.3c0 .1.2.3.4.3l48.9.4 13.9.1c.4 0 .4-.7 0-.7" fill="#FFF"/>
    <path d="M189.56 53.35c-.02 1.5.1 3 .4 4.46.02.1.13.1.12 0-.3-1.4-.43-2.9-.4-4.4 0-.1-.12-.1-.12 0m-10.66-.5c-.5 1.7-.52 3.5-.1 5.2.02.1.14.1.12 0-.42-1.7-.4-3.4.1-5.1 0 0-.1-.1-.12 0m-10.77 1c.38 1.6.52 3.1.4 4.7 0 .1.1.1.12 0 .1-1.5-.02-3.1-.4-4.7-.03 0-.14 0-.12.1M146.85 53l-.53 5.8c0 .1.1.1.12 0l.53-5.82c0-.05-.1-.05-.12 0m32.35 11.9c.08 2 .42 4 1.02 5.9.02.06.13.03.1-.04-.58-1.9-.92-3.9-1-5.85 0-.1-.12-.1-.1 0m11.08 0c.25 1.8.48 3.7.7 5.6.02.1.14.1.13 0l-.7-5.6c0-.1-.13-.1-.12 0M141.1 72l2.5-.1c.7-.07 1.4-.1 1.9.3s.6 1.36 0 1.62c-.2.06-.4.05-.6.04l-6.5-.4c-.2 0-.5 0-.7-.12-.7-.4-.4-1.7.4-2 .8-.3 1.7 0 2.5.35" fill="#FFF"/>
    <path d="M141.02 72.03c1.02-.06 2.08-.22 3.1-.17.55-.04.98.2 1.28.7-.26.55-.64.75-1.15.6-.57.08-1.28-.07-1.86-.1-1.2-.07-2.6.04-3.8-.22-.6.07-1-.18-1.2-.76.1-.55.5-.83 1.1-.83.5-.04 1.1.23 1.6.43.4.17.6-.5.2-.67-1.3-.5-3.7-.8-3.8 1.3 0 .7.4 1.1 1 1.3 1.3.4 2.9.2 4.2.3 1.1.1 4.5.9 4.2-1.2-.4-2-3.8-1.2-5.1-1.1-.5 0-.5.7 0 .7m12.2-.8l-2.1-.1c-.7 0-1.5-.1-2.1.4-.6.4-.7 1.5 0 1.8l6.2.8c.6.1 1.4.1 1.7-.4.5-.7-.4-1.7-1.2-1.9-.9-.3-1.9-.2-2.9-.2" fill="#FFF"/>
    <path d="M153.2 70.88c-1.4-.12-4.65-.9-4.95 1.24-.07.54.13 1.1.64 1.33.4.2 1 .16 1.5.2l2.2.3c1.1.13 4.7 1.2 4.9-.84.1-2.1-3.3-2.1-4.6-2.1-.5 0-.5.7 0 .7h1.6c.4.1.9.1 1.3.4.2.1.3.2.5.4.3.2.3.5-.2.8-.6.7-.9.5-1.7.4-.7-.1-1.4-.2-2-.2l-1.7-.3c-.3 0-.6 0-.9-.1-.3-.1-1.1-.3-1-.8 0-.4 1-.7 1.4-.7.3 0 .6.1.9.1l1.8.2c.4 0 .4-.7 0-.7m7.2.7h6.1c.2 0 .5 0 .8.1.6.3.5 1.4-.1 1.8-.6.5-1.4.5-2.2.4L161 74c-.8 0-1.8-.16-2.1-.9-.4-.8.5-1.82 1.3-1.52" fill="#FFF"/>
    <path d="M160.42 71.92h5.66c.9 0 1.88.55.8 1.34-.95.7-2.77.3-3.88.27-.55-.02-1.1-.02-1.67-.06-.27-.02-.73 0-.98-.13-.4-.22-1.48-1.93.16-1.6.5.1.7-.57.2-.66-1.3-.27-2.5 1.24-1.5 2.36.6.67 1.6.7 2.4.74 1.4.06 2.9.2 4.3.13 1.2 0 3.2-1.3 2-2.6-.6-.6-1.8-.4-2.6-.4h-4.7c-.4 0-.4.7 0 .7m9.6 1.1c.3.9 1.4 1 2.3 1h6.8c.2-.8.2-1.9-.6-2.3-.2-.1-.5-.1-.7-.1l-5.8-.4c-.4 0-1 0-1.4.3-.3.3-.3 1.1.2 1.2" fill="#FFF"/>
    <path d="M169.7 73.14c.55 1.17 1.9 1.15 3.03 1.15l6.32-.1c.2 0 .32-.2.35-.4.1-.9.15-2-.68-2.5-.54-.4-1.34-.3-1.95-.4l-2.7-.2c-1.04-.1-3.03-.7-3.9.1-.53.5-.47 1.4.2 1.7.4.2.76-.4.35-.6.17-.6.47-.9.9-.8h.42l1.12.1 2.26.1c.66 0 1.38 0 2.03.1 1.38.3 1.38 1 1.24 2.1l.3-.4h-4.5c-1.1 0-3.7.4-4.2-.8-.2-.4-.8-.1-.6.3m12.4-1.2c2.3-.3 4.6-.4 6.9-.4.3.5.1 1.2-.4 1.5-.5.4-1.1.5-1.6.5-1.3.1-2.7.1-4-.1-.6-.1-1.3-.3-1.7-.8-.4-.5 0-1.4.6-1.4" fill="#FFF"/>
    <path d="M182.14 72.3c1.08-.12 2.16-.2 3.24-.27.62-.03 1.23-.06 1.85-.07l.93-.02c.54-.15.64.02.3.52.02.48-.22.72-.7.72-.35.06-.7.1-1.04.12-.5.04-1.02.05-1.53.05-.5 0-1.1-.04-1.6-.1-.4 0-.7-.06-1-.14-.7 0-.9-.5-.6-1.3.4 0 .4-.7 0-.7-.8.1-1.3.9-1.1 1.6.3 1.1 1.6 1.2 2.5 1.3 1.3.2 7.3.5 5.7-2.5-.1-.1-.2-.1-.3-.1-2.4 0-4.7.1-7 .4-.5.1-.5.8 0 .7m10-1.1c2.3-.2 4.6-.2 6.9 0 .4.1.9.1 1.3.4s.7.7.6 1.2c-.2.7-1.2.9-1.9.8l-7.1-.3c-.2-.6-.2-1.3.1-1.9" fill="#FFF"/>
    <path d="M192.15 71.56c1.38-.1 2.76-.16 4.14-.14.7 0 1.5.04 2.3.1.3.02.7.03 1 .1.6.16 1.3.98.3 1.47-.5.2-1.4 0-1.8 0l-2-.1-4.2-.2c.1 0 .2.1.3.2-.2-.7-.1-1.2.1-1.8.1-.5-.6-.6-.7-.2-.3.7-.3 1.3-.1 2.1 0 .1.1.2.3.2 2.2.1 4.4.2 6.6.2.9 0 2.4 0 2.7-1.2.2-1.4-1.3-1.8-2.3-1.9-2.3-.3-4.6-.2-6.9 0-.5 0-.5.7 0 .7m-.7-9.2c2.9-.5 5.8-.7 8.8-.7.3-1-.7-2-1.7-2.2-1.1-.3-2.1 0-3.2 0-.8 0-1.6-.2-2.4-.1-.8.1-1.7.4-2 1.2-.4.7 0 1.8.8 1.9" fill="#FFF"/>
    <path d="M191.6 62.7c2.88-.44 5.78-.64 8.7-.63.13 0 .3-.1.32-.26.24-1.1-.5-2.1-1.58-2.6-.74-.2-1.56-.2-2.34-.1-1 .1-2 0-3 0-1.1 0-2.44.4-2.93 1.5-.42 1 .04 2.1 1.03 2.4.43.2.62-.5.2-.7-.9-.2-.8-1.3-.3-1.8.3-.3.78-.5 1.2-.6.78-.1 1.63 0 2.42 0 1.33 0 5.13-.6 4.63 1.9l.34-.2c-3 0-6 .2-8.9.7-.5.1-.3.7.2.7m-10.4-1c1.8.4 3.7.6 5.6.7.6 0 1.2 0 1.7-.3s.8-1 .5-1.5c-2.9.1-5.7-.1-8.5-.8-.4.9.1 2.1 1 2.4" fill="#FFF"/>
    <path d="M181.14 61.97c1.47.3 9.88 1.98 8.25-1.77-.1-.1-.2-.18-.3-.17-2.9.1-5.7-.18-8.4-.8-.2-.04-.4.06-.5.25-.4 1.15.1 2.3 1.2 2.82.4.2.7-.4.3-.6-.8-.4-1.2-1.18-.9-2.04l-.5.25c2.4.6 4.9.9 7.4.9.5 0 .6-.2.6.4 0 .6-.6.7-1.1.8-.7.1-1.4 0-2 0-1.4-.1-2.8-.3-4.2-.6-.5-.1-.7.6-.2.7m-3.5-1.8c.6.1.6 1.1.2 1.5-.4.4-1.1.5-1.7.5l-5 .2c-.9.1-2.1-.2-2-1.1 0-.8 1.1-1 1.9-1h7.1" fill="#FFF"/>
    <path d="M177.48 60.43c.7.3.07.93-.25 1.1-.3.2-.7.16-1.05.18-.75.1-1.5.1-2.25.1l-2.26.1c-.34 0-1.63.2-1.85-.2-.25-.5.14-.9.53-1.1.35-.1.84 0 1.2 0h6.62c.45 0 .45-.7 0-.7h-4.42c-1.15 0-2.47-.2-3.6.1-1.32.4-1.85 1.9-.43 2.5.93.4 2.1.2 3.07.2 1.3 0 2.7 0 4-.2.6-.1 1.3-.3 1.5-1 .2-.6 0-1.2-.6-1.5-.4-.2-.8.4-.4.6m-10.7-.6c.5.5.3 1.5-.3 1.9-.6.4-1.4.5-2.1.5-1.1.1-2.1.1-3.1.2-.7.1-1.4.1-2-.2-.6-.3-1-1.1-.6-1.7 2.6-.7 5.3-1 8-1.1" fill="#FFF"/>
    <path d="M166.57 60.05c1 1.16-1 1.7-1.67 1.76-.56.1-1.12.1-1.68.2-.6.1-1.17.1-1.76.1l-.8.1c-.84.1-1.23-.4-1.2-1.3.2-.2 1.44-.3 1.77-.4l2.13-.3c1.2-.1 2.4-.2 3.6-.2.45 0 .46-.7 0-.7-2.58.1-5.18.4-7.68 1-1.34.4-.9 2 .12 2.5.95.5 2.14.3 3.16.2 1.08 0 2.27 0 3.3-.3 1.24-.3 2.16-1.7 1.2-2.8-.3-.3-.8.2-.5.5m-18.98-.6c3.02-.3 6.1-.1 9.05.6.33.8-.24 1.7-.98 2-.75.3-1.6.3-2.4.2l-4.34-.5c-.5 0-1.1-.1-1.4-.5-.3-.4-.3-1.2.2-1.3" fill="#FFF"/>
    <path d="M147.58 59.83c1.44-.13 2.88-.17 4.33-.1.8.05 1.5.12 2.2.22.4.05.9.1 1.3.2.5.08.8-.02.9.52.4 1.8-3.3 1.1-4.2 1-.7-.1-1.4-.17-2.1-.26-.3 0-.6 0-.8-.1-.3 0-2-.7-1.1-1.2.4-.1.1-.7-.3-.6-.7.4-.8 1.3-.3 1.8.8 1 2.7.9 3.8 1 1.7.2 7.2 1.2 6.1-2.2 0-.1-.1-.2-.2-.2-3-.6-6-.9-9.1-.6-.4.1-.4.8 0 .7m-2.7.7c.6.5.1 1.5-.6 1.7-.7.3-1.5 0-2.2-.1-1.1-.2-2.3-.1-3.4.1-.6.2-1.2.4-1.7 0-.4-.4-.2-1.2.2-1.6.5-.4 1.1-.5 1.7-.5 2.1-.2 3.8.4 5.9.2" fill="#FFF"/>
    <path d="M144.63 60.73c-.04.3-.08.62-.1.93-.33.1-.64.2-.95.32-.35.05-.83-.1-1.2-.18-.45-.08-.9-.14-1.34-.16-.53-.02-1.07 0-1.6.1-.28.03-.55.1-.83.15-.7.1-.7.4-.8-.6 0-.9.1-.8.9-1l1-.1c.6 0 1.2 0 1.8.1 1.2.1 2.3.2 3.5.1.5-.1.5-.8 0-.7-2.3.2-4.6-.7-6.8 0-1.1.3-2.4 2-.8 2.8.8.3 1.7-.1 2.5-.3 1.4-.2 2.6.3 4 .3 1.3 0 2.5-1.3 1.5-2.5-.3-.4-.8.1-.5.5" fill="#FFF"/>
    <path d="M210.22 38.74l1.32-1.3-.6-.24c0 1.13 0 2.25-.02 3.37 0 .45.7.46.7 0l.02-3.37c0-.3-.38-.46-.6-.24l-1.3 1.3c-.33.3.16.8.48.48" fill="#414141"/>
    <path d="M209.8 41.18c.83-.2 1.65-.17 2.47.05.44.1.62-.56.2-.68-.96-.24-1.9-.26-2.86-.05-.4.1-.2.78.2.68m12.8-2.48c0-.12 0-.4.1-.48l.7-.18v.23c.1.3-.1.7-.2.97-.3.63-.8 1.1-1.4 1.4-.2.13-.2.58.1.64 1 .18 1.9.15 2.8-.13.4-.13.3-.8-.2-.68-.8.24-1.5.3-2.3.13l.1.64c1.2-.56 2.4-2.1 1.9-3.45-.2-.6-.7-.9-1.2-.7-.7.2-.8.9-.8 1.5.1.4.8.4.7 0m10.6.1c.4-.2.8-.4 1.2-.5.4-.1.7.2.3.5-.1.1-.4.2-.6.2-.3.1-.3.6.1.7.3 0 .7 0 .9.2.3.3 0 .5-.2.6-.5.2-1.1.1-1.6-.1-.4-.2-.6.5-.2.6.8.3 2.5.4 2.9-.6.5-1.1-.8-1.5-1.6-1.6l.1.7c.7-.2 1.7-.8 1.3-1.7-.5-1.1-1.8-.3-2.5 0-.4.2-.2.8.2.7m-21.6 8.9c-.4.7-.8 1.3-1.2 2-.1.2 0 .5.3.5.8-.1 1.7 0 2.5.2.5 0 .6-.6.2-.7-.9-.2-1.8-.3-2.7-.3l.3.5c.4-.7.8-1.4 1.3-2.1.3-.4-.3-.8-.6-.4" fill="#414141"/>
    <path d="M212.74 51.4c-.26-1.15-.3-2.32-.15-3.5 0-.45-.7-.44-.7 0-.2 1.25-.1 2.47.1 3.7.1.44.7.25.7-.2m11.9-4.24c-.8.04-3.8.53-3 2 .3.5.9.55 1.4.4.2-.04.5-.24.7-.24.5 0 .9.38.7.93-.3.62-1.2.65-1.7.5-.5-.13-.6.54-.2.67 1.2.35 3.2-.5 2.5-2.08-.3-.6-.9-.85-1.6-.7-.3.06-.5.25-.7.26-.3.14-.5 0-.6-.38l.2-.2c.6-.32 1.3-.43 2-.46.4-.02.4-.72 0-.7m11.9.1c-1.1-.43-2.4.12-2.9 1.2-.5 1.15.1 2.6 1.2 3.15.9.5 2.2.1 2.1-1.1-.2-1.5-2.4-.8-3.2-.3-.4.3 0 .9.3.6.3-.2 2.3-1 2 0-.3 1.1-1.6 0-1.9-.4-.7-1.3.4-2.8 1.8-2.3.4.2.6-.5.2-.7m-25 11.1l2.9.2-.3-.5c-.6 1-1.2 2-1.7 3-.2.5.5.8.6.4.5-1 1.1-2 1.7-2.9.2-.2 0-.5-.3-.5L211 58c-.44 0-.44.7 0 .7m13.2 1.3c.3-.4.9-.3 1.27-.7.2-.3.3-.7.1-1-.5-.9-1.9-.9-2.56-.2-.6.7-.3 1.8.6 2.1.5.18 2.1-.2 1.8.7-.1.46-.7.66-1.1.68-.2 0-.5 0-.7-.1-.6-.4-.1-1.1.4-1.1s.5-.7 0-.7c-1.1 0-1.9 1.23-1.1 2.13.8.9 2.5.5 3.1-.3.3-.4.4-1 0-1.5-.3-.4-.8-.4-1.3-.4-.4 0-1.1.1-1.1-.5 0-.8 1.6-.8 1.4-.2-.1.4-.9.5-1.2 1-.2.4.4.7.7.3m12.8-2c-.4-.5-1.1-.5-1.7-.1-.4.4-1 1.2-.7 1.7.6 1.3 2.6.5 2.8-.6l-.6.2c.6.6.8 1.5.2 2.1-.4.5-1.3.5-1.7 0-.3-.3-.8.2-.5.5.7.8 2 .8 2.7 0 .8-.8.6-2.2-.2-3-.2-.1-.6-.1-.6.2-.1.5-.7 1-1.2.7-.7-.3.4-1.6 1-.9.3.4.8-.1.5-.5m-11.7 10.1c-1.2-.1-1.9 1.2-1.6 2.3.3 1 1.3 1.7 2.3 1.3 1-.4 1.6-1.6 1.1-2.5-.5-1-1.7-1.3-2.6-.8-.4.2-.1.8.3.6.5-.3 1.2-.1 1.6.4.4.5 0 1.3-.5 1.6-1.6.9-2.4-2.2-.7-2 .4 0 .4-.7 0-.7m-13 3.7c1-.9 2-1.7 3.1-2.5.3-.2 0-.8-.4-.6-1.1.9-2.2 1.7-3.2 2.7-.4.3.1.8.5.5" fill="#414141"/>
    <path d="M211.92 69.2c.87.96 1.8 1.85 2.8 2.68.33.3.83-.2.48-.5-.98-.83-1.9-1.72-2.8-2.67-.3-.3-.8.2-.48.5" fill="#414141"/>
    <path d="M213.9 72.43c.26-1.3.28-2.6.06-3.92-.07-.4-.75-.2-.67.2.1 1.2.1 2.4-.1 3.6-.1.5.6.7.7.2m22.1-1.6l1.5-2c.2-.3-.4-.7-.6-.3l-1.5 2.1c-.3.4.3.7.6.4m1.1 1.2c.6-1.2 1.3-2.3 2.1-3.4.2-.3-.4-.7-.6-.3-.9 1.1-1.5 2.2-2.1 3.4-.2.4.4.8.6.4" fill="#414141"/>
    <path d="M234.64 70.1c1.32.68 2.7 1.2 4.13 1.58.43.1.62-.56.18-.68-1.37-.35-2.7-.85-3.96-1.5-.4-.2-.8.4-.4.6m-.1-.98c1.7.24 3.4.64 5 1.2.4.15.6-.53.2-.68-1.7-.55-3.3-.95-5-1.2-.5-.06-.7.62-.2.68" fill="#414141"/>
    <path d="M259.9 145.9c.3 1.32.6 2.66.8 4.02.12.7.22 1.4.3 2.1l.12 1c0 .18.03.35.05.5 0 .2.07.37-.06.52.1-.06 0-.14 0-.1 0 .1 0 .23.1.25.2 0 .2-.2.2-.4 0-.9-.1-1.8-.3-2.7-.2-1.8-.6-3.6-1-5.4 0-.1-.1-.1-.1 0m-1.4.1c.6 2.8.9 5.7 1 8.6l.1-.1-.1-.4c0-.1-.1 0-.1 0l.2.3c.1.1.1 0 .1 0 0-3-.3-5.9-.9-8.7 0-.1-.1-.1-.1 0m-1.5.8l.4 7.7h.1c0-.3 0-.6.1-.8.1-.1-.1-.1-.1-.1-.1.2-.1.5-.1.8 0 .1.1.1.1 0l-.3-7.8c0-.1-.1-.1-.1 0m-1.7-.1c.3 2.8.5 5.5.5 8.3h.1v-.7c0-.1-.1-.1-.1 0v.6c0 .1.1.1.1 0 0-2.8-.2-5.5-.5-8.3 0-.1-.1-.1-.1 0m-1.8-.7l-.3 8.3h.1c-.3-.3-.4-.7-.2-1 0-.1-.1-.1-.1-.1-.1.4 0 .8.3 1.1.1 0 .1 0 .1-.1l.3-8.3c0-.1-.1-.1-.1 0m-1.3-.2c.1 3-.1 5.9-.4 8.9h.1v-1.1c0-.1-.1-.1-.1 0l.1 1.1c0 .1.1.1.1 0 .4-3 .5-5.9.5-8.9 0-.1-.1-.1-.1 0m-1.3.3c.2 2.6.1 5.2-.4 7.7 0 .1.1.1.1 0 .5-2.6.6-5.2.4-7.8 0-.1-.1-.1-.1 0m-180-.3c-.2 2.6-.3 5.3-.6 7.9 0 .1.2.1.2 0l.6-8c0-.1-.1-.1-.1 0m-2.9 0c-.1 2.8-.3 5.6-.4 8.4h.2l.3-1.1c0-.1-.1-.1-.1 0l-.3 1.1h.1c.2-2.9.3-5.7.5-8.5 0-.1-.1-.1-.2 0m-63.5.3c-.3 2.7-.4 5.4-.3 8.2 0 .1.1.1.1 0 0-2.8.1-5.5.4-8.2 0-.1-.1-.1-.1 0m6.8.2c0 2.9.1 5.8.4 8.8h.1c-.3-2.9-.5-5.9-.4-8.8 0-.1-.1-.1-.1 0m2.7.3l.7 8.6h.1l-.6-8.7c0-.06-.1-.06-.1 0m17.3.3c-.3 2.86-.5 5.73-.5 8.6 0 .1.1.1.1 0v-.53c0-.06-.1-.06-.1 0v.54h.1c0-2.83.2-5.7.5-8.6 0-.03-.1-.03-.1 0m-9.5.2c0 2.6-.2 5.26-.4 7.9 0 .07.1.07.1 0 .3-2.64.4-5.3.5-7.93 0-.1-.1-.1-.1 0m6.1-.2c.4 2.8.3 5.6-.3 8.3 0 .1.1.1.1 0 .6-2.8.7-5.6.3-8.4 0-.1-.1-.1-.1 0m70-28.3c-.1 1 .1 1.9.6 2.8 0 0 .1 0 .1-.1-.5-.9-.6-1.8-.5-2.8 0-.1-.1-.1-.1 0" fill="#FFF"/>
    <path d="M97.74 118.18l3.56-.42c.07 0 .07-.13 0-.12l-3.56.42c-.07 0-.07.12 0 .12m.8 2.34c-.28 0-.4-.42-.2-.58.25-.23.6.27.4.5-.06.05.02.13.07.08.3-.3-.1-.93-.5-.7-.3.2-.1.8.3.8.1 0 .1-.1 0-.1" fill="#FFF"/>
    <path d="M94.87 112.47c-.36-.36-.92-.08-1.1.33-.14.34-.08.73-.03 1.08l.2 1.58c.2 1.97.33 3.95.37 5.94 0 .03.1.05.1.05.8.3 1.4-.42 1.6-1.12.1-.5 0-1-.1-1.5l-.4-1.8c-.1-.6-.3-1.2-.4-1.8l-.2-.86c0-.2-.1-.36 0-.55.1-.22.3-.24.5-.26 1.3-.12 2.5-.17 3.7-.25 1.4-.1 2.8-.1 4.2-.2.1 0 .1-.1 0-.1-1.8.1-3.7.3-5.6.4l-1.3.1c-.4 0-.8 0-1.2.1-.1.1-.3.2-.3.4s.1.3.1.5l.2.8.6 2.7.3 1.3c.1.5.2 1.1.1 1.6-.1.4-.4.7-.7.8-.2.1-.4.1-.5 0s0-.2 0-.3v-.4c0-.9-.1-1.8-.2-2.7l-.3-3c-.1-.5-.2-.9-.1-1.4 0-.3.1-.6.3-.8.2-.1.5-.2.7 0 .1.1.1 0 .1-.1m-4.1-3c-2.3.4-4.6.6-6.9.6H81l-.8-.1h-.6c-.18.1-.2.4 0 .4 0 .1.1 0 0-.1 0-.2.1-.2.23-.2h.2l.4.1h.6c.5.1 1 .1 1.5.1h3c1.9-.1 3.86-.3 5.8-.6.06 0 .03-.1-.04-.1m138.7-5.4c.9.1 1.8.3 2.7.6 0 0 .1-.1 0-.1-.9-.3-1.8-.4-2.8-.6-.1 0-.1.1 0 .1M28 136.2c-.46 3.38-.92 6.75-1.4 10.13-.04.35-.08.68 0 .98.24.8 1.16 1.1 1.93 1.2-2.5 2.7-2.47 6.8-3.6 10.3-.95 3-2.76 5.5-4.85 7.8-.6.7-1.28 1.4-1.33 2.3-.07 1.3 1.37 2.3 2.5 1.8.88.9.6 2.5 1.37 3.5.5.7 1.4 1 2.23 1 1.95 0 3.66-1.3 5.08-2.6.85-.8 1.67-1.6 2.18-2.7.5-1 .7-2.3.2-3.4-.7-1.4-2.4-2-3.8-2.8-.2-.1-.4-.2-.5-.5-.2-.4.1-.9.4-1.3 2.4-3.3 3.6-7.4 3.5-11.5 0-.4 0-.7.1-1.1.1-.3.4-.5.6-.8 1-1.1 1.7-2.4 2.4-3.8.6-1 1.6-2 1.5-3.1-.1-1.4-.9-3.1.2-5.3.1-.2.4-.5.3-.6-.1-.2-.3-.2-.5-.3-1.1-.4-2.4-.6-3.6-.6" fill="#FFF"/>
    <path d="M27.67 136.1c-.4 2.98-.83 5.97-1.24 8.97-.1.8-.45 1.86 0 2.62.4.6 1.28.9 2 1l-.14-.6c-2 2.2-2.5 5.1-3.1 8-.8 3.4-2.3 6.4-4.5 9-1.2 1.4-3.9 4-1.1 5.5.4.2.8.2 1.2.3.7.1.7 1.1.9 1.8.2 1.1.8 1.9 1.9 2.3 2.7.8 5.3-1.4 7-3.1 1.8-1.9 3.2-4.9 1-7.1-.4-.4-.9-.7-1.4-1-.8-.5-2.2-.8-2-2 0-.3.4-.7.6-1l.6-1c.4-.8.7-1.5 1-2.3.6-1.5 1-3 1.2-4.6.1-.8.1-1.6.2-2.4 0-.4-.1-.8-.1-1.2 0-.7.4-1.1.8-1.7 1.1-1.5 1.9-3.2 2.9-4.7.8-1.4.7-2.3.4-3.8-.2-1.2-.2-2.4.3-3.5.1-.3.4-.6.2-1-.2-.5-1.3-.7-1.7-.8-.9-.3-1.8-.3-2.7-.3-.5-.1-.5.6 0 .7 1 0 2.2 0 3.1.4.8.3.4.4.2 1-.2.4-.3.9-.4 1.3-.2 1.7.8 3.5 0 5.1-.4.7-.9 1.4-1.3 2.2-.5.9-1 1.8-1.6 2.6-.5.6-1.1 1.1-1.2 1.9-.2.9 0 1.9-.1 2.8-.2 2-.7 4.1-1.5 6-.4.9-.9 1.7-1.4 2.5-.4.5-1.1 1.2-1.1 1.9 0 1.3 2.2 1.8 3 2.4 2.4 1.6 1.8 4.3.1 6.2-1.4 1.6-3.5 3.5-5.8 3.5-2.7-.1-2-2.7-3.3-4.3-.1-.1-.2-.1-.3-.1-.6.2-1.3.1-1.7-.4-.6-.7-.4-1.4 0-2.1.6-1 1.5-1.7 2.2-2.6 1.2-1.5 2.2-3.1 3-4.9 1.6-3.7 1.3-8.4 4-11.6.2-.2.1-.6-.1-.6-.5-.1-1.1-.2-1.5-.6-.4-.5-.1-1.5 0-2l.4-3 1-6.1c.1-.5-.6-.7-.6-.2" fill="#414141"/>
    <path d="M26.96 137.58c-.07-.5-.34-1.25-.25-1.74.2-.74.5-.9 1.1-.92h.9c1.3-.02 2.6.02 3.9.12.6.04 1.2.1 1.8.16.8.1 1.4-.05 1.5.77.1.22.1.52 0 .74.1.4 0 .6-.4.8-.2.5-.4.6-.3.4 0 0 .1-1.4 0-1.5 0-.2-.1-.3-.3-.3-1.1 0-8.8-.5-7.4 2.1.2.4.8.1.6-.3-.4-.9 3.2-1 3.7-1H35l-.38-.3c.03.3.06.7.04 1 0 .3-.15.7-.1 1 .07.2.1.3.3.5.4.3 1 .2 1.36-.1.7-.5.6-1.5.53-2.3 0-.6.1-1.2-.5-1.4-.94-.4-2.43-.3-3.43-.4-1.4-.1-2.8-.1-4.23-.1-.6 0-1.8-.1-2.2.5-.5.7.1 2.3.2 3.1 0 .5.7.3.7-.2" fill="#FFF"/>
    <path d="M26.83 137.8c-.5 3.36-.8 6.73-.87 10.12 0 .14.1.3.26.33 1.56.32 3.13.54 4.72.63 1.55.1 1.74-.17 2.53-1.5 1.6-2.73 3.05-5.55 3.32-8.75 0-.45-.7-.44-.7 0-.3 2.7-1.4 5.16-2.7 7.5-.3.46-.6.98-.9 1.42-.6.72-1 .67-1.8.6-1.5-.08-2.9-.28-4.3-.57l.2.34c.1-3.33.3-6.63.8-9.92 0-.44-.6-.63-.7-.2" fill="#FFF"/>
    <path d="M33.85 137.35c-.66 3.68-1.45 7.33-2.38 10.96-.1.5.56.7.67.2.93-3.6 1.73-7.3 2.4-10.9.07-.4-.6-.6-.7-.2" fill="#FFF"/>
    <path d="M28.18 148.23c-2.02 2.65-2.65 5.94-3.45 9.1-.42 1.68-.9 3.37-1.7 4.9-.9 1.7-2.3 2.67-3.52 4.06-.8.9-1.4 2.3-.8 3.5.6 1.1 2.1 1.3 3.2.9 1.7-.7 2.7-2.5 3.7-3.8 1.3-1.7 2.6-3.5 3.6-5.4 2.2-4 3.2-8.6 2.8-13.2 0-.5-.7-.5-.7 0 .4 3.6-.2 7.2-1.5 10.6-1.4 3.4-3.7 6.4-6 9.2-.5.6-1 1.3-1.8 1.6-1.3.6-2.8-.2-2.6-1.7.3-1.7 2.2-2.7 3.2-3.9 1.7-2 2.4-4.5 3.1-7 .8-3.1 1.4-6.4 3.4-9 .3-.4-.3-.7-.6-.4" fill="#FFF"/>
    <path d="M28.27 163.63c.95.1 1.9 1.46 2.42 2.16.5.6.9 1.4 1 2.2.2 1.6-.6 3.3-1.9 4.4-1.3 1-3 1.6-4.6 1.8-.8 0-1.8 0-2.5-.4-.5-.3-.9-.9-1-1.4-.1-.2-.3-1.7.1-1.7s.4-.7 0-.7c-.9-.1-1 .9-1 1.6 0 1 .4 1.9 1.2 2.6 1.8 1.4 5 .5 6.8-.5 2.1-1.1 3.7-3.4 3.3-5.9-.2-1.1-.7-2.1-1.4-3-.7-.9-1.5-2-2.8-2.2-.5-.1-.5.6 0 .7" fill="#FFF"/>
    <path d="M22.56 170.1c.63 3 4.95 3.26 6.58 1 1.76-2.47-.06-6.17-3.17-5.75-.45.06-.26.74.18.68 2.6-.36 3.82 2.96 2.3 4.78-1.36 1.7-4.7 1.5-5.22-.8-.1-.4-.77-.2-.67.2" fill="#FFF"/>
    <path d="M29.94 169.42c-1.1-.93-2.43-1.12-3.82-.88-.9.16-2.7.4-2.74 1.62 0 .45.7.45.7 0 .02-.7 2.26-.97 2.7-1 .98-.1 1.9.12 2.66.76.34.3.84-.2.5-.5" fill="#FFF"/>
    <path d="M24.55 171.86c1.13-.8 2.46-1.05 3.8-.66.44.12.62-.55.2-.68-1.5-.44-3.08-.18-4.36.74-.4.26-.1.87.3.6" fill="#FFF"/>
    <g transform="translate(22.896 172.638)">
      <mask id="d" fill="#fff">
        <use xlink:href="#c"/>
      </mask>
      <path d="M.17 1.73c.27 2.33 3.86 3.8 5.73 2.4.5-.4.87-.95 1.2-1.48.3-.46.8-.97.9-1.5.15-.77-.6-1.3-1.22-.77-.34.3.16.8.5.5 0 0-.26.65-.34.76-.15.22-.3.43-.43.65-.3.5-.7 1.1-1.2 1.4-1.4.6-4.1-.3-4.3-2 0-.5-.7-.5-.7 0" fill="#FFF" mask="url(#d)"/>
    </g>
    <path d="M29.4 174.07c.02.54-.54.78-1 .7-.47-.1-.86-.42-1.23-.7-.1.2-.22.4-.34.58 1.35.4 2.83-.02 3.7-1.13.3-.34-.2-.84-.48-.5-.74.93-1.9 1.3-3.03.95-.32-.1-.62.37-.34.6.62.48 1.36 1.05 2.2.9.7-.13 1.26-.68 1.2-1.4-.02-.45-.72-.45-.7 0m4.35-36c-.67.07-2.57-.6-2.86.4-.12.42.22.65.6.7.7.1 1.43.1 2.15.15.45.03.44-.67 0-.7l-2.1-.1c0 .08 0 .17-.02.26.13-.3.92-.1 1.16-.07.36.1.7.1 1.07.1.45 0 .45-.7 0-.7m-.33 1.7c-.7 0-1.52-.1-2.2.1-.5.1-.63.5-.7 1 0 .2.13.3.27.4.84.2 1.68.3 2.53.3.2 0 .34-.1.35-.3.08-1-1.63-.6-2.17-.6-.45 0-.45.7 0 .7.16 0 1.46 0 1.47-.1l.35-.3c-.8 0-1.57-.1-2.35-.2.1.1.17.3.26.4.1-.5 1.8-.3 2.2-.3.5 0 .5-.7 0-.7m-.9 2.4c-.5 0-2.4-.1-2 1 .1.2.2.2.4.3.6.1 1.2.2 1.7 0 .3-.1.8-.5.7-.8 0-.2-.1-.3-.3-.3-.1 0-.3.1-.3.3-.1.4.6.6.7.2v-.1l-.3.3-.3-.3c.1-.2.1-.2-.1 0l-.1.1c-.1.1-.3.1-.4.1h-1l.4.3c0 .1 1.2-.1 1.4-.1.5 0 .5-.7 0-.7m-.2 1.7c-.8 0-1.9-.2-2.2.8-.1.2.1.4.3.5l1.7.1c.5 0 .5-.7 0-.7h-1.7l.4.5c.2-.4 1.2-.2 1.6-.2.5 0 .5-.7 0-.7m-.1 1.7H31c-.33 0-.65.1-.68.5-.05.9 1.08.8 1.6.7.47 0 .47-.7 0-.7l-.6.1h-.24c-.04 0-.1 0-.1.1-.12.1-.1.1.05.1h1.23c.45 0 .45-.7 0-.7m-5.37.5l.7.1c.2 0 .6-.1.7 0l-.2-.3c0 .2 0 .3-.1.4l.2-.2c-.3.1-.6 0-.9 0-.1 0-.6.1-.7 0-.3-.3-.8.2-.5.5.3.3 1 .2 1.4.2.3 0 1 .1 1.1-.3.1-.3.1-.8-.3-.9-.2-.1-.6-.1-.8-.1h-1c-.5 0-.5.7 0 .7m0-1.1h1.7c.4-.1.5-.6.6-1 .1-.2-.1-.4-.2-.4-.3-.1-.5 0-.8.1-.4 0-.8.1-1.1 0-.4 0-.4.7 0 .7h.9c.2 0 .6-.2.8-.1l-.3-.4c0 .2-.1.6-.2.6.2-.1-.2 0-.3 0h-1.1c-.5 0-.5.7 0 .7m.3-2.1c.6 0 1.1.1 1.7 0 .3 0 .8-.1.8-.5s-.4-.5-.7-.6c-.6-.1-1.2-.1-1.8 0-.5 0-.5.7 0 .7h1.6c.1.1.2 0 .1-.1l.1-.2c-.2.1-.7 0-1 0-.3 0-.6 0-1-.1-.5 0-.5.7 0 .7m.3-2.2l-.1.7h1.8c.5-.2.4-.7.4-1.2 0-.2-.2-.3-.4-.3-.6 0-1.2.06-1.8.1-.5.1-.5.8 0 .7.6-.04 1.1-.1 1.7-.1l-.4-.3c0 .06.1.4 0 .5.1-.1 0-.1-.1-.05l-1.2-.1c-.4 0-.5.6-.1.7h.1c.4.1.6-.5.2-.7m-.1-1.2l1.3.1c.3 0 .7.1 1 0 .3-.1.6-.8.4-1.1-.1-.2-.3-.2-.4-.2-.4-.1-.8-.1-1.1-.1-.6-.1-1.3-.3-1.7.2-.1.1 0 .4.2.5.5.2 1.1.3 1.6.3.4-.1.4-.8 0-.7-.5 0-.9 0-1.3-.2l.1.5.9.2.6.1h.5l-.1-.3c0 .44-.5.25-.8.2-.5 0-.9 0-1.3-.04-.5-.1-.5.6 0 .7" fill="#FFF"/>
  </g>
</svg>
