<?xml version="1.0" encoding="utf-8"?>
<!-- Generator: Adobe Illustrator 16.0.4, SVG Export Plug-In . SVG Version: 6.00 Build 0)  -->
<!DOCTYPE svg PUBLIC "-//W3C//DTD SVG 1.1//EN" "http://www.w3.org/Graphics/SVG/1.1/DTD/svg11.dtd">
<svg version="1.1" id="Layer_1" xmlns="http://www.w3.org/2000/svg" xmlns:xlink="http://www.w3.org/1999/xlink" x="0px" y="0px"
	 width="195px" height="300px" viewBox="0 0 195 300" enable-background="new 0 0 195 300" xml:space="preserve">
<g id="Page-1">
	<g id="cover-goingresponsive">
		<g id="cover">
			<polygon id="Fill-1" fill="#003E6B" points="0,300 194.117,300 194.117,0 0,0 			"/>
			<polygon id="Fill-2" fill="#FFFFFF" points="0,52.941 194.117,52.941 194.117,0 0,0 			"/>
			<path id="Fill-3" d="M158.824,70.588c9.746,0,17.646-7.901,17.646-17.647s-7.9-17.647-17.646-17.647s-17.648,7.901-17.648,17.647
				S149.078,70.588,158.824,70.588"/>
			<path id="Fill-11" fill="#D6C99E" d="M31.66,33.958c0,2.651-2.149,4.801-4.801,4.801c-2.651,0-4.801-2.149-4.801-4.801
				s2.15-4.801,4.801-4.801C29.511,29.157,31.66,31.307,31.66,33.958"/>
			<path id="Fill-13" fill="#8F7F33" d="M24.688,36.095c-0.366-0.297-0.715-0.472-1.226-0.325c0.084,0.266,0.222,0.49,0.524,0.692
				c0.572,0.383,1.328,0.464,1.328,0.464S25.224,36.53,24.688,36.095"/>
			<path id="Fill-15" fill="#8F7F33" d="M28.196,33.43c-1.03,0.314-1.504,0.917-1.991,1.633c0.365,0.085,1.775,0.115,2.357-0.052
				c1.388-0.399,2.269-1.776,2.269-1.776S29.417,33.055,28.196,33.43"/>
			<path id="Fill-17" fill="#8F7F33" d="M26.451,35.373c-0.796-0.191-1.227,0.083-1.72,0.443c0.37,0.218,1.045,0.517,1.493,0.625
				c0.945,0.226,2.094-0.126,2.094-0.126S27.396,35.599,26.451,35.373"/>
			<path id="Fill-19" fill="#8F7F33" d="M29.157,31.494c-0.328,1.094-1.183,1.508-1.896,1.883c0.015-0.59,0.033-1.614,0.218-2.229
				c0.389-1.296,1.644-2.466,1.644-2.466S29.547,30.198,29.157,31.494"/>
			<path id="Fill-21" fill="#8F7F33" d="M26.734,33.452c-0.128,0.725-0.619,1.062-0.95,1.363c-0.04-0.379-0.02-1.114,0.052-1.521
				c0.153-0.86,0.821-1.702,0.821-1.702S26.889,32.591,26.734,33.452"/>
			<path id="Fill-23" fill="#8F7F33" d="M25.39,34.644c-0.103,0.539-0.421,0.692-0.75,0.895c-0.024-0.286-0.013-0.78,0.045-1.083
				c0.122-0.639,0.619-1.243,0.619-1.243S25.512,34.005,25.39,34.644"/>
			<path id="Fill-25" fill="#241F21" d="M38.742,36.567c-0.017-0.061-0.025-0.128-0.025-0.197c0-0.068,0.008-0.129,0.025-0.197
				h0.686l-0.66-1.585h-1.989l-0.531,1.277l0.129,0.309h0.471c0.017,0.06,0.026,0.129,0.026,0.197c0,0.069-0.009,0.137-0.026,0.197
				h-1.654c-0.017-0.061-0.026-0.128-0.026-0.197c0-0.077,0.009-0.129,0.026-0.197h0.377l2.229-5.151h0.36l2.168,5.151h0.437
				c0.017,0.06,0.026,0.129,0.026,0.197c0,0.069-0.009,0.137-0.026,0.197H38.742L38.742,36.567z M37.979,32.685l-0.188-0.652
				l-0.206,0.652l-0.626,1.483h1.628L37.979,32.685L37.979,32.685z"/>
			<path id="Fill-27" fill="#241F21" d="M44.495,36.567c-0.017-0.061-0.026-0.128-0.026-0.197c0-0.068,0.009-0.129,0.026-0.197
				h0.703v-4.671h-0.703c-0.017-0.068-0.026-0.128-0.026-0.197c0-0.069,0.009-0.137,0.026-0.198h2.254
				c1.209,0,1.825,0.48,1.825,1.363c0,0.574-0.403,1.028-0.917,1.191l-0.36,0.085l0.36,0.035c0.771,0.129,1.209,0.626,1.209,1.303
				c0,1.011-0.866,1.483-2.125,1.483H44.495L44.495,36.567z M47.109,33.592c0.3-0.137,0.557-0.548,0.557-1.088
				c0-0.668-0.352-1.002-1.037-1.002h-0.583v2.091H47.109L47.109,33.592z M46.8,36.181c0.754,0,1.148-0.368,1.148-1.072
				c0-0.711-0.411-1.131-1.294-1.131h-0.608v2.16C46.174,36.155,46.629,36.181,46.8,36.181L46.8,36.181L46.8,36.181z"/>
			<path id="Fill-29" fill="#241F21" d="M49.904,33.893c0-1.706,1.388-2.871,2.862-2.871c1.517,0,2.82,1.054,2.82,2.76
				c0,1.706-1.389,2.871-2.863,2.871C51.206,36.652,49.904,35.599,49.904,33.893 M54.625,33.781c0-1.483-0.788-2.332-1.859-2.332
				c-1.088,0-1.903,0.832-1.903,2.443c0,1.483,0.789,2.331,1.86,2.331C53.812,36.224,54.625,35.393,54.625,33.781"/>
			<path id="Fill-31" fill="#241F21" d="M56.308,33.893c0-1.706,1.388-2.871,2.863-2.871c1.517,0,2.819,1.054,2.819,2.76
				c0,1.706-1.389,2.871-2.863,2.871C57.61,36.652,56.308,35.599,56.308,33.893 M61.029,33.781c0-1.483-0.788-2.332-1.859-2.332
				c-1.089,0-1.903,0.832-1.903,2.443c0,1.483,0.789,2.331,1.86,2.331C60.215,36.224,61.029,35.393,61.029,33.781"/>
			<path id="Fill-33" fill="#241F21" d="M66.791,36.532v-0.12l-2.058-2.374l-0.308-0.086v2.186h0.634
				c0.017,0.061,0.025,0.129,0.025,0.198c0,0.068-0.008,0.137-0.025,0.197h-2.186c-0.018-0.06-0.026-0.128-0.026-0.197
				c0-0.069,0.008-0.129,0.026-0.198h0.703v-4.67h-0.703c-0.018-0.069-0.026-0.128-0.026-0.197s0.008-0.137,0.026-0.198h2.186
				c0.017,0.061,0.025,0.129,0.025,0.198s-0.008,0.128-0.025,0.197h-0.634v2.134h0.308l1.877-1.851l-0.06-0.283h-0.455
				c-0.017-0.069-0.025-0.128-0.025-0.197s0.008-0.129,0.025-0.198h1.834c0.017,0.069,0.025,0.129,0.025,0.198
				s-0.008,0.128-0.025,0.197h-0.42l-2.151,2.04l2.289,2.631h0.48c0.017,0.068,0.026,0.129,0.026,0.198
				c0,0.068-0.009,0.137-0.026,0.197H66.791L66.791,36.532z"/>
			<path id="Fill-35" fill="#241F21" d="M75.114,36.532c-0.017-0.06-0.026-0.128-0.026-0.197c0-0.069,0.009-0.129,0.026-0.198H75.8
				l-0.66-1.585h-1.989l-0.532,1.277l0.128,0.309h0.472c0.017,0.061,0.026,0.129,0.026,0.198c0,0.068-0.009,0.137-0.026,0.197
				h-1.654c-0.017-0.06-0.025-0.128-0.025-0.197c0-0.078,0.008-0.129,0.025-0.198h0.377l2.229-5.151h0.36l2.168,5.151h0.437
				c0.018,0.061,0.026,0.129,0.026,0.198c0,0.068-0.008,0.137-0.026,0.197H75.114L75.114,36.532z M74.352,32.65l-0.188-0.652
				l-0.206,0.652l-0.625,1.483h1.628L74.352,32.65L74.352,32.65z"/>
			<path id="Fill-37" fill="#241F21" d="M77.884,36.532c-0.017-0.06-0.025-0.128-0.025-0.197c0-0.078,0.008-0.129,0.025-0.198h0.703
				v-4.67h-0.703c-0.017-0.069-0.025-0.128-0.025-0.197s0.008-0.137,0.025-0.198h2.305c1.243,0,1.92,0.6,1.92,1.56
				c0,0.969-0.746,1.646-2.04,1.646h-0.634v1.86h0.78c0.017,0.061,0.026,0.129,0.026,0.198c0,0.068-0.009,0.137-0.026,0.197H77.884
				L77.884,36.532z M79.436,33.884h0.634c0.703,0,1.123-0.429,1.123-1.251c0-0.805-0.386-1.165-1.123-1.165h-0.634V33.884
				L79.436,33.884z"/>
			<path id="Fill-39" fill="#241F21" d="M85.805,36.532c-0.017-0.06-0.026-0.128-0.026-0.197c0-0.069,0.009-0.129,0.026-0.198h0.686
				l-0.66-1.585h-1.989l-0.531,1.277l0.128,0.309h0.472c0.017,0.061,0.026,0.129,0.026,0.198c0,0.068-0.009,0.137-0.026,0.197
				h-1.654c-0.017-0.06-0.025-0.128-0.025-0.197c0-0.078,0.008-0.129,0.025-0.198h0.377l2.228-5.151h0.36l2.168,5.151h0.437
				c0.018,0.061,0.026,0.129,0.026,0.198c0,0.068-0.008,0.137-0.026,0.197H85.805L85.805,36.532z M85.042,32.65l-0.189-0.652
				l-0.206,0.652l-0.625,1.483h1.628L85.042,32.65L85.042,32.65z"/>
			<path id="Fill-41" fill="#241F21" d="M92.388,36.532v-0.12l-1.62-2.177l-0.643-0.094v1.997h0.66
				c0.018,0.061,0.026,0.129,0.026,0.198c0,0.068-0.008,0.137-0.026,0.197h-2.211c-0.017-0.06-0.025-0.128-0.025-0.197
				c0-0.078,0.008-0.129,0.025-0.198h0.702v-4.67h-0.702c-0.017-0.069-0.025-0.128-0.025-0.197s0.008-0.137,0.025-0.198h2.314
				c1.208,0,1.868,0.532,1.868,1.492c0,0.677-0.531,1.312-1.405,1.465c0.274,0.189,0.54,0.438,0.754,0.746l1.097,1.362h0.386
				c0.017,0.061,0.025,0.129,0.025,0.198c0,0.068-0.009,0.137-0.025,0.197H92.388L92.388,36.532z M91.017,33.798
				c0.463-0.171,0.84-0.514,0.84-1.217c0-0.797-0.352-1.114-1.089-1.114h-0.643v2.331H91.017L91.017,33.798z"/>
			<path id="Fill-43" fill="#241F21" d="M98.706,31.073h-4.688l-0.128,1.054h0.463l0.223-0.428c0.077-0.154,0.111-0.214,0.188-0.231
				h1.174v4.67h-0.703c-0.017,0.069-0.025,0.12-0.025,0.197c0,0.068,0.009,0.137,0.025,0.197h2.254
				c0.017-0.06,0.025-0.129,0.025-0.197c0-0.069-0.009-0.137-0.025-0.197h-0.703v-4.67h1.175c0.076,0.017,0.111,0.077,0.188,0.231
				l0.223,0.428h0.463L98.706,31.073L98.706,31.073z"/>
			<path id="Stroke-45" fill="#241F21" d="M0,0"/>
			<path id="Fill-73" fill="#FFFFFF" d="M30.491,200.098l-0.138-1.289c-0.461,1.014-1.705,1.52-2.857,1.52
				c-2.534,0-4.192-1.428-4.331-4.792c-0.046-1.013-0.139-10.458-0.139-13.868s-0.045-10.275,0.093-13.224
				c0.092-3.087,1.566-5.437,4.653-5.437c3.272,0,4.332,2.396,4.469,4.607c0.047,1.75,0,7.096,0,7.096h-2.81v-6.221
				c0-1.889-0.599-2.488-1.659-2.488c-1.014,0-1.751,0.737-1.751,2.719c0,2.212-0.046,10.551-0.046,12.993
				c0,1.843,0.046,11.565,0.046,13.132c0,1.797,0.553,2.719,1.797,2.719c1.152,0,1.797-0.83,1.797-2.535v-11.703h-2.396v-2.764
				h5.161v11.288c0,4.193,0.046,8.247,0.046,8.247H30.491L30.491,200.098z"/>
			<path id="Fill-75" fill="#FFFFFF" d="M41.503,194.799c0.092-1.611,0.092-10.366,0.092-13.177c0-2.488,0-11.151-0.046-12.625
				c-0.046-2.119-0.507-3.041-1.981-3.041c-1.659,0-1.981,1.198-1.981,3.087c0,1.521-0.046,10.045-0.046,12.717
				c0,2.811,0,11.474,0.046,13.039c0.046,1.567,0.46,2.719,2.027,2.719C40.997,197.518,41.411,196.273,41.503,194.799
				 M44.498,169.228c0,1.659,0.046,8.662,0.046,12.302c0,4.055,0,10.32-0.046,12.717c-0.138,4.055-1.613,6.129-4.976,6.129
				s-4.792-1.936-4.884-6.036c-0.046-1.015-0.046-8.801-0.046-12.764c0-3.409,0-10.966,0.046-12.21
				c0.092-4.238,1.521-6.312,4.884-6.312C42.748,163.053,44.36,164.942,44.498,169.228"/>
			<polygon id="Clip-78" fill="none" points="0,0 194.117,0 194.117,300 0,300 			"/>
			<polygon id="Fill-77" fill="#FFFFFF" points="47.079,163.238 49.982,163.238 49.982,200.098 47.079,200.098 			"/>
			<polygon id="Fill-79" fill="#FFFFFF" points="59.013,200.098 55.419,176.186 55.419,200.098 52.838,200.098 52.838,163.238 
				55.926,163.238 59.612,189.316 59.612,163.238 62.238,163.238 62.238,200.098 			"/>
			<path id="Fill-80" fill="#FFFFFF" d="M72.375,200.098l-0.138-1.289c-0.46,1.014-1.705,1.52-2.856,1.52
				c-2.535,0-4.193-1.428-4.332-4.792c-0.046-1.013-0.138-10.458-0.138-13.868s-0.046-10.275,0.092-13.224
				c0.092-3.087,1.566-5.437,4.654-5.437c3.271,0,4.331,2.396,4.469,4.607c0.046,1.75,0,7.096,0,7.096h-2.811v-6.221
				c0-1.889-0.599-2.488-1.658-2.488c-1.014,0-1.751,0.737-1.751,2.719c0,2.212-0.046,10.551-0.046,12.993
				c0,1.843,0.046,11.565,0.046,13.132c0,1.797,0.553,2.719,1.797,2.719c1.151,0,1.797-0.83,1.797-2.535v-11.703h-2.396v-2.764
				h5.161v11.288c0,4.193,0.046,8.247,0.046,8.247H72.375L72.375,200.098z"/>
			<path id="Fill-81" fill="#FFFFFF" d="M29.154,209.315c-0.092-1.382-0.691-2.396-1.705-2.396h-1.336v14.007
				c0.046,0,1.06,0,1.475-0.093c0.783-0.092,1.106-0.69,1.29-1.289c0.323-0.876,0.461-3.549,0.461-4.977
				C29.339,212.679,29.201,209.775,29.154,209.315 M31.735,220.374c-0.323,0.921-1.014,2.12-1.613,2.351l2.995,18.291h-2.995
				L27.496,223.6l-1.428,0.045v17.371h-2.765v-36.86h4.377c2.534,0,3.732,1.382,4.285,3.824c0.23,1.06,0.369,3.226,0.369,6.128
				C32.334,217.148,32.149,219.037,31.735,220.374"/>
			<polygon id="Fill-82" fill="#FFFFFF" points="35.006,241.016 35.006,204.155 43.254,204.155 43.254,206.92 37.863,206.92 
				37.863,221.02 42.609,221.02 42.609,223.783 37.863,223.783 37.863,238.251 43.3,238.251 43.3,241.016 			"/>
			<path id="Fill-83" fill="#FFFFFF" d="M48.829,241.293c-2.995,0-4.653-1.706-4.653-4.701v-5.206h2.672v4.653
				c0,1.936,0.737,2.627,1.843,2.627c1.244,0,1.935-0.83,1.935-3.871c0-4.146-0.507-6.727-2.12-10.32
				c-0.415-0.875-1.244-2.627-1.75-3.641c-1.889-3.732-2.765-6.357-2.765-10.459c0-4.146,1.797-6.404,4.884-6.404
				c3.318,0,4.516,2.488,4.562,6.128c0,0.231,0.046,4.147,0.046,4.147h-2.811v-4.055c0-2.166-0.369-3.41-1.843-3.41
				c-1.382,0-1.843,1.061-1.843,3.87c0,2.949,0.783,5.668,2.35,8.616c0.553,1.061,1.198,2.305,1.751,3.456
				c1.796,3.731,2.534,7.096,2.534,11.565C53.621,239.449,51.87,241.293,48.829,241.293"/>
			<path id="Fill-84" fill="#FFFFFF" d="M61.454,208.486c-0.507-1.197-1.198-1.475-1.797-1.475h-1.014v15.85h0.875
				c1.29-0.046,1.659-0.736,2.027-1.612c0.369-0.875,0.553-2.673,0.553-6.22C62.099,211.48,61.777,209.224,61.454,208.486
				 M63.758,223.553c-0.784,1.198-1.843,1.844-3.41,2.027c-0.783,0.093-1.705,0.046-1.705,0.046v15.39h-2.856v-36.86h4.653
				c1.613,0,2.626,0.737,3.41,2.073c0.737,1.152,1.198,4.147,1.198,8.708C65.048,219.498,64.726,222.078,63.758,223.553"/>
			<path id="Fill-85" fill="#FFFFFF" d="M73.987,235.717c0.092-1.613,0.092-10.367,0.092-13.178c0-2.488,0-11.15-0.045-12.625
				c-0.046-2.119-0.507-3.041-1.981-3.041c-1.659,0-1.981,1.199-1.981,3.088c0,1.521-0.046,10.044-0.046,12.717
				c0,2.811,0,11.473,0.046,13.039c0.046,1.566,0.461,2.719,2.027,2.719C73.48,238.436,73.896,237.191,73.987,235.717
				 M76.982,210.145c0,1.66,0.046,8.663,0.046,12.303c0,4.055,0,10.32-0.046,12.717c-0.138,4.055-1.612,6.129-4.976,6.129
				s-4.792-1.936-4.884-6.037c-0.047-1.014-0.047-8.801-0.047-12.763c0-3.409,0-10.966,0.047-12.21
				c0.092-4.238,1.521-6.312,4.884-6.312C75.231,203.971,76.844,205.859,76.982,210.145"/>
			<polygon id="Fill-86" fill="#FFFFFF" points="85.783,241.016 82.189,217.103 82.189,241.016 79.609,241.016 79.609,204.155 
				82.696,204.155 86.382,230.234 86.382,204.155 89.008,204.155 89.008,241.016 			"/>
			<path id="Fill-87" fill="#FFFFFF" d="M95.69,241.293c-2.995,0-4.654-1.706-4.654-4.701v-5.206h2.673v4.653
				c0,1.936,0.737,2.627,1.843,2.627c1.244,0,1.935-0.83,1.935-3.871c0-4.146-0.506-6.727-2.119-10.32
				c-0.415-0.875-1.244-2.627-1.751-3.641c-1.889-3.732-2.765-6.357-2.765-10.459c0-4.146,1.797-6.404,4.884-6.404
				c3.316,0,4.516,2.488,4.561,6.128c0,0.231,0.047,4.147,0.047,4.147h-2.811v-4.055c0-2.166-0.369-3.41-1.843-3.41
				c-1.383,0-1.843,1.061-1.843,3.87c0,2.949,0.783,5.668,2.35,8.616c0.553,1.061,1.197,2.305,1.75,3.456
				c1.797,3.731,2.535,7.096,2.535,11.565C100.482,239.449,98.73,241.293,95.69,241.293"/>
			<polygon id="Fill-88" fill="#FFFFFF" points="102.647,204.155 105.55,204.155 105.55,241.016 102.647,241.016 			"/>
			<polygon id="Fill-89" fill="#FFFFFF" points="114.396,241.016 110.941,241.016 107.209,204.155 110.112,204.155 112.738,234.52 
				115.318,204.155 118.176,204.155 			"/>
			<polygon id="Fill-90" fill="#FFFFFF" points="119.973,241.016 119.973,204.155 128.22,204.155 128.22,206.92 122.829,206.92 
				122.829,221.02 127.575,221.02 127.575,223.783 122.829,223.783 122.829,238.251 128.266,238.251 128.266,241.016 			"/>
			<path id="Fill-91" fill="#FFFFFF" d="M27.25,150.725v-0.294l-1.844-2.451l-0.363-0.068v2.265h0.667
				c0.02,0.069,0.029,0.206,0.029,0.284c0,0.079-0.01,0.196-0.029,0.264h-2.755c-0.02-0.068-0.03-0.186-0.03-0.264
				c0-0.088,0.01-0.206,0.03-0.284h0.687v-5.148h-0.687c-0.02-0.079-0.03-0.196-0.03-0.275c0-0.078,0.01-0.206,0.03-0.274h2.775
				c0.02,0.069,0.029,0.196,0.029,0.274c0,0.079-0.01,0.206-0.029,0.275h-0.687v2.344h0.363l2.128-2.03l-0.108-0.314h-0.49
				c-0.02-0.079-0.029-0.196-0.029-0.275c0-0.078,0.01-0.206,0.029-0.274h2.295c0.02,0.069,0.029,0.196,0.029,0.274
				c0,0.079-0.01,0.206-0.029,0.275h-0.422l-2.333,2.108l2.354,3.04h0.421c0.02,0.069,0.029,0.206,0.029,0.284
				c0,0.079-0.01,0.196-0.029,0.264H27.25L27.25,150.725z"/>
			<path id="Fill-92" fill="#FFFFFF" d="M32.112,148.666l-0.451,0.127c-0.451,0.118-0.598,0.324-0.598,0.716
				c0,0.412,0.177,0.598,0.588,0.598c0.147,0,0.353-0.039,0.461-0.088V148.666L32.112,148.666z M30.965,150.823
				c-0.687,0-1.138-0.382-1.138-1.04c0-0.961,1.099-1.373,2.285-1.471v-1.196c-0.098-0.196-0.422-0.353-0.775-0.353
				c-0.068,0-0.137,0.01-0.167,0.02l-0.206,1.187h-0.324c-0.549,0-0.775-0.158-0.775-0.521c0-0.588,0.883-1.186,2.02-1.186
				c0.912,0,1.51,0.471,1.51,1.382c0,0.147-0.069,2.226-0.069,2.442c0.079,0.049,0.177,0.078,0.304,0.078
				c0.118,0,0.226-0.039,0.313-0.127l0.049,0.354c-0.127,0.245-0.441,0.431-0.755,0.431c-0.432,0-0.775-0.147-1.069-0.54
				C31.709,150.716,31.337,150.823,30.965,150.823L30.965,150.823L30.965,150.823z"/>
			<path id="Fill-93" fill="#FFFFFF" d="M34.317,150.725c-0.02-0.068-0.029-0.156-0.029-0.264s0.01-0.186,0.029-0.265h0.569v-2.766
				l-0.549-0.618v-0.167l1.53-0.382h0.157l0.127,1.03c0.52-0.824,0.853-1.03,1.265-1.03c0.461,0,0.707,0.294,0.707,0.637
				c0,0.313-0.147,0.578-0.412,0.794l-0.167,0.137l-0.775-0.46c-0.108,0-0.265,0.039-0.579,0.255v2.569h0.618
				c0.02,0.079,0.029,0.167,0.029,0.265c0,0.108-0.01,0.196-0.029,0.264H34.317L34.317,150.725z"/>
			<path id="Fill-94" fill="#FFFFFF" d="M41.072,147.764c0.01-0.098,0.01-0.186,0.01-0.255c0-0.186-0.029-0.421-0.059-0.52
				s-0.088-0.147-0.187-0.177c-0.098-0.029-0.235-0.049-0.343-0.049c-0.098,0-0.255,0.02-0.333,0.039
				c-0.069,0.02-0.118,0.04-0.167,0.088c-0.127,0.127-0.294,0.549-0.333,0.873H41.072L41.072,147.764z M42.25,149.725
				c-0.324,0.657-0.932,1.099-1.716,1.099c-1.305,0-2.236-0.844-2.236-2.168c0-1.441,1.039-2.393,2.246-2.393
				c1.128,0,1.785,0.628,1.785,1.51c0,0.187-0.02,0.333-0.049,0.471h-2.647c-0.01,0.079-0.01,0.128-0.01,0.176
				c0,0.844,0.51,1.432,1.412,1.432c0.48,0,0.854-0.177,1.138-0.441L42.25,149.725L42.25,149.725z"/>
			<path id="Fill-95" fill="#FFFFFF" d="M45.69,150.725c-0.02-0.068-0.03-0.166-0.03-0.274c0-0.107,0.01-0.176,0.03-0.254h0.47
				v-2.785c-0.147-0.187-0.402-0.255-0.647-0.255c-0.284,0-0.638,0.098-0.932,0.274v2.766h0.471c0.02,0.079,0.03,0.157,0.03,0.254
				c0,0.108-0.01,0.206-0.03,0.274h-2.344c-0.02-0.068-0.03-0.166-0.03-0.274c0-0.107,0.01-0.176,0.03-0.254h0.569v-2.766
				l-0.549-0.618v-0.167l1.53-0.382h0.157l0.127,0.873c0.569-0.667,1.069-0.873,1.628-0.873c0.696,0,1.295,0.353,1.295,1.324v2.608
				h0.559c0.02,0.079,0.029,0.147,0.029,0.254c0,0.108-0.01,0.206-0.029,0.274H45.69L45.69,150.725z"/>
			<path id="Fill-96" fill="#FFFFFF" d="M56.298,150.725c-0.02-0.068-0.029-0.195-0.029-0.274c0-0.088,0.01-0.195,0.029-0.274h0.726
				v-3.991l0.079-0.932l-2.099,5.57h-0.745l-1.657-4.638l-0.255-0.932l-0.098,4.649l0.206,0.274h0.52
				c0.02,0.069,0.029,0.196,0.029,0.274c0,0.079-0.01,0.206-0.029,0.274h-2.128c-0.02-0.068-0.029-0.195-0.029-0.274
				c0-0.088,0.01-0.195,0.029-0.274h0.432l0.206-0.274l0.167-4.874h-0.785c-0.02-0.079-0.029-0.196-0.029-0.275
				c0-0.078,0.01-0.206,0.029-0.274h2.54l1.245,3.442l0.343,1.196l0.363-1.196l1.274-3.442h2.432
				c0.02,0.069,0.029,0.196,0.029,0.274c0,0.079-0.01,0.206-0.029,0.275h-0.687v5.148h0.687c0.02,0.069,0.029,0.196,0.029,0.274
				c0,0.079-0.01,0.206-0.029,0.274H56.298L56.298,150.725z"/>
			<path id="Fill-97" fill="#FFFFFF" d="M63.386,149.725c-0.323,0.657-0.941,1.099-1.687,1.099c-1.235,0-2.226-0.814-2.226-2.178
				c0-1.422,1-2.383,2.373-2.383c1.079,0,1.53,0.402,1.53,0.961c0,0.52-0.402,0.716-0.921,0.716h-0.187l-0.215-1.069
				c-0.079-0.049-0.216-0.079-0.333-0.079c-0.461,0-0.912,0.373-0.912,1.521c0,0.951,0.51,1.529,1.393,1.529
				c0.421,0,0.833-0.157,1.108-0.432L63.386,149.725L63.386,149.725z"/>
			<path id="Fill-98" fill="#FFFFFF" d="M69.857,148.401v1.951c-0.53,0.294-1.461,0.471-2.167,0.471
				c-2.157,0-3.716-1.157-3.716-3.138c0-2.069,1.48-3.305,3.491-3.305c0.627,0,1.216,0.118,1.579,0.344l0.098-0.344h0.726v1.51
				l-0.657,0.108l-0.313-0.696c-0.206-0.157-0.706-0.265-1.275-0.265c-1.275,0-2.099,0.823-2.099,2.647
				c0,1.608,0.833,2.491,2.246,2.491c0.265,0,0.529-0.03,0.726-0.069v-1.706h-0.608c-0.02-0.079-0.029-0.206-0.029-0.285
				c0-0.078,0.01-0.226,0.029-0.294h2.511c0.019,0.068,0.029,0.216,0.029,0.294c0,0.079-0.01,0.216-0.029,0.285H69.857
				L69.857,148.401z"/>
			<path id="Fill-99" fill="#FFFFFF" d="M70.846,150.725c-0.02-0.068-0.029-0.156-0.029-0.264s0.01-0.186,0.029-0.265h0.569v-2.766
				l-0.549-0.618v-0.167l1.53-0.382h0.157l0.127,1.03c0.52-0.824,0.853-1.03,1.265-1.03c0.461,0,0.707,0.294,0.707,0.637
				c0,0.313-0.147,0.578-0.412,0.794l-0.167,0.137l-0.775-0.46c-0.108,0-0.265,0.039-0.579,0.255v2.569h0.618
				c0.02,0.079,0.029,0.167,0.029,0.265c0,0.108-0.01,0.196-0.029,0.264H70.846L70.846,150.725z"/>
			<path id="Fill-100" fill="#FFFFFF" d="M77.337,148.666l-0.451,0.127c-0.451,0.118-0.598,0.324-0.598,0.716
				c0,0.412,0.177,0.598,0.588,0.598c0.147,0,0.353-0.039,0.461-0.088V148.666L77.337,148.666z M76.19,150.823
				c-0.687,0-1.138-0.382-1.138-1.04c0-0.961,1.098-1.373,2.285-1.471v-1.196c-0.098-0.196-0.422-0.353-0.774-0.353
				c-0.069,0-0.138,0.01-0.167,0.02l-0.206,1.187h-0.324c-0.549,0-0.775-0.158-0.775-0.521c0-0.588,0.883-1.186,2.02-1.186
				c0.912,0,1.51,0.471,1.51,1.382c0,0.147-0.068,2.226-0.068,2.442c0.078,0.049,0.176,0.078,0.304,0.078
				c0.118,0,0.226-0.039,0.313-0.127l0.049,0.354c-0.127,0.245-0.441,0.431-0.755,0.431c-0.432,0-0.775-0.147-1.069-0.54
				C76.935,150.716,76.562,150.823,76.19,150.823L76.19,150.823L76.19,150.823z"/>
			<path id="Fill-101" fill="#FFFFFF" d="M82.523,150.725c-0.02-0.068-0.029-0.166-0.029-0.274c0-0.107,0.01-0.176,0.029-0.254
				h0.471v-2.785c-0.147-0.187-0.402-0.255-0.647-0.255c-0.284,0-0.638,0.098-0.932,0.274v2.766h0.471
				c0.02,0.079,0.029,0.157,0.029,0.254c0,0.108-0.01,0.206-0.029,0.274h-2.344c-0.02-0.068-0.029-0.166-0.029-0.274
				c0-0.107,0.01-0.176,0.029-0.254h0.569v-2.766l-0.55-0.618v-0.167l1.53-0.382h0.157l0.127,0.873
				c0.569-0.667,1.069-0.873,1.628-0.873c0.696,0,1.294,0.353,1.294,1.324v2.608h0.559c0.02,0.079,0.029,0.147,0.029,0.254
				c0,0.108-0.01,0.206-0.029,0.274H82.523L82.523,150.725z"/>
			<path id="Stroke-103" fill="#FFFFFF" d="M87.856,147.764c0.01-0.098,0.01-0.186,0.01-0.255c0-0.186-0.029-0.421-0.059-0.52
				c-0.03-0.098-0.088-0.147-0.187-0.177c-0.098-0.029-0.235-0.049-0.343-0.049c-0.098,0-0.255,0.02-0.333,0.039
				c-0.069,0.02-0.118,0.04-0.167,0.088c-0.127,0.127-0.294,0.549-0.333,0.873H87.856L87.856,147.764z M89.033,149.725
				c-0.323,0.657-0.932,1.099-1.716,1.099c-1.305,0-2.236-0.844-2.236-2.168c0-1.441,1.039-2.393,2.246-2.393
				c1.128,0,1.785,0.628,1.785,1.51c0,0.187-0.02,0.333-0.049,0.471h-2.648c-0.01,0.079-0.01,0.128-0.01,0.176
				c0,0.844,0.51,1.432,1.412,1.432c0.48,0,0.853-0.177,1.138-0.441L89.033,149.725L89.033,149.725z M0,0"/>
			<path id="Fill-138" fill="#FFFFFF" d="M165.76,56.716c0-2.132-0.882-3.235-2.475-3.235c-1.568,0-2.451,1.25-2.451,3.235
				c0,2.23,0.883,3.431,2.451,3.431S165.76,58.996,165.76,56.716L165.76,56.716L165.76,56.716z M164.167,52.255
				c1.937,0,3.849,1.397,3.849,4.265c0,2.966-2.305,4.682-4.707,4.682c-2.745,0-4.682-1.814-4.682-5.172
				c0-3.996,2.279-8.162,8.359-10.932l0.637,0.735c-4.216,2.328-6.349,5.588-6.569,7.991
				C161.789,52.77,162.77,52.255,164.167,52.255L164.167,52.255L164.167,52.255z M149.584,60.957
				c-0.05-0.172-0.074-0.368-0.074-0.564c0-0.221,0.024-0.368,0.074-0.563h2.646V46.568h-2.598
				c-0.049-0.196-0.074-0.367-0.074-0.563s0.025-0.392,0.074-0.563h1.471l3.26-0.343l0.172,0.22l-0.147,1.74v12.771h2.083
				c0.049,0.171,0.074,0.368,0.074,0.563c0,0.197-0.025,0.393-0.074,0.564H149.584L149.584,60.957z"/>
			<rect id="Rectangle-path" x="23" y="247" width="140.223" height="0.974"/>
			<rect id="Rectangle-path-Copy" x="23" y="156" width="140.223" height="0.974"/>
		</g>
	</g>
</g>
</svg>
