<svg width="33" height="33" viewBox="0 0 33 33" xmlns="http://www.w3.org/2000/svg">
  <path d="M24.76 24.52h-3.43V19c0-1.4-.5-2.34-1.73-2.34-.95 0-1.52.65-1.77 1.26-.1.22-.1.52-.1.84v5.76H14.3s.03-9.35 0-10.32h3.4v1.46c.47-.7 1.28-1.7 3.1-1.7 2.26 0 3.95 1.47 3.95 4.64v5.92zM10.68 12.8h-.02c-1.15 0-1.9-.8-1.9-1.8s.77-1.77 1.94-1.77c1.18 0 1.9.77 1.92 1.78 0 1-.74 1.8-1.94 1.8zM8.96 24.5h3.44V14.2H8.96v10.32zM16.76.87c-8.83 0-16 7.17-16 16 0 8.84 7.17 16 16 16 8.84 0 16-7.16 16-16 0-8.83-7.16-16-16-16z" fill="#1D638A" fill-rule="evenodd"/>
</svg>
