<svg version="1" xmlns="http://www.w3.org/2000/svg" viewBox="0 0 510 390" class="nav-icon"><g id="articles"><path d="M392 98l8 9v-4-6h-6l-2-3v-2h-3l-1 1 3 3 1 2zM102 129l-5 2h-5l1 2 1 31c37-4 75-6 113-6l-1-7c0-2 2-3 3-3h34c20-1 39 0 59 1 1 0 3 1 3 3l-1 9h118l-1-36v-1h-1l-7-3-14-7-2 1-79 2v5l-3 3H191c-2 0-3-1-3-3v-4c-24 2-48 2-71-1-4 5-8 9-15 12zM368 110l5-1v-3l-1-10h-5-1l1 2 1 12z"/><path d="M375 90l3 2 1 17h11c-5-4-9-8-11-14 0-3-1-6-4-6h-8v1h8zM130 104l2-7 6-3h6l-9-1h-6v1l-4 7-5 11 9 1 1-9zM399 91h8l1-22h-8l-2 19v3h1zM54 96h8l2-1c0-3-1-7-3-10-4-4-5-13-5-19H42c-1 9 3 17 7 24l5 6zM76 94c7-1 17-4 23 1a128 128 0 0 1 16 16v-1l2-14c-6 0-11-4-12-9H65l2 8 9-1z"/><path class="color-swap" d="M312 119v-5l1-2 1-1h4v-6c-45 2-91 3-137 2v5l-1 1h14v6h118z"/><path class="color-swap" d="M358 105l-20 1v5h20v-1-5z"/><path class="color-swap" d="M162 89c0-1 1-3 3-3l13 2 3 1v9l138-3v-6c0-1 1-3 3-3l13 2c2 0 3 1 3 3v5l19-1V84a404 404 0 0 1 5-64c-69-4-138-5-207-3l-1 73v7h8v-8z"/><path class="color-swap" d="M161 113v-6h-7l-1 6v1h8v-1z"/><path d="M142 100l-5 1-2 7v5h8l1-11 1-1v-1h-3zM175 93l-7-1-1 20v2l8-1v-1-19zM332 111V93h-7l-1 18v2l2-1h6v-1z"/><g><path d="M372 322zM94 215v1h1v-1h1c3-7 15-6 21-6 5 1 12 4 10 8v1l5 1v-1-1c2-9 15-8 22-8 4 1 11 4 10 9v4h4v-1-3-1c2-9 16-8 22-8 5 1 12 4 11 9l-1 6v1l5 1v-1-7-1c2-9 15-8 22-8 4 1 12 4 10 9 0 3 1 7-1 10h-1v1h7v-1l-1-10v-1c2-9 16-8 23-8 4 1 11 4 10 9l-1 8v1h5v-9-1c2-9 15-8 22-8 4 1 12 4 10 9v7h4v-1-6-1c2-9 16-8 23-8 4 1 11 4 10 9v4h4v-1-3-1c2-9 16-8 22-8 5 1 12 4 10 9v1h1l3-1v-1h1c1-8 12-8 19-8h2l1 1c2 0 6 1 8 3l1-8v-1-1l1-26 1-10H303v12c0 2-2 3-3 3l-90-4c-2 0-3-2-3-3v-2-4l-1-4c-38-1-75 1-113 5v25l1 20zm245-36c0-1 1-3 3-3h40c0-1 1-3 3-3l10 1c2 0 3 1 3 3v16c0 2-1 3-3 3h-10c-1 0-3-1-3-3v-1l-40 1c-2 0-3-2-3-3v-11zm-213 1h2c5-1 10 1 12 5 3 6 0 14-5 16-6 3-14 0-16-6-3-6 1-13 7-15zM433 270c1 9 1 20-2 26l-4 8-53-9h-6c-3 1-7 0-9-1-2 0-3-3-4-5l-2-1-2-4v-1h-4v1l-2 3v1c-1 2-2 4-5 6l-9 1c-3 1-7 0-9-1-2 0-3-3-4-5l-2-1v-1h-7-1v1c-1 2-2 5-4 6l-10 1c-2 1-6 0-9-1-2 0-3-3-4-5h-1v-1h-9v1l-4 5-9 1c-3 1-7 0-9-1-2 0-3-3-4-4v-1h-11v1l-4 4-9 1c-2 1-6 0-9-1l-3-4-1-1-11 1v1l-3 3-9 1c-3 1-7 0-10-1-1 0-2-1-2-3h-1v-1l-12 1-1 1-2 2-9 1c-3 1-7 0-9-1h-1l-1-1-3 9c-4 6-10 10-18 9-10 0-28-3-36-15-1-2-3-5-3-8l-1 1a201 201 0 0 0-6 23c0 2-1 5 2 7l8 1h46c4 0 10-1 13 1h1l2-17c1-2 1-4 4-5 6-2 12 1 17 1h104c33 0 66-3 99 1l3 2c1 4 2 10 1 14l1 1 74-4c-3-15-7-29-12-44zM362 333c0 1 0 1 0 0zM363 330l1-3-9 2-18-1-28-2c-18-2-36-2-54-1-37 2-73 3-110 2l2 6c72-2 144 1 216-1v-2z"/><path d="M214 171v1l84 4v-21c-18-1-36-2-55-1h-30v8l1 9zM363 307c-32-4-64-1-96-1H163l-14-1h-1l-1 6-1 10h54c34 0 67-4 100-2l46 4c5 0 12 1 16-2s3-9 1-14zM132 196c7-4 1-13-5-9h-1c-4 4 1 12 6 9zM392 190v-10l-4-1v11h4zM382 186v-4h-37v4h37z"/><path d="M471 332c0-13-2-26-6-38-7-22-20-42-26-65-3-12-3-25-2-37 0-14 0-28-3-41-1-6-2-14-5-20l-2-2v46l-3 46 3 18h6c4 1 11 4 10 9 0 3 0 8-2 11h-1l-3 6 2 5c5 15 10 30 12 46 1 2 0 4-3 4l-77 4v1l-2 6c0 2-1 6-3 7h-3c-73 2-146 0-219 1-2 0-4-2-3-4 1-3-1-6-3-7-2-2-4-2-7-2H80c-6 0-15-1-16-8-1-8 2-17 5-25l10-28 1-5-1-1c-2-2-1-8-1-11v-1c1-4 4-6 8-7l1-2c2-17 1-34 1-50l-1-51c-4 3-7 6-8 10-3 6-4 13-4 19l-1 21c0 13 0 27-2 40-5 25-19 48-26 73-7 24-8 50 5 71a2764 2764 0 0 0 177 4 8502 8502 0 0 0 209-5l22-4 7-2 2-1v-1c3-10 3-20 3-30z"/><path d="M104 233l5 1 7-1c2-1 4-1 4-3l-11 1h-7v1l2 1zM98 226c2 3 8 2 11 2s13 0 15-2v-5c-2 2-5 2-8 3l-11 1-7-2v3z"/><path d="M117 221c1-1 5-1 7-3v-1l-1-3c-1-2-6-2-8-2-4 0-12-1-16 3v1l-1 1c1 7 16 4 19 4zM157 230l-11 1h-8l1 1 2 1 4 1 8-1 4-3zM135 226c1 3 8 2 11 2s13 0 14-2l1-5c0 1 0 0 0 0v1l-8 2-11 1-8-2 1 3zM135 219c3 4 13 2 18 2l1-1h2c2 0 5-1 5-4l-1-2c-1-2-6-2-8-2-5 0-16-1-17 5v2zM194 230l-11 1h-8l1 1 1 1 5 1 8-1 4-3zM172 226c1 3 8 2 11 2 2 0 12 0 14-2v-1l1-1v-3c-2 2-4 2-7 2l-1 1h-1-1l-10 1-7-2 1 3z"/><path d="M191 221c1-1 7-1 7-4l-1-3c-2-2-6-2-8-2-5 0-16-1-18 5 1 7 16 4 20 4zM231 230l-12 1h-7v1l2 1 5 1 7-1c2-1 4-1 5-3zM208 225v1h1c1 3 7 2 10 2h7a21 21 0 0 0 4-1l4-1 1-4-9 2-11 1-7-2v2zM227 221c2-1 7-1 7-4l-1-3c-1-2-6-2-8-2-4 0-16-1-17 5 1 7 16 4 19 4zM267 230l-11 1h-8l1 1 2 1 4 1 8-1 4-3zM245 226l2 1 1 1h11a52 52 0 0 0 9-1l2-1 1-4-8 2-11 1-8-2 1 3zM264 221c2-1 7-1 7-4l-1-3c-1-2-6-2-8-2-5 0-16-1-17 5 1 7 15 4 19 4zM304 230l-11 1h-8l1 1 1 1 5 1 7-1c3-1 4-1 5-3zM282 226v1c3 2 8 1 11 1s13 0 14-2v-1h1v-1-2l-8 2-12 1-7-2 1 3zM301 221c1-1 7-1 7-4l-1-3c-2-2-6-2-8-2-5 0-16-1-18 5 1 7 16 4 20 4zM377 230l-11 1h-8l1 1 2 1 4 1 8-1 4-3zM355 226c1 3 8 2 11 2s13 0 14-2l1-5c-2 2-6 2-8 3l-12 1-7-2 1 3zM357 221h2c4 2 12 0 15-1h2l2-1h2l1-2-1-3c-1-2-6-2-8-2-5 0-16-1-18 5l3 4zM414 230l-11 1h-8l1 1 1 1 5 1 7-1c3-1 4-1 5-3zM392 226c1 3 8 2 11 2s13 0 14-2l1-5-8 3-12 1-7-2 1 3z"/><path d="M411 221c1-1 7-1 7-4l-1-3c-2-2-6-2-8-2h-6-3c-3 0-6 1-8 3v1l-1 1c1 7 16 4 20 4zM102 290v1l2 1h12l4-3-11 1h-7zM124 284v-4c-2 2-5 2-8 2-3 1-7 2-11 1-3 0-5 0-7-2v3c2 4 8 3 12 2 2 1 12 1 14-2z"/><path d="M98 276c1 7 16 4 19 3 2 0 7-1 7-4l-1-2c-1-2-6-2-8-2-4 0-16-1-17 5zM139 290v1h1l1 1h12l1-1h1l2-2-11 1h-7zM160 284l1-4c-2 2-6 2-8 2-4 1-8 2-12 1-2 0-5 0-7-2l1 3c1 4 8 3 11 2 3 1 13 1 14-2z"/><path d="M135 276c1 7 15 4 19 3 2 0 7-1 7-4l-1-2c-1-2-6-2-8-2-5 0-16-1-17 5zM175 290l1 1 1 1h5a22 22 0 0 0 10-1v-1h1l1-1-11 1h-8zM197 284l1-4c-3 2-6 2-9 2-3 1-7 2-11 1-3 0-5 0-7-2l1 3c1 4 8 3 11 2 3 1 13 1 14-2z"/><path d="M171 276c1 7 16 4 19 3 2 0 7-1 7-4l-1-2c-1-2-5-2-7-2-5 0-16-1-18 5zM220 290h-8v1l2 1h12l4-2v-1h1l-4 1h-7zM234 284l1-4c-3 2-6 2-9 2-4 1-7 2-11 1-3 0-5 0-7-2v3c2 4 8 3 11 2 3 1 13 1 15-2z"/><path d="M208 276c1 7 16 4 19 3 2 0 7-1 7-4l-1-2c-1-2-6-2-8-2-4 0-16-1-17 5zM249 290v1l2 1h12l4-3-11 1h-7zM270 284l1-4c-2 2-6 2-8 2-4 1-8 2-12 1-2 0-5 0-7-2l1 3c1 4 8 3 11 2 3 1 13 1 14-2z"/><path d="M245 276c1 7 15 4 19 3 2 0 7-1 7-4l-1-2c-1-2-6-2-8-2-5 0-16-1-17 5zM285 290l1 1 1 1h13l4-3-11 1h-8zM307 284l1-4c-3 2-6 2-8 2-4 1-8 2-12 1-3 0-5 0-7-2l1 3c1 4 8 3 11 2 3 1 13 1 14-2z"/><path d="M281 276c1 7 16 4 19 3 2 0 7-1 7-4l-1-2c-1-2-5-2-7-2-5 0-16-1-18 5zM322 290v1l2 1h12l5-3-12 1h-7zM344 285v-1l1-4c-3 2-6 2-9 2-3 1-7 2-11 1-3 0-5 0-7-2v3l4 2 8 1 5-1h4l3-1h2z"/><path d="M318 276c1 7 16 4 19 3 2 0 7-1 7-4l-1-2c-1-2-6-2-8-2-4 0-16-1-17 5zM370 290h-12l1 1 2 1h12l4-3-6 1h-1zM380 284l1-4c-2 2-6 2-8 2l-5 1h-1-6-4l-1-1-2-1v2h1v1c1 4 8 3 11 3h4c4 0 9-1 10-3z"/><path d="M355 276c1 7 15 4 19 3 2 0 7-1 7-4l-1-2c-1-2-6-2-8-2-5 0-16-1-17 5zM395 290l1 1 1 1h13l4-3-11 1h-8zM417 284l1-4c-3 2-6 2-8 2-4 1-8 2-12 1-3 0-5 0-7-2l1 3c1 4 8 3 11 2 3 1 13 1 14-2z"/><path d="M409 271c-5 0-16-1-18 5 1 7 16 4 20 3 1 0 7-1 7-4l-1-2c-2-2-6-2-8-2zM126 263l5 1 7-1c2-1 4-1 4-3l-11 1h-7v1l2 1zM127 255l-7-2v2c2 4 8 3 12 3 2 0 12 0 14-2l1-5-9 3-11 1z"/><path d="M120 247v1c1 6 16 3 19 2 2 0 7 0 7-3l-1-3c-1-2-6-2-8-2-4 0-16-1-17 5zM87 261h-2l1 1 1 1 5 1 8-1 4-3-11 1h-6zM89 255h-1l-2-1h-3l-1-1h-1l1 3v1l2 1h9c2 0 12 0 14-2l1-5-9 3-10 1zM86 243h-1l-4 4c0 2 1 3 2 3l1 1h3l3 1 11-2c1 0 7-1 7-4l-1-2c-2-2-6-2-8-2a73 73 0 0 0-10 0l-3 1zM163 263l4 1 8-1 4-3-11 1h-8l1 1 2 1zM164 255l-8-2 1 2c2 4 8 3 11 3s13 0 14-2l1-5c-2 2-6 2-8 3l-11 1z"/><path d="M157 247v1c1 6 15 3 19 2 2 0 7 0 7-3l-1-3c-1-2-6-2-8-2-5 0-16-1-17 5zM199 263l5 1 8-1 4-3-11 1h-8l1 1 1 1zM200 255l-7-2 1 2c1 4 8 3 11 3 2 0 12 0 14-2l1-5-9 3-11 1z"/><path d="M193 247v1c1 6 16 3 19 2 2 0 7 0 7-3l-1-3c-1-2-5-2-7-2-5 0-16-1-18 5zM236 263l5 1 7-1c2-1 4-1 4-3l-11 1h-7v1l2 1zM237 255l-7-2v2c2 4 8 3 12 3 2 0 12 0 14-2l1-5-9 3-11 1z"/><path d="M230 247v1c1 6 16 3 19 2 2 0 7 0 7-3l-1-3c-1-2-6-2-8-2-4 0-16-1-17 5zM273 263l4 1 8-1 4-3-11 1h-8l1 1 2 1zM274 255l-7-2v2c2 4 8 3 11 3s13 0 14-2l1-5c-2 2-6 2-8 3l-11 1z"/><path d="M267 247v1c1 6 15 3 19 2 2 0 7 0 7-3l-1-3c-1-2-6-2-8-2-5 0-16-1-17 5zM309 263l5 1 7-1c3-1 4-1 5-3l-11 1h-8l1 1 1 1zM310 255l-7-2 1 2c1 4 8 3 11 3 2 0 12 0 14-2l1-5-9 3-11 1z"/><path d="M303 247v1c1 6 16 3 19 2 2 0 7 0 7-3l-1-3c-1-2-5-2-7-2-5 0-16-1-18 5zM346 263l5 1 7-1c2-1 4-1 5-3l-12 1h-7v1l2 1zM347 255l-7-2v2c2 4 8 3 11 3s13 0 15-2v-5c-2 2-5 2-8 3l-11 1z"/><path d="M340 247v1c1 6 16 3 19 2 2 0 7 0 7-3l-1-3c-1-2-6-2-8-2-4 0-16-1-17 5zM383 263l4 1 8-1 4-3-11 1h-8l1 1 2 1zM388 258c3 0 13 0 14-2l1-5c-2 2-6 2-8 3l-11 1-8-2 1 2c2 4 8 3 11 3z"/><path d="M377 247v1c1 6 15 3 19 2 2 0 7 0 7-3l-1-3c-1-2-6-2-8-2-5 0-16-1-17 5zM432 261h-1-14l1 1 1 1 5 1 6-1h3l2-2 1-1h-1l-3 1zM439 256l1-5c-2 2-5 2-8 3h-3-1l-2 1h-6l-7-2 1 2c1 4 8 3 11 3h9l5-2zM413 247v1c1 4 6 4 11 4l4-1h3l1-1c2 0 7 0 7-4l-1-2c-1-2-5-2-7-2h-11c-3 1-6 2-7 5z"/></g><g class="key-on"><path d="M341 236l-11 1h-8v1l2 1 5 1 7-1c2-1 4-1 5-3zM318 229v3c2 3 8 2 11 2s13 0 15-2v-4l-2 1-6 1-11 1-4-1h-1l-1-1h-1zM337 227c2-1 7-1 7-4l-1-3c-1-2-6-2-8-2-4 0-16-1-17 5 1 7 16 4 19 4z"/><path d="M315 224l1-7c1-1 3-4 13-4 6 0 8-1 13 1 2 1 5 3 5 8 0 0 3-1 3-5v-10h-37l2 17z"/></g><g class="key-off"><path d="M341 230l-11 1h-8v1l2 1 5 1 7-1c2-1 4-1 5-3zM318 223v3c2 3 8 2 11 2s13 0 15-2v-4l-2 1-6 1-11 1-4-1h-1l-1-1h-1zM337 221c2-1 7-1 7-4l-1-3c-1-2-6-2-8-2-4 0-16-1-17 5 1 7 16 4 19 4z"/></g></g></svg>
