<svg viewBox="0 0 485 380" version="1" xmlns="http://www.w3.org/2000/svg" xmlns:xlink="http://www.w3.org/1999/xlink" class="nav-icon"><defs><path id="a" d="M1 0h208v82H1z"/><path id="c" d="M0 1h430v247H0z"/></defs><g fill-rule="evenodd"><path d="M381 92l8 9v-4-6h-6c-2-1-3-2-2-3v-2l-3 1h-1l3 3 1 2M91 122l-5 3h-5v2l2 31c37-4 75-6 113-6l-1-7c0-2 2-3 3-3h34c20-1 39-1 59 1 1 0 3 1 3 3l-1 9h118l-1-36v-1h-1l-7-3-14-7-2 1-79 2v4c0 2-2 3-3 3-42 1-83 2-124 1-2 0-3-1-3-3v-4c-24 2-48 2-72-1-3 5-7 9-14 11M357 103h5a66 66 0 0 0-1-13h-5-1l1 2 1 11"/><path d="M364 84l3 2 1 17h11c-5-4-9-8-10-14-1-3-2-6-5-6l-8-1v2h8M119 98l2-8 6-2h6l-9-1h-6l-1 1c0 3-2 5-3 7l-5 11h9l1-8M388 85h8l1-22h-8l-2 19v3h1M43 89c2 2 6 1 8 1l2-1-3-10c-4-4-5-13-5-19H31c-1 9 3 17 7 24l5 5M65 88c7-1 17-4 23 1a130 130 0 0 1 16 16v-1l2-14c-6 0-11-4-12-9H55h-1l2 8 9-1zM301 113v-5a3 3 0 0 1 1-3h5v-6c-45 2-91 3-137 2a159 159 0 0 1-1 6h14v6h118M346 99l-19 1v5h20v-1l-1-5"/><g transform="translate(142 10)"><mask id="b" fill="#fff"><use xlink:href="#a"/></mask><path d="M9 74c0-2 1-4 3-3l13 1 3 1v9l138-2v-6c0-2 1-4 3-3l13 1c2 0 3 1 3 3v5l19-1a307 307 0 0 1 0-33c1-14 2-28 5-42C140 1 71 0 1 1a3644 3644 0 0 1 0 80l8 1v-8" mask="url(#b)"/></g><path d="M150 107v-6h-7l-1 6v1h8v-1M131 94l-5 1-2 6a45 45 0 0 0 0 6h8l1-11 1-1 1-1h-4M164 87l-7-1-1 20v1h8v-1-1-18M321 104V87h-7l-1 18v1h8v-1-1M360 316c1 0 1 0 0 0M115 174h2c5-1 10 1 12 5 3 6 0 14-5 16-6 3-14 0-16-6-3-6 1-13 7-15m213-1c0-1 1-3 3-3h40c0-1 1-3 3-3l10 1c2 0 3 1 3 3v16c0 1-1 3-3 3h-10l-3-3v-1l-40 1c-2 0-3-2-3-3v-11M83 208v1l1 1 1-1c3-7 15-6 21-6 5 1 12 4 10 8v1l5 1a21 21 0 0 0 0-1v-1-1c2-8 15-7 22-7 4 1 11 4 10 9v4a14996 14996 0 0 1 4 0v-1-3-1-1c2-8 16-7 23-7 4 1 11 4 10 9v6l-1 1 5 1a20 20 0 0 1 0-1v-7-1-1c2-8 16-7 22-7 5 1 12 4 10 9 0 3 1 7-1 10h-1v1a207 207 0 0 0 7-2v-9-1-1c2-8 15-7 22-7 4 1 11 4 10 9l-1 8a7 7 0 0 1 0 1 2007 2007 0 0 0 5-1v-8-1-1c2-8 16-7 23-7 4 1 11 4 10 9v6a14 14 0 0 1-1 1 1897 1897 0 0 0 5-2v-5-1-1c2-8 16-7 22-7 5 1 12 4 10 9v4h4v-1h1v-3-1-1c2-8 15-7 22-7 4 1 11 4 10 9v1h1l3-1v-1-1c2-7 12-7 20-7a76 76 0 0 1 2 0h1l8 4 1-9v-1-1a593 593 0 0 0 2-35H293v12l-3 3-90-4c-2 0-3-2-3-4v-2-3l-1-5c-38 0-75 2-113 6v44M422 264c1 9 1 20-2 26l-4 8-53-9h-6c-3 1-7 0-9-1-2 0-3-3-4-5l-2-1-1-4-1-1h-4v1c0 2-1 2-2 3v1c-1 2-2 4-5 6l-9 1c-3 1-7 0-9-1-2 0-3-3-4-5l-2-1a4 4 0 0 1-1-1h-6-1v1c-1 2-2 4-5 6l-9 1c-2 1-6 0-9-1-2 0-3-3-4-5a6 6 0 0 1-1-1h-9v1l-4 5-9 1c-3 1-7 0-9-1-2 0-3-3-4-5h-1v-1l-10 1v1l-4 4-9 1c-3 1-7 0-9-1-2 0-3-2-3-4h-1v-1l-11 1v1l-4 3-9 1c-2 1-6 0-9-1l-3-3v-1l-12 1-1 1-2 2-9 1c-3 1-7 0-9-1h-1l-1-1-3 9c-4 6-10 10-18 9-10 0-28-3-36-15-2-2-3-5-3-8l-1 1a163 163 0 0 0-6 23c0 2-1 5 2 7l8 1h46c4 0 10-1 13 1h1l2-17c1-3 1-4 4-5 5-2 12 1 17 1h104c33 0 66-3 99 1l2 2c2 4 3 10 2 14l1 1 74-4c-3-15-7-30-12-44M351 327c0 1 0 1 0 0M352 324l1-3-9 2-18-1-28-2c-18-2-36-2-54-1-37 2-73 3-110 2l2 6c72-1 144 1 216-1v-2"/><path d="M203 165v1l84 3v-21h-85v8l1 9M352 301c-32-4-64-1-96-1H152l-14-2-1 1-1 6-1 10h55c33 0 66-4 99-2l46 3c5 1 12 2 16-1s3-10 1-14M121 190c7-4 1-13-5-9h-1c-4 4 1 12 6 9M381 184v-10l-4-1v11h4M371 180v-4h-37v4h37"/><g transform="translate(30 122)"><mask id="d" fill="#fff"><use xlink:href="#c"/></mask><path d="M430 204c0-13-2-25-6-38-8-22-20-42-26-65-3-12-3-25-2-37 0-14 0-28-3-41-1-6-2-14-5-20l-2-2v46l-3 46 3 18 6 1c4 0 11 3 10 8 0 3 0 9-2 11h-1l-3 6a235 235 0 0 1 14 51c1 2 0 4-2 4l-78 4v1l-2 6c0 2-1 6-3 7h-3c-73 2-146 0-219 1-2 0-4-2-3-4 1-3-1-6-3-7-2-2-4-1-7-1H72l-33-1c-6 0-15-1-16-8-1-8 2-17 5-25l10-28a650 650 0 0 0 0-6c-2-2-1-8-1-11v-1c1-4 4-6 8-7l1-2c2-16 1-34 1-50L46 9c-4 3-6 6-8 10-3 6-4 13-4 19l-1 21c0 13 0 27-2 40-5 26-19 48-26 73-7 24-8 50 5 72l82 4h95a8822 8822 0 0 0 209-6l22-3 7-2 2-2c3-10 3-21 3-31" mask="url(#d)"/></g><path d="M93 227l5 1 7-1c2-1 4-1 5-3l-12 1h-7v1l2 1M87 220c2 3 8 2 11 2s13 0 15-2v-5c-2 2-5 2-8 3l-11 1-7-2v3"/><path d="M106 214c2 0 5 0 7-2a2 2 0 0 0 0-1l-1-3c-1-2-5-2-8-2-4 0-12-1-16 3a5 5 0 0 0 0 1l-1 1v1c1 6 16 3 19 2M146 224l-11 1h-8l1 1 2 1 4 1 8-1 4-3M124 220c1 3 8 2 11 2s13 0 14-2l1-4v-1l-8 3-11 1-8-2 1 3"/><path d="M124 213c3 4 13 3 17 2l2-1h2c2 0 5-1 5-3l-1-3c-1-2-6-2-8-2-5 0-16-1-17 5v1a4 4 0 0 0 0 1M183 224l-11 1h-8l1 1 1 1 5 1 8-1 4-3M161 220c1 3 8 2 11 2s12 0 14-2v-1a5 5 0 0 0 1-1v-3c-2 2-4 2-6 2l-2 1h-1-1l-10 1-7-2 1 3"/><path d="M179 214c2 0 8 0 8-3l-1-3c-2-2-6-2-8-2-5 0-16-1-18 5v1c1 6 16 3 19 2M220 224l-12 1h-7v1l2 1 5 1 7-1c2-1 4-1 5-3M197 219v1h1c1 3 7 2 10 2h7a43 43 0 0 0 4-1l4-1v-5c-2 2-5 2-8 3l-11 1-7-2v2"/><path d="M216 214c2 0 7 0 7-3l-1-3c-1-2-5-2-8-2-4 0-16-1-17 5v1c1 6 16 3 19 2M256 224l-11 1h-8l1 1 2 1 4 1 8-1 4-3M234 220l2 1 1 1h11a61 61 0 0 0 9-1l2-1 1-5c-2 2-6 2-8 3l-11 1-8-2 1 3"/><path d="M253 214c2 0 7 0 7-3l-1-3c-1-2-6-2-8-2-5 0-16-1-17 5v1c1 6 15 3 19 2M293 224l-11 1h-8l1 1 1 1 5 1 8-1 4-3M271 220a3 3 0 0 0 0 1c3 2 8 1 11 1s12 0 14-2v-1a5 5 0 0 0 1-1v-3l-9 3-11 1-7-2 1 3"/><path d="M289 214c2 0 8 0 8-3l-1-3c-2-2-6-2-8-2-5 0-16-1-18 5v1c1 6 16 3 19 2M330 224l-12 1h-7v1l2 1 5 1 7-1c2-1 4-1 5-3M307 217v3c2 3 8 2 11 2s13 0 15-2v-4-1a9 9 0 0 1-2 2l-6 1-11 1a36 36 0 0 1-6-2h-1"/><path d="M326 214c2 0 7 0 7-3l-1-3c-1-2-5-2-8-2-4 0-16-1-17 5v1c1 6 16 3 19 2M366 224l-11 1h-8l1 1 2 1 4 1 8-1 4-3M344 220c1 3 8 2 11 2s13 0 14-2l1-5c-2 2-6 2-8 3l-11 1-8-2 1 3M346 214v1h2c4 2 12 0 15-1h3l2-1h1l1-2-1-3c-1-2-6-2-8-2-5 0-16-1-17 5v1c0 1 0 2 2 2M403 224l-11 1h-8l1 1 1 1 5 1 8-1 4-3M381 220c1 3 8 2 11 2s12 0 14-2l1-5-9 3-11 1-7-2 1 3"/><path d="M399 214c2 0 8 0 8-3l-1-3c-2-2-6-2-8-2h-6a43 43 0 0 0-3 0c-3 0-6 1-8 4a5 5 0 0 0-1 1v1c1 6 16 3 19 2M91 284v1l2 1h12l5-3-12 1h-7M113 278v-4c-2 2-5 2-8 2-3 1-7 2-11 1-3 0-5 0-7-2v3c2 4 8 3 11 3 3-1 13 0 15-3"/><path d="M87 270c1 7 16 4 19 3 2 0 7-1 7-4l-1-2c-1-2-5-2-8-2-4 0-16-1-17 5M127 284a5 5 0 0 0 2 1l1 1h4a20 20 0 0 0 8 0l1-1h1l2-2-11 1h-8M149 278l1-4c-2 2-6 2-8 2-4 1-8 2-11 1-3 0-6 0-8-2l1 3c1 4 8 3 11 3 3-1 13 0 14-3"/><path d="M124 270c1 7 15 4 19 3 2 0 7-1 7-4l-1-2c-1-2-6-2-8-2-5 0-16-1-17 5M164 284a6 6 0 0 0 1 1l1 1h5a23 23 0 0 0 10-1 6 6 0 0 0 1-1l1-1-11 1h-8M186 278l1-4c-3 2-6 2-9 2-3 1-7 2-11 1-3 0-5 0-7-2l1 3c1 4 8 3 11 3 3-1 12 0 14-3"/><path d="M160 270c1 7 16 4 19 3 2 0 8-1 8-4l-1-2c-2-2-6-2-8-2-5 0-16-1-18 5M208 284h-7a6 6 0 0 0 0 1l2 1h12a8 8 0 0 0 4-3h1a31 31 0 0 1-8 1h-4M223 278v-4c-2 2-5 2-8 2-3 1-7 2-11 1-3 0-5 0-7-2v3c2 4 8 3 11 3 3-1 13 0 15-3"/><path d="M197 270c1 7 16 4 19 3 2 0 7-1 7-4l-1-2c-1-2-5-2-8-2-4 0-16-1-17 5M237 284l1 1 2 1h12l4-3-11 1h-8M259 278l1-4c-2 2-6 2-8 2-4 1-8 2-11 1-3 0-6 0-8-2l1 3c1 4 8 3 11 3 3-1 13 0 14-3"/><path d="M234 270c1 7 15 4 19 3 2 0 7-1 7-4l-1-2c-1-2-6-2-8-2-5 0-16-1-17 5M274 284l1 1 1 1h13l4-3-11 1h-8M296 278l1-4c-3 2-6 2-9 2-3 1-7 2-11 1-3 0-5 0-7-2l1 3c1 4 8 3 11 3 3-1 12 0 14-3"/><path d="M270 270c1 7 16 4 19 3 2 0 8-1 8-4l-1-2c-2-2-6-2-8-2-5 0-16-1-18 5M311 284v1l2 1h12l5-3-12 1h-7M333 279v-1-4c-2 2-5 2-8 2-3 1-7 2-11 1-3 0-5 0-7-2v3l4 3h7l6-1h4l3-1h2"/><path d="M307 270c1 7 16 4 19 3 2 0 7-1 7-4l-1-2c-1-2-5-2-8-2-4 0-16-1-17 5M359 284h-12l1 1 2 1h12l4-3h-6v1h-1M369 278l1-4c-2 2-6 2-8 2l-5 1h-1a33 33 0 0 1-5 0 46 46 0 0 1-6-1l-2-1 1 1v1a8 8 0 0 0 0 1c1 4 8 3 11 3h4c4-1 9-1 10-3"/><path d="M344 270c1 7 15 4 19 3 2 0 7-1 7-4l-1-2c-1-2-6-2-8-2-5 0-16-1-17 5M384 284l1 1 1 1h13l4-3-11 1h-8M406 278l1-4c-3 2-6 2-9 2-3 1-7 2-11 1-3 0-5 0-7-2l1 3c1 4 8 3 11 3 3-1 12 0 14-3"/><path d="M398 265c-5 0-16-1-18 5 1 7 16 4 19 3 2 0 8-1 8-4l-1-2c-2-2-6-2-8-2M115 257l5 1 7-1c2-1 4-1 5-3l-12 1h-7v1l2 1M116 249l-7-2v3c2 3 8 2 11 2s13 0 15-2v-5c-2 2-5 2-8 3l-11 1"/><path d="M109 241v1c1 6 16 3 19 2 2 0 7 0 7-3l-1-3c-1-2-5-2-8-2-4 0-16-1-17 5M76 255h-2a5 5 0 0 0 1 1l1 1 5 1 8-1 4-3-11 1h-6M78 249h-1a48 48 0 0 1-5-1v-1a11 11 0 0 1-2 0l1 3v1l3 1h8c3 0 13 0 14-2l1-5-8 3-11 1M75 237h-1l-4 4v1l2 2 1 1 3 1h3l11-2c1 0 7 0 7-3l-1-3c-2-2-6-2-8-2h-7a30 30 0 0 0-6 1M152 257l4 1 8-1 4-3-11 1h-8l1 1 2 1M153 249l-8-2 1 3c1 3 8 2 11 2s13 0 14-2l1-5c-2 2-6 2-8 3l-11 1"/><path d="M146 241v1c1 6 15 3 19 2 2 0 7 0 7-3l-1-3c-1-2-6-2-8-2-5 0-16-1-17 5M188 257l5 1 8-1 4-3-11 1h-8l1 1 1 1M189 249l-7-2 1 3c1 3 8 2 11 2s12 0 14-2l1-5-9 3-11 1"/><path d="M182 241v1c1 6 16 3 19 2 2 0 8 0 8-3l-1-3c-2-2-6-2-8-2-5 0-16-1-18 5M225 257l5 1 7-1c2-1 4-1 5-3l-12 1h-7v1l2 1M226 249l-7-2v3c2 3 8 2 11 2s13 0 15-2v-5c-2 2-5 2-8 3l-11 1"/><path d="M219 241v1c1 6 16 3 19 2 2 0 7 0 7-3l-1-3c-1-2-5-2-8-2-4 0-16-1-17 5M262 257l4 1 8-1 4-3-11 1h-8l1 1 2 1M263 249l-8-2 1 3c1 3 8 2 11 2s13 0 14-2l1-5c-2 2-6 2-8 3l-11 1"/><path d="M256 241v1c1 6 15 3 19 2 2 0 7 0 7-3l-1-3c-1-2-6-2-8-2-5 0-16-1-17 5M298 257l5 1 8-1 4-3-11 1h-8l1 1 1 1M299 249l-7-2 1 3c1 3 8 2 11 2s12 0 14-2l1-5-9 3-11 1"/><path d="M292 241v1c1 6 16 3 19 2 2 0 8 0 8-3l-1-3c-2-2-6-2-8-2-5 0-16-1-18 5M335 257l5 1 7-1c2-1 4-1 5-3l-12 1h-7v1l2 1M336 249l-7-2v3c2 3 8 2 11 2s13 0 15-2v-5c-2 2-5 2-8 3l-11 1"/><path d="M329 241v1c1 6 16 3 19 2 2 0 7 0 7-3l-1-3c-1-2-5-2-8-2-4 0-16-1-17 5M372 257l4 1 8-1 4-3-11 1h-8l1 1 2 1M377 252c3 0 13 0 14-2l1-5c-2 2-6 2-8 3l-11 1-8-2 1 3c1 3 8 2 11 2"/><path d="M366 241v1c1 6 15 3 19 2 2 0 7 0 7-3l-1-3c-1-2-6-2-8-2-5 0-16-1-17 5M421 255a51 51 0 0 1-2 0h-13l1 1 1 1 5 1 6-1h2l1-1a7 7 0 0 0 3-2 24 24 0 0 1-4 1M428 250l1-5c-2 2-6 2-8 3h-1-2-1l-2 1h-6l-7-2 1 3c1 3 8 2 11 2h2a130 130 0 0 0 3 0h4l5-2M402 241v1c1 4 6 4 11 4l4-1a89 89 0 0 0 3 0l1-1c2 0 8 0 8-3l-1-3c-2-2-6-2-8-2h-4-1a44 44 0 0 0-5 0c-4 1-7 2-8 5"/></g></svg>
