<svg version="1" xmlns="http://www.w3.org/2000/svg" viewBox="0 0 510 390" class="nav-icon"><g id="books"><g class="move-right"><path d="M272 125h41l2-27-41 1-2 26zm4-10c0-5 2-12 7-13 9-2 18 0 27-1l1 1v12c0 1 1 4-1 6s-9 0-12 0l-10-1h-11c-2-1-2-2-1-4zM102 125l1-28-14-1H75l1 29h26zm-24-25c0-1 1-2 2-1l18 3 1 1c-1 7 0 13 1 20 1 2-1 3-2 1l-9-1-9-1-2-1v-3-18zM365 125V97a953 953 0 0 1-44 1l-2 27h46zm-39-24l1-1 17 1 9-1c1 0 4-2 6-1l2 3-1 10 1 9-1 2h-33l-1-2c-1-6-2-14 0-20zM138 125l1-27h-13l-17-1-1 28h30zm-26-11v-12l1-1 20-2h1l1 1c-1 7 0 13 1 20l-1 1h-22c-2-2-1-5-1-7z"/><path class="color-swap" d="M200 99l-55-1-1 27h122l2-26h-68zm39 7c2-1 8-3 10-1l1 3v1l-1 2c2 3 4 3 6 2l3-6c0-2 3-2 3 0-1 5-3 8-7 10-3 1-7 0-8-3v-4-1c-1-2-3-2-5-1l-1 1-2 5c-2 3-5 5-8 3-4-1-4-4-5-6l-3-3c-3-2-5 1-6 3v2l-2 3c-3 3-7 2-9 0-2-1-2-2-2-3l-1-1c0-2-1-3-3-3-1-2-3-2-4 0-2 1-3 3-3 5l1 2-2 2-9-2-1-1 1-1c0-2-1-6-3-6l-3 2 1 3-1 2-2 2-6-1c-2-1-3-4-3-6-3 1-8 3-5 6v1c0 1-2 2-3 1-4-7 4-11 9-11l2 1c0 3 0 5 3 6 2 0 3-1 3-3l-1-3c1-2 2-3 4-3 6-1 9 3 8 9h4c0-4 1-7 5-8 3-2 7-3 9 0l3 6 1 2c5 2 5 0 5-2l1-3c1-3 4-4 7-4s6 1 7 4v1l1 2c0 2 3 2 7 0v-2h1l3-4z"/></g><g class="move-left"><path d="M421 173v-5l-1-1c-26 1-52 2-79 1-51 0-103-3-154-2-46 1-92 7-138 0l-1 8h78c99 1 197 0 295-1z"/><path class="color-swap" d="M128 138c98-1 196-1 294 1l1-3a17619 17619 0 0 0-379 0l1 4 83-2z"/><path class="color-swap" d="M342 153c-98 2-196 3-294 1l1 9c25 4 50 4 76 3 50-3 99-3 149-2 49 1 98 3 146 0v-14l-78 3z"/><path class="color-swap" d="M46 143l2 8a5190 5190 0 0 0 372-4l1-5a6762 6762 0 0 0-375 1z"/><path class="color-swap" d="M424 186l-3-10-78 1H48l-2 6 71-1c102-1 205 2 307 4z"/></g><g class="move-left"><path d="M130 289l25-1-13-8c-3-2-1-6 1-6l12-2-12-6c-2 0-3-4-1-5l9-6h-25-1c-3 0-6 4-9 6l-2 2 13 7 1 5-2 1-11 3c5 3 9 7 14 9l1 1zM441 286c3-10 3-20 2-30l-13-1h-2-2l-7 6-2 2 13 7c1 2 2 3 1 5l-2 1-11 3 11 7v1l3 1v-2h9z"/><path d="M180 280c-3-2-1-6 1-6l12-2-12-6c-2-1-3-4-1-5l9-6h-27c-3 0-6 4-9 6l-2 2 13 7 1 4-2 2-11 3 14 9h26l-12-8zM419 286c-4-2-7-5-11-6-3-2-1-6 1-6l12-2-12-6c-2-1-3-4-1-5l8-6h-26-1l-1 1-7 5-2 2 13 7c2 2 2 3 1 5l-2 1-11 3 11 8h1l2 1v-1l10-1h15zM105 280c-3-2-1-6 1-6l12-2-12-6c-2-1-3-4-1-5l9-6H91v34h28c-5-3-9-7-14-9z"/><path d="M370 280c-3-2-1-6 1-6l12-2-12-6c-2-1-3-4-1-5l8-5v-1h-25-1l-1 1c-2 0-5 3-7 5l-2 2 13 7c1 2 2 3 1 5l-2 1-11 3 12 8 2 1v-1h24c-4-3-7-6-11-7z"/><path d="M333 280c-3-2-1-6 1-6l12-2-12-6c-2-1-3-4-1-5l8-6h1-142c-3 0-6 4-9 6l-2 2 13 7c1 2 2 3 1 5l-2 1-11 3 13 9h1l140-1-11-7zm-61-1c-1 1-3 1-4-1v-1l-1-2-1-6-5 8-1 2h-2l-1-2-3-7-4 6h-2c-2-2-4-5-5-9l-5 9c0 1-1 2-2 1l-1-1-5-6-3 5-1 3h-3l-1-3-4-6-3 6-2 2-2-1v-2l2-1 3-8h3l5 9 5-8h3l4 7 7-9h3c0 4 1 6 3 9l4-8h3l3 10 6-9h3l2 4 1 7c1-2 3 1 1 2zm47-3l-4-9-5 8-1 1c0 1-1 2-2 1l-1-2-4-6-4 6-1 2h-3l-1-2-4-6-3 6-2 2-2-1v-2l2-1 3-8h3l5 9 5-8h3l5 7c1-4 3-7 6-10l3 1c1 4 2 8 5 11 1 2-2 3-3 1z"/></g><path d="M466 320l-13 15h13v-15zM202 298l-15 1h-6l-14 9 1 5v17c0 4-3 4-6 5l-16-2-6 5v1h32l18-25 12-16zM465 297l-8-1-2 4a225 225 0 0 1-13 20l-12 16 15-1 20-25v-13zM234 298h-24l-7 9a441 441 0 0 0-24 32h20l17-19c7-7 13-14 18-22zM74 300a183 183 0 0 1-15 0l-23 21 3 14 35-35zM451 296l-7 1-3-1h-7l-8 12a353 353 0 0 1-21 28h18a414 414 0 0 0 28-40zM293 297l-24 1-8 8c2 1 3 4 3 7v18l1-1 10-12c6-7 11-15 18-21zM370 305h1l1 1 5-4 8-5v-1l-25 1-1 2c-14 10-24 25-35 38h20l6-6-1-1c1-7-2-15 1-21 4-7 14-6 20-4zM143 309c3-7 13-6 19-5l9-5h-32l-21 21-13 13-6 5 31 1h1l3-3 8-8c0-6-2-13 1-19zM243 333l-5 5h21l2-4h-3c-5 1-10 0-15-1zM112 318l19-19h-21l-40 39h22l8-8 12-12zM323 297h-23l-1 3c-7 5-12 13-18 19l-7 10c-1 1-7 6-8 9h21c11-15 23-28 36-41zM352 297h-20c-14 13-26 26-38 41h23c11-14 21-30 35-41zM101 300H83l-39 38h18c12-13 25-26 39-38zM239 309c3-6 10-6 16-5l6-6h-19l-19 23-16 18h24l7-9c0-7-2-15 1-21zM35 299v15l16-15H35zM426 297h-16v3l-28 37 15-1 17-21 12-18zM445 296zM404 297h-10-1l-1 2-9 6-4 4-3 2-1 2v17c0 4-3 4-6 4h-13l-3 3h22a547 547 0 0 1 29-40z"/><g class="move-right"><path d="M280 217v-24-2h-6v2a326 326 0 0 1-3 52h6l3-28zM376 245h31v-3l1-16 2-30v-4h-32v25c-1 10-3 19-2 28zm3-12l27 1c2 0 2 3 0 3l-27-1c-2 0-2-3 0-3zM318 194v-2l-35-1v26l-3 28h36l-1-1c2-17 3-33 3-50zm-25 43l-7-1c-2 0-2-3 0-3l7 1c2 0 2 3 0 3zm18 0l-11-1c-2 0-2-3 0-3l11 1c2 0 2 3 0 3zM148 192v-1l-35-1v2c-2 17-3 35-3 52h35v-26c1-9 3-17 3-26zm-26 45l-7-1c-2 0-2-3 0-3l7 1c2 0 2 3 0 3zm18 0l-11-1c-2 0-2-3 0-3l11 1c2 0 2 3 0 3zM98 218c1-9 3-17 3-26v-2H64v3l-1 51h35v-26zm-9 19l-18-1c-2 0-2-3 0-3l18 1c2 0 2 3 0 3zM271 193v-2H160v1c-2 17-3 35-3 52l112 1-1-1 3-51zm-19 44c0 2-2 3-3 3-22 2-43-1-65 0-1 1-2 0-2-1l-1-2v-29c-1-2-2-6 0-8 2-3 6-2 8-2l59 1 2 2c2 12 3 24 2 36zM327 217v-23-3l-6 1v2a327 327 0 0 1-4 51h8c-1-9 1-19 2-28zM375 217v-22-3h-6v3a325 325 0 0 1-4 50h8c-1-9 1-18 2-28zM366 195v-3h-36v25c0 10-3 19-2 28h36l-1-1 3-49zm-24 42l-7-1c-2 0-2-3 0-3l7 1c2 0 2 3 0 3zm18 0l-11-1c-2 0-2-3 0-3l11 1c2 0 2 3 0 3zM158 191h-7v1c0 9-2 17-3 26v26h6a328 328 0 0 1 4-53zM111 190h-7v2c0 9-2 17-3 26v26h6c0-17 1-35 3-52l1-2z"/><path class="color-swap" d="M216 205l-16-1h-14l1 6v24h59c1-10 0-19-1-29h-29zm-14 11h-2l-3 1c1 0 1 2-1 2v1l4 1c2 0 2 3 0 3l-4 2 4 1c2 1 1 4-1 3l-5-1-2-2 3-4h-2l-1-3 1-2-1-1v-2l6-2h-4c-1 0-2-2-1-3 2-2 5-2 8-1v3l2 1c1 1 0 2-1 3zm18 7l-3 3-4 2 4 1c2 0 2 3 0 3l-10-2v-3l8-3-7-2c-2 0-2-2 0-2l6-2-6-5v-2l9-2c2 0 3 3 1 3h-1l-4 1 4 3 2 1c1 1 1 2-1 3h-1l-2 1h3l2 2zm18-10h-6l4 3 1 1c1 1 1 2-1 3h-6l3 1 1 1c1 0 2 0 3 2 1 3-5 4-7 5s-4-2-2-2l2-1 2-1c2-1 1 0 0-1h-1l-6-2v-3l7-2-4-3c-2-1-1-3 0-3 4 0 7-3 11-1 2 1 0 4-1 3z"/></g><g class="move-left"><path d="M66 85l21 1 10 1 1-37-39-1-1 36h8zM318 88l2-19V58v-4-3-1h-4l-1 38h3zM256 89h47v-1l1-38h-47v2a228 228 0 0 1-1 37zM182 69l1-11-1-4 1-3-1-1h-3l-1 38v1h3l1-20zM243 89l2-39h-4l-1 38v1h4-1zM251 69V58v-4-3-1h-4a417 417 0 0 1-1 39h3l2-20zM313 50h-3l-1 38h3l1-38zM118 87l11 1h37l1-38-47-1v3a228 228 0 0 1-2 35zM393 86l34-2 1-16 1-11v-7h-35v3a228 228 0 0 1-1 33zM324 88l48-1 1-37h-47v2a228 228 0 0 1-2 36zM187 89a3788 3788 0 0 0 47-1c1-13 0-26 2-38h-48l1 2a228 228 0 0 1-2 37zM112 87l2-18V58v-4-3l-1-1h-3l-1 37h3zM107 50h-3l-1 37h3l1-37zM175 89l1-39h-3l-1 38-1 1h4zM382 50h-3l-1 37 3-1 1-36zM387 86l2-17V58v-4-3l-1-1h-3l-1 36h3zM427 91h18c3 1 4 2 5 4 2 6 1 12 0 18l4-5c1-2 2-4 4-4h1l5 11c2-6 2-14 1-20-2-7-10-7-16-7l-12-1h-5-1l-2 2-2 2z"/></g><path class="color-swap" d="M162 311c-3-1-7-2-10-1-3 0-4 2-4 5v13l9 1 5-1v-1-10-3-3z"/><path class="color-swap" d="M258 311c-3-1-7-2-10-1-3 0-4 2-4 5v12l1 1h12c1 2 1 2 1 0v-1-10l-1-4c1-1 0-3 1-2z"/><path class="color-swap" d="M369 311c-3-1-7-2-10-1-3 0-4 2-4 5v13h14v-1-10-3-3z"/></g></svg>
