<svg viewBox="0 0 485 380" version="1" xmlns="http://www.w3.org/2000/svg" class="nav-icon"><g fill-rule="evenodd"><path d="M418 177l-1-6v-1c-27 2-55 2-82 2-54-1-107-4-161-3-48 1-96 8-144 0v9a22144 22144 0 0 0 388-1M266 117c0-6 2-13 8-14 9-2 18 0 27-1l2 1v12l-1 6c-2 3-9 0-12 0a290 290 0 0 0-17-1h-6c-2-1-2-2-1-3m-4 9h43l2-27-43 1-2 26M112 141c102-1 204-1 306 1l2-4a20475 20475 0 0 0-396 0l2 5 86-2M61 100l2-1 19 3 1 2c-1 7 0 14 1 21 1 1-1 2-3 1-1-2-7-1-8-1l-11-1-1-2v-2-20m25 27l1-30H73l-15-1 1 31h27"/><path d="M335 155c-102 3-204 3-306 2l1 9c26 4 52 3 79 2 52-3 104-3 156-2 51 2 101 3 152 1l-1-15-81 3M318 103l2-2 17 1 9-1 6-1c2 1 2 2 2 3v10l1 10-2 2h-33l-2-2v-20m40 24c-1-10 2-19 1-29a4112 4112 0 0 1-46 1l-2 28h47"/><path d="M27 146l2 8a6808 6808 0 0 0 387-5l1-4a9369 9369 0 0 0-390 1M96 115v-12l1-1 22-2h1v1l1 20c1 1 0 2-1 2H97c-2-2-1-6-1-8m28 12c0-10-1-19 1-28a4099 4099 0 0 1-32-1l-1 29h32M228 108c2-2 8-4 11-2l1 4-1 2c2 3 4 4 6 2l2-5h1c0-2 3-2 3 0-1 4-3 8-8 10-3 0-7 0-8-3l1-4-1-2c-1-2-2-1-4 0l-1 1c-2 1-2 3-3 5-2 2-5 4-8 3-4-1-4-4-5-7l-3-3c-4-1-6 1-7 4v2l-2 3c-2 2-7 1-10-1l-2-3v-1l-3-3h-5c-2 2-2 3-2 5v3l-2 1-9-1-1-2c1-2 0-6-2-6-2-1-3 0-3 2l1 3-1 2-2 2-7-1-3-6c-3 0-8 2-6 6l1 1c0 1-2 2-3 0-5-6 4-11 10-11l1 2c0 2 1 5 3 5 2 1 3 0 3-2v-3c0-2 2-3 3-4 7-1 10 4 9 9a15 15 0 0 0 5 1c0-4 1-7 4-9s8-3 10 1l3 6 1 1c5 3 6 1 6-2v-3c1-3 4-4 7-4 4 0 7 1 8 4l1 2v1c0 3 3 3 7 0l1-1v-1c1-1 1-3 3-3m-41-8l-57-1-1 28h127l2-27h-71M421 191l-3-11a22242 22242 0 0 1-388 1l-2 7 73-1c107-2 213 1 320 4M47 86l23 1h10l1-39H41l-2 37 8 1M310 89a255 255 0 0 0 2-35v-4l-1-1h-3l-1 40h3M245 89a4128 4128 0 0 0 50-1l1-40h-49v3a243 243 0 0 1-2 38M169 68a251 251 0 0 0 0-15v-4l-1-1h-3l-1 41h3l2-21M233 88l1-40h-3c-2 13-1 27-2 40v1h4v-1M241 68a254 254 0 0 0 0-15v-4l-1-1h-3a507 507 0 0 1-1 41h3l2-21M306 49h-4l-1 40h4l1-40M102 88h11l38 1v-1l1-40h-49v3a251 251 0 0 1-1 37M389 86l35-2 2-16V56l1-7h-37v2a236 236 0 0 1-1 35M317 89l50-1 1-39h-49v3a245 245 0 0 1-2 37M174 89a4145 4145 0 0 0 50-1l1-40h-49v3a241 241 0 0 1-2 38M96 87a246 246 0 0 0 2-34v-4l-1-1h-3l-1 39h3M90 48h-3l-1 39h3l1-39M162 89l1-41h-4l-1 40v1h4M377 49h-3l-1 38h3l1-38M382 87a248 248 0 0 0 2-33v-4-1h-4l-1 38h3M271 223v-25-2h-7v2a349 349 0 0 1-3 54h7c0-10 2-19 3-29M373 239l29 1c2 0 2 3 0 3l-29-1c-2 0-2-3 0-3m-3 13h33l1-4a80870 80870 0 0 1 2-48v-4h-33a687 687 0 0 1 0 26l-3 30M303 243h-12c-2 0-2-3 0-3h12c2 0 2 3 0 3m-19 0h-8c-2 0-2-3 0-3h8c2 0 2 3 0 3m26-44v-3h-36a649 649 0 0 1 0 27c-1 9-3 19-3 29h37l-1-2 3-51M125 243h-12c-2 0-2-3 0-3h12c2 0 2 3 0 3m-19 0h-8c-2 0-2-3 0-3h8c2 0 2 3 0 3m27-46v-2H97v2l-3 54h36v-28c1-8 3-17 3-26M73 242H53c-2 0-2-3 0-3h20c2 0 2 3 0 3m9-19l3-27v-2H46v3l-1 53h37v-27M242 244l-3 3c-23 1-45-2-68 0l-3-2v-1l-1-31c0-2-1-6 1-8 2-3 6-2 8-2a19118 19118 0 0 1 64 3c2 13 3 25 2 38m20-46v-2l-116-1v1l-3 55 116 1v-2c2-17 3-35 3-52M321 222a248 248 0 0 0 0-26h-7v3a327 327 0 0 1-4 53h8l3-30M370 222a250 250 0 0 0 0-26h-7a312 312 0 0 1-4 56h8l3-30M354 243h-12c-2-1-2-4 0-4l12 1c2 0 2 3 0 3m-19 0h-8c-2 0-2-4 0-3h8c2 0 2 3 0 3m25-43v-4h-37a594 594 0 0 1 0 26l-3 30h38l-1-2 3-50M143 195h-7v2l-3 26v28h7c-1-18 0-36 3-54v-2M94 195h-7v2l-3 27v27h7c-1-18 0-36 3-54v-2M115 297h26l-14-10c-3-1-1-5 2-5l12-3-13-5c-2-1-3-5-1-6l9-6h-25-1c-4 0-7 4-9 6l-3 2a74 74 0 0 1 14 8 3 3 0 0 1-1 5l-12 4 15 10h1M439 294c2-10 2-21 1-32h-14-3c-3 1-5 4-7 6l-3 2a77 77 0 0 1 14 8c2 1 2 3 1 4l-2 1-12 3 12 8 3 2v-2h10"/><path d="M166 287c-3-1-1-5 2-6l12-2-13-6c-2 0-3-4-1-5l9-6h-26-1c-4 0-7 4-9 6l-3 2a75 75 0 0 1 14 8 3 3 0 0 1-1 5l-12 3 15 10 27-1-13-8M415 294l-11-7c-3-1-1-5 2-6l12-2-13-6c-2 0-3-4-1-5l9-6h-2-2-25-1l-6 6-3 2a75 75 0 0 1 14 8 3 3 0 0 1-1 5l-12 3 12 8 3 2v-2h25M88 287c-3-1-1-5 2-5l12-3-13-5c-2-1-3-5 0-6l8-6H74v36l29-1-15-10"/><path d="M364 287c-3-1-1-5 2-6l12-2-13-6c-2 0-3-4-1-5l9-6h-26a4 4 0 0 0-2 0c-3 1-5 4-7 6l-3 2a75 75 0 0 1 14 8 3 3 0 0 1-1 5l-12 3 12 9 3 1v-1l24-1-11-7"/><path d="M312 284l-1-1-4-8-5 8v1h-3a60 60 0 0 1-6-7l-3 5-1 3h-3l-2-3-4-6-2 6-3 2-1-1v-2l1-1 4-8h3l5 9 5-8h3l5 7 7-10 2 1 5 11c1 2-1 3-2 2m-49 2c-2 1-3 1-5-1v-2l-1-7-5 8-1 2c-1 1-3 2-3 0l-1-2-3-7-4 7h-3l-4-9-5 8-1 1h-2l-1-1-5-6-3 6a1601 1601 0 0 1-4 2l-2-3-4-6-3 6-2 2-2-1v-2l2-1 3-8h3l6 9 5-8h3l5 7c1-3 3-7 6-10l3 1 4 9 4-8c0-2 2-2 3 0l3 10 7-10h2l3 5v7c2-1 3 1 2 2m63 1c-3-1-1-5 1-6l13-2-13-6c-2 0-3-4-1-5a41 41 0 0 0 9-6H189h-1c-4 0-7 4-9 6l-3 2a75 75 0 0 1 14 8l1 4-2 1-12 3c5 3 9 7 14 9l1 1v-1h146l-12-8M465 329l-14 16h14v-16M189 307h-22l-14 10 1 5v18c0 4-3 4-7 5l-16-2a25876 25876 0 0 1-6 6h33l19-26 12-16M462 306l-7-1-3 4a461 461 0 0 1-25 37h15l21-26-1-14M223 307h-25l-8 9a470 470 0 0 0-24 33h21l18-20 18-22M56 309a166 166 0 0 1-16 0l-23 21 2 15c12-13 24-25 37-36M448 305l-6 1-4-1h-7l-8 12a292 292 0 0 1-22 30h18a469 469 0 0 0 29-42M284 306h-25l-8 9c2 1 2 4 2 7l1 18-1 1 1-1 11-13c6-7 12-15 19-21M365 314h1l1 1 5-4 8-6h-26l-1 2c-14 11-25 27-36 41h20l6-6v-2c0-7-2-16 1-22 4-8 14-6 21-4M128 319c4-7 14-6 20-5l9-6h-32l-23 23-13 13-6 6h33l3-2 8-9c0-7-1-14 1-20M232 344l-5 5h22l2-5-4 1-15-1M95 327l20-19H93l-41 41h23l8-9 12-13M316 306h-24l-1 3c-8 6-13 13-19 20l-7 10c-2 2-8 7-9 10h22c12-15 24-30 38-43M346 306h-21v1c-14 13-27 27-39 42h23c12-15 23-31 37-43M84 308H65l-40 40h19l40-40M229 319c2-6 10-6 16-5l6-7h-20l-19 25-17 18h25l8-9c0-7-3-16 1-22M15 309l1 15 16-16-17 1M423 305h-17v3c-11 13-20 26-29 39h15l19-23c4-6 7-13 12-19M400 305h-11-1l-1 3-9 6-4 3-4 3-1 2v17c0 4-3 5-6 5h-13l-4 3h23l31-42M226 219c-1-2-4-1-6 0l4 3 1 1c2 0 1 2 0 2a30 30 0 0 0-6 1l2 1 2 1 2 2c2 3-5 5-7 6-2 0-3-2-2-3l3-1 1-1c2-1 1 0 0-1l-6-2c-1-1-2-2-1-3l8-2-5-3c-1-1-1-3 1-3 4 0 7-4 11-1 1 1 0 4-2 3m-19 10l-2 3-5 2 5 1c2 0 2 3 0 3l-10-2c-2-1-2-3 0-3l8-3-8-1v-3l7-2-7-5c-1-1-1-3 1-3l9-1c2-1 2 3 0 3l-5 1 5 3 1 1v3h-1l-3 1h4c1 0 2 1 1 2m-17-8l-3 1-3 1v2l-1 1 4 1h1v3h-1l-4 3h4c2 1 1 4-1 3l-5-1c-1 0-2-1-1-2l2-4a8496 8496 0 0 1-3-3l2-2-2-1v-3l6-1h-4c-1 0-2-2-1-3 3-2 5-3 8-1 2 0 1 2 0 2l2 2v2m14-11h-17l-8-1h-6v6a2116 2116 0 0 1 1 26c20-2 41 1 61 0l-1-31h-30M424 91h9l10 1c3 0 4 1 4 4 2 6 2 12 1 18l5-5c0-2 1-4 3-5l2 1 4 11c2-6 2-15 1-20-2-7-10-7-16-8a370 370 0 0 0-19-1l-3 3-1 1z"/><path d="M148 320l-11-1c-3 1-4 2-4 6v13l10 1h5c0 1 0 1 0 0v-12-4-3M248 320l-11-1c-3 1-4 2-4 6v12l2 1 8 1h5c0 1 0 1 0 0v-12-4-3M364 320l-11-1c-3 1-4 2-4 6v13h1l9 1h5c0 1 0 1 0 0v-12-4-3"/></g></svg>
