<svg version="1" xmlns="http://www.w3.org/2000/svg" viewBox="0 0 510 390" class="nav-icon"><g id="contact"><path fill="none" d="M257 357c-2 2-3 4-3 7 2-2 4-4 3-7zM124 366l-7-1c-1 6 6 5 7 1zM34 219c0 4 2 8 5 11 1-5-1-9-5-11zM249 358c-2 4-4 7-7 9h7v-9zM51 371l2-5-2 5zM249 353c1 0 2 1 1 3l3-3h-4zM28 351l1-4-1 1v3zM179 370c2 1 3-1 3-3l-1-4c-2 2-6 6-2 7zM277 357c-1-2-3 0-4 1-3 2-2 6 1 7l1-2 2-6zM25 239c-1 3 1 7 4 7l2-1c-1-3-4-5-6-6zM266 365c-2-3-1-6 1-9h-4c1 5-1 10-5 13l6 2 5-2c-2-1-3-2-3-4zM78 371v4c1 1 3-1 4-2 2-3 2-6 1-8l-5 6zM284 359l-1-3-2 8c2-1 3-3 3-5z"/><path d="M224 93v-1c2-12 3-25 3-37h-24l-5 38h26zM450 161l4-4c-3-1-4-3-6-5a11 11 0 0 1-4 4 12 12 0 0 1 6 5zM427 148a10 10 0 0 1-7 8 12 12 0 0 1 8 9c0-4 2-7 5-9a12 12 0 0 1-6-8zM459 92h15l-14-34h-5l4 34zM446 175l-1 1a12 12 0 0 1 7 6l4-5c-2-1-5-3-6-6l-4 4zM429 169l-1-1c0 3-2 6-5 8l4 3 4 6c0-4 2-7 5-9-3-1-6-3-7-7zM427 144c0-3 2-6 5-8h1c-3-1-6-3-8-6a11 11 0 0 1-7 6c2 0 4 1 5 3l4 5z"/><g><path d="M254 225c79 0 157 0 236-2l-1-11-66 1H189v11h2l63 1zM496 319a2377 2377 0 0 0-6-90 7397 7397 0 0 1-300 1h-2v81c47-1 93-3 139-1 56 2 112 9 169 11v-1-1zm-18-52c-1 9-2 17-1 26 1 2-1 3-2 3l-22 1c-2 0-3-1-3-3l-1-17-32-1-35-1-3-1c-2-4-1-11-1-15 0-2 1-3 3-3l69 1v-12c0-2 1-3 3-3h20c2 0 3 1 3 2l2 23zM254 208c78 0 157 0 235-2l-6-55c-2-17-3-35-7-51v-2l-61 1H197a7025 7025 0 0 0-8 108h2l63 1zm18-23c0 2-1 3-3 3h-28c-2 0-3-1-3-3a111 111 0 0 1 1-21c0-1 1-2 3-2l26 1c2 0 3 1 3 3 0 6 2 12 1 19zm41 0l-3 3h-29c-2 0-3-1-3-3a111 111 0 0 1 1-21c1-1 1-2 3-2l27 1c1 0 3 1 3 3-1 6 1 12 1 19zm38 0c0 2-1 3-3 3h-28c-2 0-3-1-3-3a111 111 0 0 1 1-21c0-1 1-2 3-2l26 1c2 0 3 1 3 3l1 19zm58-70a13 13 0 0 1 16 5c0-2 2-4 4-5a13 13 0 0 1 16 5c1-2 2-4 5-5 4-2 10-1 14 2 5 5 4 14-2 17-6 4-13 2-17-4a11 11 0 0 1-5 5 12 12 0 0 1 8 6l5-4c4-2 10-1 14 3 5 5 5 13-2 17l4 2c5 5 4 13-2 17l4 3c5 5 5 13-1 17-6 3-14 1-17-5l-4 5a12 12 0 0 1-18-7c-1 3-2 6-5 7a12 12 0 0 1-18-6v-1c-1-5 0-10 5-12a12 12 0 0 1-8-8c-1-5 1-10 6-12a12 12 0 0 1-7-8v-1c-1-5 0-10 5-12l2-1a12 12 0 0 1-8-8c-1-5 1-10 6-12zm-19 70c0 2-2 3-3 3h-29c-2 0-3-1-3-3a111 111 0 0 1 2-21l2-2 27 1c1 0 3 1 3 3-1 6 1 12 1 19zm-183-75a1752 1752 0 0 1 179 2c1 0 3 1 3 3v37c0 2-1 3-3 3a2612 2612 0 0 0-184-3v-2c0-13 2-27 5-40zm-6 55v-1c0-1 1-2 3-2l24 1c2 0 3 1 3 3l1 19c0 2-1 3-3 3h-26c-2 0-3-1-3-3-1-7 0-13 1-20z"/></g><path d="M170 44c-12 1-23-2-34-2l-17 1v2a709 709 0 0 1-1 10l-1 8-7 39c-4 19-8 38-10 58-5 37-8 75-2 112l54 3 17-210 1-9v-5-5-2zM133 285l-1-4-14-2v5l1 8 14 1v-8z"/><path d="M250 356l-1 2 1-2zM246 352l2 1v-1h-2zM132 315h0z"/><path d="M455 130c2 0 5-1 6-3s-1-6-3-7c-5-1-9 1-8 6 1 2 3 4 5 4zM458 153c2 0 5-1 6-3 2-3-1-6-3-7-5-2-9 1-8 5 1 3 3 4 5 5zM460 172c2 0 5-1 6-3 2-3-1-6-3-7-5-2-9 1-8 5 1 3 3 5 5 5zM463 191c2 1 5 0 6-2 1-3-1-6-4-7-4-2-8 0-7 5 1 2 2 4 5 4zM435 130c2 0 5-1 6-3s-2-6-4-7c-4-1-8 1-7 6 0 2 2 4 5 4zM438 151c2 0 5-1 6-3s-2-6-4-7c-4-1-8 1-7 6 0 2 2 4 5 4zM439 171c2 0 5-1 6-3 2-2-1-6-3-7-5-2-9 1-8 6 1 2 3 4 5 4zM442 192c2 0 5-1 6-3 1-3-1-6-4-7-4-2-8 1-7 5 0 3 2 4 5 5zM414 130c2 0 5-1 6-3s-1-6-3-7c-5-1-9 1-8 6 1 2 3 4 5 4zM415 152c2 0 5-1 6-3 1-3-2-6-4-7-4-2-8 1-7 5 0 3 2 4 5 5zM416 172c2 0 5-1 6-3 2-3-1-6-3-7-5-2-9 1-8 6 1 2 3 4 5 4zM419 192c2 0 5-1 6-3s-1-6-4-7c-4-1-8 1-7 6 1 2 2 4 5 4zM284 182h22v-13l-21-1-1 14zM206 182h20l-1-13-19-1v14zM323 182h22l-1-13-21-1v14zM361 182h23l-1-13-21-1-1 14z"/><path class="color-swap" d="M449 92l-3-30-1-9-4-30-1-7h-5l-6-1-10-1-20-2c-55-5-110-4-165 0a298 298 0 0 1 0 81v1h23l192-1v-1z"/><path d="M456 269l-1 4v18l16-1 1-22-1-20-15-1v22zM450 263l-66-1v7l33 1 32 1 1-8z"/><path d="M149 337l5 1-5-1z"/><path d="M143 338l-11-2c-4-1-7-4-8-8l-1-7-2-3c-23-1-46-2-69-5v4l8 22c31 3 62 4 93 4h4l-2-1-12-4z"/><path d="M130 330z"/><path d="M182 257c0-68 6-135 15-202h-17l-1 10-17 215c0 3-2 5-5 5h-18v11c0 2-1 3-3 3h-4l-1 2v5l3-3 7-1 5 1c0 1 5 4 4 9l33-1-1-54z"/><g fill="none"><path d="M39 230c1-5-1-9-5-11 0 4 2 8 5 11zM25 239c-1 3 1 7 4 7l2-1c-1-3-4-5-6-6zM28 351l1-4-1 1v3zM124 366l-7-1c-1 6 6 5 7 1zM51 371l2-5-2 5zM78 371v4c1 1 3-1 4-2 2-3 2-6 1-8l-5 6z"/></g><path fill="none" d="M51 371l2-5-2 5zM78 371v4c1 1 3-1 4-2 2-3 2-6 1-8l-5 6zM261 344l1 1a23 23 0 0 1 12-2c-5-3-12-3-18-1l2 1 3 1zM28 351l1-4-1 1v3zM198 343l-1 2 3-2 3-6c-3 1-5 4-5 6zM181 363c-2 2-6 6-2 7 2 1 3-1 3-3l-1-4zM124 366l-7-1c-1 6 6 5 7 1zM37 366h1l2-1v-3l-4 3 1 1zM140 312l-2-1-2 1h-1l-1 1-1 2h-1 8l1-1v-1l-1-1zM146 325l1 3 5-3c4-6-8-9-6 0zM140 322l-8-1c0 3 2 6 6 7l3 1-1-7zM39 230c1-5-1-9-5-11 0 4 2 8 5 11zM181 340h1c3-3 5-7 5-11-5 1-7 6-6 11zM25 239c-1 3 1 7 4 7l2-1c-1-3-4-5-6-6zM169 324c-3 2-4 4-4 7 3-1 6-4 4-7zM266 365c-2-3-1-6 1-9h-4c1 5-1 10-5 13l6 2 5-2c-2-1-3-2-3-4zM246 352l2 1v-1h-2zM273 349c-3-1-5 0-7 1l7-1zM281 364c2-1 3-3 3-5l-1-3-2 8zM273 358c-3 2-2 6 0 7l2-2 2-6c-1-1-3 0-4 1zM254 364c2-2 4-4 3-7-2 2-3 4-3 7zM221 348l3-5 1-1-4 1-6 5-1 3v2l7-5zM250 346l-1 1h3l-2-1zM242 348v-2l1-1h-13l-2 3-4 5-8 5 1 2 1 3c4 3 7 4 11 4 0-6 4-12 9-14 2-1 5-2 8-1l-4-2v-2zM250 356l-1 2 1-2zM242 367h7v-9c-2 4-4 7-7 9z"/><path fill="none" d="M235 365l8-7c-4 0-7 3-8 7zM37 366h1l2-1v-3l-4 3 1 1zM24 272l-5 2 5 3 2-3 1-1-1 1-2-2zM51 371l2-5-2 5zM28 351l1-4-1 1v3zM181 363c-2 2-6 6-2 7 2 1 3-1 3-3l-1-4zM124 366l-7-1c-1 6 6 5 7 1zM78 371v4c1 1 3-1 4-2 2-3 2-6 1-8l-5 6zM39 230c1-5-1-9-5-11 0 4 2 8 5 11zM25 239c-1 3 1 7 4 7l2-1c-1-3-4-5-6-6zM146 325l1 3 5-3c4-6-8-9-6 0zM140 322l-8-1c0 3 2 6 6 7l3 1-1-7zM169 324c-3 2-4 4-4 7 3-1 6-4 4-7zM198 343l-1 2 3-2 3-6c-3 1-5 4-5 6zM181 340h1c3-3 5-7 5-11-5 1-7 6-6 11zM140 312l-2-1-2 1h-1l-1 1-1 2h-1 8l1-1v-1l-1-1zM249 353h-1 1c1 0 2 1 1 3l3-3h-4zM261 344l1 1a23 23 0 0 1 12-2c-5-3-12-3-18-1l2 1 3 1zM254 364c2-2 4-4 3-7-2 2-3 4-3 7zM250 346l-1 1h3l-2-1zM266 365c-2-3-1-6 1-9h-4c1 5-1 10-5 13l6 2 5-2c-2-1-3-2-3-4zM281 364c2-1 3-3 3-5l-1-3-2 8zM273 358c-3 2-2 6 0 7l2-2 2-6c-1-1-3 0-4 1zM273 349c-3-1-5 0-7 1l7-1zM246 352l2 1v-1h-2zM221 348l3-5 1-1-4 1-6 5-1 3v2l7-5zM250 356l-1 2 1-2z"/><path fill="none" d="M235 365l8-7c-4 0-7 3-8 7z"/><path fill="none" d="M242 348v-2l1-1h-13l-2 3-4 5-8 5 1 2 1 3c4 3 7 4 11 4 0-6 4-12 9-14 2-1 5-2 8-1l-4-2v-2zM242 367h7v-9c-2 4-4 7-7 9z"/><path d="M288 352l-4-5v-2-2-1c-10-9-25-9-36-2-5-1-11-2-16-1l-2-2c-7-2-14 1-19 6v1l-2 3-1 1-5 4h-1l-2-1a20 20 0 0 0 7-7l3-10-3-3c-6-1-12 3-14 9l-2 4 1 3-6-1-1-1 1-1c5-5 8-11 7-18 0-2-1-3-3-3-11-1-17 10-14 19-5 2-8-1-8-1l-2-3c3-1 6-3 7-6 3-4 2-11-2-14-4-2-8 2-10 5s-3 6-2 10l-7-1c3-2 6-5 7-8a8 8 0 0 0-4-9l-3-1-1-1h-4v-1l-1-4c-6-6-13-3-17 3-2-4-2-9 1-12v-3c-1-2-3-3-4-1h-1l-2 3c-2 4-2 9 0 14v1l1 2 2 2v1l-1 1c0 5 2 9 5 11l1 2 7 2h-1l2 1h6l1 1h1l2 1 5 2h-1 7l2 4 6 5h3a15 15 0 0 0 8 0h1l1 2 7 3h-1l-3 1-3 2-4-1c-4-1-7 0-10 2l-10-4h-12c-7-3-17-3-24 0h-2l-5 5c-6 0-11 1-16 5-1-1-2-3-4-3-3-2-7-3-10-2-4-3-11-4-16-4-4 0-9 1-13 3-2-3-6-3-9-3-1-4-3-8-6-10l-4-2 1-6-2-3-1-1a12 12 0 0 0-4-13c5-3 7-8 5-15 3-3 6-7 5-13-1-3-3-6-6-8v-5l-1-5c1-4 2-9 0-12a16 16 0 0 0 5-15l2-2 4-7 5-1 5-4 1-1 4 2a163 163 0 0 0 5 1l-1 3-11 55-1 15c23 3 46 4 69 5l-1-9 1-5-4-1-3-2-1-11-20-3-3-3c-4-21-5-43-4-65 1-39 8-77 16-115 2-13 5-25 6-38l1-5-16-1a1891 1891 0 0 1-27 175l-1-1-4-1-2-1c1-4 1-8-1-11 0-3-2-4-3-6-2-1-4-1-5 1-3 5-2 12 2 17l-3 3-2 1-1-7c-2-6-7-11-13-11-2-1-3 1-3 2-3 8 2 17 9 20l-1 3-2 2c-3-4-7-7-12-8l-3 1c-3 6-1 12 3 16 2 2 6 4 8 3h1l-4 4c-5-3-11-2-14 3-1 2 0 4 2 5 3 1 8 1 11-1v1l1 2h-3c-5-1-9 2-12 6v3l8 7a10 10 0 0 1-3 3v4c3 3 8 3 11 0l2-1 3 6-3 5c-6-4-15-2-17 6l2 3c4 1 9 1 13-1v3c0 3-2 5-4 6-5 0-9 0-12 3-3 2-1 5 2 5l10-1 3 3v5c-6-1-12 1-11 8l3 3c4 0 8-2 11-5l-1 3c-3 1-5 2-7 5-3 5-1 12 5 14 1 0 3 0 4-2l3-10 1 1c2 2 4 4 4 7l-11 7v4c4 4 14 7 16 1l1-8 4 1v1c-4 4-7 9-3 15l3 1c7-1 10-8 8-15l10-2 9 1c-3 3-5 7-6 12 0 5 3 9 9 8 4-1 8-5 9-10v-7c2 0 4 1 5 3-3 5-4 11-2 17h5c4-4 5-10 4-16l4-2 6-2c0 4 0 7 4 10 7 5 16-4 14-11l-2-3-6-1c2-2 5-2 8-2 4-1 9-1 12 1h1c-4 4-4 10 0 14l3 1c6-2 8-9 5-14 4-1 8 0 12 2h-1c-3 5-4 11 1 15 1 2 4 1 5-1l2-13 6-2-4 6c-2 5 3 9 8 10 5 0 9-4 9-10 0-2 0-5-2-6 4-2 9-3 13-3v2c3 5 9 8 14 6 6 7 14 8 21 6 6 1 12 2 18 1l4 3c6 2 13 1 18-2l2-2c6 0 13-4 14-11l-2-8zm-150-24c-3-1-6-4-6-7h8v8l-2-1zm3-14l-1 1c-1 2-5 1-7 0h-1 1l1-2 1-1h1l2-1 2 1 1 1v1zm6 14l-1-3c-2-9 10-6 6 0l-5 3zm22-4c2 3-1 6-4 7 0-3 1-5 4-7zm13 16h-1c-1-5 1-10 6-11 0 4-2 8-5 11zM34 219c4 2 6 6 5 11-3-3-5-7-5-11zm-5 27c-3 0-5-4-4-7 2 1 5 3 6 6l-2 1zm-3 28l-2 3-5-3c1-2 3-2 5-2l2 2 1-1-1 1zm2 77v-3l1-1-1 4zm12 14l-2 1h-1l-1-2 4-3v4zm11 6c0-2 0-3 2-5 0 2 0 4-2 5zm31 2c-1 1-3 3-4 2v-4l5-6c1 2 1 5-1 8zm42-7c-1 4-8 5-7-1l7 1zm58 1c0 2-1 3-3 3-4-1 0-5 2-7 1 1 2 2 1 4zm15-22l1-2c0-3 2-5 5-6a15 15 0 0 1-6 8zm53 1l2 1h-3l1-1zm-36 7v-2l1-3 6-5 4-1-1 1-3 5-7 5zm21 12c1-4 4-7 8-7l-8 7zm15-9l-1 2v9h-7c3-2 5-5 7-9l1-2c1-2 0-3-1-3h-1l-2-1c-3-1-6 0-8 1-5 2-9 8-9 13-4 1-8 0-11-4l-1-2-1-2 8-5 4-5 2-3h13l-1 1-1 2 1 1 4 3h2l1 1h4l-3 3zm24-13a22 22 0 0 0-12 2l-1-1-3-1-2-1c6-2 13-2 18 1zm-1 6l-7 1 7-1zm-19 15c0-3 1-6 3-7 1 3-1 5-3 7zm10 7l-6-2c4-3 6-8 5-13h4a10 10 0 0 0 2 13l-5 2zm11-8l-1 2c-3-1-4-5-1-7 1-1 3-2 4-1l-2 6zm6 1l2-8 1 3c0 2-1 4-3 5z"/><path d="M409 322l-4-1-90-5h-88l-39 1h-5l-8 1 3 3c0 2 2 1 2 1s4-3 7-2 7-1 8 0l2 9c0 2 3-2 3-2s8-3 10 0l3 8v2l7-3c2 0 8-3 10-2l5 3 10 1 7-3s9-3 13-2l11 1c1 0 10 5 11 7l1 4c67-1 135-1 202 4 3-4 3-10 4-14l1-6-86-5z"/><path class="on color-swap" d="M244 182h23l-1-13-21-1-1 14z"/><g class="on color-swap"><path id="appear-1" d="M376 118l5 1v29h-7z"/><path id="appear-1_1_" d="M366 118h5v30h-7z"/><path id="appear-1_2_" d="M356 117l5 1v30l-6-1z"/><path id="appear-1_3_" d="M346 117l5 1v29h-6z"/><path id="appear-1_4_" d="M336 117h5v30h-6z"/><path id="appear-1_5_" d="M326 116l5 1v30l-6-1z"/></g><path class="on color-swap blink" d="M214 115l-1 17h20v-18z"/></g></svg>
