<svg xmlns="http://www.w3.org/2000/svg" viewBox="0 0 485 380" version="1" class="nav-icon"><g fill-rule="evenodd"><path d="M212 86v-2c2-12 3-25 3-37h-24l-5 38 26 1M439 154c0-2 1-3 3-4-2-2-4-3-5-6l-4 4h-1a12 12 0 0 1 7 6M415 140c0 3-2 6-5 8l-1 1a12 12 0 0 1 8 8c0-4 2-7 5-9a12 12 0 0 1-7-7v-1M448 85l14-1c-3-11-9-22-14-34h-4l4 34v1M435 168h-1a12 12 0 0 1 7 6l4-5c-3-1-5-3-6-6l-4 5M417 162v-1c0 3-2 6-5 7l-1 1a12 12 0 0 1 8 8c0-3 2-7 6-8-4-1-6-4-8-7M415 137c0-4 2-7 6-9-3-1-6-2-7-5l-4 4-4 1 6 3 3 6M243 217a6891 6891 0 0 0 236-2l-1-11a6967 6967 0 0 1-298 1h-3v11h2l64 1M466 259v27l-3 3h-22l-3-2-1-18-32-1h-35l-3-2c-2-4-1-11-1-15l3-3 70 2-1-13c0-2 2-3 3-3h21c1 0 2 1 2 3 2 7 3 14 2 22m19 52a2562 2562 0 0 0-7-90 6972 6972 0 0 1-299 1h-2a1515 1515 0 0 0 0 82c46-1 92-3 139-2 56 2 112 9 168 12v-2l1-1"/><path d="M189 157v-1l3-2 25 1c1 0 3 1 3 3l1 19c0 2-2 3-3 3h-27c-1 0-3-1-3-3l1-20m6-55l3-2c59-2 118 0 176 4 2 0 3 1 3 3l1 37c0 2-2 3-3 3a2611 2611 0 0 0-184-2l-1-2c0-14 3-27 5-41m183 75c0 2-1 3-3 3h-28c-2 0-3-1-3-3a116 116 0 0 1 1-21c0-1 1-2 3-2l26 1c2 0 3 1 3 3l1 19m19-70c5-2 11-1 14 3l2 2 5-5c4-2 10-1 14 3l2 2c0-2 2-4 4-5 5-2 11-1 14 3 5 5 5 13-1 17-6 3-14 1-17-4a11 11 0 0 1-5 4 12 12 0 0 1 8 7c1-2 2-3 5-4 4-2 10-1 13 2 6 5 5 13-1 17l3 2c5 5 5 13-1 17l4 3c5 5 5 13-2 17-6 4-13 1-16-5l-5 5a12 12 0 0 1-18-7c0 3-2 6-5 8a12 12 0 0 1-18-8c-1-5 1-9 5-11a12 12 0 0 1-7-9c-1-5 1-10 6-12a12 12 0 0 1-8-8c-1-5 1-10 6-12l2-1a12 12 0 0 1-8-9c-1-5 1-10 5-12m-57 70c0 2-2 3-3 3h-29c-2 0-3-1-3-3a116 116 0 0 1 1-21c0-1 1-2 3-2l27 1c1 0 3 1 3 3-1 6 1 13 1 19m-39 0c0 2-1 3-3 3h-28c-2 0-3-1-3-3a116 116 0 0 1 1-21c0-1 1-2 3-2l26 1c2 0 3 1 3 3l1 19m-40 0c0 2-1 3-3 3h-29c-1 0-3-1-3-3a116 116 0 0 1 2-21l2-2 27 1c1 0 3 1 3 3l1 19m-18 23c78 1 156 0 234-2l-5-55c-2-17-3-34-7-51l-1-2a6065 6065 0 0 1-278 1 1612 1612 0 0 0-8 108h2l63 1M158 36c-11 1-22-1-34-1h-17v7l-1 5-1 8c-1 14-4 27-7 40l-10 57c-5 37-7 75-2 113 18 2 37 3 55 2l17-209V48l1-5v-5-2h-1M121 277v-4l-14-1a60 60 0 0 0 0 12l15 1-1-8"/><path d="M239 348l-1 3 1-3M235 344l2 1-2-1M121 307"/><path d="M443 122c2 1 6 0 7-2 1-3-2-6-4-7-4-2-8 1-7 5 0 3 2 4 4 4M447 145c2 0 5-1 6-3 1-3-1-6-4-7-4-2-8 1-7 6 1 2 2 4 5 4M449 164c2 0 5-1 6-3s-1-6-4-7c-4-2-8 1-7 6 0 2 2 4 5 4M451 184c2 0 6-1 6-3 2-3-1-6-3-7-4-2-9 1-8 5 1 3 3 4 5 5M423 122c2 1 5 0 6-2 1-3-1-6-3-7-5-2-9 1-8 5 1 3 3 4 5 4M426 143c2 1 5 0 6-2 1-3-1-6-3-7-5-2-9 1-8 5 1 3 3 4 5 4M428 163c2 1 5 0 6-2 1-3-1-6-4-7-4-2-8 0-7 5 0 2 2 4 5 4M430 184c2 0 5-1 6-3 1-3-1-6-3-7-5-2-9 1-8 6 1 2 3 4 5 4M403 122c2 1 5 0 6-2 1-3-2-6-4-7-4-2-8 1-7 5 0 3 2 4 5 4M403 144c2 0 5-1 6-3 1-3-1-6-3-7-5-2-9 1-8 6 1 2 3 4 5 4M405 164c2 1 5-1 6-3s-1-6-4-6c-4-2-8 0-7 5 1 2 2 4 5 4M407 184c2 1 5 0 6-2 1-3-1-6-3-7-5-2-9 1-8 5 1 3 3 4 5 4M272 174h23l-1-13-21-1-1 14M194 174h21l-1-13-19-1-1 14M311 174h23l-1-13-21-1-1 14M350 174h22l-1-13-21-1v14M438 84l-4-30-1-9-3-29-1-8h-5a861 861 0 0 0-201-4 290 290 0 0 1-1 82h24a5976 5976 0 0 0 192-2M444 261v4l-1 2 1 16h16v-22c1-7 0-14-1-21h-15v21M438 256l-66-2v5l1 3h32l33 1v-7"/><path d="M137 329"/><path d="M132 331l-11-3c-4 0-7-4-8-7l-2-8-1-3-70-4 1 3 7 22c31 3 62 4 94 5h3l-2-2-11-3z"/><path d="M119 323"/><path d="M170 249c1-67 6-135 15-201h-17v10c-6 71-11 143-18 214 0 3-2 5-5 5h-18l1 11c0 2-2 3-3 3h-4l-1 2-1 3v2l4-3 6-1 5 1c1 1 5 4 5 9h32l-1-55"/><path d="M270 356l2-7v2l-2 5m-7-1l-1 2c-3-1-3-4-1-7l4-1c1 1-1 5-2 6m-10 8c-3 0-5 0-7-2 4-3 6-8 6-13h3c-1 3-2 6-1 9l3 5-4 1m-10-7c0-3 1-5 3-7 0 3-1 5-3 7m18-15l-7 1 7-1m2-6h-5l-8 3-1-1a47 47 0 0 0-4-2c5-3 12-3 18 0m-24 13l-1 3v8h-8l8-8 1-3-2-3-2-1c-3-1-6 0-9 1-5 3-9 8-8 14-4 0-8-1-11-4l-1-3-2-1c3-2 6-3 8-6a35 35 0 0 0 6-7l13-1-1 1v2l1 2 4 2 2 1h4l-2 3m-15 9c0-4 4-7 7-7l-7 7m-21-12a10 10 0 0 1 1-5c1-2 3-4 6-4l3-1a38 38 0 0 1-4 5l-6 5m35-6h2-2m-52-2v-1c1-3 3-6 6-7a15 15 0 0 1-6 8m-15 22c0 2-1 4-4 3-4-1 1-5 2-6l1-1 1 4m-59-1c-1 4-7 5-6-1l6 1m-42 7c-1 1-2 3-4 2v-4l5-6c2 2 2 5-1 8m-30-2c-1-2 0-3 1-4l-1 4m-12-6l-2 1h-1l-1-1 4-3v3m-12-14l1-2v-1l-1 3m-1-77l-3 3c-2 0-3-2-5-3l5-2 3 2v-1 1m2-28c-3 0-4-4-4-7 3 1 5 3 6 6l-2 1m6-26c4 1 5 5 5 10-3-2-6-7-5-10m147 120c-1-4 1-9 6-11-1 4-3 8-6 11m-13-15c2 2-1 5-4 7 0-3 2-6 4-7m-22 3l-1-3c-1-8 11-6 6 0-1 2-3 3-5 3m-6-13c-2 2-6 1-7 1a8 8 0 0 1-1-1 8 8 0 0 1 3-3h5v3m-3 13c-3-1-5-3-6-7 3 2 6 2 8 1l1 7-3-1m150 24a17 17 0 0 0-4-5l1-1v-3l-1-1c-10-9-25-9-35-2l-16-1-2-2c-7-2-15 1-19 7l-2 4h-2l-4 4h-2l-2-1a20 20 0 0 0 7-7l3-9c0-2-1-3-2-3-6-2-12 2-15 8a13 13 0 0 0-1 7 11 11 0 0 1-7-2l2-1c4-5 7-11 7-18 0-1-1-3-3-3-12-1-18 10-15 19-5 2-7-1-7-1l-3-3c4-1 6-3 8-6 2-4 2-11-2-13s-8 2-10 4c-2 3-3 7-3 10l-6-1c3-2 5-5 6-8a8 8 0 0 0-3-9 10 10 0 0 0-4-1h-4a7 7 0 0 0-2-5c-5-7-12-3-17 2-1-4-1-8 1-12h1v-3c-1-2-3-3-5-1v1l-2 3c-2 4-2 9-1 13l1 1a17 17 0 0 0 2 4 12 12 0 0 0 0 2c0 5 2 9 5 12l1 1 7 3a19 19 0 0 1 1 0h5a16 16 0 0 0 2 1h1a21 21 0 0 0 6 3h6l3 5a14 14 0 0 0 8 5 15 15 0 0 0 8-1 16 16 0 0 0 3 2c2 2 4 3 7 3a32 32 0 0 0-7 3l-5-1c-3 0-7 0-10 2l-9-3-9-1h-4a32 32 0 0 0-25 1c-3 1-5 3-6 5-5 0-11 1-15 4l-4-3c-4-2-7-2-11-1-4-4-10-5-15-5l-13 4c-3-3-6-4-10-4-1-4-3-8-6-10l-3-2v-6l-1-3h-2v-9l-3-4c4-4 6-9 4-16 4-3 6-7 5-13-1-3-3-6-6-8v-5l-1-5c2-4 2-8 0-12a16 16 0 0 0 5-15l2-2 4-7 6-1a14 14 0 0 0 6-4l4 1 3 1 1 1v2l-11 55-2 16 69 4-1-8 1-6-4-1-2-2-1-11-20-2c-2 0-4-2-4-4-3-21-4-43-4-64 2-39 9-78 16-116l7-38v-5l-16-1a1657 1657 0 0 1-27 175l-4-2-3-1v-11l-4-6c-1-1-4-1-4 1-3 6-3 13 1 18a9 9 0 0 1-5 3v-6c-2-7-7-11-14-12l-3 2c-3 8 2 17 9 21l-1 2-1 2c-3-4-8-7-13-7-1-1-2 0-3 1-2 5-1 12 4 16 2 1 5 3 8 2l-3 5c-5-3-12-3-15 3-1 2 0 3 2 4 4 2 8 1 12 0v3l-3-1c-5 0-9 2-12 6v3c2 4 5 6 8 8a10 10 0 0 1-3 3c-1 1 0 2 1 3 3 3 7 3 11 1l1-1c2 1 3 4 3 5 0 3-1 4-3 6-5-4-15-3-16 5-1 2 0 4 2 4 3 0 8 0 12-2l1 3c-1 3-3 6-5 7-4-1-9 0-12 3-2 1 0 5 2 5l10-2 3 3v5c-6 0-12 2-10 9 0 1 1 2 3 2 4 0 7-1 10-4v3c-3 0-6 2-8 5-2 5 0 12 6 13 1 1 2 0 3-1l3-10 2 1c2 2 3 4 3 7-4 1-8 4-10 7v4c3 4 14 7 16 0l1-7 4 1h-1c-4 4-6 10-2 15l2 2c8-1 11-9 9-15 3-2 7-3 10-3l9 2c-4 3-6 7-6 11 0 6 3 9 8 8s8-5 9-9v-8c3 1 4 2 5 4-3 5-4 11-1 16 1 2 3 2 5 1 4-4 5-11 3-16l4-3 7-1c-1 3 0 7 3 9 8 5 16-3 15-11l-2-2-7-1 9-3a27 27 0 0 1 12 2c-3 4-3 10 0 14h3c7-1 8-8 6-14 4-1 8 1 11 2v1c-4 5-4 10 0 15 2 1 4 0 5-2 2-4 2-8 2-12 2-2 4-2 6-2-1 2-3 3-3 5-2 5 3 10 7 10 6 1 10-4 10-9l-2-7c4-2 8-2 12-2l1 2c3 5 8 7 14 6 5 6 13 8 20 6 6 1 13 2 19 0 1 2 2 3 4 3a18 18 0 0 0 19-3c6 0 13-5 14-11 0-3 0-6-2-9"/><path d="M398 314h-5a1639 1639 0 0 0-178-5l-38 1h-14l3 3c1 2 3 1 3 1s3-2 7-2c3 0 6-1 8 1l2 8c0 2 2-1 2-1s8-4 10-1l4 9v2l7-4c2 0 8-3 10-1l5 2 10 1 6-2c1-1 9-3 14-3l11 2 10 6 1 4c68-1 136-1 203 5 2-4 2-10 3-15l2-5-86-6"/></g></svg>
