<svg version="1" xmlns="http://www.w3.org/2000/svg" viewBox="0 0 510 390" class="nav-icon"><g id="sources"><path d="M488 292c-1-22-7-43-7-65l3-67-1-128-94-1c-116-2-231-5-346 2a2584 2584 0 0 1-6 198c-3 44-3 88 0 132 32-2 64-1 96-1 119 2 238 6 357 3l-2-73zm-17-99l-1 159s-178 2-191 0l-227-1-3-40 6-116 1-34c-6-16-8-33-3-50 4-20 12-41 29-53 7-5 16-9 24-13 10-3 20-7 30-8 11-1 21 2 30 5l24 10c16 7 30 17 39 31 5 9 7 19 9 29 1 10 3 20 2 29a63 63 0 0 1-10 33l69 2c-6-9-12-19-14-30-1-10 0-21 2-31l7-25c2-8 6-15 11-21 6-7 14-11 22-16 17-10 37-18 58-16l1 1c41 5 81 40 87 82 3 15 1 30-4 44l2 29z"/><g class="rotate-right color-swap"><path d="M385 48c-22-3-41 6-59 17-7 4-13 9-18 17-4 6-6 14-8 21-4 17-9 35-2 52 7 14 19 26 30 36l21 16c8 5 16 6 25 6 18 0 37 1 52-10 7-5 13-12 19-18l15-24c6-16 6-35 0-51a97 97 0 0 0-75-62zm-15 74v-1l1-1c6-4 11-2 17 3 2 2 5 4 5 8 0 3-2 6-5 8-5 4-13 5-18 0s-4-12 0-17zm-51 39h-4c-14-8-18-24-15-39 3-16 12-30 23-42 5-6 11-12 18-16 4-2 11-4 16-1 4 2 4 7 5 11l1 30v2l-1 1c-5 4-8 10-9 16v7c-1 2-5 3-6 4-11 8-20 17-28 27zm92 41c-22 9-49 8-69-6-4-3-10-7-9-12 0-6 8-10 12-12l16-11 8-3h3c6 3 12 2 17 0 4-2 8-3 12-2 11 4 21 8 33 10 2 0 3 1 3 3 0 16-12 27-26 33zm46-72c0 5-2 17-9 16-4 0-9-3-12-5l-14-7-11-7-4-10c-4-8-12-13-16-20s-4-15-6-23c-1-7-1-18 9-18 5 0 9 3 13 4l14 5c15 6 26 25 32 40 3 8 5 17 4 25z"/><path d="M412 68l-12-4c-3-1-6-3-8-1-3 2-2 7-1 10l1 6h2c11 4 21 8 29 18 7 10 9 23 10 35l9 5c2 1 5 3 7 2l2-6c3-17-7-36-17-49-6-8-13-13-22-16zM356 81c0-3 1-11-2-13-4-3-13 3-16 6l-13 13c-14 16-32 51-9 68 3-5 7-9 11-12-6-23 7-53 29-61v-1zM417 169c-4 5-9 9-15 12-5 3-11 3-17 4l-20-1c-7-1-11-4-17-7l-2 1-5 3c-3 2-2 4 0 6l7 6 18 7c12 3 25 2 37-2 13-4 27-12 28-27l-13-2h-1zM384 135c1-1 3-3 3-5l-4-4c-3-2-6-3-9-1-5 7 3 14 10 10z"/></g><g class="rotate-left color-swap"><path d="M169 210c18-5 33-18 45-32 6-7 12-14 14-24 3-8 3-17 2-26-2-17-4-35-16-48-10-11-24-18-38-24l-23-8c-10-3-19-1-29 2-16 5-33 10-44 23-6 7-10 16-13 24-3 10-6 19-7 29-1 17 4 34 14 47 20 29 61 44 95 37zm24-128c0-2 2-3 3-2 15 3 24 15 27 29 2 16-1 34-7 48-3 8-7 15-12 21-3 4-8 9-14 8-6 0-8-6-10-10l-11-27 1-3c3-6 4-12 2-19l-1-6c0-2 3-4 4-6 8-10 14-21 18-33zM92 73c18-16 44-24 68-17 4 2 11 3 12 8 2 6-5 12-8 16l-11 14-6 6-3 1c-6 0-12 1-16 6-3 2-5 5-9 5h-18c-6 1-13 1-19 3l-4-2c-5-15 3-30 14-40zm66 62l-1 1v1c-4 5-10 6-16 3-3-1-7-2-8-5s0-7 1-9c4-7 11-10 17-7 7 3 9 10 7 16zm-86 21c-1-6-3-17 5-19l13 2 15 2c4 1 9 1 12 4 4 2 6 5 9 8 6 5 15 7 21 13 5 6 8 13 12 19s7 16-2 20h-12l-17 1c-17-2-33-15-43-28-6-6-11-14-13-22z"/><path d="M111 193c8 5 16 7 26 7h15c7-1 5-7 2-12l-3-5-1 1c-12-1-24-1-34-8-10-8-16-18-21-29v-1l-10-1c-2-1-6-2-8 0v8c4 17 20 31 34 40zM148 124c-4-1-7 2-9 5-2 4 2 5 6 6 3 1 5 1 7-2 2-4 0-8-4-9zM192 181c6-1 11-10 13-14l8-18c6-19 10-55-15-63l-7 15c13 19 11 52-7 67 1 4 4 13 8 13zM97 107v-1c2-6 6-11 10-16 4-4 9-7 14-9 7-3 14-5 22-6 6-1 11-1 17 1l1-1c2-3 7-8 3-11-2-2-7-2-9-3-6-2-13-2-19-1-13 1-25 6-36 14-10 8-20 21-17 34l14-1z"/></g><path d="M277 305h-1 1z"/><path class="color-swap" d="M279 310v-1l-2-4v1l-1-1v1l-76-1-3 3v21l3 3h76l3-2v-20m0 0v-1m-20 2h14v7l1 8h-15v-15zm-2 15h-17v-15h16l1 15zm-39 0v-15h19v15h-19zm-15-15h12v15h-12v-15m35 15z"/><path d="M332 306h-37c-2-1-5 2-3 4v9a335 335 0 0 1 3 13h1a151 151 0 0 0 26 1c2-1 7-2 8-1 2 1 5-1 5-3v-20c1-1-1-3-3-3zm-5 20l-10 1v-15h12v14h-2zm-28 0l-1-10v-4h2a396 396 0 0 0 13 0l1 7v8l-15-1zm16-14zM82 273l2 1h25c2-1 2-2 2-3l2-34c0-2-2-3-3-3l-27-1c-1 0-3 1-3 3 1 12 2 23 1 35l1 2zm25-33l-2 28H88l-1-29 21 1zM105 305l-1-12c0-2-1-3-3-4l-10-1c-2 0-4 1-4 3l-1 12c-7 5-12 12-10 21 3 8 12 14 21 14 8 1 18-3 18-13 0-8-4-15-10-20zm4 25c-2 3-8 4-14 4-4-1-9-4-11-6-3-3-4-7-4-10 1-4 3-7 7-11l3-2v-1l1-4v-8l9 1 1 14c5 3 8 8 9 13 1 3 1 7-1 10zM161 302l-2-11c-1-2-2-4-4-4h-9c-3 0-5 2-5 4v11c-6 5-10 13-7 22 3 8 13 13 22 12 8 0 17-5 17-14 0-8-5-16-12-20zm6 24c-2 4-7 6-13 6l-12-5c-3-3-4-6-4-9 0-4 2-8 5-12l3-2v-1-5-7h8l3 14c6 2 9 7 10 12 1 3 2 6 0 9zM224 216c-2-2-7-2-9 1l-1 1c-2 3-1 7 2 10 3 2 8 2 10-2 2-3 1-7-2-10zm-3 7h-2v-2c1 0 3 1 2 2zM321 216c-3-2-7-2-10 1v1c-2 3-2 7 2 10 3 2 8 2 10-2 2-3 1-7-2-10zm-3 7h-2v-2c1 0 3 1 2 2zM294 265c2 1 3 1 4-1s0-3-1-4c-2-1-4-1-4 1v2l1 2zM182 216v-1c-2-1-4 1-4 3v1l1 2c-1-1-7 5-8 6l-7 6 3-4 8-8v-2-1l-1-1h-4l-2 2-1 1-4 6c-2 2-6 5-7 8-1 4 3 9 7 7l8-6 10-8c3-3 6-8 1-11z"/><path d="M375 227l3-4 1-2v-1-2l-3-3c-2-1-4 1-4 3l1 3c0-1-2 0-3 2l-4 4-8 6h1l3-4 5-6 2-2 1-2-1-1v-1c0-1-2-2-4-1v1h-1l-3 3-1 2-3 3-6 8c0-4-1-7-4-10-3-4-10-6-14-8-6-3-11-6-15-10l-6-2-11-1h-69l-9 1c-3 0-5 3-8 4a169 169 0 0 1-25 15c-4 1-5 5-5 9 0 6 1 10 5 14 1 8 8 11 14 14 21 6 42 9 62 12 3 4 7 4 13 4l10-1c4 4 12 4 17 1 6-2 8-11 7-17-1-4-4-7-9-9l29-1c4-1 9 0 12-3 3-2 5-5 5-9 1 3 4 6 8 5 3-1 6-5 8-7l9-7zm-38 15l-17 1a1056 1056 0 0 1-100 1v-1c-3-1-3-1-4-4l-1-4c-3-4-8-7-13-6h-3l-8 8v-3-2-4l5-2 7-5 12-6c4-3 7-7 11-7 22-2 44-1 65 0h16l6 1 7 5 13 7c4 3 11 4 12 10l-2 7c-1 3-3 3-6 4zm-27 22c-1 5-3 8-8 9h-8l12-3 2-3c0-5-3-13-8-14h-8l-1 1 1-1 4-1h7c6 2 8 6 7 12zm-86-6l-21-6c-4-2-7-4-7-8v-1c0-4 2-7 6-8s7 2 8 5l2 5 1 1 3 3h1l10 4c12 4 24 6 37 9l1 3-41-7zm67-4l-2 2-1-1 1 1 2-2zm-2 2h11l4 6-4-6h-11l-20-1h1l19 1zm-16 12l-3-3-1-2 1-3v-1-1l16 1h13l1 2 1 4-12 3-4 1c-3 0-9 1-12-1zm15-15l-22-1-2 3-7-1-18-4h53l-4 3zM368 305v1h-1c-6 7-9 16-2 24 6 7 18 8 25 2s8-19 1-26c-6-5-16-7-23-1zm18 23c-5 3-13 3-17-2-4-6-1-12 3-16 3-3 9-3 13-1l-3 2-4 5c-1 1 2 3 3 1a28 28 0 0 1 6-6c4 4 4 13-1 17zM420 305l-1 1h-1c-6 7-8 16-2 24 6 7 18 8 26 2 7-6 7-19 0-26-6-5-16-7-22-1zm1 21c-5-6-2-12 2-16s10-3 14 0c5 3 6 11 2 16l-3-3c-1-1-2-3-4-3-1-1-2 2 0 3l2 2 2 2 1 1c-5 3-13 3-16-2zM426 244c4 2 9-1 10-6s-2-9-7-10h-1c-9 0-9 12-2 16zm4-7c-1 2-2 2-3 0-1-1-1-3 1-3s3 2 2 3z"/><path class="color-swap" d="M421 259c2 4 8 4 12 2a9 9 0 0 0 2-12h-1c-5-8-16 2-13 10zm9-6v3h-3c-1-1 0-3 1-4l2 1z"/><path d="M423 278c3 3 8 4 11 1 4-3 3-9 0-12s-8-3-11 0h-1v1c-3 3-3 7 1 10zm7-7v3c-1 1-5-1-4-2l4-1zM270 338l-67-1c-2 0-2 3 0 3l67 1c2 0 2-3 0-3zM330 336l-32 2c-2 0-2 3 0 3l31-2c3 0 3-3 1-3z"/><path class="key-on" d="M217 311h20v16h-20z"/></g></svg>
