<svg viewBox="0 0 485 380" version="1" xmlns="http://www.w3.org/2000/svg" xmlns:xlink="http://www.w3.org/1999/xlink" class="nav-icon"><defs><path id="a" d="M0 1h455v337H0z"/></defs><g fill-rule="evenodd"><g transform="translate(16 21)"><mask id="b" fill="#fff"><use xlink:href="#a"/></mask><path d="M436 164l-1 160s-178 2-192 0l-226-1-3-40 6-116 1-34c-6-16-8-33-3-50 4-20 12-41 29-53 7-6 16-9 24-13 10-3 20-7 30-8s20 2 30 5l24 10c16 7 30 17 39 31 5 9 7 19 9 29 1 10 3 20 2 29a61 61 0 0 1-10 33l69 2c-6-9-12-19-14-30a169 169 0 0 1 8-57c3-7 7-14 12-20 6-7 14-11 21-16a98 98 0 0 1 59-15c42 5 81 40 88 82 3 15 1 30-4 44l2 28zm17 100c-1-22-7-43-7-65l3-67-1-128-94-1C238 1 123-2 8 5v68c-1 43-3 87-6 130-3 44-3 88 0 132 32-2 64-1 96-1 119 2 238 6 357 3l-2-73z"/></g><path d="M438 123c0 6-2 17-9 16-4 0-9-3-12-5l-14-7-11-7-4-10c-4-8-12-13-16-20s-4-15-6-23c-1-7-1-18 9-18 5 0 9 3 13 4l14 5c15 7 26 25 32 40 3 8 5 17 4 25m-46 72c-22 9-49 8-69-6-4-3-9-7-9-12 0-6 8-9 12-12l16-11 8-3h3c6 3 12 2 17 0 4-2 8-3 12-1 11 3 21 7 33 9 2 0 3 1 3 3 0 16-12 27-26 33m-92-41h-4c-14-8-18-24-15-39 3-16 12-30 23-42 5-6 11-12 18-15 4-3 11-5 16-2 4 2 4 7 5 11l1 30v2l-1 1c-5 4-8 10-9 16v7c-1 2-5 3-6 4-11 8-20 17-28 27m51-39v-1h1c6-5 11-3 17 2 2 2 5 4 5 8 0 3-3 6-5 8-5 4-13 5-18 0s-4-12 0-17m15-74c-22-2-41 6-59 17-7 5-13 10-18 17-4 7-6 14-8 22-5 16-9 35-2 51 7 15 18 26 30 36l20 16c8 5 17 6 26 6 18 1 37 1 52-9 7-5 13-12 19-19 5-8 11-15 14-24 7-16 7-35 1-51a97 97 0 0 0-75-62"/><path d="M393 61l-12-4c-3-1-6-3-9-1-2 3-1 7 0 10l1 6h2c11 5 21 8 28 18 8 11 9 23 10 35l10 6c2 0 5 3 6 2 2-1 3-6 3-7 3-17-7-36-17-49-6-8-13-13-22-16M365 128l3-4c0-2-3-4-4-5-3-2-5-3-9-1-6 7 3 14 10 10M337 74c0-3 1-11-2-13-4-3-13 4-16 6l-13 13c-14 16-32 51-9 68 3-5 7-9 11-12-6-23 6-53 29-61v-1M398 162c-4 5-9 9-15 12-5 3-11 4-17 4l-20-1c-7-1-11-3-17-7l-3 2-4 3c-3 1-2 3 0 5l7 6c6 3 11 6 18 7 12 3 25 2 37-2s27-12 28-26l-13-3h-1M53 149c-1-5-3-17 5-18 4-1 9 1 13 1l15 2c5 1 9 1 13 4l8 8c6 6 15 8 21 14 5 5 8 12 12 18s7 16-2 20l-12 1h-17c-17-2-33-15-43-28-6-6-11-14-13-22m86-21l-1 1v1c-4 6-10 6-16 4-3-2-7-3-8-6s0-6 1-9c4-6 11-10 17-7 7 3 9 10 7 16M73 67c18-17 44-25 68-18 4 2 11 4 12 9 2 5-5 11-8 15l-11 15-6 5c-1 1-2 2-3 1-6 0-12 2-16 6-3 2-5 5-10 6l-17-1-19 3c-2 0-3 0-4-2-5-15 3-29 14-39m101 8c0-2 2-3 3-2 15 3 24 16 27 29 3 16-1 34-7 48-3 8-6 15-11 21-4 5-9 9-15 9-5-1-8-7-10-11l-10-27v-3c3-6 4-12 3-18l-2-7 5-6c7-10 13-21 17-33m-24 128c18-5 33-17 45-32 6-7 12-14 14-23 3-9 3-18 2-27-2-17-4-35-16-48-10-11-24-18-38-23l-23-8c-10-3-19-2-29 1-16 5-33 11-44 24a108 108 0 0 0-20 53c-1 16 4 33 14 47 20 28 61 43 95 36"/><path d="M92 186c8 5 17 7 27 7h14c7-1 5-7 2-12l-3-5-1 1c-12-1-24-1-34-8a69 69 0 0 1-21-30l-9-1c-2-1-7-2-9 0-1 1 0 7 1 8 3 17 19 31 33 40M129 117c-4-1-7 2-9 5-2 4 2 6 6 7 3 1 5 0 7-3s0-8-4-9M173 174c6-1 10-10 13-14l8-18c6-19 10-55-16-63l-6 15c13 19 11 52-7 67 1 4 4 13 8 13M78 100v-1c2-6 6-11 10-15 4-5 9-8 14-10 7-2 14-5 22-6 6-1 11 0 17 1l1-1c2-3 7-7 3-11l-9-3a69 69 0 0 0-54 13c-11 9-21 21-18 35l14-2M257 299h0M219 319zm-35-15h12v15h-12v-15zm15 15v-15h19v15h-19zm38 0h-16v-15h16v15zm3-15h14v15h-14v-15zm20-1v-1 1zm0 0v-1c0-2-1-3-2-3h-1l-76-1-3 3v21c0 2 2 3 3 3h76l3-2v-20zM280 319l-1-10v-4h15l1 7v8l-15-1m28 0l-10 1v-15h12v14h-2m5-20h-37c-3-1-5 2-3 4v9a329 329 0 0 1 3 13h1a162 162 0 0 0 26 1c2 0 7-2 8-1 2 1 5 0 5-3v-20l-3-3M88 233l-1 28H68l-1-29 21 1m-25 33l2 1h25c2 0 2-2 2-3l2-34c0-2-2-3-3-3l-27-1-3 3 1 35 1 2M90 323c-2 3-8 4-14 4-5-1-9-3-11-6-3-3-4-7-4-10 1-4 3-7 7-10l3-3v-1l1-4v-7l9 1 1 13c5 4 8 9 9 13s1 7-1 10m-4-25l-1-11c0-2-1-4-3-5l-10-1c-1 0-4 1-4 3l-1 12c-7 5-12 12-10 21 3 9 12 14 21 14 8 1 18-3 18-13 0-8-4-15-10-20M148 319c-2 4-7 6-13 6-5 0-9-2-12-5s-4-6-4-9c0-4 2-8 5-11l3-3v-1-4-8h8c0 5 2 10 3 14 6 3 8 7 10 12 1 3 2 6 0 9m-6-24l-2-11c-1-1-2-4-4-4h-9c-3 0-5 2-5 4v11c-6 6-10 13-7 22 3 8 13 13 22 12 8 0 17-5 17-14 0-8-6-16-12-20M202 216h-2v-2c1 0 3 1 2 2m3-7c-2-2-7-2-9 1l-1 1c-2 3-2 8 2 10 3 2 8 2 10-1 2-4 1-8-2-11M299 216h-2v-2l2 2m3-7c-3-2-7-2-10 1v1c-2 3-2 8 2 10 3 2 8 2 10-1 2-4 1-8-2-11M275 258c2 1 3 1 4-1 1-1 0-3-1-4-2-1-4 0-4 2v1l1 2M163 209c-2-2-4 0-4 2v1l1 2c-1-1-7 5-8 6l-7 6a233 233 0 0 1 11-14v-1l-1-1h-4l-2 2-1 1-4 6c-2 2-6 5-7 8-1 4 3 9 7 7l9-6 9-8c3-3 6-8 1-11"/><path d="M269 246h-21c-2-1-3 1-3 2l-7-1-18-4h53l-4 3zm-15 15c-2 0-2-1-3-3l-1-2 1-3a9 9 0 0 1 0-1h27l2 1 1 1 1 4a73 73 0 0 1-15 4c-4 0-10 1-13-1zm16-12l11 1 4 5-4-5-11-1h-19 19zm2-2l-2 2-1-1 1 1 2-2zm-67 4l-21-6c-4-1-7-4-7-8v-1c0-3 2-7 6-8s7 2 8 5l2 6h1a17 17 0 0 0 4 3l10 4c12 4 25 6 37 9a2083 2083 0 0 0 1 3l-41-7zm86 6c-1 5-3 8-8 10l-8-1 12-3 2-3c0-5-3-13-8-13l-8-1 4-1h7c6 2 8 6 7 12zm27-22l-17 1a1207 1207 0 0 1-100 1v-1c-3-1-3-1-4-4l-1-4a13 13 0 0 0-14-6l-2 1c-3 1-6 4-8 7v-2-3-4l5-2a151 151 0 0 0 19-11c3-3 7-6 11-7h81l6 1 7 6 13 7c4 2 11 4 12 10l-2 7c-1 3-3 3-6 3zm38-15l3-4a9 9 0 0 0 1-3l-1-2-2-2c-2-2-4 0-4 2v1l1 2-4 2-4 4-7 6a242 242 0 0 1 9-10l2-2 1-2a3 3 0 0 0-1-1c-1-2-2-2-4-2v1l-1 1-3 3-1 1-3 4-7 8c1-4 0-8-3-11-4-4-10-5-14-8l-16-10-5-2-11-1a1236 1236 0 0 0-69 0l-10 1-7 4a146 146 0 0 1-25 15c-4 2-5 5-5 10a16 16 0 0 0 5 13c1 8 7 12 14 14 20 6 41 9 62 12 3 4 7 4 12 4l10-1c5 4 13 4 18 2 6-3 8-12 7-18-1-4-5-7-9-9l29-1c4 0 9 0 12-2 3-3 5-6 5-10 1 4 4 7 7 5l9-6 9-8zM367 321c-5 3-13 3-17-2-4-6-2-12 3-16 3-3 8-3 13-1l-3 2-4 5c-1 2 2 3 3 1l4-4 2-2c4 4 4 13-1 17m-18-23v1h-1c-6 7-9 16-2 24 6 8 18 8 25 2s8-19 1-25c-6-6-16-7-23-2M402 319c-5-6-2-12 2-16s10-3 14 0c5 4 6 11 2 16l-3-2-4-4c-2-1-2 2 0 3l2 2a57 57 0 0 0 3 3c-5 3-13 3-16-2m-2-21v1h-1c-6 7-8 16-2 24s18 8 26 2c7-6 7-19 0-25-6-6-16-7-23-2M411 230c0 2-2 2-3 1-1-2-1-4 1-4s3 2 2 3m-5 7c5 3 10-1 11-6s-2-9-7-10h-1c-9 0-9 12-3 16"/><path d="M411 246v3h-3c-1-1 0-3 1-3h2m-9 6c3 4 8 5 12 2a9 9 0 0 0 2-12c-6-8-18 2-14 10M411 265v2c-1 2-5 0-4-2h4m-7 6c3 3 8 4 11 1 4-3 3-9 0-12a9 9 0 0 0-12 1c-3 3-3 7 1 10M251 331h-67c-2 0-2 3 0 3h67c2 0 2-3 0-3M311 330l-32 1c-2 1-2 4 0 3l32-1v-3"/></g></svg>
