<svg viewBox="0 0 485 380" version="1" xmlns="http://www.w3.org/2000/svg" xmlns:xlink="http://www.w3.org/1999/xlink" class="nav-icon"><defs><path id="a" d="M1 0h4v5H1z"/><path id="c" d="M0 1h29v250H0z"/><path id="e" d="M1 0h31v14H1z"/></defs><g fill-rule="evenodd"><g transform="translate(392 1)"><mask id="b" fill="#fff"><use xlink:href="#a"/></mask><path d="M5 3c1-1-1-2-1-3L1 2v2c1 1 4 1 4-1" mask="url(#b)"/></g><path d="M76 146V78l1-33-2 1-2 3h-1v2c-3 81-8 172-15 253l21 5c-2-9-1-20 0-29l-1-66-1-68"/><g transform="translate(40 53)"><mask id="d" fill="#fff"><use xlink:href="#c"/></mask><path d="M25 7l-1 1h-1a243 243 0 0 1 0 12l-1 6-2 16L8 148l-6 45-2 26c0 10 1 21 5 30l9 2C21 171 26 81 29 1l-4 6" mask="url(#d)"/></g><path d="M425 292c-1 9-10 17-18 20l-2 1-17 1a4561 4561 0 0 1-92 5l-134 6-24 1c-11 0-24-1-34-7-7-4-10-10-10-19-2-41-2-83-3-125a39298 39298 0 0 1-2-101c1-8 0-15 2-22a25 25 0 0 1 7-12c5-5 12-5 19-3l10 2 51 8a10071 10071 0 0 0 198 24l12 1h1l7 1c11 5 15 17 16 28 2 10 1 20 2 31a3139 3139 0 0 0 10 148l1 12m3-14a3683 3683 0 0 0-13-187c-3-8-9-15-16-19-8-4-19-5-29-6l-61-10-61-8-30-2-30-5-29-4-32-4c-7-1-17-3-25-1a19 19 0 0 0-10 9h-1c-3 6-4 13-5 19v59l1 63v115c0 7 0 14 3 20 2 6 7 7 13 8 7 2 15 4 23 4h29l64-1 62-3c41-1 84 0 124-10h2c8-3 15-6 18-14 3-7 3-15 3-23"/><path d="M334 93l-29-9-23-5c-58-15-148-12-159-11h-1c-10 1-11 8-11 8l-3 36c-2 31 3 146 5 162s7 15 10 18 42 5 42 5c73 10 164-6 174-8 9-3 12-8 12-8l2-13 2-12c4-95-11-149-13-155s-8-8-8-8M225 40c2 1 5 0 7-1l8-1 3-1a2226 2226 0 0 0 64-13l86-19-165 32-5 1 2 2M390 130l-3-2-11-9c-1-2-1-5 2-5l5 2 9 7c3 2 1 4-1 6l-1 1m-26-16c3-7 10-12 18-11 7 1 12 8 13 15-6-4-13-13-20-10-8 3-7 11-2 16l10 9 5 3c-5 3-11 4-17 0-7-5-11-14-7-22m29 22c3-2 6-6 7-9l-1-5c0-10-7-20-17-22-10-1-19 6-22 15-2 11 4 22 14 26 7 2 14 0 19-5M375 176c2-5 9-16 12-14 5 2-4 12-6 14-1 3-4 2-6 0m11-25c8 2 14 12 11 20-1 6-7 11-12 11l1-3c4-5 11-12 8-18-3-7-10-6-15-2l-7 11-1 1c-4-9 2-21 15-20m-17 28c2 2 7 5 10 5h1c9 3 18-4 20-13 3-9-4-21-13-23h-1c-9-1-17 5-19 13-1 5-1 10 2 14v4M373 211a5 5 0 1 0 0-10 5 5 0 0 0 0 10M387 210a5 5 0 1 0 0-10 5 5 0 0 0 0 10M403 208a5 5 0 1 0-7-7 5 5 0 0 0 7 7M373 224a5 5 0 1 0 0-10 5 5 0 0 0 0 10M387 223a5 5 0 1 0 0-10 5 5 0 0 0 0 10M404 221a5 5 0 1 0-7-7 5 5 0 0 0 7 7M374 237a5 5 0 1 0 0-10 5 5 0 0 0 0 10M388 236a5 5 0 1 0 0-10 5 5 0 0 0 0 10M404 234a5 5 0 1 0-7-7 5 5 0 0 0 7 7M375 251a5 5 0 1 0 0-11 5 5 0 0 0 0 11M388 249a5 5 0 1 0 0-10 5 5 0 0 0 0 10M405 247a5 5 0 1 0-7-7 5 5 0 0 0 7 7M375 264a5 5 0 1 0 0-10 5 5 0 0 0 0 10M389 263a5 5 0 1 0 0-10 5 5 0 0 0 0 10M405 260a5 5 0 1 0-7-7 5 5 0 0 0 7 7M376 267a5 5 0 1 0 0 10 5 5 0 0 0 0-10M389 266a5 5 0 1 0 0 10 5 5 0 0 0 0-10M406 266a5 5 0 1 0-7 8 5 5 0 0 0 7-8M383 329c-22 4-44 4-66 5l-68 3c-22 0-45 2-67 1l-33 1c-11 1-21 1-32-1-12-2-29-2-36-15l-3-10-32-8 8 13c5 5 11 8 18 10s12 5 14 12c1 3 0 8 2 10 2 3 6 3 9 3l27-1a9647 9647 0 0 0 172-6c37-1 75-2 112-8l1-13-26 4M351 351a61 61 0 0 0 2 11l3 3h22a140 140 0 0 0 4-17l-31 3"/><g transform="translate(105 357)"><mask id="f" fill="#fff"><use xlink:href="#e"/></mask><path d="M1 0v1a96 96 0 0 0 2 12l26 1 2-9 1-4-10-1H1z" mask="url(#f)"/></g></g></svg>
