<svg version="1" xmlns="http://www.w3.org/2000/svg" viewBox="0 0 510 390" class="nav-icon"><g id="talks"><path d="M412 19l-2-3c-1-1-2 0-3 1v3c2 1 4 1 5-1zM403 87h-1 1zM402 87zM91 161l-1-68 1-33-1 1-3 2v1l-1 1 1 1c-4 81-9 172-16 253l21 5v-29-66l-1-68zM79 74l-1 2v0c0-1 0-1 0 0v4l-1 7v1l-1 5-2 17-12 106-6 45-2 26c0 10 1 21 5 30l9 2c6-80 12-170 15-251-1 3-2 5-4 6zM442 293l-3-64-3-63-2-32c-1-9-2-19-5-28-3-7-8-15-16-18-8-5-19-6-29-7l-61-10-61-8-30-2-29-5-30-4-32-4c-7-1-17-3-25-1-4 1-7 4-10 8v1h-1c-3 6-4 13-5 19v59l1 63v115c0 7 0 14 3 20 2 6 7 7 13 9l23 4 29-1 64-1 62-2c41-2 84-1 124-11h2c8-3 15-6 18-14 3-7 3-15 3-23zm-3 14c-1 9-10 17-18 20h-2c-5 2-11 2-17 2l-23 2-69 3-134 6-24 1c-11 0-23-1-33-7-8-4-11-10-11-19l-3-125-1-100v-1-1l1-22a25 25 0 0 1 7-11c6-5 12-6 19-3l11 2 51 7a10263 10263 0 0 0 198 25l11 1h1l7 1c11 4 16 17 17 28l1 31 5 79 5 69 1 12z"/><path class="color-swap flicker" d="M349 108l-30-9-23-5c-57-15-147-12-159-11-11 1-12 8-12 8l-3 36c-2 31 3 146 5 162s7 15 10 18 42 5 42 5c74 10 164-6 174-8 9-3 12-8 12-8l2-13 2-12c4-95-11-149-13-155s-7-8-7-8z"/><path d="M239 55c2 1 5 0 7-1l8-1 4-1 21-4 42-9 87-19-166 32-5 1 2 2zM407 151c3-2 6-6 7-10l-1-4c0-10-7-20-16-22h-1c-10-1-19 6-22 16-2 10 4 21 14 25 7 2 14 0 19-5zm-29-22c3-7 10-12 18-11 7 1 12 8 14 15h-1c-5-4-12-12-20-10-7 3-7 11-2 16l11 9 4 3c-5 3-11 4-16 0-8-5-11-14-8-22zm26 16l-3-2c-4-2-7-5-10-9-2-2-2-5 1-5l5 2 9 7c3 2 1 4 0 6l-2 1z"/><path class="turn" d="M384 194c1 2 6 5 9 5l2 1c9 2 18-5 20-14s-4-21-14-23h-1c-8-1-17 5-19 13-1 5 0 10 2 14l1 4zm16-28c9 2 14 12 12 20-2 6-7 10-13 11l2-3c3-5 10-12 7-18-2-7-10-6-14-2l-8 11-1 1c-4-9 3-21 15-20zm-11 25c2-5 9-16 12-14 5 2-4 12-5 14-2 3-5 2-7 0z"/><circle cx="387" cy="221" r="5"/><circle cx="401" cy="220" r="5"/><ellipse transform="rotate(-45 414 219)" cx="414" cy="219" rx="5" ry="5"/><circle cx="388" cy="234" r="5"/><circle cx="401" cy="233" r="5"/><ellipse transform="rotate(-45 414 232)" cx="414" cy="232" rx="5" ry="5"/><circle cx="388" cy="247" r="5"/><circle cx="402" cy="246" r="5"/><ellipse transform="rotate(-45 415 245)" cx="415" cy="245" rx="5" ry="5"/><circle cx="389" cy="261" r="5"/><circle cx="403" cy="259" r="5"/><ellipse transform="rotate(-45 416 259)" cx="416" cy="259" rx="5" ry="5"/><circle cx="389" cy="274" r="5"/><circle cx="403" cy="273" r="5"/><ellipse transform="rotate(-45 416 272)" cx="416" cy="272" rx="5" ry="5"/><circle cx="390" cy="287" r="5"/><circle cx="404" cy="286" r="5"/><ellipse transform="rotate(-45 417 285)" cx="417" cy="285" rx="5" ry="5"/><g><path d="M397 344c-22 3-44 4-66 5l-68 3c-22 0-44 2-67 1l-33 1c-10 1-21 1-31-1-13-2-30-3-36-16l-4-9-31-8c2 5 4 9 8 12 5 6 10 9 17 11 7 1 13 5 14 12 1 3 1 8 3 10 1 3 5 3 8 3l28-1 58-2 114-4c37-1 75-2 111-8l1-13-26 4zM365 366l1 3 2 8c0 2 0 2 2 3h23l2-14 1-3-31 3zM120 372v1a81 81 0 0 0 2 12l26 1 2-9 1-5h-31z"/></g></g></svg>
