<?xml version="1.0" encoding="utf-8"?>
<!-- Generator: Adobe Illustrator 16.0.4, SVG Export Plug-In . SVG Version: 6.00 Build 0)  -->
<!DOCTYPE svg PUBLIC "-//W3C//DTD SVG 1.1//EN" "http://www.w3.org/Graphics/SVG/1.1/DTD/svg11.dtd">
<svg version="1.1" id="Layer_1" xmlns="http://www.w3.org/2000/svg" xmlns:xlink="http://www.w3.org/1999/xlink" x="0px" y="0px"
	 width="195px" height="300px" viewBox="0 0 195 300" enable-background="new 0 0 195 300" xml:space="preserve">
<g id="Page-1">
	<g id="cover-csm">
		<g id="cover" transform="translate(-0.000000, 0.000000)">
			<rect id="Rectangle-path" y="54.531" fill="#126897" width="194.754" height="245.391"/>
			<rect id="Rectangle-path_1_" fill="#FFFFFF" width="194.754" height="54.531"/>
			<path id="Shape" fill="#231F20" d="M157.752,74.006c10.756,0,19.475-8.721,19.475-19.475s-8.719-19.476-19.475-19.476
				s-19.477,8.721-19.477,19.476S146.996,74.006,157.752,74.006"/>
			<g id="Group_1_" transform="translate(23.370492, 28.740984)">
				<g id="Shape_7_">
					<path fill="#ECE6D4" d="M9.738,5.582c0,2.688-2.181,4.867-4.87,4.867C2.179,10.449,0,8.27,0,5.582
						c0-2.689,2.179-4.869,4.868-4.869C7.557,0.714,9.738,2.893,9.738,5.582"/>
					<g id="Group" transform="translate(0.983607, 0.000000)">
						<path id="Shape_1_" fill="#8E7F33" d="M1.682,7.749c-0.371-0.3-0.726-0.478-1.244-0.329C0.525,7.69,0.663,7.918,0.97,8.121
							c0.581,0.39,1.347,0.472,1.347,0.472S2.226,8.19,1.682,7.749"/>
						<path id="Shape_2_" fill="#8E7F33" d="M5.24,5.046c-1.044,0.319-1.526,0.93-2.018,1.657c0.369,0.085,1.8,0.116,2.39-0.053
							C7.02,6.244,7.914,4.848,7.914,4.848S6.479,4.666,5.24,5.046"/>
						<path id="Shape_3_" fill="#8E7F33" d="M3.471,7.018C2.663,6.822,2.227,7.102,1.726,7.467c0.376,0.218,1.061,0.525,1.515,0.633
							c0.958,0.228,2.123-0.129,2.123-0.129S4.429,7.247,3.471,7.018"/>
						<path id="Shape_4_" fill="#8E7F33" d="M6.215,3.083c-0.332,1.109-1.199,1.529-1.922,1.91c0.015-0.599,0.033-1.637,0.22-2.261
							C4.909,1.417,6.18,0.233,6.18,0.233S6.611,1.767,6.215,3.083"/>
						<path id="Shape_5_" fill="#8E7F33" d="M3.759,5.069C3.627,5.805,3.13,6.148,2.794,6.45c-0.04-0.384-0.021-1.13,0.052-1.542
							c0.156-0.873,0.834-1.725,0.834-1.725S3.913,4.196,3.759,5.069"/>
						<path id="Shape_6_" fill="#8E7F33" d="M2.394,6.277C2.29,6.822,1.967,6.981,1.634,7.184C1.609,6.895,1.62,6.393,1.678,6.087
							c0.124-0.649,0.627-1.261,0.627-1.261S2.518,5.63,2.394,6.277"/>
					</g>
				</g>
				<g id="Shape_8_" transform="translate(12.668852, 2.419672)">
					<path fill="#241F21" d="M3.38,1.75L3.187,1.079L2.975,1.75L2.33,3.279h1.679L3.38,1.75L3.38,1.75L3.38,1.75z M4.168,5.753
						C4.15,5.691,4.142,5.622,4.142,5.551c0-0.07,0.008-0.133,0.026-0.204h0.708L4.195,3.712h-2.05L1.596,5.03l0.132,0.317h0.486
						C2.233,5.41,2.241,5.48,2.241,5.551c0,0.071-0.008,0.141-0.026,0.203H0.509C0.491,5.691,0.483,5.622,0.483,5.551
						c0-0.081,0.009-0.133,0.027-0.204h0.389l2.298-5.311h0.371l2.236,5.311h0.452C6.271,5.41,6.28,5.48,6.28,5.551
						c0,0.071-0.009,0.141-0.026,0.203H4.168L4.168,5.753L4.168,5.753z"/>
					<path fill="#241F21" d="M12.477,5.357c0.778,0,1.185-0.381,1.185-1.105c0-0.734-0.425-1.167-1.334-1.167h-0.627v2.227
						C11.831,5.329,12.301,5.357,12.477,5.357L12.477,5.357L12.477,5.357z M12.796,2.686c0.31-0.141,0.574-0.566,0.574-1.122
						c0-0.688-0.362-1.034-1.069-1.034h-0.6v2.156H12.796L12.796,2.686L12.796,2.686z M10.101,5.753
						c-0.018-0.062-0.028-0.131-0.028-0.203c0-0.07,0.01-0.133,0.028-0.204h0.725V0.531h-0.725c-0.018-0.07-0.028-0.132-0.028-0.203
						c0-0.072,0.01-0.142,0.028-0.204h2.323c1.248,0,1.883,0.496,1.883,1.405c0,0.591-0.416,1.061-0.945,1.229l-0.372,0.088
						l0.372,0.036c0.794,0.132,1.246,0.644,1.246,1.343c0,1.042-0.892,1.528-2.192,1.528H10.101L10.101,5.753L10.101,5.753z"/>
					<path fill="#241F21" d="M20.546,2.881c0-1.53-0.812-2.404-1.917-2.404c-1.123,0-1.963,0.857-1.963,2.518
						c0,1.53,0.813,2.404,1.917,2.404C19.706,5.399,20.546,4.542,20.546,2.881 M15.678,2.996c0-1.758,1.43-2.959,2.952-2.959
						c1.563,0,2.907,1.086,2.907,2.845c0,1.758-1.431,2.961-2.953,2.961C17.021,5.843,15.678,4.756,15.678,2.996"/>
					<path fill="#241F21" d="M27.15,2.881c0-1.53-0.813-2.404-1.918-2.404c-1.122,0-1.963,0.857-1.963,2.518
						c0,1.53,0.815,2.404,1.919,2.404C26.31,5.399,27.15,4.542,27.15,2.881 M22.28,2.996c0-1.758,1.432-2.959,2.952-2.959
						c1.564,0,2.908,1.086,2.908,2.845c0,1.758-1.432,2.961-2.952,2.961C23.625,5.843,22.28,4.756,22.28,2.996"/>
					<path fill="#241F21" d="M33.091,5.718V5.595l-2.122-2.448l-0.317-0.089v2.255h0.654c0.017,0.062,0.025,0.132,0.025,0.204
						s-0.008,0.141-0.025,0.202h-2.254c-0.018-0.062-0.026-0.131-0.026-0.202s0.008-0.133,0.026-0.204h0.725V0.496h-0.725
						c-0.018-0.071-0.026-0.133-0.026-0.205c0-0.07,0.008-0.141,0.026-0.202h2.254c0.017,0.061,0.025,0.131,0.025,0.202
						c0,0.071-0.008,0.133-0.025,0.205h-0.654v2.2h0.317l1.936-1.909l-0.062-0.291h-0.468c-0.017-0.071-0.027-0.133-0.027-0.205
						c0-0.07,0.01-0.131,0.027-0.202h1.892c0.017,0.07,0.026,0.131,0.026,0.202c0,0.071-0.009,0.133-0.026,0.205h-0.434
						l-2.218,2.104l2.36,2.713h0.494c0.017,0.07,0.026,0.132,0.026,0.204s-0.009,0.141-0.026,0.202H33.091L33.091,5.718
						L33.091,5.718z"/>
					<path fill="#241F21" d="M40.887,1.716l-0.196-0.673L40.48,1.716l-0.644,1.528h1.679L40.887,1.716L40.887,1.716L40.887,1.716z
						 M41.673,5.718c-0.017-0.062-0.026-0.131-0.026-0.202s0.009-0.133,0.026-0.204h0.707L41.7,3.676h-2.05l-0.549,1.317
						l0.133,0.318h0.487c0.017,0.062,0.027,0.132,0.027,0.204s-0.01,0.141-0.027,0.202h-1.706c-0.018-0.062-0.027-0.131-0.027-0.202
						c0-0.081,0.009-0.133,0.027-0.204h0.389L40.701,0h0.371l2.238,5.312h0.45c0.017,0.062,0.025,0.132,0.025,0.204
						s-0.008,0.141-0.025,0.202H41.673L41.673,5.718L41.673,5.718z"/>
					<path fill="#241F21" d="M46.129,2.987h0.653c0.726,0,1.157-0.441,1.157-1.289c0-0.831-0.396-1.202-1.157-1.202h-0.653V2.987
						L46.129,2.987L46.129,2.987z M44.529,5.718c-0.017-0.062-0.024-0.131-0.024-0.202c0-0.081,0.008-0.133,0.024-0.204h0.726V0.496
						h-0.726c-0.017-0.071-0.024-0.133-0.024-0.205c0-0.07,0.008-0.141,0.024-0.202h2.378c1.28,0,1.98,0.617,1.98,1.608
						c0,0.998-0.771,1.696-2.104,1.696h-0.653v1.918h0.805c0.017,0.062,0.027,0.132,0.027,0.204s-0.01,0.141-0.027,0.202H44.529
						L44.529,5.718L44.529,5.718z"/>
					<path fill="#241F21" d="M51.91,1.716l-0.194-0.673l-0.212,0.673l-0.646,1.528h1.679L51.91,1.716L51.91,1.716L51.91,1.716z
						 M52.697,5.718c-0.017-0.062-0.027-0.131-0.027-0.202s0.01-0.133,0.027-0.204h0.708l-0.681-1.636h-2.052l-0.547,1.317
						l0.133,0.318h0.487c0.017,0.062,0.027,0.132,0.027,0.204s-0.01,0.141-0.027,0.202h-1.706c-0.018-0.062-0.027-0.131-0.027-0.202
						c0-0.081,0.009-0.133,0.027-0.204h0.39L51.725,0h0.37l2.237,5.312h0.451c0.018,0.062,0.027,0.132,0.027,0.204
						S54.8,5.656,54.782,5.718H52.697L52.697,5.718L52.697,5.718z"/>
					<path fill="#241F21" d="M58.072,2.898c0.478-0.177,0.866-0.53,0.866-1.254c0-0.823-0.363-1.148-1.124-1.148h-0.662v2.403
						H58.072L58.072,2.898L58.072,2.898z M59.485,5.718V5.595L57.814,3.35l-0.662-0.098v2.06h0.68
						c0.018,0.062,0.025,0.132,0.025,0.204s-0.007,0.141-0.025,0.202h-2.28c-0.018-0.062-0.026-0.131-0.026-0.202
						c0-0.081,0.008-0.133,0.026-0.204h0.724V0.496h-0.724c-0.018-0.071-0.026-0.133-0.026-0.205c0-0.07,0.008-0.141,0.026-0.202
						h2.386c1.246,0,1.926,0.547,1.926,1.537c0,0.699-0.546,1.353-1.449,1.511c0.282,0.195,0.556,0.451,0.777,0.77l1.131,1.405
						h0.399c0.017,0.062,0.026,0.132,0.026,0.204s-0.009,0.141-0.026,0.202H59.485L59.485,5.718L59.485,5.718z"/>
					<path fill="#241F21" d="M66,0.089h-4.835l-0.132,1.086h0.477l0.23-0.442c0.08-0.159,0.115-0.22,0.195-0.238h1.209v4.816h-0.723
						c-0.018,0.07-0.027,0.123-0.027,0.203c0,0.071,0.01,0.142,0.027,0.203h2.323c0.017-0.062,0.026-0.132,0.026-0.203
						c0-0.07-0.01-0.141-0.026-0.203h-0.726V0.496h1.211c0.08,0.018,0.115,0.079,0.195,0.238l0.229,0.442h0.477L66,0.089L66,0.089
						L66,0.089z"/>
				</g>
			</g>
			<rect id="Rectangle-path_2_" x="23.371" y="171.384" width="140.223" height="0.974"/>
			<rect id="Rectangle-path_3_" x="23.371" y="247.338" width="140.223" height="0.974"/>
			<path id="Shape_9_" fill="#FFFFFF" d="M162.536,58.708c0,2.532-2.253,4.228-4.836,4.228c-2.735,0-4.709-1.316-4.709-3.823
				c0-1.544,0.886-2.811,3.189-4.33c-1.493-1.039-2.962-2.228-2.962-4.33c0-2.507,2.203-4.152,4.658-4.152
				c2.381,0,4.381,1.164,4.381,3.747c0,1.444-1.09,2.811-3.216,4C160.738,55.163,162.536,56.378,162.536,58.708L162.536,58.708
				L162.536,58.708z M154.965,59.113c0,1.95,1.141,2.734,2.786,2.734c1.468,0,2.558-1.013,2.558-2.734
				c0-1.57-1.342-2.607-3.292-3.823C155.599,56.479,154.965,57.771,154.965,59.113L154.965,59.113L154.965,59.113z M160.283,50.048
				c0-1.874-1.014-2.659-2.406-2.659c-1.367,0-2.43,0.785-2.43,2.659c0,1.57,1.24,2.532,2.76,3.494
				C159.6,52.429,160.283,51.289,160.283,50.048L160.283,50.048L160.283,50.048z"/>
			<g id="Group_2_" transform="translate(22.898361, 178.209836)">
				<path id="Shape_10_" fill="#FFFFFF" d="M8.167,25.476c0,3.07-1.442,4.771-3.921,4.771c-2.553,0-3.737-1.554-3.885-4.143
					c-0.111-2.554-0.111-8.362-0.111-11.1c0-2.738,0.037-8.953,0.037-9.99c0.074-3.552,1.628-4.735,4.254-4.735
					c2.405,0,3.552,1.628,3.589,5.18v4.589H5.837c0-1.629,0.037-4.515,0-5.699C5.799,3.128,5.171,2.61,4.246,2.61
					c-1,0-1.591,0.74-1.591,2.035c-0.037,1.295-0.037,8.177-0.037,10.359c0,2.553,0.037,9.582,0.074,10.396
					c0.111,2.035,0.703,2.553,1.628,2.553c0.814,0,1.591-0.408,1.591-2.738v-4.772h2.256C8.167,21.294,8.167,24.624,8.167,25.476
					L8.167,25.476L8.167,25.476z"/>
				<path id="Shape_11_" fill="#FFFFFF" d="M17.788,5.237c0,1.332,0.038,6.955,0.038,9.879c0,3.256,0,8.287-0.038,10.211
					c-0.111,3.256-1.295,4.92-3.996,4.92s-3.848-1.554-3.922-4.846c-0.037-0.814-0.037-7.066-0.037-10.248
					c0-2.738,0-8.807,0.037-9.805c0.074-3.404,1.221-5.069,3.922-5.069C16.381,0.279,17.677,1.797,17.788,5.237L17.788,5.237
					L17.788,5.237z M15.383,25.772c0.074-1.296,0.074-8.325,0.074-10.581c0-1.998,0-8.955-0.037-10.139
					c-0.037-1.701-0.407-2.441-1.591-2.441c-1.333,0-1.591,0.962-1.591,2.479c0,1.221-0.037,8.066-0.037,10.211
					c0,2.258,0,9.213,0.037,10.472c0.037,1.258,0.37,2.183,1.628,2.183C14.976,27.954,15.309,26.955,15.383,25.772L15.383,25.772
					L15.383,25.772z"/>
				<polygon id="Shape_12_" fill="#FFFFFF" points="24.93,30.026 22.044,10.824 22.044,30.026 19.971,30.026 19.971,0.428 
					22.451,0.428 25.411,21.368 25.411,0.428 27.519,0.428 27.519,30.026 				"/>
				<polygon id="Shape_13_" fill="#FFFFFF" points="33.995,2.648 33.995,30.026 31.664,30.026 31.664,2.648 29.038,2.648 
					29.038,0.428 36.659,0.428 36.659,2.648 				"/>
				<polygon id="Shape_14_" fill="#FFFFFF" points="38.176,30.026 38.176,0.428 44.799,0.428 44.799,2.648 40.471,2.648 
					40.471,13.969 44.281,13.969 44.281,16.189 40.471,16.189 40.471,27.806 44.837,27.806 44.837,30.026 				"/>
				<polygon id="Shape_15_" fill="#FFFFFF" points="51.274,30.026 48.388,10.824 48.388,30.026 46.316,30.026 46.316,0.428 
					48.795,0.428 51.756,21.368 51.756,0.428 53.864,0.428 53.864,30.026 				"/>
				<polygon id="Shape_16_" fill="#FFFFFF" points="60.34,2.648 60.34,30.026 58.009,30.026 58.009,2.648 55.383,2.648 
					55.383,0.428 63.004,0.428 63.004,2.648 				"/>
				<path id="Shape_17_" fill="#FFFFFF" d="M72.033,30.247c-2.405,0-3.737-1.368-3.737-3.773v-4.18h2.146v3.736
					c0,1.554,0.591,2.109,1.479,2.109c1,0,1.554-0.667,1.554-3.108c0-3.33-0.407-5.402-1.703-8.288
					c-0.333-0.703-0.999-2.108-1.405-2.922c-1.517-2.997-2.22-5.106-2.22-8.399c0-3.329,1.443-5.143,3.922-5.143
					c2.664,0,3.625,1.997,3.663,4.921c0,0.185,0.037,3.33,0.037,3.33h-2.257V5.275c0-1.739-0.295-2.738-1.479-2.738
					c-1.11,0-1.479,0.851-1.479,3.108c0,2.368,0.628,4.55,1.887,6.918c0.444,0.851,0.961,1.851,1.405,2.774
					c1.444,2.998,2.036,5.699,2.036,9.287C75.881,28.768,74.475,30.247,72.033,30.247L72.033,30.247L72.033,30.247z"/>
				<polygon id="Shape_18_" fill="#FFFFFF" points="81.726,2.648 81.726,30.026 79.395,30.026 79.395,2.648 76.769,2.648 
					76.769,0.428 84.391,0.428 84.391,2.648 				"/>
				<path id="Shape_19_" fill="#FFFFFF" d="M92.678,13.45c-0.259,0.74-0.814,1.703-1.294,1.887l2.403,14.689h-2.403L89.274,16.04
					l-1.147,0.037v13.949h-2.22V0.428h3.516c2.034,0,2.996,1.109,3.44,3.07c0.185,0.851,0.296,2.591,0.296,4.921
					C93.159,10.861,93.011,12.378,92.678,13.45L92.678,13.45L92.678,13.45z M90.608,4.571c-0.074-1.11-0.557-1.924-1.37-1.924
					h-1.073v11.247c0.037,0,0.852,0,1.185-0.073c0.628-0.074,0.888-0.557,1.036-1.036c0.258-0.704,0.369-2.849,0.369-3.996
					C90.754,7.273,90.643,4.943,90.608,4.571L90.608,4.571L90.608,4.571z"/>
				<path id="Shape_20_" fill="#FFFFFF" d="M96.638,30.026h-2.257l3.07-29.599h3.071l2.405,29.599h-2.295
					c0,0-0.406-6.401-0.443-7.215h-2.996C97.193,23.625,96.638,30.026,96.638,30.026L96.638,30.026L96.638,30.026z M99.043,8.826
					c0-0.739-0.186-5.661-0.186-5.661s-0.222,4.885-0.259,5.624c-0.073,1.036-1.185,11.802-1.185,11.802h2.628
					C100.042,20.591,99.043,9.566,99.043,8.826L99.043,8.826L99.043,8.826z"/>
				<polygon id="Shape_21_" fill="#FFFFFF" points="108.404,2.648 108.404,30.026 106.072,30.026 106.072,2.648 103.446,2.648 
					103.446,0.428 111.068,0.428 111.068,2.648 				"/>
				<polygon id="Shape_22_" fill="#FFFFFF" points="112.585,30.026 112.585,0.428 119.209,0.428 119.209,2.648 114.879,2.648 
					114.879,13.969 118.69,13.969 118.69,16.189 114.879,16.189 114.879,27.806 119.246,27.806 119.246,30.026 				"/>
				<path id="Shape_23_" fill="#FFFFFF" d="M126.498,30.026l-0.111-1.036c-0.371,0.813-1.369,1.222-2.295,1.222
					c-2.034,0-3.367-1.148-3.477-3.85c-0.037-0.813-0.111-8.397-0.111-11.137c0-2.737-0.037-8.25,0.074-10.617
					c0.074-2.479,1.258-4.366,3.736-4.366c2.627,0,3.479,1.925,3.588,3.7c0.037,1.406,0,5.697,0,5.697h-2.256V4.646
					c0-1.518-0.481-1.998-1.332-1.998c-0.814,0-1.406,0.592-1.406,2.184c0,1.775-0.037,8.471-0.037,10.432
					c0,1.48,0.037,9.287,0.037,10.545c0,1.443,0.444,2.184,1.443,2.184c0.925,0,1.443-0.666,1.443-2.035v-9.397h-1.926v-2.22h4.145
					v9.064c0,3.366,0.037,6.623,0.037,6.623H126.498L126.498,30.026L126.498,30.026z"/>
				<path id="Shape_24_" fill="#FFFFFF" d="M134.859,19.001v11.025h-2.404V19.112l-3.366-18.685h2.331
					c0,0,2.256,13.319,2.293,14.872c0.037-1.59,2.405-14.872,2.405-14.872h2.368L134.859,19.001L134.859,19.001L134.859,19.001z"/>
				<polygon id="Shape_25_" fill="#FFFFFF" points="2.766,35.829 2.766,47.077 6.798,47.077 6.798,49.297 2.766,49.297 
					2.766,63.134 0.471,63.134 0.471,33.536 7.094,33.536 7.094,35.829 				"/>
				<path id="Shape_26_" fill="#FFFFFF" d="M16.307,38.346c0,1.331,0.037,6.955,0.037,9.878c0,3.256,0,8.288-0.037,10.212
					c-0.111,3.256-1.295,4.92-3.996,4.92S8.464,61.802,8.39,58.51c-0.037-0.814-0.037-7.067-0.037-10.249
					c0-2.737,0-8.805,0.037-9.804c0.074-3.405,1.221-5.069,3.922-5.069C14.901,33.388,16.196,34.905,16.307,38.346L16.307,38.346
					L16.307,38.346z M13.902,58.88c0.074-1.295,0.074-8.325,0.074-10.582c0-1.998,0-8.954-0.037-10.138
					c-0.037-1.701-0.407-2.442-1.591-2.442c-1.332,0-1.59,0.963-1.59,2.479c0,1.221-0.038,8.065-0.038,10.212
					c0,2.257,0,9.212,0.038,10.471c0.037,1.258,0.37,2.182,1.628,2.182C13.495,61.062,13.828,60.064,13.902,58.88L13.902,58.88
					L13.902,58.88z"/>
				<path id="Shape_27_" fill="#FFFFFF" d="M25.261,46.56c-0.258,0.739-0.814,1.701-1.294,1.887l2.404,14.688h-2.404l-2.109-13.985
					l-1.147,0.037v13.948h-2.22V33.536h3.516c2.034,0,2.997,1.109,3.44,3.07c0.185,0.852,0.296,2.59,0.296,4.921
					C25.743,43.97,25.594,45.486,25.261,46.56L25.261,46.56L25.261,46.56z M23.19,37.68c-0.074-1.11-0.555-1.925-1.369-1.925h-1.073
					v11.248c0.037,0,0.851,0,1.184-0.074c0.628-0.074,0.888-0.555,1.036-1.035c0.259-0.704,0.37-2.85,0.37-3.996
					C23.337,40.381,23.227,38.05,23.19,37.68L23.19,37.68L23.19,37.68z"/>
				<polygon id="Shape_28_" fill="#FFFFFF" points="41.431,63.134 41.431,42.675 38.915,63.134 36.917,63.134 34.549,42.712 
					34.549,63.134 32.44,63.134 32.44,33.536 35.326,33.536 37.954,55.734 40.728,33.536 43.54,33.536 43.54,63.134 				"/>
				<path id="Shape_29_" fill="#FFFFFF" d="M53.68,38.346c0,1.331,0.037,6.955,0.037,9.878c0,3.256,0,8.288-0.037,10.212
					c-0.111,3.256-1.295,4.92-3.996,4.92s-3.848-1.554-3.922-4.846c-0.037-0.814-0.037-7.067-0.037-10.249
					c0-2.737,0-8.805,0.037-9.804c0.074-3.405,1.221-5.069,3.922-5.069C52.273,33.388,53.568,34.905,53.68,38.346L53.68,38.346
					L53.68,38.346z M51.274,58.88c0.074-1.295,0.074-8.325,0.074-10.582c0-1.998,0-8.954-0.037-10.138
					c-0.037-1.701-0.407-2.442-1.591-2.442c-1.333,0-1.591,0.963-1.591,2.479c0,1.221-0.037,8.065-0.037,10.212
					c0,2.257,0,9.212,0.037,10.471c0.037,1.258,0.37,2.182,1.628,2.182C50.868,61.062,51.2,60.064,51.274,58.88L51.274,58.88
					L51.274,58.88z"/>
				<path id="Shape_30_" fill="#FFFFFF" d="M60.377,63.134h-4.514V33.536h4.256c1.591,0,2.885,0.702,3.182,2.293
					c0.147,0.814,0.222,3.479,0.222,4.922c0,1.516-0.074,4.217-0.185,4.994c-0.186,1.369-0.592,2.109-1.555,2.367
					c0.962,0.186,1.48,0.852,1.665,2.035c0.186,1.073,0.222,3.404,0.222,4.885c0,1.775,0.073,4.513-0.222,5.623
					C63.004,62.319,62.338,63.134,60.377,63.134L60.377,63.134L60.377,63.134z M61.117,37.458c0-0.999-0.591-1.703-1.442-1.703
					h-1.554v11.396h2.035c0.407,0,0.924-0.371,0.961-1.369c0.037-0.593,0.037-2.775,0.037-4.551
					C61.154,39.677,61.117,38.123,61.117,37.458L61.117,37.458L61.117,37.458z M61.265,54.735c0-1.184-0.037-3.367-0.074-4.106
					c-0.037-0.999-0.481-1.369-0.999-1.369h-2.072v11.692h2.035c0.629,0,1.036-0.371,1.073-1.37
					C61.265,58.806,61.265,55.845,61.265,54.735L61.265,54.735L61.265,54.735z"/>
				<polygon id="Shape_31_" fill="#FFFFFF" points="65.854,63.134 65.854,33.536 68.186,33.536 68.186,63.134 				"/>
				<polygon id="Shape_32_" fill="#FFFFFF" points="70.59,63.134 70.59,33.536 72.922,33.536 72.922,60.915 77.324,60.915 
					77.324,63.134 				"/>
				<polygon id="Shape_33_" fill="#FFFFFF" points="78.914,63.134 78.914,33.536 85.538,33.536 85.538,35.755 81.209,35.755 
					81.209,47.077 85.02,47.077 85.02,49.297 81.209,49.297 81.209,60.915 85.575,60.915 85.575,63.134 				"/>
			</g>
			<g id="Group_3_" transform="translate(22.898361, 159.226230)">
				<path id="Shape_34_" fill="#FFFFFF" d="M4.673,6.529V6.237L2.841,3.799l-0.36-0.068v2.252h0.663
					c0.02,0.068,0.03,0.205,0.03,0.283c0,0.077-0.01,0.194-0.03,0.263H0.404C0.385,6.46,0.375,6.343,0.375,6.266
					c0-0.088,0.01-0.205,0.029-0.283h0.682V0.866H0.404c-0.02-0.078-0.029-0.194-0.029-0.272s0.01-0.204,0.029-0.272h2.759
					c0.019,0.068,0.029,0.194,0.029,0.272s-0.01,0.204-0.029,0.272H2.481v2.33h0.36l2.116-2.018L4.849,0.866H4.361
					C4.342,0.787,4.333,0.671,4.333,0.593s0.009-0.204,0.028-0.272h2.282c0.019,0.068,0.029,0.194,0.029,0.272
					S6.662,0.797,6.643,0.866h-0.42l-2.32,2.096l2.339,3.021h0.419c0.02,0.068,0.03,0.205,0.03,0.283c0,0.077-0.01,0.194-0.03,0.263
					H4.673L4.673,6.529L4.673,6.529z"/>
				<path id="Shape_35_" fill="#FFFFFF" d="M8.419,6.627c-0.682,0-1.13-0.381-1.13-1.034c0-0.956,1.091-1.364,2.271-1.462V2.942
					C9.462,2.746,9.141,2.59,8.789,2.59c-0.067,0-0.136,0.01-0.166,0.02l-0.205,1.18H8.098c-0.546,0-0.77-0.155-0.77-0.516
					c0-0.586,0.877-1.18,2.007-1.18c0.907,0,1.501,0.467,1.501,1.373c0,0.146-0.068,2.213-0.068,2.428
					c0.078,0.049,0.176,0.078,0.302,0.078c0.117,0,0.225-0.039,0.312-0.126l0.048,0.351c-0.126,0.244-0.438,0.43-0.75,0.43
					c-0.429,0-0.771-0.146-1.062-0.537C9.16,6.52,8.789,6.627,8.419,6.627L8.419,6.627L8.419,6.627z M9.559,4.481L9.111,4.609
					C8.663,4.726,8.517,4.93,8.517,5.321c0,0.408,0.175,0.594,0.584,0.594c0.146,0,0.352-0.039,0.458-0.088V4.481L9.559,4.481
					L9.559,4.481z"/>
				<path id="Shape_36_" fill="#FFFFFF" d="M11.642,6.529c-0.02-0.068-0.03-0.155-0.03-0.263s0.01-0.186,0.03-0.264h0.564V3.254
					l-0.546-0.615V2.474l1.521-0.38h0.156l0.126,1.023c0.517-0.819,0.848-1.023,1.257-1.023c0.458,0,0.702,0.293,0.702,0.634
					c0,0.312-0.146,0.574-0.409,0.789l-0.166,0.136l-0.771-0.457c-0.107,0-0.263,0.038-0.575,0.253v2.554h0.614
					c0.02,0.078,0.029,0.166,0.029,0.264c0,0.107-0.009,0.194-0.029,0.263H11.642L11.642,6.529L11.642,6.529z"/>
				<path id="Shape_37_" fill="#FFFFFF" d="M19.639,5.535c-0.321,0.652-0.925,1.092-1.705,1.092c-1.296,0-2.222-0.84-2.222-2.155
					c0-1.433,1.033-2.378,2.232-2.378c1.121,0,1.773,0.623,1.773,1.501c0,0.185-0.019,0.331-0.048,0.468h-2.631
					c-0.009,0.078-0.009,0.127-0.009,0.176c0,0.838,0.505,1.423,1.403,1.423c0.478,0,0.847-0.176,1.13-0.438L19.639,5.535
					L19.639,5.535L19.639,5.535z M18.47,3.585c0.01-0.098,0.01-0.185,0.01-0.253c0-0.186-0.029-0.42-0.059-0.518
					c-0.03-0.098-0.088-0.146-0.186-0.176c-0.097-0.029-0.234-0.049-0.34-0.049c-0.098,0-0.254,0.02-0.332,0.039
					c-0.067,0.021-0.117,0.039-0.166,0.088c-0.126,0.127-0.292,0.546-0.332,0.868H18.47L18.47,3.585L18.47,3.585z"/>
				<path id="Shape_38_" fill="#FFFFFF" d="M23.135,6.529c-0.02-0.068-0.029-0.165-0.029-0.272s0.01-0.176,0.029-0.254h0.468V3.234
					c-0.146-0.185-0.4-0.253-0.644-0.253c-0.282,0-0.633,0.098-0.926,0.273v2.748h0.468c0.02,0.078,0.03,0.156,0.03,0.254
					c0,0.107-0.01,0.204-0.03,0.272h-2.329c-0.02-0.068-0.029-0.165-0.029-0.272s0.009-0.176,0.029-0.254h0.565V3.254l-0.546-0.615
					V2.474l1.521-0.38h0.156l0.127,0.867c0.565-0.663,1.063-0.867,1.618-0.867c0.692,0,1.287,0.351,1.287,1.315v2.593h0.555
					c0.021,0.078,0.03,0.146,0.03,0.254s-0.009,0.204-0.03,0.272H23.135L23.135,6.529L23.135,6.529z"/>
				<path id="Shape_39_" fill="#FFFFFF" d="M33.673,6.529c-0.019-0.068-0.029-0.194-0.029-0.272c0-0.088,0.01-0.195,0.029-0.273
					h0.721V2.016l0.078-0.926l-2.085,5.537h-0.741l-1.647-4.611L29.745,1.09l-0.097,4.62l0.205,0.272h0.517
					c0.02,0.068,0.029,0.195,0.029,0.273s-0.01,0.204-0.029,0.272h-2.115c-0.02-0.068-0.029-0.194-0.029-0.272
					c0-0.088,0.009-0.195,0.029-0.273h0.429l0.204-0.272l0.167-4.845h-0.78c-0.02-0.078-0.029-0.194-0.029-0.272
					s0.009-0.204,0.029-0.272h2.524l1.238,3.421l0.342,1.188l0.36-1.188l1.267-3.421h2.417c0.02,0.068,0.029,0.194,0.029,0.272
					s-0.01,0.204-0.029,0.272H35.74v5.117h0.682c0.02,0.068,0.029,0.195,0.029,0.273s-0.01,0.204-0.029,0.272H33.673L33.673,6.529
					L33.673,6.529z"/>
				<path id="Shape_40_" fill="#FFFFFF" d="M40.868,5.535c-0.322,0.652-0.936,1.092-1.677,1.092c-1.228,0-2.212-0.811-2.212-2.165
					c0-1.413,0.994-2.368,2.358-2.368c1.072,0,1.521,0.4,1.521,0.955c0,0.517-0.399,0.711-0.916,0.711h-0.185l-0.214-1.062
					C39.465,2.65,39.328,2.62,39.211,2.62c-0.458,0-0.906,0.37-0.906,1.511c0,0.945,0.507,1.52,1.383,1.52
					c0.419,0,0.829-0.156,1.102-0.428L40.868,5.535L40.868,5.535L40.868,5.535z"/>
				<path id="Shape_41_" fill="#FFFFFF" d="M47.306,4.219v1.939c-0.527,0.292-1.452,0.469-2.154,0.469
					c-2.145,0-3.694-1.151-3.694-3.119c0-2.058,1.472-3.286,3.47-3.286c0.624,0,1.208,0.116,1.569,0.341l0.098-0.341h0.721v1.501
					L46.664,1.83l-0.312-0.691c-0.206-0.156-0.702-0.264-1.268-0.264c-1.268,0-2.085,0.818-2.085,2.633
					c0,1.598,0.828,2.475,2.232,2.475c0.263,0,0.526-0.029,0.721-0.068V4.219h-0.604c-0.02-0.078-0.029-0.205-0.029-0.283
					s0.009-0.224,0.029-0.293h2.495c0.019,0.069,0.029,0.215,0.029,0.293s-0.01,0.215-0.029,0.283H47.306L47.306,4.219L47.306,4.219
					z"/>
				<path id="Shape_42_" fill="#FFFFFF" d="M48.411,6.529c-0.02-0.068-0.029-0.155-0.029-0.263s0.009-0.186,0.029-0.264h0.565V3.254
					L48.43,2.639V2.474l1.521-0.38h0.156l0.126,1.023c0.517-0.819,0.848-1.023,1.257-1.023c0.458,0,0.702,0.293,0.702,0.634
					c0,0.312-0.145,0.574-0.409,0.789l-0.166,0.136l-0.77-0.457c-0.107,0-0.264,0.038-0.575,0.253v2.554h0.614
					c0.02,0.078,0.029,0.166,0.029,0.264c0,0.107-0.009,0.194-0.029,0.263H48.411L48.411,6.529L48.411,6.529z"/>
				<path id="Shape_43_" fill="#FFFFFF" d="M53.777,6.627c-0.682,0-1.131-0.381-1.131-1.034c0-0.956,1.092-1.364,2.271-1.462V2.942
					c-0.097-0.195-0.418-0.352-0.77-0.352c-0.067,0-0.136,0.01-0.166,0.02l-0.205,1.18h-0.321c-0.546,0-0.77-0.155-0.77-0.516
					c0-0.586,0.877-1.18,2.007-1.18c0.907,0,1.501,0.467,1.501,1.373c0,0.146-0.068,2.213-0.068,2.428
					c0.078,0.049,0.176,0.078,0.302,0.078c0.117,0,0.225-0.039,0.312-0.126l0.048,0.351c-0.126,0.244-0.438,0.43-0.75,0.43
					c-0.429,0-0.77-0.146-1.062-0.537C54.518,6.52,54.148,6.627,53.777,6.627L53.777,6.627L53.777,6.627z M54.918,4.481L54.47,4.609
					c-0.449,0.117-0.594,0.321-0.594,0.712c0,0.408,0.175,0.594,0.584,0.594c0.146,0,0.352-0.039,0.458-0.088V4.481L54.918,4.481
					L54.918,4.481z"/>
				<path id="Shape_44_" fill="#FFFFFF" d="M59.963,6.529c-0.02-0.068-0.03-0.165-0.03-0.272s0.01-0.176,0.03-0.254h0.468V3.234
					c-0.146-0.185-0.4-0.253-0.644-0.253c-0.282,0-0.633,0.098-0.926,0.273v2.748h0.468c0.02,0.078,0.029,0.156,0.029,0.254
					c0,0.107-0.009,0.204-0.029,0.272H57c-0.02-0.068-0.029-0.165-0.029-0.272S56.98,6.08,57,6.002h0.565V3.254L57.02,2.639V2.474
					l1.52-0.38h0.156l0.126,0.867c0.566-0.663,1.063-0.867,1.619-0.867c0.692,0,1.286,0.351,1.286,1.315v2.593h0.556
					c0.02,0.078,0.029,0.146,0.029,0.254s-0.009,0.204-0.029,0.272H59.963L59.963,6.529L59.963,6.529z"/>
				<path id="Shape_45_" fill="#FFFFFF" d="M66.489,5.535c-0.322,0.652-0.926,1.092-1.706,1.092c-1.297,0-2.222-0.84-2.222-2.155
					c0-1.433,1.033-2.378,2.232-2.378c1.121,0,1.774,0.623,1.774,1.501c0,0.185-0.02,0.331-0.05,0.468h-2.631
					c-0.01,0.078-0.01,0.127-0.01,0.176c0,0.838,0.508,1.423,1.404,1.423c0.478,0,0.848-0.176,1.131-0.438L66.489,5.535
					L66.489,5.535L66.489,5.535z M65.319,3.585c0.009-0.098,0.009-0.185,0.009-0.253c0-0.186-0.03-0.42-0.059-0.518
					c-0.028-0.098-0.087-0.146-0.184-0.176C64.987,2.61,64.851,2.59,64.744,2.59c-0.098,0-0.254,0.02-0.332,0.039
					c-0.069,0.021-0.117,0.039-0.166,0.088c-0.126,0.127-0.293,0.546-0.331,0.868H65.319L65.319,3.585L65.319,3.585z"/>
			</g>
		</g>
	</g>
</g>
</svg>
