<svg width="33" height="33" viewBox="0 0 33 33" xmlns="http://www.w3.org/2000/svg">
  <path d="M23.32 13.6v.43c0 4.34-3.3 9.34-9.33 9.34-1.9 0-3.6-.54-5.1-1.47.22.03.5.04.8.04 1.5 0 2.9-.52 4.1-1.4-1.5-.03-2.7-.98-3.1-2.28.2.04.4.06.6.06.3 0 .6-.04.85-.12-1.5-.3-2.6-1.63-2.6-3.22v-.04c.4.25.9.4 1.5.4-.9-.57-1.5-1.58-1.5-2.72 0-.6.15-1.17.43-1.65 1.62 2 4.04 3.3 6.77 3.43-.04-.24-.1-.5-.1-.75 0-1.8 1.5-3.28 3.3-3.28.96 0 1.8.4 2.4 1.04.76-.1 1.46-.4 2.1-.8-.24.8-.76 1.5-1.44 1.9.68-.1 1.3-.23 1.9-.5-.44.68-1 1.26-1.64 1.7zM16.96.88c-8.84 0-16 7.17-16 16 0 8.84 7.16 16 16 16 8.83 0 16-7.16 16-16 0-8.83-7.17-16-16-16z" fill="#38A0CD" fill-rule="evenodd"/>
</svg>
