<svg width="300" height="300" viewBox="0 0 300 300" xmlns="http://www.w3.org/2000/svg" xmlns:xlink="http://www.w3.org/1999/xlink">
  <defs>
    <path id="a" d="M261.83 243.72H0V.12h261.83v243.6H0V.12h261.83v243.6z"/>
  </defs>
  <g fill="none" fill-rule="evenodd">
    <path d="M27.68 168.36s45.7-1.25 51.1-.42c5.42.83 9.16.62 9.16.62v-9.14l23.27-.2h81.3l.6 8.3 79 .42-.2 59.84-.6 35.53-78.5.9-82.5.2s-76.9 0-81.6-1L27.3 243l.4-74.6z" fill="#FFF"/>
    <path d="M27.68 168.36s45.7-1.25 51.1-.42c5.42.83 9.16.62 9.16.62v-9.14l23.27-.2h81.3l.6 8.3 79 .42-.2 59.84-.6 35.53-78.5.9-82.5.2s-76.9 0-81.6-1L27.3 243l.4-74.6z" stroke="#FFF"/>
    <g transform="translate(19 29.093)">
      <mask id="b" fill="#fff">
        <use xlink:href="#a"/>
      </mask>
      <path d="M260.3 105.42c-.97 25.05.1 50.12.4 75.18.16 12.57.13 25.15-.43 37.7-.28 6.2-.7 12.38-1.27 18.54-.14 1.47-.3 2.94-.45 4.4-.07.64.16 1.07-.35 1.3-.56.26-1.43.07-2.06.06l-9.87-.1c-26.23-.26-52.46-.43-78.7-.5-26.22-.1-52.45-.1-78.68 0-26.2.1-52.3.27-78.5.54l-9.9.1.5.53c0-15.22.2-30.4.5-45.62.4-16.44.4-32.85.2-49.3C1.4 115.28.9 82.3 1 49.32c.04-8.15.1-16.3.23-24.45.07-4.16.14-8.32.24-12.48l.13-5.8c.02-1.1.14-2.1.1-3.2-.06-.6 0-1.1.66-1.5.38-.2 1.34 0 1.86 0l3.12-.1 6.24-.2 12.5-.3c8.3-.2 16.62-.3 24.95-.4 32.93-.3 65.87.1 98.8 1 16.43.5 32.84 1 49.28.7 16.4-.3 32.8-1 49.2-1.4l12-.4-.5-.5.1 10.4.2 25 .2 30.2.2 26.2.1 8.6c0 1.4-.1 2.8 0 4.1v.2c0 .7 1.1.7 1.1 0V95l-.1-25.05-.2-30.15-.1-26.2V4.96c0-1.33.2-2.77 0-4.1V.7c0-.3-.2-.55-.5-.54-16.6.5-33.2 1.03-49.8 1.5-16.6.46-33.1.4-49.7-.1C127.5.56 94.3 0 61 .14c-16.6.06-33.12.3-49.7.7L5.32.97c-1.2.03-2.86-.35-3.8.53-.2.22-.57.47-.72.75-.3.58-.1 1.7-.13 2.34L.5 10.8c-.17 8.35-.3 16.67-.4 25-.32 33.28.15 66.56.6 99.84.23 16.5.53 33 .2 49.52C.6 201.6 0 218.04 0 234.5c.02 2.88.07 5.77.07 8.67 0 .27.23.52.5.5 26.5-.28 53-.48 79.48-.6 26.5-.1 53-.13 79.48-.07 26.5.07 52.98.22 79.47.47l9.87.1c1.64 0 3.3.03 4.93.04l2.34.1c.68 0 1.64.2 2.28 0 .4-.1.84-.4 1-.8.22-.5.15-1.4.22-2 .1-.9.2-1.8.28-2.7.3-3.2.58-6.4.8-9.6.9-12.6 1.13-25.2 1.1-37.8-.06-25.3-1.26-50.6-.74-75.9.06-3 .15-6.1.27-9.2.03-.6-1-.6-1.04 0" fill="#FFF" mask="url(#b)"/>
    </g>
    <path d="M199.46 83.95c5.65-5.6 14.44-9.27 22.27-6.28 2.1.8 4.04 2.07 5.88 3.37 2.1 1.46 3.6 3.18 4.4 5.62 1.2 3.54 1.5 7.4.9 11.1-1.2 7.32-6 14.02-13.4 16.08-6.9 1.94-15-.22-19.7-5.85-5.5-6.7-5.4-17.2.1-23.8.4-.5-.3-1.3-.7-.8-5.1 6.2-5.8 15.4-1.9 22.4 3.9 7 12.2 10.5 20 9.4 8-1.1 14.1-7.2 16.2-14.8 1.1-3.9 1.2-7.9.4-11.8-.4-2.1-1.1-4.3-2.5-6-1.5-1.9-3.7-3.3-5.8-4.5-4.2-2.6-9-3.4-13.9-2.3-4.8 1.1-9.2 3.7-12.7 7.1-.4.4.3 1.2.8.7m-122-5.5c-1.4 1.2-3.2 1.9-4.9 2.8-1.6.9-2.8 2-3.7 3.6-2.1 3.8-2.8 8.6-2.6 12.9.5 7.9 6 15.1 13.9 16.8 4 .9 8.3.4 12-1.4 3.9-1.9 6.9-5.2 9.2-8.8 2.5-3.7 3.5-7.9 2.3-12.3-.6-2.2-1.6-4.2-2.7-6.1-1.1-1.9-2.3-3.8-3.8-5.3-1.8-1.9-4-2.7-6.5-3.1-1.2-.2-2.3-.4-3.4-.7-3.2-.8-6.9-.7-9.5 1.5-.5.5.3 1.2.8.8 2.3-2 5.5-2 8.2-1.3.6.1 1.1.3 1.6.4 1 .2 2 .2 2.9.4 1.2.2 2.3.5 3.3 1.1 1.8 1 3.1 2.7 4.3 4.4 1.2 1.7 2.2 3.4 3.1 5.2 1.8 4.1 2.2 8.4.1 12.5-1.8 3.5-4.6 6.9-7.9 9.2-3.2 2.2-7.1 3.1-11 2.8-7.6-.7-13.9-6.7-15.2-14.1-.7-4.5-.2-9.8 1.9-13.9 1-2 2.3-3.2 4.3-4.1 1.6-.8 3.2-1.5 4.6-2.7.5-.5-.2-1.2-.7-.7" fill="#FFF"/>
    <path d="M216.85 75.8c3.83-3 7.24-6.48 10.18-10.36 1.48-1.97 2.84-4.03 4.05-6.18 1-1.8 1.96-3.87 1.7-5.98-.25-2.02-1.73-3.22-3.54-3.9-2.07-.78-4.3-1.3-6.47-1.7-4.33-.85-8.78-1.14-13.2-.83-8.66.6-17.2 3.5-24.1 8.86-3.94 3.1-7.16 7-10.13 11-1.5 2-3.1 4.1-4.36 6.2-1.02 1.8-1.9 3.9-1.42 6 .56 2.4 2.8 3.4 4.92 4.1 2.78.9 5.65 1.4 8.54 1.8 5.94.7 11.97.3 17.76-1.1.65-.1.38-1.1-.27-1-4.7 1.2-9.7 1.7-14.6 1.4-2.5-.1-4.9-.5-7.4-1-2.1-.4-4.6-.9-6.4-2.1-4.3-3 1-9 3-11.8 2.8-3.8 5.7-7.5 9.2-10.7 6.1-5.4 13.8-8.6 21.9-9.8 4-.6 8.1-.6 12.2-.2 2.1.2 4.2.6 6.2 1.1 2 .5 4.3.9 5.9 2 2.4 1.6 1.5 4.7.4 6.8-1.1 2.2-2.4 4.3-3.9 6.2-3 4.2-6.6 7.9-10.6 11-.5.4.2 1.2.8.8m17.4 13c-.5-4 2.6-7.4 4.7-10.6 2.3-3.4 3.5-8.1 7.2-10.4 4.2-2.6 8.1.7 9.5 4.7.7 2.1 1.1 4.4 1.6 6.5.5 2.4 1 4.7 1.3 7.1.7 4.7 1.2 9.4.8 14.1-.4 4.7-1.6 9.2-3.5 13.5-1.8 4-3.9 7.9-6 11.7-1 1.9-2.1 3.7-3.5 5.3-1.3 1.5-3 3.2-5.1 3.3-2.9.2-3.6-3.3-4.4-5.4-.9-2.4-1.7-4.9-2.5-7.4-1.5-5-2.7-10.2-3.6-15.3-.1-.6-1.1-.4-1 .3.9 5.2 2.1 10.3 3.6 15.3.8 2.5 1.6 5 2.5 7.5.7 1.8 1.3 4.4 3 5.6 3.6 2.5 7.8-2.1 9.7-4.8 1.4-1.9 2.5-4 3.7-6.1 1.2-2.2 2.4-4.4 3.5-6.6 2.1-4.4 3.9-9.1 4.6-14 .7-5.1.4-10.3-.3-15.4-.4-2.6-.9-5.2-1.4-7.8-.5-2.4-.9-4.9-1.7-7.3-1.3-3.6-4.3-7.1-8.6-6.3-5.2 1.1-6.9 6.9-9.4 10.9-2.3 3.8-6 7.5-5.3 12.3.1.7 1.1.4 1-.3m-24 26.6c2.9 3.1 5.3 6.6 7.2 10.3 1 1.9 1.8 3.8 2.5 5.8s1.5 4.3 1.7 6.4c.4 5-6.1 6.1-9.8 5.8-4.4-.4-8.6-2.2-12.7-3.9-8-3.2-15.8-7.3-21.6-13.8-2.7-3-4.8-6.5-6.1-10.3-.7-2.2-1.2-4.6-1.5-7-.3-2.1-.6-4.3-.6-6.5.1-3 3.1-2.7 5.2-2.6 2.7.2 5.4.5 8 1 2.6.5 5.1 1.1 7.6 1.9 1.2.3 2.4.7 3.6 1.1.8.3 3.4.9 3.1 2.2-.2.7.8.9 1 .3.5-2-1.9-2.8-3.3-3.3-2.5-.9-5-1.7-7.5-2.3-2.6-.6-5.2-1.1-7.8-1.5-2.4-.3-4.9-.7-7.3-.6-1.7.2-3.3.9-3.6 2.8-.2 1.1 0 2.2.1 3.3.1 1.3.2 2.7.4 4 .6 4.7 1.8 9.3 4.2 13.4 4.9 8.2 13.2 13.5 21.8 17.3 4.5 2 9.2 4.1 14 5.1 4 .9 9.3 1 12.3-2.4 1.7-1.9 1.4-4.2.8-6.5-.6-2.5-1.5-5-2.5-7.4-2.1-4.8-5.1-9.3-8.7-13.1-.4-.5-1.2.2-.7.7" fill="#FFF"/>
    <path d="M169.42 59.78c-3.9 5.37-6.33 11.65-8.8 17.75-1.3 3.22-2.5 6.5-3.26 9.9-.75 3.4-.97 6.86-.93 10.32.07 6.97.62 14.14 2.4 20.9 1.4 5.36 3.78 10.43 6.98 14.95 6.2 8.7 15.1 15.3 25 19.13 10.6 4.1 22.2 4.7 33.3 2.24 11.4-2.56 22.1-8.4 30.2-16.87 8.1-8.42 13.5-19.27 15.6-30.7 2.3-12.6.2-25.28-4.7-37-2.4-5.87-5.8-11.06-10.6-15.34-4.5-4.1-9.8-7.3-15.2-10.23-5.7-3.15-11.8-6.26-18.3-7.26-6.7-1.03-13.6.25-20 2.35-3.3 1.07-6.5 2.36-9.6 3.7-2.8 1.2-5.7 2.42-8.5 3.85-4.3 2.23-8.1 5.05-10.9 9.03l-2.3 3.28c-.3.55.6 1.07.9.53 1.8-2.6 3.5-5.2 5.9-7.3 4.5-3.9 10.3-6.2 15.7-8.5 6.2-2.6 12.7-5 19.4-5.9 6.8-.8 13.3.5 19.5 3.3 5.6 2.5 11.1 5.5 16.2 8.9 5 3.4 9.7 7.4 13.1 12.4 3.6 5.5 6 11.9 7.6 18.1 1.6 6 2.3 12.1 2 18.3-.5 11.4-4.5 22.6-11.1 31.9-6.7 9.4-16.3 16.5-27 20.4-10.5 3.9-22.2 4.9-33.1 2.3-10.2-2.4-19.7-7.7-26.9-15.3-3.6-3.7-6.6-8-8.8-12.7-2.6-5.8-3.9-12-4.5-18.3-.6-6.8-1-14 .6-20.7.8-3.2 2-6.3 3.2-9.3 1.3-3.1 2.5-6.1 3.9-9.1 1.4-2.8 2.8-5.5 4.7-7.9.4-.5-.5-1-.9-.5m-69-19.7c5.9 2.9 11.9 5.7 17.6 9 5.3 3.1 9.4 7.3 12.5 12.6 3.1 5.2 5.1 10.8 6.9 16.5 1.9 6.4 3.3 13 3.6 19.6.5 12.1-2.7 24.4-11.1 33.3-4.2 4.5-9.2 8.5-14.2 11.9-2.6 1.7-5.3 3.3-8.2 4.5-3 1.2-6.1 2-9.2 2.7-6.5 1.3-13.2 2.5-19.8 2.7-3.4.1-6.8-.1-10-.9-2.9-.7-5.7-1.7-8.5-2.9-10.2-4.1-19.9-10.4-25.1-20.4-2.8-5.3-4.2-11.3-5.1-17.2-.9-5.9-1.5-12-1.5-18-.1-5.9.5-11.9 2.5-17.5 2.1-5.9 5.8-10.9 10-15.5C49 52 59 44.6 70.6 41c5.97-1.9 12.3-2.8 18.62-2.37 3.08.2 6.1.88 9.1 1.4l2.65.47c.62.1.9-.9.25-1l-8-1.47c-4.77-.85-9.66-.76-14.43-.08-12.4 1.76-23.7 7.9-33 16.17-4.7 4.1-9.1 8.8-12.5 14-3.2 5.03-5 10.8-5.7 16.7-.8 6.13-.6 12.33 0 18.46.6 6.12 1.4 12.32 3.1 18.24 1.7 5.6 4.3 10.83 8.2 15.2 3.7 4.2 8.4 7.5 13.3 10.15 5.2 2.74 10.9 5.14 16.6 6.4 6.6 1.46 13.4.72 20.1-.34 6.6-1.02 13.4-2 19.5-4.6 5.7-2.42 10.7-6.26 15.5-10.2 4.7-3.97 9.2-8.3 12.2-13.74 2.9-5.2 4.6-11 5.4-16.9 1.6-13-1.6-26.4-6.4-38.4-2.2-5.4-5-10.6-9.1-14.9-4.4-4.7-10.2-7.4-15.8-10.3l-9.3-4.7c-.6-.3-1.1.6-.5.9" fill="#FFF"/>
    <path d="M100.3 83.54c-1.2-4.6-2.18-9.26-2.88-13.96-.37-2.4-.66-4.82-.88-7.24-.2-2.04-.82-4.83.2-6.73 1.87-3.4 6.98-1.3 9.5 0 3.26 1.7 6.24 3.8 8.9 6.3 5.43 5.1 9.47 11.7 12.03 18.7 1.33 3.6 2.45 7.5 2.68 11.4.18 3.1-.75 12.2-5.75 9.6-2.15-1.1-4.15-2.8-6.13-4.2-2.17-1.5-4.3-3.1-6.42-4.8-4.08-3.2-8.03-6.5-11.86-10-.5-.4-1.3.3-.8.8 3.8 3.5 7.8 6.9 11.8 10 3.9 3.1 7.9 6.2 12.1 8.9 1.6 1 3.5 1.6 5 .2 1.5-1.4 2.2-3.7 2.6-5.6.7-4.3-.2-8.7-1.4-12.8-2.3-7.8-6.3-15.1-11.9-21-2.8-2.8-5.9-5.3-9.3-7.2-2.9-1.6-6.9-3.6-10.2-2.2-1.9.8-2.7 2.7-2.8 4.7-.1 2.8.4 5.7.7 8.5.7 5.9 1.8 11.7 3.3 17.5.1.6 1.1.4 1-.3m-32 2.2L69.2 71l.6-7.44c.2-1.96.7-4.22.1-6.2-.4-1.54-1.6-2.62-3.2-2.9-1.8-.35-3.54.4-5.1 1.3-2.04 1.3-4 2.8-6.04 4.2-1.85 1.27-3.7 2.5-5.5 3.88-3.27 2.5-5.8 5.5-7.47 9.4-1.5 4-2.9 8.6-3.8 13-.9 4.2-1.2 8.57-.1 12.7.7 2.8 2.6 8.4 6.4 7.9 2.1-.33 3.9-2.46 5.4-3.8 2.1-1.9 4.2-3.85 6.3-5.8 4.1-3.8 8.2-7.6 12.2-11.5.5-.5-.3-1.2-.8-.8-6.5 6.1-13 12.1-19.6 18-1.4 1.2-3.4 3.5-5.4 2.3-1.6-1-2.6-3.3-3.2-5-1.3-3.8-1.4-7.9-.8-11.9.7-4.2 2-8.2 3.3-12.1 1.3-3.9 3-7.3 6-10.1 3.1-2.9 6.7-5.1 10-7.4 1.7-1.2 3.4-2.6 5.3-3.4 1.7-.8 4.1-.9 5.1 1 1 1.8.3 4.6.1 6.6l-.6 7.46L67 85.7c-.1.64 1 .63 1 0M87.7 115c8.2 1.3 16.1 4 23.3 8.06 1.85 1.05 3.76 2.2 3.1 4.65-.5 2-2.34 3.2-4.02 4.1-3.7 2-7.53 3.8-11.5 5.4-3.8 1.5-7.8 2.8-11.9 3.2-4.1.4-8.2-.1-12.15-1.4-4-1.2-7.8-3.1-11.52-5.1-1.5-.8-3.4-1.6-4.2-3.2-.9-1.7-.1-3.9 1.2-5.2 1.5-1.5 3.6-2.3 5.6-3l7.1-2.7 14.3-5.5c.7-.2.4-1.2-.2-1L72 118.9l-7.3 2.8c-1.74.67-3.5 1.35-4.98 2.5-2.76 2.17-3.9 6.23-.98 8.77 1.5 1.3 3.46 2.12 5.22 3.02 2 1 4.02 1.9 6.1 2.8 4.17 1.7 8.58 2.9 13.13 3 4.5 0 9-1 13.2-2.6 4.3-1.6 8.5-3.6 12.6-5.7 2.8-1.5 7.2-4.1 5.6-8.1-.8-2-3.4-3-5.2-4-2.2-1.2-4.5-2.2-6.8-3.1-4.9-2-10-3.4-15.2-4.2-.7-.1-1 .9-.3 1M33.8 158c2.1-.04 4.24.2 6.4.28 2.23.1 4.5.04 6.73 0l13.32-.2c.66 0 .66-1.03 0-1l-13.33.2c-2.15 0-4.33.1-6.5 0-2.2-.1-4.43-.35-6.64-.3-.7 0-.7 1.04 0 1" fill="#FFF"/>
    <path d="M60.2 157.8c-.5 2.62.17 5.25-.1 7.9-.07.65.97.65 1.04 0 .26-2.55-.43-5.1.05-7.62.1-.66-.9-.94-1-.28" fill="#FFF"/>
    <path d="M60.63 165.27c-4.42-.12-8.82-.3-13.25-.1-4.5.18-9-.06-13.5-.3-.65-.05-.65 1 0 1.03 4.5.25 9 .5 13.5.3 4.43-.2 8.83 0 13.25.1.67.03.67-1 0-1.03" fill="#FFF"/>
    <path d="M33.2 157.78l.22 7.4c.02.65 1.06.66 1.04 0l-.2-7.4c-.03-.66-1.07-.67-1.05 0M193 168.45h79.68c.27 0 .53-.25.52-.53l-.33-12.6c-.02-.67-1.06-.67-1.04 0l.35 12.6.52-.52H193c-.67 0-.67 1.05 0 1.05" fill="#FFF"/>
    <path d="M272.45 155.47l-96.08-.45-95.58-.44-54-.26c-.7 0-.7 1.04 0 1.04l96.1.45 95.6.5 53.9.3c.6 0 .6-1 0-1" fill="#FFF"/>
    <path d="M26.55 155.04l-.67 12.8c-.03.66 1 .66 1.04 0l.66-12.8c.04-.66-1-.66-1.03 0" fill="#FFF"/>
    <path d="M26.26 169.13c16.07-1.08 32.18-1.34 48.27-.74 4.6.1 9.17.4 13.75.7.67 0 .67-1 0-1.1-16.06-1.1-32.18-1.3-48.27-.7-4.5.1-9.1.4-13.7.7-.6 0-.6 1.1 0 1M25 35.7c32.57-.38 65.15-.5 97.73-.56 32.57-.08 65.14-.38 97.7-.12 18.2.15 36.37.64 54.5 2.05.67.06.67-.98 0-1.04-32.34-2.5-64.82-2.1-97.24-2.04-32.7 0-65.3.1-97.9.2-18.3.1-36.6.2-54.9.4-.7 0-.7 1 0 1" fill="#FFF"/>
    <path d="M24.17 35.8c-.3 16.84-.64 33.68-.96 50.52-.2 13.06-.7 26.15-.7 39.2l.3 24.06.5 46.52.5 46.58.2 16.24c.1 2.65 0 5.33.1 7.98v.34c0 .28.3.52.6.52l51.7.03H258c5.6 0 11.1 0 16.64-.3l1.6-.1c.3 0 .5-.2.5-.5l-.1-42.7-.1-46-.1-46.9-.1-46.1-.1-43.4v-5c0-.7-1.04-.7-1.04 0l.1 42.7.1 46 .1 46.9.1 46 .1 43.3v5l.52-.5c-12.6.8-25.17.4-37.7.4h-104l-51.87-.1-51.7-.1h-6.5l.55.5-.2-20.2-.44-45.1-.44-47.7c-.1-9.3-.2-18.5-.26-27.8-.1-9.3.3-18.7.46-28 .3-16.8.64-33.7.96-50.5l.23-12.1c0-.7-1-.7-1 0" fill="#FFF"/>
    <g fill="#FFF">
      <path d="M151.5 243.26c-.1-.04-.2-.08-.3-.1-.16-.07-.36.05-.4.2-.03.18.06.33.22.4.1.02.2.06.3.1.17.06.36-.06.4-.22.04-.17-.06-.32-.22-.38"/>
      <path d="M151.26 243.88c.46-.27 1.27-.12 1.78-.12.55 0 1.1 0 1.65.02l3.3.03c2.2.1 4.5.1 6.8.1l13.4.2c.4 0 .4-.6 0-.6l-14.3-.1h-10.5c-.8 0-1.8-.2-2.5.2-.4.2-.1.8.3.6"/>
      <path d="M177.8 228.6c.48 5.05.6 10.12.3 15.18-.02.4.6.4.63 0 .28-5.06.18-10.13-.3-15.18-.05-.4-.67-.4-.63 0"/>
      <path d="M178.1 228.4c-4.4.1-8.8.43-13.2.7-4.47.27-8.95.06-13.38-.65-.4-.07-.56.54-.16.6 4.34.7 8.74.94 13.14.7 4.54-.26 9.06-.63 13.6-.73.4 0 .4-.64 0-.63"/>
      <path d="M150.96 228.92c-.25 2.34.23 4.73.3 7.08.08 2.43-.04 4.86-.32 7.28-.05.4.58.4.62 0 .28-2.42.4-4.85.32-7.28-.07-2.35-.55-4.74-.3-7.08.04-.4-.58-.4-.62 0"/>
      <path d="M151.54 228.62c-.26-.65-.7-1.18-1.33-1.52-.3-.2-.6.35-.3.54.5.25.9.65 1.1 1.14.2.37.8.2.6-.16m-.5 14.86c-.7.3-1.3.74-1.8 1.35-.2.3.2.76.5.44.4-.53 1-.94 1.6-1.2.4-.14.2-.74-.1-.6"/>
      <path d="M149.66 227.67c.36 5.8.2 11.6-.43 17.35-.05.4.58.4.62 0 .65-5.76.8-11.56.44-17.35-.1-.4-.7-.4-.7 0M44 160.42l.08 1.62c.02.3-.07.86.13 1.13.3.4.9.33 1.3.4 2.1.23 4.1.46 6.2.54 2 .1 3.9.1 5.9-.2.6-.1.9-.1 1-.6.3-.9.2-2 .2-2.9 0-.1-.1-.3-.3-.3-4.6-.2-9.3-.2-14 0-.4 0-.4.7 0 .7 4.7-.1 9.4-.1 14.1.1l-.3-.3c0 .7.1 1.5 0 2.2-.1.7-.3.7-.9.8-.4.1-.8.1-1.2.2-1.4.1-2.9.1-4.4.1-1.4 0-2.9-.2-4.4-.3-.5 0-1.5 0-2-.2-.6-.4-.4-1.8-.4-2.5 0-.4-.6-.4-.6 0"/>
      <path d="M47.38 160.42l-.02-.02v.44l.03-.03h-.5c-.1-.1-.1-.1-.1.1v.9l-.1 1.2c0 .4.6.4.6 0v-1.5c0-.3.1-.7-.1-1-.1-.1-.4-.1-.5 0l-.1.1c-.2.2-.1.4 0 .5.3.3.7-.1.4-.4m-9.8-.1c-.6.4-.7 1.2-.3 1.8.4.5 1.4.7 1.9.3.5-.5.1-1.4-.4-1.7-.7-.4-1.5-.1-1.8.5-.2.4.3.7.5.4.1-.3.5-.5.8-.4.2.1.6.6.4.8-.2.2-.8 0-.9-.2-.3-.2-.3-.6 0-.8.3-.2 0-.8-.3-.5m12.8.4c-.1.6-.2 1.1-.2 1.7 0 .4-.1.9.2 1.2.1.1.3.1.4.1.1-.1.2-.3.1-.4-.2-.4-.8-.2-.6.2l.2-.4.3.1V162c0-.4 0-.83.1-1.25 0-.4-.6-.56-.6-.17m2.4-.06c0 .93 0 1.86-.1 2.8 0 .4.6.4.6 0v-2.8c0-.4-.6-.4-.6 0m2.1.36c-.1.97 0 1.93.2 2.87.1.4.7.23.6-.16-.2-.9-.3-1.8-.2-2.8 0-.4-.6-.4-.7 0m-27-124.6l-.9 46.1-1 46.3c-.2 8.5-.5 17.1.6 25.6 0 .4.7.4.6 0-1-7.5-.8-15.1-.6-22.7l.4-23.1.9-46.3.5-25.9c0-.4-.6-.4-.6 0m0 132.9l.1 75.7v21.5c0 .4.6.4.6 0l-.2-75.8c0-7.2-.1-14.4-.1-21.5 0-.4-.6-.4-.6 0M272 37l.1 46.9.1 46.74.06 26.4c0 .4.63.4.63 0l-.1-46.96-.1-46.8-.1-26.4c0-.4-.6-.4-.6 0m0 131.2c-1.2 6.2-.9 12.4-.3 18.7.5 6.4 1.1 12.8.7 19.3-.3 6.5-1.2 13-1.7 19.5s-.4 13-.2 19.5c.2 7.4.5 14.8.7 22.2 0 .4.6.4.6 0l-.6-19.88c-.2-6.4-.4-12.76 0-19.1.3-6.56 1.2-13.06 1.6-19.6.4-6.37.2-12.63-.3-19-.7-7.2-1.4-14.52 0-21.7.1-.4-.5-.56-.6-.16"/>
      <path d="M27.9 263.3c31.73 1.28 63.48 1.62 95.22 1.54 31.6-.08 63.2-.55 94.8-.95l53.56-.7c.4 0 .4-.7 0-.6l-95.4 1.2c-31.57.3-63.16.6-94.75.2-17.8-.2-35.62-.7-53.42-1.4-.4-.1-.4.6 0 .6m.3-224.1c31.9-.6 63.7-1.2 95.6-1.5 31.7-.4 63.4-.5 95.1-.1 17.9.2 35.8.5 53.6 1 .4 0 .4-.7 0-.7-31.8-1-63.6-1.3-95.5-1.3-31.7 0-63.3.3-95 .8-17.8.2-35.7.6-53.6.9-.4 0-.4.6 0 .6M275.3 36c1.2-2.2 2.5-4.35 3.9-6.4.1-.1-.1-.2-.2-.1-1.4 2.04-2.7 4.2-3.8 6.4 0 .1.1.2.2.1m2.5-6.57l-3.2 5.94c-.04.1.1.2.2.1l3.25-5.96c.06-.1-.1-.2-.2-.1m-2.5.6c-1 1.9-1.95 3.8-2.9 5.7-.1.2.1.3.15.1 1-1.9 1.9-3.8 2.94-5.7.03-.1-.1-.2-.2-.1m-2.2-.5c-.8 1.8-1.6 3.6-2.37 5.4-.06.1.1.2.17.1l2.34-5.4c.05-.1-.12-.2-.2-.1m-2.1.4l-2.55 5.3c-.07.2.1.3.16.1l2.6-5.2c.1-.1-.1-.2-.2-.1m-2.1.4c-.7.1-.9 1-1.1 1.5l-1.1 3.5c-.1.2.1.2.2.1l.8-2.5.3-1.1c.2-.4.3-1.1.9-1.2.2 0 .2-.2 0-.2m-2.4-.1l-2 4.9c-.1.2.1.2.2.1l1.9-4.8c0-.1-.2-.1-.2 0m-1.9 0l-2.9 5c0 .1.1.2.2.1 1-1.6 1.9-3.3 2.9-4.9 0-.1-.1-.2-.2-.1m-3.1-.1l-1.5 5.2c-.1.1.1.2.2.1l1.5-5.2c0-.1-.2-.1-.2 0m-2 .2c-.5 1.7-1.1 3.3-1.9 4.9-.1.1.1.2.2.1.8-1.6 1.4-3.2 1.8-4.9 0-.1-.2-.2-.2 0m-2.2-.2c-.7 1.5-1.2 3.1-1.7 4.6-.1.2.1.2.2.1.4-1.6.9-3.1 1.6-4.6 0-.1-.2-.2-.2-.1m-2.5.4l-1.4 4.3c-.1.1.1.2.2 0l1.2-4.2c0-.1-.2-.2-.2 0m-2.2.4c-.5 1.2-.9 2.4-1.1 3.7 0 .2.2.2.2.1.2-1.3.5-2.5 1-3.8 0-.1-.2-.1-.2 0m-2.7-.4l-.4 2c-.1.4-.3.8-.4 1.2v.5h.1l-.1-.1c-.1-.1-.3 0-.2.1 0 .1.1.2.1.2 0 .1.1.1.1 0v-.3c0-.4.2-.9.3-1.3l.8-2.5c0-.1-.2-.2-.2 0m-3.4.5c-.1 1.4-.4 2.7-.9 4 0 .1.2.2.2.1.5-1.3.8-2.6.8-4 0-.1-.2-.1-.2 0m-4.9-.4l-.8 3.7c-.1.2.1.2.2.1l.8-3.8c0-.1-.2-.2-.2 0m-2.6.07l-.6 3.5c0 .1.2.2.2 0l.6-3.6c0-.1-.2-.2-.2-.1m-2.5.6c-.2 1.1-.4 2.2-.7 3.3 0 .1.2.2.2 0l.8-3.4c0-.2-.2-.2-.2-.1m-2.7.2l-.7 2.5c-.1.1.1.2.2 0 .2-.8.5-1.7.7-2.5 0-.1-.2-.2-.2-.1m-2.9-.4c-.1 1-.3 1.9-.7 2.7 0 .1.1.2.2.1.4-.9.6-1.8.7-2.8 0-.1-.2-.1-.2 0m-2.6 0l-1 3.4c0 .1.2.2.2.04l.9-3.3c0-.15-.2-.2-.2-.1m-8.1.6c-.3.9-.4 1.8-.4 2.8 0 .2.2.2.2 0 0-.9.1-1.8.4-2.6 0-.1-.2-.2-.2 0M20.4 31c.7 1.9 2.3 3.4 4.3 3.9.1.03.2-.1.1-.2-1.6-.8-3-2.06-4-3.6-.1-.1-.3 0-.2.1 1 1.6 2.4 2.83 4.1 3.7l.1-.2c-2-.45-3.6-1.9-4.2-3.8-.06-.1-.26-.06-.2.1m2.24-.4c.4 1.4 1.2 2.62 2.1 3.72.1.1.2 0 .2-.1-.9-1.1-1.6-2.3-2.1-3.7 0-.1-.2-.05-.2.08m2.5 0c.3 1.4.8 2.74 1.5 3.95.1.1.3 0 .2-.1-.7-1.2-1.2-2.5-1.5-3.9-.1-.15-.3-.1-.2.04m2.5-.3c.1 1.5.4 2.9 1 4.2.1.1.3 0 .2-.1-.6-1.3-.9-2.7-1-4.1 0-.1-.2-.1-.2 0m1.9.5c.7 1.4 1.3 2.8 1.7 4.3.1.1.3.1.2-.1-.5-1.5-1-2.9-1.7-4.3-.06-.1-.24 0-.2.1m3.1-.7c.1 1.6.5 3.3 1.2 4.8.05.1.2 0 .17-.1-.7-1.5-1-3.1-1.1-4.7 0-.1-.2-.1-.2 0m2.1.4c.1 1.5.5 2.9 1.1 4.2.1.1.3 0 .2-.1-.6-1.3-.9-2.7-1.1-4.1 0-.1-.2-.1-.2 0m2.3 0l1.1 4.2c.1.1.3.1.2-.1-.4-1.4-.7-2.9-1.1-4.3-.1-.1-.3-.1-.2.1m2.4-.2c-.1 1.6.2 3.3 1 4.7.1.2.2 0 .2-.1-.8-1.4-1.1-3-1-4.7 0-.1-.2-.1-.2 0m1.9-.1c0 1.5.2 3.1.6 4.6 0 .1.2 0 .2-.1-.4-1.5-.6-3-.6-4.5 0-.2-.2-.2-.2 0m2.7-.1c-.2 1.5.1 2.9.8 4.2.1.1.3 0 .2-.1-.7-1.2-1-2.7-.8-4.1 0-.1-.2-.2-.2 0m1.6.1c.3 1.6.6 3.1 1 4.6.1.1.3 0 .2-.1-.4-1.5-.8-3-1-4.6 0-.2-.2-.1-.2 0m2.4 0c-.4 1.5-.3 3.2.3 4.7.1.1.3 0 .2-.1-.5-1.5-.6-3.1-.2-4.6.1-.2-.1-.2-.2-.1m2.3 0c-.4 1.5-.1 3.1.8 4.5.1.1.3 0 .2-.1-.9-1.3-1.1-2.9-.8-4.4.1-.1-.1-.2-.2 0m2.7.4c-.3 1.4-.2 2.8.2 4.2.1.1.3.1.2-.1-.4-1.4-.4-2.8-.2-4.1.1-.1-.1-.2-.2-.1m2-.2c-.3 1.4-.1 2.8.6 4.1.1.1.2 0 .2-.1-.7-1.3-.9-2.6-.6-4 0-.1-.2-.2-.2-.1m1.8 0c.1 1.4.4 2.7.9 4 .1.1.3.1.2-.1-.5-1.3-.8-2.6-.9-4 0-.2-.2-.2-.2 0m124.7.6c-.2.9-.3 1.9-.4 2.9 0 .1.2.1.2 0 .1-1 .2-1.9.4-2.9 0-.1-.2-.2-.2 0m3.5-.2c0 1.1.1 2.2.4 3.3 0 .1.2 0 .2-.1-.3-1.1-.4-2.2-.4-3.3 0-.2-.2-.2-.2 0m2.5.3c-.2 1-.1 1.9.4 2.8.1.1.2 0 .2-.1-.5-.8-.6-1.7-.4-2.6 0-.1-.2-.2-.2 0m4.2.6l.5 2.1c0 .1.2.1.2-.1l-.5-2.1c-.1-.1-.3 0-.2.1m2.3.2l.5 1.9c0 .1.2.1.2-.1l-.5-1.9c0-.2-.2-.1-.2 0m2.5-.4l.2 2.2c.1.1.3.1.2-.1l-.3-2.1c0-.1-.2-.1-.2.1m6.6.2c-.2.6 0 1.3.4 1.8.1.1.2-.1.2-.2-.4-.5-.5-1.1-.3-1.6 0-.2-.2-.2-.2-.1m2.1-.4c-.2 1.1-.1 2.2.3 3.2.1.1.3.1.2-.1-.4-1-.5-2.1-.3-3.1.1-.1-.1-.2-.2-.1m5.3.4c-.3.8-.2 1.7.2 2.4.1.1.3 0 .2-.1-.4-.7-.5-1.5-.2-2.2 0-.2-.2-.2-.2-.1m2.5-.3c-.4.9-.5 1.8-.3 2.6 0 .2.2.1.2 0-.2-.8-.1-1.6.3-2.4.1-.1-.1-.2-.1-.1m-154-2c-.4 1.6-.2 3.2.4 4.7.1.1.3 0 .2-.1-.6-1.4-.8-3-.4-4.5.1-.1-.1-.2-.2-.1m1.5.4c-.2 1.4-.1 2.8.3 4.1.1.1.3.1.2-.06-.4-1.3-.5-2.7-.2-4 0-.1-.2-.2-.2-.1m2.1.2c-.2 1.4-.05 2.8.5 4 0 .2.2.1.2 0-.53-1.2-.7-2.56-.5-3.9 0-.1-.2-.17-.2 0m3.75 0l.9 3.6c0 .1.2 0 .2-.1l-.8-3.4c0-.1-.2 0-.2.1m89 .4c-.2 1.1-.1 2.24.3 3.34.1.2.3.1.2 0-.35-1-.5-2.1-.3-3.3 0-.1-.2-.1-.2 0m2.1 0l.36 3.5c0 .1.2.1.2 0l-.3-3.5c0-.1-.25-.1-.2 0m2.2.2c-.1 1 .1 1.9.6 2.8 0 .1.2 0 .14-.1-.4-.84-.6-1.74-.5-2.7 0-.13-.2-.13-.2 0m10.4-.9c-.4 1.3-.3 2.6.2 3.9 0 .1.2 0 .2-.1-.5-1.2-.6-2.5-.2-3.7 0-.1-.2-.2-.2 0m-96-.3c-.4 1.6-.4 3.3 0 4.9.1.1.3.1.2-.1-.4-1.6-.4-3.2 0-4.8 0-.1-.2-.2-.2 0m2.1.3V33c0 .34 0 1.1.6.95.1-.1.1-.3-.1-.2-.4.1-.3-1.8-.3-2V30c0-.1-.2-.1-.2 0m2.2 0c-.2 1.5-.4 2.9-.4 4.4 0 .1.2.1.2 0 0-1.5.1-2.9.4-4.3.1-.1-.1-.2-.2 0m2.4.3l-.4 3.9c-.1.1.2.1.2 0l.4-4c0-.1-.2-.1-.2 0m1.9 0c-.4 1.3-.6 2.6-.5 4 0 .1.2.1.2 0-.1-1.3.1-2.7.5-3.9 0-.1-.2-.2-.2 0m2 0c-.4 1.3-.3 2.7.2 4 .1.1.3.04.2-.08-.5-1.2-.6-2.6-.2-3.9 0-.1-.2-.2-.2 0m8.8-.2c-.4 1.45-.6 2.9-.6 4.4 0 .1.2.1.2 0 0-1.5.2-2.9.6-4.33 0-.1-.2-.2-.2-.1m17-.3c-.5 1.3-.5 2.7-.3 4 .03.1.23 0 .2-.1-.3-1.3-.2-2.7.25-3.9 0-.1-.2-.2-.2-.1m7.9.7c0 1.4-.2 2.8-.5 4.1 0 .2.2.2.2.1.3-1.4.5-2.8.5-4.2 0-.1-.2-.1-.2 0m9.6-.2c-.4 1.2-.4 2.4 0 3.6.1.1.3.1.2 0-.4-1.2-.4-2.4 0-3.5.1-.1-.1-.2-.2-.1m10.4.2c.2 1.3.3 2.5.3 3.7 0 .1.2.1.2 0 0-1.3-.1-2.5-.3-3.8 0-.1-.2-.1-.2.1m10.8-.4c-.4 1.3-.5 2.7-.3 4 0 .2.3.1.2 0-.2-1.3-.1-2.7.3-3.9.1-.1-.1-.2-.2-.1M25 267.1c-1.95 1.1-3.6 2.6-4.9 4.4-.06.1.06.2.14.1 1.8-1.4 3.45-2.9 4.96-4.6 0-.1-.1-.28-.2-.2-1.7 1.3-3.2 2.76-4.6 4.42-.1.1 0 .24.1.14l4.1-4.3c.1-.1-.1-.2-.2-.1l-4.1 4.3.1.2c1.3-1.6 2.8-3.1 4.5-4.4l-.2-.1c-1.5 1.7-3.1 3.2-4.9 4.5l.1.2c1.2-1.8 2.9-3.3 4.8-4.3.1 0 0-.2-.1-.1m251.5-.1c.2 1.8.5 3.5 1.1 5.2 0 .1.2.1.2 0 .1-1.7-.1-3.5-.6-5.1-.1-.1-.2-.1-.2 0-.1.7 0 1.4.2 2.1 0 .1.2.1.2 0 .1-.8-.1-1.5-.6-2.1-.1 0-.2 0-.2.1.2 1.3.7 2.4 1.4 3.5 0 .1.2 0 .1-.1-.7-1-1.1-2.2-1.4-3.4-.1.1-.1.1-.2.1.4.5.6 1.2.5 1.9h.2c-.2-.7-.3-1.3-.2-2h-.2c.5 1.7.7 3.4.6 5.1h.2c-.5-1.7-.9-3.4-1.1-5.1 0-.1-.2-.1-.2 0"/>
      <path d="M22.78 269.33c.08.95.04 1.9-.12 2.83-.02.1.1.18.17.1l.36-.36c0-.1-.1-.24-.2-.15l-.4.36.2.1c.1-.9.2-1.9.1-2.8 0-.1-.3-.1-.2 0m3.6-1.9c-.5 1.4-.8 2.9-.7 4.4 0 .1.2.1.2 0-.1-1.5.1-2.9.6-4.3 0-.1-.2-.1-.2 0m249-.8c.4 1.9.4 3.7.2 5.6 0 .2.2.2.2 0 .2-1.9.1-3.8-.3-5.6-.1-.1-.3-.1-.2.1m-3.3.8c-.5 1.5-.7 3.1-.6 4.6 0 .2.2.2.2 0-.1-1.5.1-3 .6-4.5 0-.1-.2-.2-.2-.1m-7.4.7l.6 4.4c0 .2.2.2.2 0l-.6-4.3c0-.1-.3-.1-.2 0m-5.1-.4l.6 4.2c0 .2.2.1.2 0l-.6-4.1c-.1-.1-.3-.1-.2.1m-3.4 0l-.4 3.8c-.1.2.1.2.2 0l.3-3.7c0-.1-.2-.1-.2 0m-1.9 0c-.3 1.2-.5 2.5-.4 3.8 0 .2.2.2.2 0 0-1.2.1-2.4.4-3.7 0-.1-.2-.2-.2 0m-2.2.2l-.5 3.8c0 .1.2.1.2 0l.4-3.8c0-.1-.2-.1-.2 0m-10.2 0c-.2 1.3-.1 2.6.5 3.9 0 .1.2 0 .2-.1-.5-1.2-.7-2.4-.5-3.7 0-.1-.2-.2-.2 0m-4.6-.6c-.4 1.4-.5 2.8-.3 4.2 0 .2.2.2.2 0-.2-1.4-.1-2.8.3-4.1 0-.1-.2-.2-.2 0m-2.2.3c-.3 1.4-.5 2.8-.4 4.2 0 .1.2.1.2 0-.1-1.4.1-2.8.4-4.1 0-.1-.2-.2-.2 0m-20.7.2l-.7 4.4c0 .1.2.2.2.1l.7-4.4c0-.2-.2-.2-.2-.1M30 269c-.1 1.3 0 2.6.3 4 0 .1.2 0 .2-.1-.3-1.3-.4-2.6-.3-3.9 0-.1-.2-.1-.2 0m2.1-.6v3.2c0 .4 0 1.2.6 1 .1 0 .1-.2 0-.2-.5.14-.4-1.86-.4-2.1v-1.97c0-.1-.2-.1-.2 0m1.7.2c-.4 1.3-.5 2.7-.1 4 .1.14.3.1.2-.04-.3-1.3-.3-2.6.1-3.9.1-.1-.1-.2-.2 0m3.9-.4c.1 1.4.2 2.7.5 4 0 .1.2.1.2 0-.3-1.3-.4-2.6-.5-3.9 0-.1-.2-.1-.2 0m7 0c-.5 1.4-.5 3 0 4.4 0 .1.2.1.2-.1-.5-1.5-.5-2.9 0-4.4 0-.2-.2-.2-.2-.1m1.9.4c-.4 1.4-.5 2.7-.3 4.1 0 .1.2 0 .2-.1-.2-1.3-.1-2.6.3-3.9.1-.2-.1-.2-.2-.1m13.4.5l.3 3.5c0 .1.2.1.2 0l-.3-3.5c0-.1-.2-.1-.2 0m8-.4l-.5 3.8c0 .2.2.2.2 0l.5-3.7c0-.1-.2-.1-.2 0m5.7.2c-.2 1.3-.2 2.6.3 3.8 0 .1.2.1.2-.1-.4-1.2-.5-2.5-.3-3.7 0-.2-.2-.2-.2-.1m110.3-.2l-.5 4.6c0 .1.2.1.2 0l.6-4.6c0-.1-.2-.1-.2 0m1.5.2l-.4 3.5c-.1.2.1.2.2 0l.4-3.5c0-.1-.2-.1-.2 0m3.5-.2l-.4 3.5c0 .2.2.2.2 0l.4-3.5c0-.2-.2-.2-.2 0m5.8.2c-.3 1.4-.4 2.8-.2 4.2 0 .1.2.1.2 0-.2-1.4-.1-2.8.2-4.1 0-.2-.2-.2-.2-.1m9.2.2c-.2 1.2-.2 2.5.2 3.6.1.1.3.1.2-.1-.4-1.2-.4-2.4-.2-3.5.07-.2-.13-.2-.2-.1m5.4-.9l-.6 4.6c0 .2.2.2.2.1l.6-4.6c0-.1-.2-.2-.2-.1m-78 0c-.8 1.3-1.2 2.8-1.2 4.4 0 .2.2.2.2 0 0-1.5.4-3 1.2-4.3.1-.1-.1-.2-.2-.1m2.16.1c-.44 1.2-.63 2.4-.53 3.6 0 .1.2.1.2 0-.1-1.2.1-2.4.53-3.5 0-.2-.2-.2-.2-.1m1.7 0l-.6 3.8c0 .1.2.1.2 0l.5-3.9c0-.2-.2-.2-.2 0m1.6.2c.1 1.3.4 2.5.8 3.7 0 .1.2.1.2-.1-.4-1.2-.7-2.4-.8-3.7 0-.1-.2-.1-.2 0m2.7-.2c-.4 1.4-.5 2.8-.4 4.2 0 .2.2.2.2 0-.1-1.4 0-2.78.4-4.1 0-.1-.2-.2-.2-.08m4 .6c.4 1.2.4 2.3.1 3.5 0 .1.2.2.2.1.38-1.2.3-2.4-.1-3.6 0-.1-.2-.1-.2.05m2 .2v1.6c0 .5-.02 1 0 1.4.08.3.4.8.6.4.1-.1-.1-.2-.2-.1-.2-.1-.3-.3-.2-.5V269c0-.13-.2-.13-.2 0m8.6-.4c0 1.18.1 2.3.4 3.4.1.16.3.1.2-.03-.2-1.1-.4-2.2-.4-3.4 0-.1-.2-.1-.2 0m6.1.2c-.3 1.3-.1 2.6.5 3.7.1.1.28 0 .2-.1-.6-1.1-.8-2.3-.5-3.5 0-.1-.2-.2-.2-.1m21.4 0c-.3 1-.4 2.1-.4 3.1 0 .1.2.1.2 0 0-1.1.2-2.1.5-3.1 0-.1-.2-.2-.2-.1m-100-.7l-.5 4.15c0 .2.2.2.2 0l.5-4.1c0-.1-.2-.1-.2 0m1.8.4c-.5 1.3-.6 2.7-.3 4 0 .16.2.1.2 0-.3-1.3-.2-2.7.3-3.9 0-.2-.2-.2-.2-.1m2.6-.2c-.2 1.1-.4 2.2-.48 3.3 0 .4.2 1.1.76.7.1-.1 0-.2-.1-.2l-.47-.4v-.6c0-.4.1-.7.1-1l.2-1.9c0-.2-.2-.2-.2 0m7.1.3c-.3 1.2-.4 2.5-.4 3.7 0 .1.2.1.2 0-.1-1.3 0-2.5.3-3.7 0-.17-.2-.2-.2-.1m36.2-.37c0-.4-.5-.3-.6 0-.1.4 0 .9 0 1.3v1.8c0 .1.2.1.2 0v-2l-.1-.76v-.4c-.05-.2 0-.3.1-.4 0 .1.2.1.2 0m-2.7-.6l-.3 3.9c0 .1.2.1.2 0l.3-4c0-.2-.2-.2-.2 0m-4.2.8l-.44 3.5c-.1.1.2.1.2 0l.4-3.5c.05-.2-.2-.2-.2 0m-2.3.1c-.3 1.2-.5 2.4-.6 3.6 0 .1.2.1.2 0 .1-1.2.3-2.4.6-3.6.07-.1-.13-.2-.2-.1m-6.2-.6c.1 1.3-.03 2.5-.34 3.8 0 .1.2.2.2 0 .3-1.3.4-2.5.3-3.8 0-.2-.2-.2-.2 0m-1.9-.2c-.3 1.2-.6 2.5-.6 3.7 0 .1.2.1.2 0 .1-1.3.3-2.5.7-3.7 0-.2-.2-.2-.2-.1m-2.5-.4c-.2 1.4-.6 2.7-1.1 4 0 .1.2.2.2 0 .5-1.3.8-2.6 1-3.9 0-.1-.2-.2-.2-.1m-3.1.2l-.8 3.9c-.1.1.1.2.2 0l.8-4c0-.1-.2-.2-.2-.1m-2.6.2l-.4 4.6c0 .1.2.1.2 0l.4-4.6c0-.1-.2-.1-.2 0m-2.4.2c-.1 1.5-.3 2.9-.7 4.4 0 .1.2.2.2 0 .4-1.5.6-3 .7-4.5 0-.1-.2-.1-.2 0m-4.2-.4c.4 1.6.4 3.3 0 4.9 0 .1.2.1.2 0 .4-1.7.4-3.4-.1-5.1 0-.2-.2-.1-.2 0m-1.3.9l-.5 4.3c0 .1.2.1.2 0l.5-4.4c0-.2-.2-.2-.2 0M275 60.1l3.3.6c.1 0 .1-.2 0-.2-1.1-.2-2.2-.4-3.3-.7-.16-.1-.2.1-.1.2m.2 1.8l3.2.4c.1 0 .1-.2 0-.2l-3.2-.4c-.2-.1-.2.1 0 .2m0 15.1c1.1-.2 2.23-.1 3.3.3.1 0 .2-.2.05-.2-1.1-.4-2.3-.5-3.4-.34-.17.1-.1.3 0 .2m.16 2.5c1.2-.1 2.3 0 3.3.4.2.1.2-.1.1-.2-1.1-.4-2.2-.5-3.3-.3-.1 0-.1.2 0 .2m-.8 18.5c1.3-.2 2.5-.1 3.8.2.1.1.2-.1 0-.2-1.2-.3-2.5-.4-3.8-.2-.1.1 0 .3.1.2m.6 6.8l3.6.5c.1.1.1-.1 0-.2l-3.6-.5c-.2 0-.2.2-.1.2m-.3 9c1.1-.1 2.2 0 3.3.3.1.1.2-.1 0-.2-1.1-.3-2.3-.5-3.4-.3-.1 0-.1.2 0 .2m1.3 147.1c1.1-.3 2.2-.5 3.3-.4.2 0 .2-.2 0-.2-1.1-.1-2.2.1-3.3.4-.1.1-.1.3.1.2m-.9-8.5c1 .1 2-.1 2.9-.4.1 0 .1-.2 0-.2-1 .3-1.9.5-2.9.4-.1 0-.1.2 0 .2m-.1-122c1.1-.2 2.2 0 3.3.3.1.1.2-.1.1-.2-1.1-.4-2.2-.5-3.4-.3-.1.1-.1.3.1.2m.2 22.6c1.1-.3 2.2-.2 3.2.2.1.1.3-.1.1-.1-1.1-.5-2.2-.6-3.4-.27-.1 0 0 .2.1.2m0 7c1.3-.2 2.5-.1 3.7.5.1 0 .3-.2.1-.2-1.2-.6-2.5-.7-3.8-.5-.1 0-.1.2.1.2m-.2 7.7c1.3.1 2.6.4 3.9.9.1 0 .1-.2 0-.2-1.2-.5-2.6-.8-3.9-.9-.1 0-.1.2 0 .2m.2 2.9l2.9.4c.1 0 .1-.2 0-.3l-2.9-.4c-.1 0-.1.2 0 .2m-.4 2.7l3.7.3c.1.1.2-.1.1-.2l-3.8-.3c-.1 0-.1.2 0 .2m.4 2.8c1 .4 2.1.5 3.2.3.1 0 .1-.2-.1-.2-1 .1-2.1 0-3.1-.4-.1 0-.2.2 0 .2m-.4 2.9c1.3 0 2.5.3 3.7.7.2 0 .2-.2.1-.2-1.2-.4-2.4-.6-3.7-.7-.1 0-.1.2 0 .2m1 5.7c1 0 2 .2 3 .6.1 0 .2-.2 0-.2-1-.4-2-.6-3-.6-.1 0-.1.2 0 .2m-.4 8.9l3.5.3c.1 0 .1-.2 0-.2l-3.5-.3c-.2 0-.2.2 0 .2m.6 54.6v.1s0-.1-.1-.1c-.3-.1-.4.2-.2.4.3.2.7.2 1 .3.5.1.9.1 1.3 0 .1 0 .2-.2 0-.2h-1c-.1 0-1.3-.2-1.3-.3 0 .1.2.1.2 0m-.8-14.9c1.5-.4 3-.5 4.6-.4.1 0 .1-.2 0-.2-1.5-.2-3.1-.1-4.6.3-.1 0-.1.2.1.2m.7-36.1c1.1-.3 2.27-.2 3.3.2.18 0 .2-.2.1-.2-1.1-.4-2.3-.5-3.4-.2-.1 0 0 .2.1.2m-.6 2.5c1.5-.3 2.9-.2 4.38.2.2 0 .2-.2.1-.2-1.4-.45-2.9-.5-4.4-.25-.1 0-.1.2.04.2m.15 2.4c1.4-.1 2.7.1 4 .5.1 0 .2-.2 0-.2-1.3-.4-2.66-.6-4-.6-.1 0-.1.2 0 .2m.6 2.5c1.13-.1 2.3.1 3.5.4.1 0 .13-.2 0-.2-1.16-.37-2.35-.5-3.56-.48-.2 0-.2.2 0 .2m-.5 2.1l3.6.6c.1 0 .2-.2 0-.2l-3.6-.6c-.1 0-.2.2-.03.2m.6 2.6c1.2-.1 2.3.1 3.5.4.1.1.13-.1 0-.2-1.15-.4-2.34-.5-3.55-.4-.2 0-.2.2 0 .2m-.9 5.6c1.4.1 2.8.4 4.2.9.1 0 .2-.2 0-.2-1.4-.5-2.8-.8-4.24-.9-.2 0-.2.2 0 .2M20 65.7c1.4-.3 2.8-.4 4.2-.35.12 0 .12-.2 0-.2-1.44-.06-2.86.05-4.26.34-.2 0-.1.2 0 .2M19.6 105c1.3.04 2.58-.14 3.83-.53.1-.04.02-.24-.1-.2-1.2.38-2.5.56-3.78.53-.14 0-.14.2 0 .2m.5 10.5l2.73-.32c.1-.02.1-.23 0-.2l-2.74.3c-.13.03-.13.23 0 .22m-.5 4.7c.97.02 2 .14 2.87.6.1.05.2-.13.1-.2-.9-.46-1.9-.6-2.9-.6-.1-.02-.1.2 0 .2m.1 146.54c1.4-.04 2.8-.16 4.2-.36.2-.02.1-.22 0-.2-1.3.2-2.7.32-4.1.35-.1 0-.1.2 0 .2m.1-5.53c1.4-.07 2.7-.24 4-.53.1-.02.1-.22 0-.2-1.3.3-2.6.46-3.9.5-.1.02-.1.23 0 .22m.6-50l3.4.3c.1 0 .1-.2 0-.2l-3.4-.4c-.1 0-.1.2 0 .2m-.2 19.9l3.6.3c.2 0 .2-.2 0-.3-1.1-.2-2.3-.3-3.5-.4-.1 0-.1.2 0 .2m-.1 6l1.7.2c.5 0 1.3.3 1.8.1-.1 0 0 .2.1.2h.1v-.1c0-.4-.8-.3-1.1-.4l-2.6-.3c-.2 0-.2.2 0 .2m.1 2c1.2 0 2.5.2 3.7.4.1 0 .2-.2.1-.2-1.2-.2-2.5-.4-3.7-.4-.1-.1-.1.2 0 .2m0 1.8l4 .3c.1 0 .1-.2 0-.3l-4-.4c-.1 0-.1.2 0 .2m.5 4.4l-.3-.2-.1.2c1.2 0 2.3.1 3.5.3.1 0 .2-.2.1-.2-1.1-.2-2.3-.3-3.5-.3-.1-.1-.2.1-.1.1l.4.1c.1.1.2-.1.1-.2m-.6 3.7l3.4.3c.1 0 .1-.2 0-.2l-3.4-.3c-.1 0-.1.2 0 .2m.1 4.1l3.8.3c.1 0 .1-.2 0-.2l-3.8-.3c-.2 0-.2.2 0 .2m-.4 3.1l4.7.6c.1 0 .2-.2 0-.2l-4.7-.7c-.1-.1-.2.1-.1.2"/>
    </g>
    <path d="M118.3 236.67c1.54-1.72 3.92-2.5 6.24-2.63 3.3-.2 6.67.8 9.34 2.76.7-.74 1.34-1.54 1.9-2.4-.2-.1-.37-.22-.56-.34-.27.3-.54.63-.8.95-.12.2-.24.3-.4.3-.15.1-.3 0-.42 0l-3.4-1.2c.35-.5.56-1.1.6-1.7-.25-.2-.73.1-.83.4-.1.4-.05.8-.28 1.1l-3-.3c.1-.7.2-1.4.2-2.1-.2-.2-.6-.1-.7.2-.1.3-.1.6 0 .8 0 .3.1.6-.1.8l-1.8.1c-.1 0-.2 0-.3-.1-.1 0-.1-.1-.1-.2 0-.3.2-.6.2-1 0-.3-.2-.8-.6-.7-.3.1-.4.4-.4.7 0 .4 0 .7.1 1.1-.5.3-1.3.4-1.4-.1-.2-.3.1-.8-.3-1-.3-.1-.6.3-.6.6s.3.6.3.9l-.8.2c0-.3-.1-.6-.2-.8-.2-.2-.6-.3-.8-.1l.3 1.1c-.1.4-.5.5-.9.4-.3-.1-.6-.3-.9-.6.2.4.3 1.1-.1 1.2-.4.1-.7-.5-1-.7-.1.4 0 .9.3 1.1H116c.4.7.96 1.3 1.6 1.8" fill="#FFF"/>
    <path d="M118.36 236.74c1.9-2.04 4.8-2.7 7.48-2.62 2.88.1 5.67 1.1 8 2.77.03 0 .1 0 .12-.1.7-.8 1.33-1.6 1.9-2.4.04-.1 0-.1-.03-.2l-.56-.4h-.12c-.27.3-.56.8-.9 1-.46.3-1.03-.1-1.47-.2-.85-.3-1.7-.7-2.55-1l.06.1c.1-.3.3-.6.4-.9 0-.2.2-.7.1-.9-.1-.3-.6-.2-.7-.1-.2.1-.3.3-.4.5-.1.3 0 .8-.4.9-.2 0-.5-.1-.7-.1-.2 0-.5-.1-.7-.1l-1.4-.2.1.1.1-1c0-.3.1-.9 0-1.2-.2-.3-.5-.3-.7-.1-.6.4-.1.9-.2 1.4-.1.4-.3.4-.6.4h-.6c-.2 0-.4.1-.6 0-.4-.1-.2-.5-.1-.8.1-.4.2-.9-.2-1.2-.3-.2-.6-.1-.8.1-.1.2-.2.4-.2.6-.1.2.1.7 0 .9-.1.3-.8.3-1 .2-.4-.2-.2-.6-.3-1-.1-.4-.5-.5-.8-.3-.5.4 0 1.1.2 1.5v-.1l-.8.1.1.1c-.1-.5-.4-1.5-1.1-1.1-.1 0-.1.1-.1.1.1.2.1.5.2.7 0 .3.2.4-.3.6-.5.2-1-.3-1.3-.6-.1-.1-.2.1-.2.2.1.1.2.3.2.5s-.1.4-.4.4c-.1-.1-.2-.1-.2-.2-.2-.2-.3-.4-.5-.5-.1-.1-.2 0-.2 0-.1.5 0 .9.3 1.3v-.2l-1.2-.1c-.1 0-.1.1-.1.2.4.7 1 1.3 1.6 1.8.1.1.2 0 .1-.1-.7-.5-1.2-1.1-1.6-1.8l-.1.2h1.2c.1 0 .1-.1.1-.2-.3-.3-.4-.6-.3-1l-.2.1c.3.2.7 1 1.2.7.4-.3.2-.9 0-1.2l-.2.1c.4.4 1 .9 1.7.5.1-.1.3-.3.3-.5s-.3-.5-.3-.7c-.1-.2-.1-.3.1-.2.2-.1.3 0 .3.2.2.2.2.4.2.6 0 .1.1.1.2.1l.7-.2c.1 0 .1-.1.1-.1-.1-.2-.1-.3-.2-.5l-.1-.3c-.2-.4-.1-.5.2-.4.4 0 .2 0 .2.2s-.1.5.2.7c.3.3 1 .1 1.4-.1v-.1c0-.3-.1-.6-.1-1 0-.1 0-.3.1-.4 0-.2.2-.2.3-.1.2-.1.3 0 .4.2.2.4-.3 1-.2 1.4 0 .2.2.22.4.3.5 0 1.2-.1 1.7-.1 0 0 .1 0 .1-.1.1-.1.1-.3.1-.5s-.2-.6-.1-.8l.5-.3v.2c.1.2 0 .4 0 .5 0 .4-.1.8-.2 1.2 0 .1.1.1.1.1 1 .1 2 .2 2.9.4l.1-.08c.2-.35.1-1 .4-1.25 0-.1.1-.2.3 0 .2 0 .2.1.2.2.1.1 0 .3-.1.4-.1.3-.2.6-.4.9 0 .1 0 .1.1.17l1.8.7c.5.2 1.1.5 1.7.6.3.1.5 0 .7-.2l.6-.7c.1-.1.1-.27.3-.2.1 0 .3.2.4.2v-.1l-1 1.3c-.2.2-.6.9-.9.9-.2 0-.5-.3-.6-.4l-.6-.4-1.1-.6c-1.5-.7-3-1.2-4.6-1.3-3.1-.4-6.5.2-8.7 2.6-.1.1 0 .2.1.1" fill="#414141"/>
    <path d="M157.08 236.67c1.55-1.72 3.93-2.5 6.24-2.63 3.3-.2 6.68.8 9.35 2.76.7-.74 1.33-1.54 1.9-2.4-.2-.1-.38-.22-.56-.34l-.8.95c-.1.2-.2.3-.4.3-.1.1-.2 0-.4 0L169 234c.36-.53.57-1.14.6-1.76-.24-.27-.72.06-.82.42-.1.37-.05.8-.28 1.1-.98-.1-1.95-.22-2.9-.33.15-.7.22-1.4.17-2.1-.16-.2-.55-.1-.67.17-.13.24-.07.53 0 .8.03.27.07.58-.1.8l-1.75.05c-.1 0-.2 0-.27-.07-.06-.05-.08-.14-.08-.23 0-.35.18-.67.22-1.02.04-.34-.2-.78-.54-.7-.3.04-.4.4-.4.7-.03.36 0 .72.08 1.07-.48.24-1.24.4-1.43-.1-.13-.34.1-.84-.23-1-.3-.17-.6.26-.53.6.06.3.3.6.35.9l-.76.16c-.02-.28-.05-.57-.2-.8-.17-.22-.53-.33-.74-.15l.36 1.1c-.1.4-.55.5-.9.4-.36-.1-.64-.3-.9-.6.2.4.28 1.1-.15 1.2-.42.1-.62-.5-1-.7-.1.4 0 .9.3 1.2h-1.2c.42.7.96 1.3 1.6 1.8" fill="#FFF"/>
    <path d="M157.15 236.74c1.9-2.04 4.78-2.7 7.48-2.62 2.87.1 5.66 1.1 7.98 2.77.1 0 .1 0 .2-.1.7-.8 1.4-1.6 1.9-2.4.1-.1 0-.1 0-.2l-.5-.4h-.2c-.2.3-.5.8-.9 1-.4.3-1-.1-1.4-.2l-2.5-1 .1.1c.2-.3.4-.6.5-.9.1-.2.3-.7.2-.9-.1-.3-.5-.2-.7-.1-.1.1-.3.3-.3.5 0 .3.1.8-.3.9-.1 0-.5-.1-.6-.1-.3 0-.5-.1-.7-.1l-1.4-.2.1.1c.1-.3.1-.6.2-1 0-.3.2-.9 0-1.2-.1-.3-.5-.3-.7-.1-.5.4 0 .9-.1 1.4-.1.4-.3.4-.6.4h-.6c-.2 0-.4.1-.6 0-.3-.1-.2-.5-.1-.8.1-.4.2-.9-.2-1.2-.3-.2-.6-.1-.8.1-.1.2-.1.4-.1.6 0 .2.1.7 0 .9-.1.3-.7.3-.9.2-.3-.2-.1-.6-.2-1 0-.4-.4-.5-.7-.3-.5.4.1 1.1.2 1.5l.1-.1-.8.1.1.1c0-.5-.3-1.5-1.1-1.1v.1l.3.7c.1.3.2.4-.2.6-.5.2-1-.3-1.3-.6-.1-.1-.2.1-.2.2.1.1.2.3.2.5.1.2-.1.4-.4.4l-.2-.2c-.1-.2-.3-.4-.5-.5 0-.1-.1 0-.1 0-.1.5 0 .9.3 1.3l.1-.2-1.2-.1c-.1 0-.2.1-.1.2.4.7 1 1.3 1.6 1.8.1.1.2 0 .1-.1-.6-.5-1.2-1.1-1.6-1.8l-.1.2h1.2c.1 0 .1-.1.1-.2-.3-.3-.4-.6-.3-1l-.1.1c.3.2.7 1 1.2.7.4-.3.2-.9.1-1.2l-.1.1c.4.4 1.1.9 1.7.5.2-.1.3-.3.3-.5s-.2-.5-.2-.7c-.1-.2-.1-.3.1-.2.1-.1.2 0 .3.2.1.2.2.4.2.6 0 .1.1.1.1.1l.8-.2c.1 0 .1-.1.1-.1 0-.2-.1-.3-.2-.5l-.1-.3c-.1-.4 0-.5.2-.4.4 0 .2 0 .2.2.1.2 0 .5.2.7.4.3 1 .1 1.4-.1.1 0 .1-.1.1-.1 0-.3-.1-.6-.1-1 0-.1 0-.3.1-.4 0-.2.1-.2.3-.1.2-.1.4 0 .4.2.2.4-.3 1-.2 1.4.1.2.2.22.4.3.6 0 1.2-.1 1.8-.1 0 0 .1 0 .1-.1.1-.1.1-.3.1-.5s-.2-.6-.1-.8l.5-.3v.7c0 .4-.1.8-.2 1.2 0 .1 0 .1.1.1 1 .1 1.9.2 2.9.4.1 0 .1 0 .1-.08.2-.35.1-1 .4-1.25.1-.1.2-.2.3 0 .2 0 .2.1.2.2s-.1.3-.1.4c-.1.3-.3.6-.4.9 0 .1 0 .1.1.17l1.8.7c.5.2 1.1.5 1.7.6.3.1.5 0 .7-.2.2-.2.4-.5.6-.7.1-.1.2-.27.3-.2.1 0 .4.2.4.2v-.1c-.3.42-.6.9-1 1.3-.1.2-.6.9-.9.9-.1 0-.4-.3-.5-.4l-.6-.4-1.1-.6c-1.5-.7-3.1-1.2-4.7-1.3-3.1-.4-6.5.2-8.7 2.6-.1.1.1.2.2.1" fill="#414141"/>
    <path d="M180.6 224.4l-.7 29.26.3-.3c-10.8 1.17-21.6-.65-32.4-.7l.3.3c.27-8.58.52-17.18.78-25.77l.1-3.7-.3.3c10.7.6 21.43.7 32.15.4l-.3-.3.1.5c.06.4.66.2.6-.2l-.1-.5c-.03-.2-.17-.3-.3-.2-10.72.3-21.44.2-32.15-.5-.18 0-.3.1-.32.3l-.76 25.8c-.04 1.2-.08 2.4-.1 3.7-.02.1.13.3.3.3 10.8 0 21.6 1.9 32.4.7.18 0 .32-.2.32-.3l.7-29.3c.02-.4-.6-.4-.62 0" fill="#414141"/>
    <path d="M83.92 258.83c15.96.25 31.9.32 47.87.25 15.9-.07 31.9-.24 47.8.22 8.8.26 17.6.87 26.3-.22.1 0 .1-.14 0-.2-.3-.17-.2-1.35-.2-1.7l-.1-2.45c0-1.55-.1-3.1 0-4.64 0-3.1 0-6.2.1-9.3.2-6.2.4-12.4.5-18.6 0-2.5-.1-5.1 0-7.6 0-.1-.1-.1-.1-.1l-33 .5c-11 .2-22 .3-33 .5-11 .1-21.9.2-32.9.1-5.5-.1-11-.2-16.5-.4l-4-.2-2-.1c-.3 0-.7-.1-.9.1-.2.2-.2.4-.2.7 0 .6 0 1.3.1 2 .1 1.3.3 2.7.4 4 .2 2.6 0 5.3 0 8l-.3 8.2-.6 16.5-.2 4s0 .1.1.1h.4c.1 0 .1-.2 0-.2-.3 0-.3 0-.3-.3.1-.4 0-.9 0-1.4l.1-2.7.2-5.2.3-10.7.3-10.5c0-1.7.1-3.4 0-5-.1-1.8-.4-3.5-.5-5.2l-.1-1.2V215c.1-.14.4-.1.5-.1.5-.07.9 0 1.4 0 1.8.1 3.5.18 5.3.24 3.5.14 7 .2 10.5.3 7 .2 14 .2 21 .1 14.1 0 28.2-.3 42.3-.5 7-.1 14-.26 21-.37l10.5-.14 5.4-.1 2.4-.06c.4 0 .8-.04 1.2-.02.3 0 0-.2.1 0v.3c-.2 2.9-.1 5.9-.1 8.8l-.3 10.5c-.2 7.1-.5 14.1-.3 21.2l.1 2.46c0 .5-.2 1 .2 1.2v-.2c-7.9 1-15.8.6-23.7.3-7.9-.2-15.9-.3-23.8-.3-16-.1-31.9.2-47.9.1l-26.7-.3c-.1 0-.1.2 0 .2m126-42.6l15.1-.5c.1 0 .1-.2 0-.2l-15.2.5c-.2 0-.2.2 0 .2" fill="#414141"/>
    <path d="M223.97 215.72l.55 11.6.27 5.75c0 1.82.3 3.73-.4 5.46-.1.13.1.18.2.06.6-1.7.5-3.5.4-5.3l-.3-5.9-.6-11.8c0-.2-.2-.2-.2 0m-15.2.2c-1.1 3.5-.3 7.2-.2 10.7.1 3.8-.1 7.6-.6 11.4 0 .1.2.2.2 0 .5-3.7.7-7.4.6-11.1-.2-3.7-1-7.5.1-11.1 0-.2-.2-.2-.2-.1m17.7.5c7.6.3 15.3.3 23 0 .5 0 .9 0 1.4-.1.2 0 .4 0 .6-.1 0 0 .4-.1.3-.2v22.4c.1-.1-.5-.1-.5-.1h-.8c-7.3-.1-14.5-.1-21.8-.1H226c-.13 0-.13.2 0 .2h25.76c.08 0 .1 0 .1-.1v-22s-.02-.1-.1-.1c-8.5.4-17.02.5-25.53.1-.14 0-.14.2 0 .2m33.7 21.4c1.55.6 3.1.7 4.7.4l-.4-.4c-.6 2.5-.5 5-.4 7.6.1 1.4.2 2.8.15 4.2l-.17 1.9c-.1 1.3-.9 1-1.9 1-.6 0-1.4.2-2 0-.8-.2-.5-1.3-.4-2l.1-4.2.2-4.3c.1-.6-.1-4.5.7-4.4.4.1.4-.6 0-.6-1-.1-1.1 1.1-1.1 1.8-.1 1.9-.1 3.8-.2 5.7l-.2 5.7c0 .9-.6 2.8.7 3 .9.1 1.9 0 2.8 0 .5 0 1.3.2 1.7-.2.4-.3.3-.8.4-1.2.1-.9.2-1.7.2-2.6 0-3.7-.7-7.4.2-11 .1-.3-.1-.4-.3-.4-1.5.2-2.9.1-4.3-.4-.4-.2-.5.4-.1.6" fill="#414141"/>
    <path d="M259.7 244.02c1.45-.2 2.9-.3 4.38-.32.4 0 .4-.63 0-.63-1.47.02-2.93.13-4.4.33-.38.05-.4.67 0 .62m.4 5.95c1.63-.06 3.24-.26 4.85-.6.4-.08.22-.68-.17-.6-1.55.32-3.1.5-4.7.58-.4 0-.4.63 0 .62m-109.7-22.32l29.4-.3c.4-.02.4-.64 0-.64l-29.4.4c-.4 0-.4.7 0 .6" fill="#414141"/>
    <path d="M178.15 228.86l1.88-1.34c.32-.23 0-.77-.32-.54l-1.8 1.35c-.3.23 0 .77.3.53" fill="#414141"/>
    <path d="M179.56 227.26c.1 1.47-.35 2.9-.32 4.4.04 1.5.26 2.97.34 4.47.16 3.1.02 6.2-.37 9.3 0 .4.6.4.7 0 .4-3.1.6-6.2.4-9.3 0-1.5-.3-2.98-.3-4.48 0-1.48.5-2.92.4-4.4 0-.4-.6-.4-.6 0" fill="#414141"/>
    <path d="M178.25 244.04l.87 1.43c.2.35.75.03.54-.3l-.87-1.44c-.3-.35-.8-.03-.6.3" fill="#414141"/>
    <path d="M179.35 245c-10 .13-20 .08-30.02-.2-.4 0-.4.63 0 .64 10 .26 20.02.32 30.02.17.4 0 .4-.6 0-.6" fill="#414141"/>
    <path d="M146.55 222.4l35.96.7-.5-.52c-.2 10.8-.1 21.6.1 32.38.1-.17.3-.33.4-.5-11.9 2.18-24-.6-36 0l.5.53.1-29v-4.2c0-.7-1-.7-1 0l-.1 28.9v4.1c0 .2.3.5.6.5 12.1-.6 24.3 2.1 36.3-.1.3-.1.4-.3.4-.5-.2-10.8-.3-21.6-.1-32.4 0-.3-.2-.6-.5-.6l-35.9-.7c-.7 0-.7 1 0 1m-38 1.2c1.4 9.6-.7 19.2 0 28.9 0 .4.7.4.6 0-.7-9.7 1.4-19.4 0-29.1-.1-.4-.7-.2-.6.2" fill="#414141"/>
    <path d="M108.92 223.74l33.03.18c.4 0 .4-.62 0-.63l-33.03-.2c-.4 0-.4.6 0 .6" fill="#414141"/>
    <path d="M141.65 223.83c-.26 8.13-.46 16.26-.6 24.4-.03.95-.05 1.92-.06 2.88-.1.5 0 1-.1 1.4-.1.3-.2.5-.4.5-.3.1-1-.1-1.3-.2l-1.5-.1c-1-.1-2-.2-3.1-.2-4-.3-8-.5-12-.6-4.6 0-9.1 0-13.7.3-.4.1-.4.7 0 .7 10.6-.5 21.2-.2 31.7 1 .1 0 .2 0 .2-.1.4-.6.4-.9.4-1.7v-3.9l.1-8c.1-5.3.2-10.6.4-15.9 0-.4-.6-.4-.6 0" fill="#414141"/>
    <path d="M141.05 226.56c-.84 6.67-1.2 13.4-1.05 20.12 0 .4.63.4.62 0-.14-6.72.2-13.45 1.06-20.12.05-.4-.58-.4-.63 0" fill="#414141"/>
    <path d="M140.15 246.06c-5.28.14-10.56.22-15.85.24-2.6 0-5.2 0-7.82-.02-2.07-.02-4.27-.28-6.32.05l.4.3c-.18-3.3.46-6.65.6-9.94.15-3.4.12-6.7-.05-10.1l-.2.3c1.9-.4 3.7 0 5.7.2 2.7.2 5.4-.1 8.1-.2 5.5-.3 11.1-.3 16.6-.5.4 0 .4-.7 0-.7-5.6.2-11.3.2-16.9.4-2.7.1-5.3.4-8 .1-1.3-.2-2.7-.5-4-.4-.4 0-.9.1-1.3.2-.1 0-.2.2-.2.3.2 3.4.2 6.7.1 10.1-.1 3.2-.8 6.6-.6 9.9 0 .2.2.3.4.3 2.1-.3 4.4 0 6.6 0h7.8c5.2 0 10.3-.1 15.5-.3.4 0 .4-.6 0-.6" fill="#414141"/>
    <path d="M138.85 228.16l-.37 15.35c0 .4.6.4.62 0l.38-15.3c0-.4-.62-.4-.63 0" fill="#414141"/>
    <path d="M138.92 243.37c-8.95.82-18 .95-26.98.33l.32.3 1.02-15.55-.32.3c8.62-.15 17.25-.3 25.87-.4.4 0 .4-.62 0-.62-8.62.1-17.25.24-25.87.4-.17 0-.3.15-.3.32-.35 5.2-.7 10.38-1.03 15.56 0 .2.16.4.3.4 8.98.6 18.04.5 27-.3.38 0 .4-.6 0-.6" fill="#414141"/>
    <path d="M107.9 222.36c11.83.06 23.67.1 35.5.17l-.5-.52-.5 32.3.53-.5c-6-.1-12-.3-18-.5-5.94-.1-11.88-.1-17.78.5l.52.5c.2-9.4.43-18.9.64-28.4l.1-4c.1-.6-1-.6-1 0l-.6 28.4-.1 4.1c0 .3.3.6.6.5 5.9-.6 11.9-.6 17.8-.5l18 .6c.3 0 .5-.2.6-.5l.5-32.3c0-.2-.2-.5-.5-.5l-35.5-.1c-.6 0-.6 1.1 0 1.1m-53.4-35.8c.9-1.7 1.8-3.2 3.5-4.2 1.4-.8 3-1.2 4.6-1.6 1.7-.4 3.7-.6 5.1.7 1.2 1.1 1.5 2.9 1.8 4.4.1.4.7.2.6-.2-.3-1.6-.7-3.4-2-4.6-1.3-1.2-3-1.3-4.7-1-1.9.3-3.8.9-5.5 1.8-1.9 1.1-2.9 2.7-3.9 4.6-.2.4.4.7.5.3m-.4 4.9c.5 1.6 1 3.3 2.4 4.4 1.4 1.2 3.5 1.1 5.3.8 2.6-.3 7.9-1.9 7.5-5.4 0-.4-.6-.4-.6 0 .4 3.1-4.6 4.5-6.9 4.9-1.5.2-3.3.4-4.6-.5-1.4-.9-1.9-2.7-2.3-4.2-.1-.3-.7-.2-.6.2m-23.1 23.3c2.4.4 4.8.2 7.2 0l7.6-.4c.1 0 .1-.2 0-.2l-7.3.5c-2.4.2-4.9.4-7.3 0-.1 0-.2.2-.1.2M46 215c.54 3.77-.1 7.56-.1 11.34-.05 3.76.7 7.56 0 11.3-.06.13.14.18.2.05.65-3.8-.1-7.6-.04-11.4.05-3.8.66-7.6.1-11.4 0-.2-.2-.1-.2 0" fill="#414141"/>
    <path d="M46.08 237.6c-5.08.45-10.18.52-15.27.18-.1 0-.1.2 0 .2 5.1.35 10.2.28 15.3-.18.2-.02.2-.22 0-.2M31 214.88c-.32.8-.3 1.64-.2 2.5.08.9.15 1.82.14 2.74 0 1.95-.33 3.86-.5 5.8-.37 3.88-.14 7.8.1 11.7 0 .12.2.12.2 0-.23-3.84-.45-7.68-.1-11.5.15-1.9.5-3.78.52-5.7.04-.92 0-1.85-.1-2.78-.1-.92-.18-1.83.17-2.7.05-.13-.15-.18-.2-.06m-.17 27.34c5.1-.58 10.27-.58 15.37 0 .13.03.13-.18 0-.2-5.1-.6-10.27-.6-15.38 0-.13 0-.13.22 0 .2" fill="#414141"/>
    <path d="M46.24 242.2c-.08 1.3-.32 2.6-.34 3.9-.03 1.3 0 2.6 0 3.9l.06 7.8c0 .13.2.13.2 0 0-2.6-.03-5.2-.04-7.8 0-1.27-.04-2.54-.02-3.8.03-1.35.27-2.66.35-4 0-.12-.2-.12-.2 0m-15.7.06c0 5.18.15 10.36.4 15.54 0 .13.2.13.2 0-.24-5.18-.37-10.36-.38-15.54 0-.13-.2-.13-.2 0m18.7.24c8-.96 16.1-.42 24.14-.18l7 .2c.2 0 .2-.2 0-.2l-12.1-.37c-4-.12-8-.26-12.1-.14-2.2.1-4.5.3-6.8.5-.1.1-.1.3 0 .2m31.5 16.2c-2-.2-4.1.1-6.1.2s-4.1.2-6.1.2c-4.1 0-8.2-.1-12.2-.5-2.3-.2-4.6-.4-6.9-.7-.1 0-.1.2 0 .2 8.1 1.1 16.3 1.5 24.4 1.1 2.3-.1 4.7-.4 7-.2.1 0 .1-.2 0-.2m-32-20.9c8.2.4 16.4.5 24.5.3 2.3 0 4.6-.1 6.9-.2.2 0 .2-.2 0-.2-8.1.4-16.3.5-24.5.3-2.3 0-4.6-.1-6.9-.2-.1 0-.1.2 0 .2m31.4-22.7c.3 3.8.3 7.7.2 11.5-.1 1.9-.2 3.8-.4 5.6-.1 1.8-.2 3.6.1 5.4 0 .2.2.1.2 0-.3-1.8-.2-3.7-.1-5.5.2-1.8.3-3.7.4-5.6.2-3.7.1-7.5-.1-11.2 0-.1-.2-.1-.2 0m-31.7-.3c8.3-.4 16.5-.5 24.7-.2 2.4.1 4.7.2 7 .4.2.1.2-.2 0-.2-8.2-.5-16.4-.7-24.7-.4l-7 .3c-.1 0-.1.2 0 .2m-.3.3c.5 7.4.6 14.9.4 22.3 0 .1.2.1.2 0 .2-7.4 0-14.9-.4-22.3 0-.1-.2-.1-.2 0M31.4 175c13.2-.3 26.4-.4 39.5-.4 3.7 0 7.5.1 11.2.1.2 0 .2-.2 0-.2-13.1-.1-26.3 0-39.5.2-3.7.1-7.4.1-11.1.2-.1 0-.1.2 0 .2" fill="#414141"/>
    <path d="M48.48 174.6c-.2 8.68-.38 17.37-.57 26.06l-.1 7.45c0 .2.2.2.2 0l.6-26 .2-7.4c0-.1-.2-.1-.2 0m6 73c1.3-.9 3.3-.5 4.3.6 1.2 1.2 1 3.8-.3 4.8-1.1.8-3.4.5-4.2-.5-1-1.2-1.1-3.6.3-4.6.3-.2 0-.7-.3-.5-1.6 1.2-1.7 3.7-.7 5.3 1 1.5 3.7 2 5.2 1.1 1.7-1 2-3.8.9-5.4-1.1-1.5-3.7-2.2-5.3-1-.3.3 0 .8.3.6" fill="#414141"/>
    <path d="M56 247.84c-1.38.1-2.12 1.92-1.9 3.16.24 1.5 1.82 1.76 3.02 1.2 1.36-.65 1.98-2 1.2-3.35-.72-1.2-2.13-1.76-3.22-.67-.3.3.15.73.44.44.8-.8 1.74-.3 2.23.55.55.96.2 1.84-.73 2.36-.9.5-2.28.53-2.36-.82-.04-.7.4-2.1 1.33-2.2.4 0 .4-.6 0-.6m-19.4-.6c1.4-.5 3.8-.8 4.5.7.7 1.4 1.1 3.6-.4 4.5-1.2.8-3.2.8-4.2-.3-1-1-1.5-4 0-4.8.4-.2.1-.7-.3-.5-1.7.9-1.4 3.9-.5 5.3 1.1 1.7 3.5 1.9 5.2 1.1 2.1-1 1.9-3.5 1-5.4-.8-1.9-3.5-1.8-5.2-1.1-.3.2-.2.8.2.6" fill="#414141"/>
    <path d="M38.83 247.7c-1.27-.1-2.4.83-2.48 2.13-.1 1.27.9 1.94 2.06 2 1.1.03 2.4-.63 2.3-1.86 0-.63-.5-1.1-.8-1.6-.3-.44-.4-.8-1-.7-.4.06-.2.66.2.6.3-.03 1 1.37 1.1 1.58.2.95-.8 1.38-1.6 1.34-.9-.1-1.6-.6-1.4-1.5.2-1 1-1.5 1.8-1.4.4 0 .4-.6 0-.6M36.2 222c1.7.03 3.4.12 5.06.2l-.3-.2c.3 1.7.5 3.42.6 5.15.1.6.4 1.7-.3 2-.6.2-1.7.1-2.32.1-.6 0-1.6.2-2.14-.06-1-.4-.8-1.8-.85-2.7-.03-.8-.1-1.7-.1-2.5s-.1-1.8.6-2.4c.37-.3-.1-.7-.4-.5-.6.4-.7 1.1-.73 1.8-.06 1.2 0 2.4.06 3.6.03.7.08 1.4.15 2 .06.2.06.5.2.7.4.5 1.55.3 2.1.3 1.17 0 2.34-.1 3.5-.2.57-.1.9 0 1.04-.6.15-.6-.02-1.3-.05-1.9l-.15-1.8c-.1-1.3-.3-2.5-.5-3.7 0-.2-.16-.3-.3-.3l-5.05-.3c-.4 0-.4.6 0 .6" fill="#414141"/>
    <path d="M35.88 224.3c1.88.2 3.73.17 5.6-.1.4-.05.22-.65-.17-.6-1.8.26-3.6.28-5.4.1-.4-.05-.4.57 0 .6m34.3 24c1.4-.54 3.4-1.24 4.6.02 1.2 1.24.9 3.23-.5 4.17-1.2.8-3 .7-4-.4s-.8-3 .5-3.8c.4-.2.1-.8-.3-.6-1.5.9-1.9 2.9-.9 4.4 1.1 1.5 3.3 1.9 4.9 1 1.6-1 2.4-3 1.5-4.6-1.2-2.2-3.8-1.7-5.7-.9-.3.1-.2.7.2.6" fill="#414141"/>
    <path d="M72.27 248.17c-1.08.27-1.8 1.36-1.68 2.47.1 1.1 1.1 1.87 2.2 1.5 1-.3 1.9-1.47 1.7-2.54-.2-1.18-1.4-1.82-2.5-1.48-.4.12-.3.72.1.6.8-.25 1.7.24 1.7 1.16 0 .68-.6 1.4-1.3 1.64-.9.33-1.6-.34-1.5-1.18 0-.74.5-1.4 1.2-1.57.4-.1.2-.7-.2-.6m-5.6-23.27c1.7.23 3.4.24 5.1.16l2.4-.14c.3-.02.8-.15 1.1-.07.3-.15.5-.06.4.28.1.23 0 .4-.2.48-.5.5-2.1.4-2.7.4-.8.1-1.6.1-2.5.1-.8.1-1.7.1-2.5.1-.2 0-1.1.2-1.2 0-.3-.2-.1-1.1-.1-1.4 0-.4-.6-.4-.7 0-.1.6-.3 1.7.3 2.1.3.2.8.1 1.1.1H69c1.28 0 2.57-.1 3.86-.1l2.1-.1c.2 0 .42 0 .6-.2.3-.2.3-1.2.1-1.6-.24-.6-1.2-.3-1.75-.3-2.6.2-5.2.4-7.8 0-.4 0-.4.6 0 .6M50 226l9.67-.23-.3-.3c0 .2.2.7.1.84-.13.5-1 .5-1.34.5l-2.58.3c-.9.1-1.74.1-2.6.1-.4 0-.8.1-1.2 0-1.04-.1-1.3-.5-1.3-1.5 0-.4-.6-.4-.63 0 0 .8.1 1.8 1 2.1.55.2 1.2.1 1.76.1l2.6-.1c1.4-.1 3 0 4.33-.4 1-.3.5-1 .5-1.8.1-.2-.1-.3-.3-.3l-9.6.3c-.4 0-.4.6 0 .6" fill="#414141"/>
    <path d="M51.18 224.78l-.45-2.6-.3.4c3.87.18 7.75.25 11.62.22l-.3-.23c.65 4.3.92 8.66.82 13.02l.4-.3c-3.82-1.2-7.82.5-11.64-.6l.22.3-.63-8.6c-.03-.4-.65-.4-.62 0l.63 8.6c0 .1.1.2.23.3 3.83 1.1 7.83-.6 11.64.5.2 0 .4-.1.4-.3.1-4.5-.2-8.9-.85-13.2-.02-.2-.17-.3-.3-.3-3.87 0-7.75-.1-11.62-.2-.22 0-.33.2-.3.4l.45 2.6c.07.4.67.2.6-.2m15.46.1l.12-3.3c.02-.4-.6-.4-.62 0l-.12 3.3c-.02.4.6.4.62 0" fill="#414141"/>
    <path d="M66.54 221.93c3.84.05 7.68.05 11.53.02.4 0 .4-.62 0-.62-3.85.03-7.7.02-11.53-.02-.4 0-.4.7 0 .7" fill="#414141"/>
    <path d="M77.82 221.93c.32 2.25.1 4.6.2 6.87.1 2.25.32 4.5.62 6.75.05.4.67.4.62 0-.32-2.38-.53-4.76-.63-7.15-.08-2.2.1-4.45-.2-6.64-.07-.4-.67-.22-.6.17" fill="#414141"/>
    <path d="M66.1 226.36c.16 3.22-.04 6.45.06 9.67 0 .18.14.3.32.3 4.1.33 8.22.23 12.3-.3.4-.04.4-.67 0-.62-4.08.6-8.2.7-12.3.4l.3.3c-.1-3.2.1-6.4-.05-9.6 0-.4-.64-.4-.62 0m-24.2-29.7c-1.3-2.3-2.6-4.7-3.8-7.2l-.8-1.7c-.2-.4-.3-1-.6-1.3-.3-.4-.9-.4-1.3 0-1.3 1.3 1.2 3.8 1.8 4.8 1.5 2.2 2.4 4.7 3.4 7.2.2.3.8.2.6-.2-.6-1.7-1.3-3.5-2.1-5.1-.8-1.6-2-3-2.9-4.6-.1-.2-.1-.3-.2-.5.3-1 .5-1.2.7-.5.3.4.5 1 .7 1.5.4 1 .9 1.9 1.3 2.8.9 1.9 1.9 3.7 3 5.5.2.4.7.1.5-.3" fill="#414141"/>
    <path d="M42.38 197.85c-1.52-.27-3 .76-3.16 2.34-.14 1.4 1.05 3.4 2.7 3.1 1.56-.3 2.72-2.1 2.5-3.6-.22-1.5-1.74-2.5-3.14-2-.38.1-.2.7.16.6 1.05-.4 2.13.3 2.34 1.4.2 1-.5 2.3-1.48 2.7-1.3.6-2.44-.9-2.47-2.1-.03-1.3 1.14-2.3 2.4-2.1.38 0 .55-.6.15-.6m-9.1 2.3c-1.45-.8-3.26-.4-4.1 1.1-.82 1.4 0 2.9 1.57 3.2 1.4.3 2.88-.6 3.1-2 .23-1.5-1.06-2.6-2.46-2.4-.4 0-.3.6.1.6 1.1-.2 1.9.9 1.6 1.9-.4 1.1-1.6 1.5-2.6 1.1-.6-.3-1.1-.7-1.1-1.3-.1-.5.1-1 .5-1.3.7-.9 1.9-1.1 2.9-.5.3.2.6-.4.3-.6" fill="#414141"/>
    <path d="M30.76 201.4l.42 1.95c.1.4.7.22.6-.17l-.42-1.94c-.08-.4-.68-.22-.6.17" fill="#414141"/>
    <path d="M30.6 202.72l1.67-.67c.37-.14.2-.75-.16-.6l-1.6.67c-.3.14-.2.75.2.6m38.8-14.12c-1-.22-2-.38-3-.45-.9-.07-2-.23-2.9 0-1 .28-.7 1.54.2 1.8.9.27 1.9.12 2.8.14.9 0 2.1.2 3 0 .9-.2 1.4-1.5.3-1.7-.3-.1-.5.5-.1.6-.1.4-.4.5-.7.5h-1l-1.1-.1-1.5-.1c-.5 0-.9.1-1.3-.4-.3-.3-.3-.5.2-.4h2.1c1 0 2 .2 3.1.4.4 0 .5-.6.1-.6" fill="#414141"/>
    <path d="M52.73 187.3c.87-3.82 4.08-6.38 7.7-7.45 1.83-.53 3.9-.9 5.8-.58 2.03.34 3.3 1.7 3.87 3.64.56 1.9.6 4 .46 6-.13 1.9-.4 4-1.47 5.6-1.2 1.7-3.3 2.1-5.1 2.5-1.8.5-3.8.8-5.6.5-2.2-.4-3.6-1.8-4.5-3.8-.9-1.9-2.1-4.5-1.4-6.5.2-.6-.8-.9-1-.2-.8 2.2.2 4.5 1 6.5.7 1.9 1.8 3.7 3.7 4.6 1.8.9 3.9.8 5.9.5 2.1-.3 4.6-.7 6.4-2.1 1.6-1.2 2.2-3.2 2.6-5.1.4-2.4.4-4.8 0-7.2-.3-1.9-1.2-3.9-3-4.9-1.7-1-3.9-.9-5.8-.6-4.9.7-9.7 3.6-10.9 8.7-.1.7.9 1 1 .3" fill="#414141"/>
    <path d="M52.3 187.84c6.2-.97 12.5-1.44 18.8-1.42l-.53-.5c.08 1.07.1 2.15 0 3.23-.1.74-.17 1.16-1 1.4-.45.12-.98.1-1.43.14l-6.1.3c-2.05 0-4.1 0-6.12-.1-.98-.1-2.03-.1-2.8-.7-.72-.7-.97-1.6-.86-2.5.1-.7-.95-.7-1.04 0-.22 1.8.92 3.5 2.7 4 1.22.3 2.6.2 3.83.2h4.28c2.57-.1 5.36 0 7.9-.6 2.3-.5 1.8-3.9 1.68-5.7 0-.3-.2-.5-.5-.5-6.4-.1-12.7.4-19.1 1.4-.6.1-.3 1.1.3 1" fill="#414141"/>
    <path d="M117.74 235.98c1.37 2.4 2.9 4.73 4.55 6.94 0 .1.1.2.2.23.1.04.2 0 .3-.12 0-.07 0-.15-.1-.22-1.5-2.3-3.7-4.2-4.7-6.8" fill="#FFF"/>
    <path d="M117.65 236.03c.9 1.57 1.85 3.1 2.86 4.6l1.6 2.2c.2.2.5.66.8.34.3-.33-.4-1.13-.6-1.37-.4-.6-.9-1.16-1.3-1.72-1-1.27-2-2.55-2.6-4.1 0-.12-.2-.07-.2.05 1 2.46 2.9 4.22 4.4 6.35.1.1.2.23.3.35.2.14.1.2-.2.2l-.1-.22-.7-.9-1.3-1.9-2.4-3.9c0-.1-.2 0-.1.1" fill="#414141"/>
    <path d="M156.52 235.98c1.37 2.4 2.9 4.73 4.55 6.94.07.1.15.2.26.23.1.04.25 0 .28-.12.1-.07 0-.15 0-.22-1.4-2.3-3.7-4.2-4.6-6.8" fill="#FFF"/>
    <path d="M156.43 236.03c.9 1.57 1.85 3.1 2.87 4.6.5.73 1.03 1.47 1.57 2.2.15.2.48.66.77.34.3-.33-.48-1.13-.66-1.37-.43-.6-.9-1.16-1.36-1.72-1.03-1.27-2.06-2.55-2.64-4.1-.04-.12-.24-.07-.2.05.92 2.46 2.9 4.22 4.36 6.35.06.1.2.23.23.35.15.14.1.2-.15.2l-.17-.22-.7-.9-1.3-1.9c-.86-1.3-1.67-2.6-2.44-3.9 0-.1-.2 0-.1.1" fill="#414141"/>
    <path d="M136.73 236.24l-.73.23c-.13.04-.3.1-.3.25-.02.18.22.27.4.3l1.13.12c.08 0 .17.02.23-.03.1 0 .05-.2 0-.3-.28-.4-.87-.6-1.32-.4" fill="#FFF"/>
    <path d="M136.7 236.14c-.25.08-1.26.22-1.1.7.07.17.27.23.43.26.35.07.72.1 1.07.13.18.02.4.06.5-.14.07-.2-.04-.4-.13-.5-.32-.4-.9-.6-1.36-.4-.1 0 0 .2.1.2.3-.1.7-.1.9.1.1 0 .5.3.3.5l-.4-.1-.4-.1c-.1 0-.4 0-.5-.1-.3-.3.2-.4.3-.4l.5-.2c.1-.1.1-.3 0-.2" fill="#414141"/>
    <path d="M114.6 236.3c-.08.06-.1.18-.04.26.05.08.16.12.25.1.2-.04.4-.3.3-.46-.1-.17-.4-.18-.5 0-.1.15 0 .4.2.43" fill="#FFF"/>
    <path d="M114.55 236.22c-.12.08-.17.24-.1.37s.24.2.4.1c.26-.1.4-.4.25-.7-.15-.2-.52-.2-.66 0-.16.2.03.5.3.6.13 0 .13-.2 0-.2-.1 0-.18-.2-.14-.3.05-.1.2-.1.3-.1.1 0 .07.2 0 .3h-.18c-.06-.1-.14-.1-.06-.2.1-.1 0-.3-.1-.2m38.56.2c.58-.1 1.14-.1 1.7.1l-.02-.2-.7.3h-.52c-.14 0-.23-.1-.27-.2.2.1.3-.1.2-.2-.3-.2-.5.3-.2.5.5.2 1.3 0 1.7-.3.1-.1.1-.2 0-.2-.6-.2-1.1-.2-1.7-.2-.1 0-.1.2 0 .2" fill="#414141"/>
    <path d="M176.03 236.1c-.3-.08-.62.06-.76.3.18.13.38.24.6.2.2-.06.3-.38.12-.48" fill="#FFF"/>
    <path d="M176.06 236c-.35-.08-.7.06-.88.36-.03.05 0 .12.04.14.24.15.6.33.84.1.16-.17.18-.44-.02-.57-.1-.08-.22.1-.1.18.1.1 0 .3-.1.3-.16.1-.38 0-.52-.1 0 .1.02.1.04.2.13-.2.4-.3.64-.2.13.1.2-.1.06-.2m-86.58-74.4c26.3.2 52.58.3 78.88.3h22.4c.4 0 .4-.6 0-.6-26.28 0-52.57 0-78.87-.2l-22.5-.1c-.4 0-.4.6 0 .7" fill="#414141"/>
    <path d="M190.45 161.83c-.86 13.15-1.43 26.3-1.7 39.48l.3-.3h-97.6c-.35 0-1-.1-1.33 0-.03.1-.1 0-.16 0l.32.4c.6-13.3.43-26.6-.53-39.9-.03-.4-.66-.4-.63 0 .97 13.3 1.15 26.6.53 39.9 0 .2.15.3.3.3h95.1c1.24 0 2.62.2 3.86 0h.2c.2 0 .3-.1.3-.3.3-13.2.9-26.3 1.7-39.5 0-.4-.6-.4-.6 0" fill="#414141"/>
    <path d="M88.6 203.7c13.8-.68 27.6.8 41.43.75 7.08-.04 14.14-.4 21.22-.32 6.43.08 12.86.32 19.3.5 7.07.2 14.16.3 21.25-.02.27 0 .53-.2.52-.5-.1-1.8-.2-3.6-.13-5.5.2-4.4.3-8.7.5-13.1.3-8.7.4-17.5.5-26.3l-.7.5.3.2.1-1-82.1.3-23.3.1.1 1 .3-.1c-.2-.1-.5-.3-.7-.5V201c0 .6-.3 1.8 0 2.3.2.28.5.47.8.65.5.4 1-.5.5-.9l-.6-.45.3.44v-43.4c0-.3-.4-.55-.7-.5-.1.06-.2.1-.3.1-.6.16-.5 1.04.1 1.04l82.1-.23h23.2c.6 0 .6-.8.1-1-.1 0-.2-.05-.3-.1-.3-.1-.7.2-.7.5-.1 8.8-.3 17.6-.5 26.34l-.6 13.1c-.1 1.9 0 3.7.1 5.5l.5-.5c-12.7.6-25.4-.2-38.1-.4-7.1-.2-14.1.1-21.1.2-6.9.1-13.9-.2-20.8-.5-7.8-.4-15.6-.6-23.3-.3-.7 0-.7 1.1 0 1m150-30.3c-1.2 2.9-2.4 5.8-4 8.4-1.6 2.5-3.4 4.9-4.9 7.4-3.1 5-5 10.7-7.9 15.9-.1.2-.1.5.1.6 1.1 1 2.3 1.8 3.5 2.6.2.2.6.1.7-.2 2.9-5.5 6.2-10.9 9.6-16.1 1.7-2.6 3.4-5.2 4.8-7.9 1.4-2.8 2.7-5.5 4.2-8.2.2-.3.1-.6-.2-.7-1.5-.9-3.1-1.6-4.9-1.9-.6-.1-.9.9-.3 1 1.7.3 3.2.9 4.7 1.8l-.2-.7c-1.5 2.6-2.8 5.4-4.2 8.1-1.5 2.8-3.1 5.4-4.8 8-3.5 5.3-6.7 10.6-9.7 16.2.2-.1.5-.1.7-.2-1.2-.7-2.3-1.6-3.4-2.5l.1.7c3-5.3 4.9-11.1 8.1-16.3 1.6-2.5 3.5-4.9 5-7.5 1.6-2.6 2.7-5.4 3.9-8.2.3-.7-.7-.9-1-.3" fill="#414141"/>
    <path d="M238.93 173.65c-5.3-2.63-11.8-1.9-16.25 2.08-2.04 1.84-3.58 4.26-4.32 6.9-.9 3.2-1.22 6.75-.08 9.9.6 1.7 1.25 3.46 2.2 5 .36.62.78 1.22 1.34 1.67.58.46 1.5.66 1.85 1.36.3.6 1.2.08.9-.52-.27-.56-.72-.86-1.25-1.15-.87-.5-1.43-1.1-1.95-1.9-1-1.7-1.67-3.5-2.27-5.3-.67-2-.54-3.9-.3-5.9.25-1.9.65-3.7 1.52-5.4 3.38-6.6 11.48-9.2 18.1-5.9.6.3 1.1-.6.5-.9m-10.47 30c3.52.6 7.28 1 10.56-.7 1.6-.8 3-2 4.4-3.1 1.5-1.2 2.6-2.6 3.5-4.3.9-1.7 1.8-3.4 2.2-5.2.4-1.7.3-3.5.1-5.2-.4-3.4-1.8-7.2-4.5-9.4-.5-.4-1.2.3-.7.7 2.7 2.1 3.9 5.7 4.3 8.9.2 1.6.2 3.3-.2 4.9-.4 1.6-1.2 3.1-1.9 4.6-1.5 2.9-4.2 5.2-7.1 6.8-3.1 1.8-6.7 1.4-10 .8-.6-.1-.9.9-.3 1" fill="#414141"/>
    <path stroke="#FFF" d="M19.5 27.5h260v246h-260z"/>
  </g>
</svg>
