<svg width="300" height="300" viewBox="0 0 300 300" xmlns="http://www.w3.org/2000/svg" xmlns:xlink="http://www.w3.org/1999/xlink">
  <defs>
    <path id="a" d="M279.83.05v229.98H0V.05h279.83z"/>
  </defs>
  <g fill="none" fill-rule="evenodd">
    <path d="M228.28 191.98c-.63 7.07-1.4 14.14-2.7 21.13-.6 3.4-1.36 6.8-3.17 9.7-1.8 2.9-4.8 5.2-8.2 5.3l-1.5.9c-46.9 7.5-82.7 4.4-127.7-.3l-5.4-.6c-4.8-.5-8-5.1-9.9-9.5-5.7-12.9-6.3-27.4-6.9-41.6-.9-23.7-1.8-47.5 2.1-70.9 1-5.6 2.2-11.3 5.1-16.2l2.9-2.8c15-3.3 30.5-4.8 45.8-4.4 4.9.2 9.8.5 14.7.8 6 .4 12 .8 18 1.4 20.5 2 40.7 6.3 60.3 12.8 0 0 8.3 4.4 9.9 10.1 3 11 6 22.1 7.3 33.4 1.9 17 1.2 34.1-.3 51.1m52-58.8s-5.2-43-7.5-48.5c-2.4-5.5-10.5-6.6-10.5-6.6l3.4 1.1c-3.5-1.1-200.6-26.8-204.2-26.8-11.9.1-10.5 9.8-10.5 9.8l-.8 15s.4 158.4.8 167.8c.4 9.5 11.8 11.5 11.8 11.5s33.5 0 54.4-.4 160.8-8.6 163.5-10.2c2.8-1.5 5.2-13.8 5.2-13.8 1.2-3.9-5.5-98.9-5.5-98.9" fill="#FFF"/>
    <path d="M247.7 95.93c2.13-1.94 4.6-3.57 7.34-4.4 2.76-.82 5.83-.77 8.4.5 3.66 1.8 5.78 5.7 7.12 9.55.46 1.3.86 2.65 1.07 4.02.6 3.86-.4 8-2.96 10.94-2.57 2.94-6.75 4.5-10.55 3.6-2.16-.52-4.08-1.75-5.9-3.02-1.6-1.1-3.17-2.27-4.25-3.86-1.9-2.76-2-6.32-2.06-9.66 0-2.58 0-5.4 1.7-7.4" fill="#FFF"/>
    <path d="M248 96.2c4.16-3.74 10.38-6.62 15.77-3.55 4.4 2.52 6.93 8.58 7.52 13.42.6 5.54-2.1 11.4-7.6 13.33-2.7.94-5.4.7-7.9-.52-2.4-1.16-5-2.88-6.8-4.86-2.2-2.4-2.6-5.62-2.8-8.74-.1-2.98-.4-6.38 1.5-8.88.3-.4-.4-.8-.7-.4-1.9 2.4-1.8 5.55-1.7 8.44 0 2.9.2 5.94 1.7 8.5 1.5 2.6 4.4 4.5 6.9 5.98 2.5 1.48 5.3 2.23 8.2 1.65 5.7-1.15 9.4-6.38 9.7-12.05.2-3.07-.8-6.1-1.9-8.9-1.1-2.6-2.6-5.1-4.9-6.84-5.8-4.42-13.2-1.45-18 2.87-.4.34.2.9.6.56" fill="#414141"/>
    <path d="M251.22 130.95c2.12-1.94 4.57-3.57 7.32-4.4 2.76-.8 5.83-.76 8.4.5 3.66 1.8 5.78 5.7 7.13 9.55.45 1.3.85 2.65 1.06 4.02.6 3.86-.4 8-2.96 10.95-2.57 2.94-6.75 4.5-10.54 3.6-2.17-.53-4.75-.72-6.57-2-1.58-1.08-2.5-3.3-3.6-4.88-1.88-2.8-2-6.4-2.05-9.7 0-2.6 0-5.4 1.7-7.4" fill="#FFF"/>
    <path d="M251.5 131.23c4.26-3.84 10.68-6.73 16.1-3.36 2.24 1.4 3.8 3.64 4.92 5.98 1.22 2.53 2.22 5.4 2.36 8.23.3 5.68-3 11.32-8.75 12.67-2.55.6-5.1-.05-7.6-.63-1.35-.3-2.73-.72-3.76-1.68-1.02-.94-1.66-2.23-2.36-3.4-.7-1.27-1.5-2.4-1.9-3.85-.4-1.6-.6-3.3-.6-4.9-.1-3-.3-6.4 1.6-8.9.3-.4-.3-.8-.6-.4-1.9 2.4-1.7 5.7-1.7 8.6.1 3 .4 6 2 8.6 1.5 2.3 2.7 4.9 5.4 6 1.4.5 2.9.7 4.4 1 1.5.3 2.9.5 4.4.3 5.9-.7 9.9-5.7 10.5-11.4.4-3.2-.5-6.4-1.7-9.4-1-2.6-2.5-5.2-4.7-7-5.7-4.7-13.3-1.8-18.2 2.6-.4.3.2.9.6.5" fill="#414141"/>
    <path d="M258.82 252.84c-.7 2.13-1.68 4.1-2.96 5.9-.3.43.4.82.68.4 1.32-1.87 2.33-3.9 3.04-6.1.15-.48-.6-.68-.76-.2m-2.46.12c-1 1.9-1.86 3.88-2.55 5.92-.1.48.6.7.8.2.7-1.97 1.5-3.88 2.5-5.72.3-.45-.4-.85-.7-.4m-46.8 4.44c-.2 2-.9 3.83-2.2 5.4.2.13.5.25.7.38l2.6-6.42c.2-.47-.5-.67-.7-.2l-2.6 6.4c-.1.37.4.7.7.4 1.5-1.75 2.3-3.73 2.5-5.97.1-.5-.7-.5-.8 0m-3.2-1c-.9 2-1.5 4-1.7 6.2 0 .5.8.5.8 0 .3-2.1.8-4 1.7-5.9.2-.5-.4-.9-.6-.4m-2.8.4c-.9 2-1.7 4.1-2.4 6.2l.7-.2-.4-.6c-.3-.4-.8.1-.5.5l.5.5c.2.2.6.1.7-.2.6-2.1 1.4-4.1 2.3-6.1.2-.5-.4-.9-.6-.4m-3.2-.9l-3.3 8.3c-.1.4.6.7.8.3l.3-.7c.2-.5-.5-.9-.7-.4l-.3.7.7.3 3.4-8.4c.2-.5-.5-.7-.7-.2m-9.9 2c-1.3 2.1-2.2 4.3-2.6 6.7-.1.5.7.7.8.2.5-2.4 1.3-4.5 2.6-6.6.3-.4-.4-.8-.7-.4m-2.6-.5c-1.3 2.3-2.3 4.7-3.1 7.2-.2.5.6.7.8.2.8-2.5 1.8-4.8 3-7.1.3-.5-.4-.9-.7-.4m-2.9.6l-3 6.7c-.2.5.6.7.8.2l2.3-6.3c.2-.5-.6-.7-.8-.2m-3.6 0l-1.7 4.6c-.3.9-1.1 2.1-.7 3 .1.2.3.2.5.2.3 0 .3-.1.5-.3.1-.2 0-.4-.1-.5l-.1-.1c-.4-.3-.8.4-.4.7l.1.1-.1-.5.5.2c-.2-.3.4-1.3.5-1.7l.6-1.7 1.3-3.6c.2-.5-.6-.7-.7-.2m-8.5 0c-.5 2.3-1.2 4.6-2 6.9-.1.5.6.7.8.2.8-2.3 1.4-4.5 2-6.8.2-.5-.6-.7-.7-.2m-3.4.3l-1.4 7.2c-.1.5.7.7.8.2l1.4-7.1c.1-.5-.6-.7-.7-.2m-3.7.8c-.7 2.3-1.3 4.6-1.8 6.9l.4-.3c-.1-.5-.9-.3-.8.2.1.5.4.6.8.6.2 0 .3-.1.4-.3.6-2.3 1.2-4.6 1.9-6.9.2-.5-.6-.7-.7-.2m-2.4-.3c-.9 2.4-1.7 4.8-2.4 7.2-.1.5.6.7.8.2.7-2.4 1.5-4.8 2.4-7.1.2-.5-.6-.7-.7-.2m-11 1.4c-.8 1.9-1.5 3.9-2.3 5.8-.2.5.5.7.7.2l2.4-5.8c.2-.5-.6-.7-.8-.2m-3.6-.5l-1.8 6.6c-.1.5.6.7.8.2l1.8-6.6c.2-.5-.6-.7-.7-.2m-2.7.1c-1.1 2.2-2 4.4-2.8 6.7-.1.5.6.7.8.2.8-2.2 1.7-4.4 2.8-6.5.2-.4-.5-.8-.7-.4m-3.4.4l-2.3 7.4c-.1.5.6.7.8.2l2.4-7.3c.2-.5-.6-.7-.7-.2m-11.3.3l-1 3.2-.4 1.4c0 .2-.3 1.6-.4 1.7l.6.3v-.1c.2-.5-.6-.7-.7-.2v.5c.1.2.4.3.6.2.6-.3.8-2 .9-2.6l1.2-4.1c.2-.5-.6-.7-.7-.2m-3.8.7l-.6 5.5c0 .5.8.5.8 0l.6-5.5c.1-.5-.7-.5-.7 0m-3.1.1l-1.7 6c-.1.5.6.6.8.2l.2-.7c.2-.5-.6-.7-.7-.2l-.2.7.8.2 1.7-6c.1-.5-.6-.7-.8-.2m-2.7-1c-.2 1.6-.7 3.2-1.3 4.8-.3.8-.7 1.6-1.1 2.4-.2.5-.4.7-.2 1.3.1.2.3.3.5.3.1 0 .1 0 .2-.1l.3-.3v-.2c0-.1-.1-.4-.2-.4l-.1-.1c-.4-.2-.8.5-.4.7l.1.1-.2-.4.1-.1c.2.1.3.2.5.2-.2-.5.7-1.7.9-2.1.2-.6.5-1.2.7-1.8.5-1.4.8-2.8 1.1-4.2.1-.5-.7-.7-.8-.2M47 61.8c-.24-1.67-.03-3.3.6-4.86.5-1.08-1.1-2-1.6-.93-.83 2-1.1 4.1-.8 6.3.2 1.2 2 .7 1.8-.4" fill="#FFF"/>
    <g transform="translate(11 46.318)">
      <mask id="b" fill="#fff">
        <use xlink:href="#a"/>
      </mask>
      <path d="M262.9 203.35c-2 4.27-3.63 8.7-4.85 13.24l1.14-.7c-2.3-.3-4.8 0-7.1.1-5.5.2-10.9.5-16.4.7l-23.7 1.2-28.5 1.5-31.1 1.7-31.3 1.8c-9.7.5-19.3 1.1-29 1.6L67.6 226l-17.56 1c-2.8.16-5.6.26-8.35.47-.5.03-.9.2-1.4.3-2.4.46-4.9-.26-6.8-1.75-1.6-1.27-2.5-2.97-3.7-4.4-1.1-1.2-2.4-2.2-3.8-3.07-2.9-1.73-6.1-2.77-9.3-3.96-3.4-1.3-6.7-2.8-9.2-5.5-2.7-2.8-4.1-6.5-4.9-10.2-.9-3.8-1.1-7.7-1.1-11.5 0-4.9.2-9.7.4-14.6 1-20.1 3.4-40 6-60 2.4-19.9 5-39.7 6.1-59.7.5-9.5.1-19.5 5.6-27.7 2.4-3.8 5.5-7.1 9-10 3.4-2.8 7-5.5 9.7-9 1-1.3 1.9-2.4 3.4-3.2 1.3-.7 2.6-1.1 4-1.4 2.1-.4 4.1-.4 6.2-.4.2 0 .4-.1.7-.1h2c4.4.1 8.9.6 13.4 1 7.4.7 14.7 1.6 22.1 2.5 9.3 1.3 18.7 2.5 28 3.7 10.4 1.3 20.8 2.7 31.2 4.2 10.5 1.4 20.9 2.9 31.4 4.4 9.8 1.4 19.5 2.8 29.2 4.3 8 1.2 16 2.4 24 3.7 5.3.8 10.7 1.7 16 2.7 1.4.3 2.8.5 4.2.9l.6.2c.2 0 .5.1.2 0l2.4.8c1.2.4 1.8.5 2.6 1.3 2.9 2.8 4.1 6.9 4.9 10.8 1 5.1 1.4 10.3 1.9 15.5l3 30.5c2 20.4 3.8 40.9 5.4 61.4.7 10.2 1.4 20.4 2 30.6.2 4.7.5 9.5-.7 14-.9 3.2-2.3 6.1-5.6 7.3-2.9 1-6 1.1-9 1.6l-3 .6c-2.3.3-4.6.4-6.9.5l-30 2.3c-20.2 1.5-40.5 2.8-60.7 3.8-20.4 1.1-40.7 1.9-61 2.4-5 .1-10.1-.2-15.1 0-2.4.1-4.8.6-7.2.6-2.3.1-4.6 0-6.9-.1-4.7-.3-9.5-.4-14.2-.1-1.7.1-3.3.5-5 .6-.2 0-.4-.1-.6-.1-3.4-.6-6.8-1.9-9.6-3.8-4.7-3.2-6.9-8.2-6.9-13.8 0-4.3.1-8.6.1-12.9V15.5c0-1.2-1.9-1.2-1.9 0v54.4L33 102v84c0 2.4 0 4.8-.1 7.2 0 2.9-.2 5.7.4 8.5 1.9 8.3 9.8 13.3 17.8 14.5.3.1.5.1.8.1 1.2 0 2.4-.3 3.5-.4 1.3-.1 2.5-.2 3.8-.2 4.8-.1 9.5.1 14.3.3 4.9.2 9.6-.6 14.5-.6 5.1 0 10.3.1 15.4 0 20.6-.5 41.2-1.4 61.8-2.5 20.4-1.1 40.8-2.4 61.2-3.9 10.2-.7 20.4-1.5 30.6-2.3 2.5-.2 4.9-.8 7.5-1.1 2.9-.4 6.1-.7 8.7-2.3 2.7-1.7 4.1-4.8 4.9-7.8 1.1-4.4.9-9 .7-13.5-.6-10.4-1.3-20.8-2-31.1-1.6-20.8-3.5-41.6-5.5-62.3-1-10.3-2-20.6-3.1-30.8-.5-5.03-.9-10.13-1.9-15.1-.7-3.7-1.9-7.6-4.4-10.5-.8-1-1.8-2.1-3-2.5-1.1-.32-2.1-.7-3.2-1l-.3-.1c-.2 0-.3-.1-.4-.12l-.5-.14c-1.3-.4-2.6-.65-3.9-.9-5.2-1.06-10.6-1.9-15.9-2.8-8-1.3-16-2.56-24-3.8-9.8-1.5-19.6-2.9-29.4-4.34l-32-4.5C139 10.5 128.5 9.1 118 7.7c-9.4-1.3-18.87-2.5-28.3-3.65-7.2-1-14.6-1.9-22-2.66C63.82.6 59.4.1 55 0c-.55 0-1.08 0-1.6.04h-.68c-.25 0-.5 0-.73-.04-5.2-.2-10.8.8-14.1 5.1-2.8 3.6-6.5 6.3-9.9 9.12-3.4 2.82-6.4 6.03-9 9.66-2.7 3.9-4.4 8.1-5.2 12.7-.8 4.6-.9 9.2-1.1 13.8-1 20.3-3.5 40.4-6 60.5-2.6 20.2-5.1 40.4-6.2 60.8-.5 8.64-1.3 17.7.2 26.3 1.2 7.4 4.9 13.7 11.8 17 3.1 1.5 6.5 2.5 9.7 3.9 1.6.73 3.2 1.56 4.6 2.66 1.4 1.17 2.3 2.64 3.5 4.05 1.9 2.4 4.5 4.1 7.6 4.4.9.1 1.9 0 2.8-.1.2-.1 1.2-.3.7-.2 2.4-.3 5-.2 7.4-.4 5.7-.3 11.4-.6 17.1-1l24.3-1.4 29.2-1.7 31.5-1.8 31.4-1.8 29-1.6c8-.4 16-.9 23.9-1.3 5.5-.3 11.1-.6 16.6-.8l4.6-.1h1.9c.5 0 1-.2 1.1-.7 1.2-4.4 2.7-8.7 4.6-12.8.5-1.1-1.1-2-1.6-.9" fill="#FFF" mask="url(#b)"/>
    </g>
    <path d="M71.94 273.8c-.2 2.2-.22 4.4-.1 6.63.03.38.28.8.7.88 3.02.7 6.07.7 9.12.1.28 0 .6-.3.64-.6l1.28-7.5c.2-1.1-1.58-1.6-1.77-.5l-1.2 7.5.7-.6c-2.7.6-5.4.5-8.1-.1l.7.9c-.1-2.2-.1-4.4.1-6.6.1-1.1-1.7-1.1-1.8 0m180.2-9.2c.2 1.5.2 3 0 4.5l.9-.9c-1.6.1-3.3.1-4.9.1-1.1 0-1.2-.3-1.1-1.4v-2.4c0-1.2-1.8-1.2-1.8 0 0 1.5-.7 4.5 1 5.3.8.5 1.9.4 2.8.4 1.4.1 2.8 0 4.2 0 .6 0 .9-.4.9-.9.2-1.6.2-3.3-.1-4.9-.1-1.1-1.9-.7-1.7.5" fill="#FFF"/>
    <path d="M246.77 268.43c-4.78-1.66-10.06-1.77-15.06-2.26l-15.9-1.56c-1.2-.1-1.1 1.8 0 1.9l15.5 1.5c5 .5 10.3.6 15.1 2.3 1.1.4 1.6-1.4.5-1.7m-173.1 11c-5.9-1.6-11.7-3.5-17.3-5.8-1.1-.4-1.5 1.4-.4 1.8 5.7 2.3 11.5 4.2 17.4 5.9 1.2.3 1.7-1.4.5-1.7m-22.8-23.1c-4.1-.4-8.4-1.1-12.3-2.6-1.3-.5-2.4-1.2-3.1-2.5-.6-1.1-.7-2.5-.7-3.8.1-.8.3-1.7.4-2.5.2-2.4 0-4.9 0-7.2l.1-16.6.2-23.3.2-27.2c.1-9.4.1-18.7.2-28.1.1-8.7.1-17.4.2-26.1l.2-21.6.2-14.1c0-1.1 0-2.2.1-3.3v-.6c.1-1.1.6-3.1.7-4.6.1-1 0-2.1-.1-3.1 0-.4 0-.4.1-.8.5-2.2 1.8-5.1 3.7-6.5.4-.3 0-.9-.4-.6-1.9 1.4-3 3.9-3.8 6-.4 1-.4 1.4-.3 2.4.3 2.4-.2 4.6-.6 7-.1.7-.1 1.3-.1 2 0 3.9-.1 7.7-.1 11.6l-.2 20.1-.2 25.9c0 9.5-.1 18.9-.2 28.4 0 9.3-.1 18.7-.2 28.1 0 8.2-.1 16.4-.2 24.6l-.1 18.4-.1 9.1c0 .2-.1.6 0 .4-.3 1.8-.6 3.5-.1 5.4.6 2.4 2.3 3.6 4.5 4.4 2.6 1 5.3 1.5 8 1.9l4.2.6c.5 0 .5-.8 0-.8" fill="#FFF"/>
    <path d="M36.66 63.1c-1.04.57-1.48 1.92-1.8 2.97-.55 1.87-.8 3.83-1.02 5.76-.5 4.6-.6 9.28-.6 13.9 0 2.5.07 5 .06 7.5l-.07 13.48c-.04 7.4-.08 14.7-.1 22l-.15 27-.14 28.5-.14 26.6-.1 21.3-.07 12.3v1.7c-.05 1.6-.1 3.3 0 4.9.04.9.07 1.9.4 2.7.3.7.77.8 1.45 1 2.25.8 4.92 1.7 7.3 1.4.5 0 .3-.8-.2-.7-1.42.2-3-.2-4.35-.6-.65-.1-1.3-.3-1.93-.5-.35-.1-1.1-.2-1.37-.4-.56-.5-.5-2-.53-2.7-.06-1.1-.06-2.2-.04-3.3.02-.8.05-1.6.05-2.4l.1-10.5.1-19.5.2-25.3.2-27.8.2-27.1.2-23 .1-15.8v-5.6c-.1-3.3-.1-6.5 0-9.8.1-4.4.2-9.1 1.3-13.5.3-1.1.6-2.8 1.7-3.3.5-.3.1-.9-.4-.7" fill="#FFF"/>
    <path d="M13.23 201.63c-.15.67-.1 1.42-.1 2.1 0 1.6.02 3.18.06 4.76.1 4.7.3 9.4.6 14.1.4 5.1.8 10.2 1.7 15.3.5 3.4 1.1 7.4 3 10.3 1.4 2.1 4.3 2.8 6.6 3.6 2.7.9 5.5 1.7 8.3 2.2.5.1.7-.7.2-.8-2.2-.4-4.3-.9-6.4-1.6-2.1-.7-4.2-1.4-6.1-2.4-.7-.3-1.3-.6-1.7-1.2-2.1-2.5-2.6-6.6-3.1-9.6-1.8-9.5-2.3-19.3-2.6-28.9-.1-1.8-.1-3.7-.1-5.5 0-.8-.1-1.9 0-2.6.1-.5-.7-.7-.8-.2m34.3 54.9c.3 3.5.7 6.9 1 10.4.2 1.5.3 3.1.5 4.7.1 1.3.4 2.8 1.9 3.3.5.1.7-.6.2-.8-1.3-.5-1.3-2.1-1.4-3.3l-.5-5.2-.9-9.2c-.1-.5-.9-.5-.8 0M61 16c-.76 0-1.87.7-1.54 1.6 0 .26.3.45.5.6 1 .9 2.1 1.7 3.12 2.56 4 3.2 8.2 6.2 12.4 9.3 9 6.6 18 13.16 27.1 19.7.8.6 1.7 1.44 2.6 1.9.6.3 1.5.22 2.14.3l4 .5c.42 0 .5-.6.2-.8l-17.1-12-27.17-19-6.2-4.3c-.4-.3-.8.4-.4.7l17.2 12L105 48.2l6.2 4.4.2-.7-3.1-.36-2-.23c-.2 0-1-.2-.7 0-.6-.3-1.1-.8-1.6-1.1L94.48 43c-9.1-6.68-18.27-13.3-27.3-20.1-1.7-1.24-3.38-2.5-5-3.8-.5-.4-2.9-1.93-.96-2 .5 0 .5-.8 0-.78" fill="#FFF"/>
    <path d="M61.78 16.9c.75-.74.27-1.8-.57-2.2-.9-.5-2.4-.68-3.3.06-1.9 1.54-.1 4.44 2.1 3.56.5-.18.3-.95-.2-.76-1.2.5-2.5-.75-1.7-1.94.4-.57 1.1-.6 1.8-.5.5.06 2.2.47 1.4 1.22-.3.36.2.92.6.56m6 6.06c0 .38.1.75.3 1.1.1.14.3 0 .2-.14-.1-.3-.2-.62-.2-.96 0-.17-.2-.17-.2 0m37 26.7l-.2 1.02c0 .16.2.23.3.07l.3-1.03c.1-.17-.2-.24-.2-.07m-21.6-15.4c0 .44.1.85.2 1.25.1.15.3.08.3-.07-.1-.38-.2-.76-.2-1.17 0-.17-.2-.17-.2 0" fill="#FFF"/>
    <path d="M58.34 15.7c-.22.34-.2.8.1 1.1.3.3.76.32 1.1.1.14-.1 0-.32-.14-.23-.23.16-.57.15-.78-.06-.2-.2-.2-.5-.05-.7.1-.1-.14-.2-.23-.1m-11.9 240.8c-.44 6.1.03 12.2 1.4 18.1.03.2.3.1.25 0-1.4-5.9-1.9-11.9-1.4-17.9 0-.1-.3-.1-.3 0m-1.9-.3c-.3 3-.4 6-.3 9.1 0 1.5.2 3 .3 4.5l.2 2c.1.8.4 1.6.4 2.4l.2-.1v-.1l-.3.1c.1.2.3 0 .2-.1-.1-.1-.3 0-.3.1 0 .2.2.1.2 0 0-.6-.2-1.2-.3-1.8l-.3-2.3c-.2-1.5-.3-3-.4-4.6-.2-3-.1-6 .3-9 0-.1-.3-.1-.3 0m-3.3-.2c.3 4.8.3 9.6.1 14.5 0 .2.2.2.2 0 .2-4.8.1-9.6-.1-14.5 0-.1-.3-.1-.3 0M26 252.6v4.4c-.1 1.56 0 3.17-.3 4.7h.3l-.1-.44c-.06-.2-.3-.1-.27.05l.1.4c.04.1.24.1.26 0 .2-1.5.2-3 .2-4.5l.2-4.9c0-.2-.3-.2-.3 0m1.3.4L27 258c-.1.9-.1 1.8-.2 2.6 0 .5-.1.9-.1 1.4 0 .2 0 .2.1.4.1.1.1.1.2 0 0 0 .1-.1 0-.2s-.34 0-.25.2c.03 0 .04.1.05.1l.1-.2.1.1v-.4l.05-.5.1-1.2.17-2.5.3-4.9c.04-.2-.2-.2-.23 0m1.8-.1c-.3 3.5-.4 7.1-.4 10.6 0 .2.2.2.2.1l.1-.4c0-.2-.2-.2-.3-.1-.1.1-.1.3-.2.4h.2c-.1-3.6 0-7.1.3-10.6 0-.2-.3-.2-.3 0m1.7.8c-.1 3.6-.3 7.2-.7 10.9 0 .1.2.1.3 0v-.4c0-.2-.3-.2-.3 0l-.1.4h.3c.4-3.7.6-7.3.7-10.9 0-.2-.3-.2-.3 0m3.1.3c-.3 1.7-.1 3.4-.2 5.1 0 1.8-.1 3.6-.4 5.4 0 .2.2.2.3.1l.1-.1c.1-.12-.1-.3-.2-.2l-.2.16.2.1c.2-1.7.3-3.5.4-5.2 0-1.8-.2-3.6.2-5.3 0-.2-.2-.3-.3-.1m1.4 1.03v7.6l-.1 1.3c0 .4.1 1.1-.3 1.4-.2.1 0 .3.1.2.5-.4.4-1.1.4-1.6l.1-3 .1-6c0-.2-.3-.2-.3 0m1.6.8v5.5l-.1 2.7v1.1l-.2.7c0 .1-.3.9-.3.9.1 0 .1-.3 0-.3s-.1 0-.1.1c-.1.1-.1.1 0 .2h.1c.4-.1.6-1 .6-1.4.1-1 .1-2.1.1-3.1v-6.8c0-.2-.3-.2-.3 0m1.3 0c.2 4.2.4 8.4-.4 12.5l.2-.1c.1-.1-.1-.3-.2-.2-.2.1-.1.3 0 .4 0 0 .1 0 .2-.1.7-4.2.5-8.4.3-12.6 0-.2-.3-.2-.3 0m1.1.4c.3 2.2.5 4.3.5 6.5.1 2.3-.2 4.5-.6 6.8 0 .2.3.2.3.1.3-2.2.6-4.4.6-6.6 0-2.3-.2-4.6-.5-6.8 0-.2-.3-.2-.2 0m-14.7-4l-.2 4c-.1.7-.1 1.3-.1 2-.1.6-.3 1.4-.1 2.1-.1-.2-.3-.1-.3 0s0 .1.1.1h.1l.1-.1c.2-.4.1-1 .1-1.4l.1-2.3c.1-1.5.1-3 .2-4.5 0-.2-.3-.2-.3 0m-1.5-.6c-.1 2.6-.3 5.3-.4 8 0 .1.2.1.2 0 .2-2.7.3-5.4.5-8 0-.2-.3-.2-.3 0m-1.5-.5l-.3 8.1h.2v-.5c0-.2-.2-.2-.2 0v.4c0 .2.3.2.3 0l.4-8.1c0-.2-.2-.2-.2 0m-1.5-.3c-.1 2.5-.3 4.9-.4 7.4h.2v-.7c.1-.1-.1-.3-.2-.1-.1.3-.1.5-.1.8.1.1.3.1.3-.1.1-2.5.3-5 .4-7.5 0-.1-.3-.1-.3 0m-1.9-1.7c0 1.1 0 2.2-.1 3.3 0 .5 0 1-.1 1.5l-.1 1.9c.1 0 .1-.3-.1-.3l-.1.1c0 .1 0 .1.1.2h.2c.2-.3.2-.8.2-1.1 0-.6.1-1.2.1-1.8 0-1.3.1-2.6.1-3.9 0-.2-.3-.2-.3 0m-.8-2.6c0 3-.2 6-.5 9 0 .1.3.1.3 0 .3-3 .4-6.1.5-9.1 0-.2-.3-.2-.3 0m-1-2.2l-.9 7.1h.3v-.3c0-.2-.3-.2-.3 0 0 .1 0 .2-.1.3 0 .2.3.2.3 0l.9-7c0-.2-.3-.2-.3 0m-.3-2.4l-.9 3.1-.6 1.4c-.1.2-.7 1.9-.6 1.9.1 0 .1-.3 0-.3s-.1 0-.2.1 0 .1 0 .2h.1c.3-.1.3-.7.4-.9l.6-1.8 1.4-3.7c0-.2-.2-.3-.3-.1m-.3-1.6c-1 1.5-2 3-3.1 4.4-.1.1.1.3.2.2 1.1-1.4 2.1-2.9 3.1-4.4.1-.2-.2-.3-.3-.2m-.3-1.8c-1.1.9-2 1.8-3 2.7-.1.2.1.3.2.2 1-1 1.9-1.9 2.9-2.7.2-.1 0-.3-.1-.2m-.3-1.7l-2.6 1.6c-.1.1 0 .3.2.2.9-.6 1.8-1.1 2.8-1.7.1-.1 0-.3-.2-.2m-2.9.1c1.1-.6 2-1.2 2.9-1.9.2-.1 0-.3-.1-.2-.8.7-1.8 1.3-2.8 1.9-.1.1 0 .3.2.2m.3-2.2c.8-.4 1.5-.9 2.1-1.5.1-.2-.1-.3-.2-.2-.6.6-1.3 1.1-2.1 1.4-.2.1 0 .3.1.3m-.3-2.1l1.8-1.3c.1-.1 0-.3-.1-.2-.6.5-1.2.9-1.8 1.3-.2.1 0 .3.1.2M11 229c.7-.4 1.3-.9 1.9-1.4.1-.1-.1-.3-.2-.2-.6.5-1.2 1-1.8 1.4-.2.1 0 .3.1.2m.2-2.2l1.6-1.3c.1-.1-.1-.3-.2-.2l-1.6 1.3c-.1.1.1.3.2.2m0-1.9c.6-.2 1-.5 1.4-1 .1-.1-.2-.3-.2-.1-.3.4-.7.7-1.2.9-.2 0-.1.3 0 .2m.2-2l.9-.9c.1-.1-.1-.3-.2-.2l-.9.9c-.1.1.1.3.2.2m0-2.3c.3-.2.6-.3.9-.4.2-.1 0-.3-.1-.3l-.9.4c-.2.1 0 .3.1.2" fill="#FFF"/>
    <path d="M227.85 224.83c3.08-1.46 6.25-2.72 9.5-3.77.15-.05.08-.3-.08-.25-3.26 1.1-6.45 2.4-9.55 3.8-.15.1-.02.3.13.3m1.35-1.7c2.57-1.1 5.18-2.1 7.84-2.9.16 0 .1-.3-.07-.2-2.68.9-5.32 1.9-7.9 3-.15.1-.02.3.14.3m1.3-2.1c2.2-.6 4.3-1.3 6.3-2.1.2 0 .1-.3 0-.2-2 .9-4.1 1.6-6.2 2.2-.1.1-.1.3.1.3m1-1.3l5.8-2.3c.2-.1.1-.3 0-.3l-5.8 2.3c-.1.1-.1.3.1.3m1.1-1.6c1.6-.8 3.3-1.4 5-1.8.2 0 .1-.3 0-.2-1.7.4-3.4 1-5 1.8-.1.1 0 .3.1.3m.2-1.3l4.8-1.8c.2 0 .1-.3 0-.2l-4.8 1.7c-.1.1-.1.3.1.3m0-1.2c1.7-.1 3.3-.6 4.8-1.4.2 0 0-.3-.1-.2-1.4.7-3 1.2-4.6 1.4-.1 0-.1.3 0 .3m.9-.8c1.2-.8 2.5-1.4 3.9-1.8.2-.1.1-.3 0-.3-1.4.4-2.7 1-4 1.8-.1.1 0 .3.2.2m.3-1.7l3.7-1.1c.1 0 .1-.3-.1-.2l-3.6 1.1c-.2.1-.1.3 0 .3m.5-1.3c1.2-.4 2.3-.7 3.5-.9.2 0 .1-.2-.1-.2-1.2.2-2.3.5-3.5.9-.1.1 0 .3.1.3m.2-1.1l3.2-1.2c.2-.1.1-.3-.1-.3l-3.2 1.2c-.1.1-.1.3.1.3m.4-1.6l3.7-1.3c.2 0 .1-.3-.1-.2l-3.7 1.3c-.2.1-.1.3.1.3m.3-1.3l2.6-1.2c.2-.1.1-.3-.1-.2l-2.6 1.2c-.1.1 0 .3.2.2m.2-1.4c1.2-.2 2.3-.7 3.4-1.4.1-.1 0-.3-.2-.2-1 .7-2.1 1.1-3.3 1.4-.2.1-.1.3.1.3m.2-1.2l2.6-1.4c.2-.1 0-.3-.1-.2l-2.6 1.5c-.1.1 0 .3.2.2m.4-1.4c.9-.5 1.9-.8 2.9-1.1.2 0 .1-.3-.1-.2-1 .2-2 .6-3 1-.1.1 0 .3.2.3m0-1.6c.9-.5 1.8-.9 2.9-1.1.2 0 .1-.3 0-.2-1 .2-2 .5-2.8 1.1-.1.1 0 .3.2.3m.1-1.8c.9-.2 1.7-.6 2.5-1.1.2-.1 0-.3-.1-.2-.8.5-1.6.9-2.4 1.1-.2.1-.1.3 0 .3m.4-1.3c.9-.4 1.7-.7 2.7-1 .1 0 .1-.3-.1-.2-1 .2-1.9.6-2.7 1-.2.1 0 .3.1.2m-.2-1.3c.9-.4 1.8-.8 2.7-1.1.2 0 .1-.3 0-.2-1 .3-1.9.7-2.8 1.2-.2.1-.1.3.1.3m.1-1.2l3.2-1.4c.2-.1 0-.3-.1-.2l-3.2 1.4c-.1.1 0 .3.1.2m0-1.2c1-.5 1.9-1 3-1.2.2 0 .1-.3 0-.2-1.1.3-2.1.8-3 1.3-.2.1 0 .3.1.2m.2-1.2c.7-.4 1.5-.6 2.3-.7.2-.1.1-.3-.1-.3-.8.2-1.5.4-2.3.8-.1.1 0 .3.2.2m-.2-1.3l2.7-1c.2-.1.1-.3-.1-.2l-2.6 1c-.1 0-.1.3.1.2m.2-1.4l2.3-1c.2-.1 0-.3-.1-.2l-2.3 1c-.1.1 0 .3.2.2m-.3-.8c.9-.6 1.8-1.1 2.8-1.4.2-.1.1-.3 0-.3-1 .3-2 .8-2.8 1.4-.2.1 0 .3.1.2m-.2-1.4c.9-.5 1.8-1 2.8-1.4.1 0 0-.3-.1-.2-1 .4-1.9.9-2.8 1.4-.2.1 0 .3.1.3m.2-1.4c.9-.3 1.8-.8 2.6-1.3.2-.1 0-.3-.1-.2-.8.5-1.7.9-2.6 1.3-.1.1-.1.3.1.2m.1-1.4c1-.4 1.9-.8 2.8-1.4.1-.1 0-.3-.1-.2-.9.6-1.8 1.1-2.8 1.5-.2.1-.1.3.1.3m.3-1.3c1-.3 1.9-.6 2.9-1.1.1-.1 0-.3-.2-.2-.9.4-1.8.8-2.8 1-.2 0-.1.3.1.2m-.3-1.1l3.3-1.1c.1-.1.1-.3-.1-.3l-3.3 1.1c-.2.1-.1.3.1.3m.5-1.3l2.2-1.3c.2-.1 0-.3-.1-.2l-2.2 1c-.2.1-.1.3.1.3m-.1-1.6c1-.4 2-.8 3-1.3.1-.1 0-.3-.2-.2-1 .5-2 .9-3 1.3-.2.1-.1.3 0 .3m0-1.2c1.1-.3 2.1-.7 3-1.1.2-.1.1-.3-.1-.2-.9.4-1.9.8-2.9 1.1-.2 0-.1.3.1.2m.2-1.5c.9-.4 1.7-.8 2.5-1.3.1-.1 0-.3-.1-.3l-2.8 1c-.1.1 0 .3.2.2m-.2-1.2c1.1-.3 2-.8 2.9-1.5.1-.1 0-.3-.1-.2-.8.6-1.8 1.1-2.8 1.4-.1 0-.1.3.1.2m-.5-1.3l3-1.3c.2-.1 0-.3-.1-.2l-3 1.3c-.2 0 0 .3.1.2m.4-1.4l3.3-1.6c.2-.1.1-.3-.1-.3l-3.3 1.6c-.1.1 0 .3.2.2m-.1-1.5c1.1-.4 2.2-.9 3.3-1.2.2 0 .1-.3-.1-.2-1.1.4-2.3.8-3.4 1.3-.1.1 0 .3.1.2m.6-1.3c1.2-.4 2.3-.9 3.4-1.5.2-.1 0-.3-.1-.2l-3.3 1.5c-.1.1-.1.3.1.3m0-2c.9.1 1.7-.3 2.3-.9.1-.1-.1-.3-.2-.2-.6.6-1.4.9-2.2.9-.2 0-.2.28 0 .3m-1.2-.9c1.1-.4 2.2-.8 3.2-1.4.1-.1 0-.3-.1-.2-1.1.5-2.1 1-3.2 1.3-.2.1-.1.3.1.3m-.2-1.86l3.9-1c.2 0 .1-.3 0-.2l-3.9 1c-.2 0-.1.3.1.2m-.1-.82c1.2-.5 2.5-1 3.8-1.4.2-.1.1-.3-.1-.3-1.2.4-2.5.9-3.7 1.3-.2.1-.1.4.1.3m-.6-1.5c1.4-.4 2.7-1 4-1.7.1-.1 0-.3-.2-.2-1.3.7-2.6 1.2-4 1.7-.2 0-.1.3.1.2m-.7-1.9l4.8-2.1c.1-.1 0-.3-.1-.2l-5.1 2c-.1 0 0 .3.2.2m.7-2.7c1.5-.6 3-1.2 4.4-1.9.1-.1 0-.3-.1-.3-1.5.7-2.9 1.3-4.4 1.8-.2.1-.1.3.1.3m-.6-1.5l4.6-1.5c.1 0 .1-.3-.1-.2l-4.6 1.5c-.2 0-.1.3 0 .2m0-1.7c1.3-.6 2.6-1 4-1.4.2-.1.1-.3 0-.3-1.4.4-2.8.9-4.1 1.4-.2.02-.05.3.1.2m-.2-1.6c1.4-.37 2.8-.8 4.2-1.3.2 0 .1-.3-.06-.2-1.4.5-2.8.9-4.2 1.2-.2.02-.1.3.1.24m-.1-1.4c1.2-.8 2.53-1.4 4-1.6.2-.1.1-.3-.1-.3-1.5.2-2.8.7-4.1 1.5-.1.1 0 .3.2.2m.4-1.7c1.2-.6 2.4-1 3.67-1.2.2-.1.1-.3 0-.3-1.3.3-2.5.7-3.7 1.3-.2.1-.06.3.1.3m-.7-2.1c1.1-.5 2.3-.9 3.5-1.2.1 0 .1-.3-.1-.2-1.2.3-2.4.7-3.5 1.2-.2.1 0 .3.1.2m.1-1.9c1.2-.5 2.4-.9 3.6-1.4.14 0 .1-.3-.1-.2-1.2.4-2.4.9-3.6 1.33-.2.1-.1.3.1.3m-.5-2.1c1.2-.8 2.5-1.4 3.84-1.7.1-.1.1-.3-.1-.3-1.4.4-2.7 1-3.9 1.8-.2.1 0 .3.1.2m-.8-2.1l4.26-1.7c.1-.1.1-.33-.1-.3l-4 1.7c-.1 0-.1.3.1.2m-10-45.1c.4-.3.82-.5 1.32-.63.1 0 .1-.3-.1-.2-.5.1-1 .3-1.5.7-.1.1 0 .3.12.2m-.9-1l1.1-.8c.1-.1.1-.3-.1-.3l-1.4.5c-.2.1-.1.3.1.3m2.3 3.4c1.6-.8 3.3-1.2 5-1.3.2 0 .2-.3 0-.3-1.8.1-3.5.5-5.2 1.3-.1.1 0 .3.2.3m.7 2.2c1.7-.5 3.5-.9 5.23-1.2.2-.1.1-.3 0-.3-1.73.3-3.5.7-5.2 1.2-.17.1-.1.3.1.3m.9 1.8l4.5-.9c.1-.03.1-.3-.1-.3l-4.5.9c-.2 0-.1.3 0 .28m.7 1.6c1.44-.4 2.9-.7 4.35-.8.2 0 .2-.3 0-.2-1.5.1-3 .3-4.4.8-.2.1-.1.3.1.3m.7 1.8c1.3-.4 2.7-.7 4.2-.8.1-.1.1-.3 0-.3-1.5.1-2.9.4-4.3.8-.2 0-.1.3.1.2m0 1.8c1.1-.3 2.4-.5 3.6-.6.2 0 .2-.3 0-.3-1.3.1-2.5.3-3.7.7-.2.1-.1.3 0 .3m.2 1.7l4.6-.6c.2 0 .2-.2 0-.2l-4.6.6c-.1 0-.1.3 0 .3m.8 2.3c1.3-.5 2.7-.8 4.2-.8.2 0 .2-.3 0-.3-1.4.1-2.9.3-4.2.9-.13.1-.1.3.1.3m4.2 28c1.4-.3 2.7-.8 4-1.4.2-.1.1-.3-.1-.3-1.2.66-2.6 1.1-4 1.4-.1 0-.1.3.1.26m0-1.43c1.6-.8 3.2-1.5 4.9-2.1.1 0 .1-.3-.1-.2-1.7.6-3.3 1.3-4.9 2.2-.2 0 0 .3.1.2m-.9-1.7l4.6-1.5c.1-.1.1-.3-.1-.3l-4.6 1.5c-.1 0-.1.3.1.2m.2-1.9c1.3-.6 2.6-1 3.9-1.5.1-.1.1-.3-.1-.3-1.3.4-2.6.9-3.9 1.4-.2.1-.1.3 0 .3m.3-2.2l3.5-1.25c.1 0 .1-.3-.1-.2l-3.5 1.3c-.2.1-.1.3.1.3m-.6-1.6l4-1.3c.2-.1.1-.3-.1-.3l-4.1 1.3c-.1 0-.1.3.1.2m0-1.7c1.4-.4 2.7-1 3.9-1.8.2-.04 0-.3-.1-.2-1.2.8-2.4 1.4-3.8 1.8-.1 0-.1.3.1.2m-.4-1.6l3.9-1.5c.2-.05.1-.3 0-.25l-3.9 1.5c-.1.1-.1.3.1.3m-.5-1.5l4.8-1.5c.2-.1.1-.3-.1-.3l-4.7 1.5c-.2 0-.1.3 0 .2m.4-1.67l4.2-1.4c.1-.1.1-.3-.1-.3l-4.2 1.4c-.2 0-.1.3.1.2m-.2-1.5l3.6-1.1c.2 0 .1-.3-.1-.2-1.2.3-2.3.7-3.5 1.1-.16 0-.1.3.1.2m-.2-1.3c1.3-.6 2.7-1 4.04-1.4.17 0 .1-.3-.1-.2-1.4.4-2.8.8-4.1 1.4-.2.1 0 .3.1.3m-.84-1.6c1.6-.3 3.2-.5 4.8-.8.2 0 .1-.2 0-.2l-4.7.9c-.2 0-.1.3.1.3m.1-.9c1.6-.7 3.2-1.2 5-1.4.1 0 .1-.3-.1-.3-1.8.24-3.5.75-5.1 1.5-.16.1 0 .3.1.2m-.15-1.9c.84-.1 1.64-.2 2.4-.4.47-.1 1.4-.3 1.65-.7v-.2c-.1-.1-.1-.1-.2-.1s-.1 0-.1.1c-.1.1.2.2.2 0 0 .04-.9.3-1.1.34-.2.1-.5.1-.8.2l-2 .3c-.1 0-.1.3 0 .3m-.5-1.4c1.2-.5 2.4-.9 3.63-1.1.2-.1.1-.3 0-.3-1.2.3-2.5.7-3.7 1.2-.1.1 0 .3.1.2m-.6-1.5l4.5-1.6c.2 0 .1-.3 0-.2l-4.4 1.6c-.2.1-.1.3.1.3m.2-1.6c1.3-.6 2.7-1 4.1-1.1.13 0 .13-.3 0-.3-1.5.1-2.97.5-4.3 1.2-.18.1 0 .3.1.2M65 88.7c.38-.23.8-.3 1.23-.2.16.04.23-.2.07-.25-.5-.13-1-.04-1.42.25-.14.1 0 .32.13.22" fill="#414141"/>
    <path d="M78.33 79.13c10.45-.78 20.9-1.57 31.38-1.9 10.5-.35 20.9-.18 31.3.66 10.3.8 20.5 2 30.6 3.7 10 1.6 19.9 3.7 29.7 6.2 4.9 1.2 9.8 2.6 14.7 4 3.6 1 7.5 1.9 10.6 4.1.8.5 1.5 1.1 2.1 1.9.1.1.4 0 .3-.2-2.1-2.8-5.8-4-9-5-4.5-1.4-9-2.7-13.5-3.9-9.9-2.7-19.9-4.9-30-6.7-10-1.8-20.1-3.2-30.3-4.2-10.6-1-21.1-1.5-31.8-1.2-10.6.2-21.2.9-31.8 1.7l-3.9.3c-.2 0-.2.2 0 .2m145.7 20.5c.5-.6 1.2-.9 2-.8.2 0 .2-.3 0-.3-.8-.1-1.6.2-2.1.9-.1.1.1.3.2.1" fill="#414141"/>
    <path d="M79.95 239.77s-7.36-1.05-13.4-1.3c-6.04-.27-9.2-11.04-9.2-11.04-3.4-9.72-1.57-69.34-1.57-69.34s.26-95.7.53-96.7c0 0 1.6-4 6.3-3.2" stroke="#414141"/>
    <path d="M255.5 92.76c-3.84 2.12-6.08 6.43-6 10.8.1 4.52 2.8 8.6 6.5 11.1 1.82 1.25 4.36 2.57 6.64 2.24 2.2-.3 4.5-2.35 5.82-4.06 3.06-4 1.97-9.35-.3-13.44-2.4-4.36-7.2-9.1-12.57-6.53-.5.22-.1.9.4.68 4.6-2.22 8.8 1.84 11 5.52 2.2 3.6 3.6 8.53 1.3 12.44-1.1 1.8-3 3.5-4.9 4.3-2.3 1.1-5-.4-6.9-1.6-3.3-2.1-6-5.7-6.4-9.7-.5-4.3 1.6-8.9 5.5-11 .4-.2 0-.9-.4-.7" fill="#414141"/>
    <path d="M257.93 94.6c-.07.4-.02.78.2 1.12.25.43.94.03.67-.4-.1-.15-.15-.33-.1-.5.03-.2-.07-.43-.3-.5-.18-.04-.43.08-.47.3" fill="#414141"/>
    <path d="M257.95 94.8c.14.55.53.94 1.03 1.15.2.08.44-.1.5-.28.05-.22-.1-.4-.3-.48-.23-.1-.4-.4-.47-.6-.1-.5-.8-.3-.7.2m4.2 1.3c.2.1.2.3.1.4-.1.2.1.6.4.6.6-.1 1-.5 1-1.1 0-.2-.1-.4-.4-.4-.2 0-.4.2-.4.4 0 .1 0 .2-.1.2l.3.6c.3-.5.2-1.1-.2-1.4-.2-.2-.4-.2-.5 0-.1.1-.1.4 0 .5m3.6 3c0 .1-.1.1-.2.1v-.2c0-.1.1-.2.2-.2s.2.1.2.2c0 .2.2.4.4.4.3 0 .4-.2.4-.4.1-.5-.4-1-.9-1.1-.4-.1-.8.3-.9.7-.1.4.1.9.6 1.1.4.1.9-.1 1.2-.5.3-.5-.4-.9-.7-.4m-.2 12.8v.8c0 .5.8.5.8 0v-.8c0-.5-.8-.5-.8 0m-3 2c-.1.4-.1.8-.2 1.2l.6-.2c-.1-.1-.1-.2-.1-.3 0-.2-.2-.4-.4-.4s-.3.2-.4.4c0 .4.2.7.5 1 .2.1.5 0 .6-.3l.3-1.3c.1-.5-.7-.7-.8-.2m-3.7-.1c-.3.2-.3.5-.1.8.1.1.2.1.4.1s.4-.2.4-.4c.1-.2-.1-.5-.3-.5-.2-.1-.4.1-.5.3l.1-.1.2-.1h.3c.1.1.2.4-.1.5.2-.1.3-.4.2-.6-.2-.2-.4-.2-.6-.1m-3.8-2.3c0 .1 0 0 .1-.1l.1-.1h.2c.1.1.2.3.1.4h-.2c.2.1.4-.1.5-.3 0-.2-.1-.4-.3-.4-.5-.2-1 .5-.6.9.3.3 1 .1 1-.4 0-.2-.2-.4-.4-.4s-.4.1-.4.4m-2.7-3.6c-.1-.2 0-.4.1-.4 0-.1.1 0 .1 0 .1 0 .1 0 .1.1 0 0 0 .1 0 0l.1-.1c.1-.2-.1-.5-.3-.5-.2-.1-.4 0-.5.2v.6c.1.2.3.4.5.4.4 0 .8-.4.5-.8-.1-.2-.3-.3-.5-.2-.2.1-.3.3-.1.5m-1.4-4.7l.3.3c.1.4.7.3.7-.1 0-.3.1-.7.1-1 0-.5-.8-.5-.8 0v1c.2-.1.5-.1.7-.2-.1-.4-.3-.6-.6-.8-.4-.3-.8.4-.4.7m3.5-8.2v1.2c0 .2.3.4.5.4.2-.1.4-.2.6-.4l.1-.3.1-.2c-.1 0 0 0 .1.1l.3.3c.3.1.5.2.7 0 .5-.2.1-.9-.4-.6.1-.1.2 0 .1-.1l-.1-.1c0-.1-.1-.2-.2-.2-.2-.2-.5-.2-.7-.1-.2.1-.3.2-.4.4l-.1.3c-.1.1-.1.1-.2.1l.5.4v-1.3c0-.5-.8-.5-.8 0m2.2-8.2c.1.5 0 .9-.1 1.4-.2.5.6.7.8.2.2-.5.3-1 .2-1.5 0-.5-.8-.5-.8 0m2.3.5c-.1.5 0 1.1.4 1.6.2.1.4.2.6.1.2-.1.3-.4.2-.6-.2-.3-.3-.6-.3-1 .1-.5-.6-.7-.7-.2m1.7 1.1c-.1.2-.1.5 0 .7.2.2.5.3.7.3.3 0 .4-.3.3-.5 0-.2-.2-.3-.5-.3h.2c0 .1 0 .1 0 0v.2c.1-.2 0-.5-.1-.6-.2-.1-.4-.1-.5.1m2.4.5c.1.2.2.4.1.5-.1.4.6.7.8.2.1-.4 0-.8-.2-1.2-.1-.1-.3-.2-.5-.1s-.3.4-.1.5m-4.3 34.7c.2.2.3.4.2.6-.2.5.6.7.7.2.2-.5 0-1-.4-1.4-.1-.1-.4-.1-.5 0-.1.2-.1.5 0 .6m1.8.4c.1.2.1.4.1.5-.2.5.6.7.7.3.1-.4.1-.8-.1-1.2-.2-.2-.4-.2-.6-.1-.2.1-.3.3-.2.5m2.8-.3c-.2.1-.3.3-.4.6 0 .2.1.5.3.5.2 0 .5 0 .6-.2.2-.2.2-.5 0-.7-.1-.1-.4-.1-.5 0-.1.2-.1.4 0 .6-.1-.2-.1-.4.1-.5.2-.1.4.1.3.2l.1-.1c.1-.1.1-.4 0-.5-.2-.2-.4-.2-.6 0m2.3.2v1.3c0 .5.8.5.8 0v-1c0-.5-.8-.5-.8 0m-7 4.6c1 1.9 1.8 3.9 2.5 5.9.1.2.3.1.3-.1-.7-2-1.5-4-2.5-5.9 0-.1-.3 0-.2.1m-1.1 0v-.2c-.1-.1-.1-.1-.2-.1s-.1 0-.1.1c-.1.3.2.7.4 1l.9 1.5c.6 1.1 1.3 2.1 1.9 3.2.1.1.3 0 .2-.1-.5-.9-1.1-1.8-1.6-2.7l-.7-1.3-.3-.7-.1-.3c-.1-.2-.2-.3-.3-.5l.1-.2v.1c-.1.1 0 .3.2.2m-1.1.4l-.1-.1c-.1-.1-.2-.1-.2 0-.1.1-.1.3-.1.5.1.2.4.6.6.8l.6.9 2.2 3.3c.1.1.3 0 .2-.1l-1.7-2.5-.8-1.2c-.3-.4-.6-1-.9-1.3.1.1.3-.1.2-.2m-1.8 1.3l4.5 4.6c.1.1.3-.1.2-.2l-4.5-4.7c-.1-.1-.3.1-.2.2m-.8.9c1.76 1.6 3.46 3.1 5.1 4.8.1.1.3 0 .2-.2-1.7-1.6-3.4-3.2-5.1-4.7-.13-.1-.3.1-.2.2m-1.4 1.7l6.5 3.5c.2.1.3-.1.2-.2l-6.5-3.5c-.1-.1-.3.1-.1.2m.1 2.4l6.5 1.4c.2.1.2-.2.1-.2l-6.5-1.4c-.2 0-.2.2-.1.3m-1 2c2.6.3 5.1.4 7.6.3.2 0 .2-.2 0-.2-2.5.2-5 .1-7.6-.3-.1 0-.1.3 0 .3m-.9 2.3l7.8-.7c.2 0 .2-.2 0-.2l-7.7.7c-.1.1-.1.3 0 .3m.1 1.9c3.1-.5 6.2-1.1 9.3-1.7.2 0 .1-.2 0-.2-3.1.6-6.2 1.2-9.3 1.7-.1 0-.1.3.1.2m.7 2.1c2.6-1.2 5.2-2.2 7.9-2.9.2-.1.1-.3 0-.3-2.8.7-5.4 1.7-8 2.9-.2.1 0 .3.1.2m1.3 1.6c2.3-1.6 4.8-3 7.4-4.2.1-.1 0-.3-.14-.2-2.6 1.2-5.1 2.6-7.4 4.3-.2.1 0 .3.1.2m.7 1.8c2.1-1.7 4.3-3.2 6.6-4.4.2-.1 0-.3-.1-.2-2.4 1.3-4.6 2.8-6.6 4.5-.2.1 0 .3.1.2" fill="#414141"/>
    <path d="M254.33 147.76l4.86-5c.1-.1-.1-.3-.2-.18-1.6 1.67-3.3 3.33-4.9 5-.1.12 0 .3.2.18m.4 2.04l5.4-5.2c.1-.1-.1-.3-.2-.18l-5.5 5.2c-.1.12 0 .3.2.2" fill="#414141"/>
    <path d="M256.46 150.33c1.48-2.1 2.9-4.25 4.2-6.45.1-.15-.13-.28-.22-.14-1.32 2.2-2.72 4.36-4.2 6.46-.1.13.12.26.22.13m3.3-3.53l-2.7 5.5c-.08.16.15.3.22.14.9-1.83 1.8-3.67 2.72-5.5.07-.16-.15-.3-.23-.14m.5.86c-.4 1.7-.86 3.37-1.35 5.03-.05.1.2.2.25 0 .5-1.7.95-3.4 1.37-5.1.04-.2-.2-.3-.26-.1m1.32.2c-.65 1.6-1.02 3.4-1.12 5.2 0 .1.25.1.26 0 .1-1.8.47-3.5 1.1-5.2.07-.2-.2-.3-.25-.1m1.5.8l.3 4.2c0 .1.2.1.2 0l-.3-4.3c0-.2-.3-.2-.3 0m1.1 0l.9 4.1c0 .1.3.1.2-.1l-1-4.1c-.1-.2-.3-.1-.3.1m.7.2c.4 1.2.8 2.4 1.1 3.7 0 .1.3.1.2-.1-.3-1.3-.7-2.5-1.1-3.7 0-.2-.3-.1-.2 0m.6-.3c.9.8 1.5 1.7 1.9 2.8.1.1.4.1.3-.1-.4-1.2-1.1-2.2-1.9-3-.2-.1-.3.1-.2.2m1-.9c.8.7 1.5 1.6 1.9 2.6.1.2.3.1.2 0-.5-1.1-1.2-2-2.1-2.7-.1-.1-.3.1-.2.2m1.3-.3l1.9 2.1c.1.1.3-.1.2-.2l-1.9-2.2c-.1-.1-.3.1-.2.2m.9-1c.7.2 1.3.7 1.8 1.3.1.1.3-.1.2-.2-.5-.6-1.2-1.1-2-1.4-.2-.1-.3.2-.1.2m.4-.5l2.3 1.1c.1.1.2-.2.1-.2l-2.2-1.2c-.2-.1-.3.1-.2.2m.3-1.8c.9.6 1.9 1.1 2.9 1.5.1 0 .2-.2.1-.3-1-.4-2-.9-2.9-1.5-.2-.1-.3.1-.1.2m1-3.4c.8.1 1.6 0 2.4-.3.1 0 .1-.3-.1-.2-.8.2-1.6.3-2.4.3-.2-.1-.2.2 0 .2m.2-1c.8-.5 1.7-1 2.5-1.5.1-.1 0-.3-.2-.2l-2.4 1.4c-.2.1 0 .3.1.2m-.7-1.4c.5-.5 1.1-.9 1.7-1.2.2-.1 0-.4-.1-.3-.6.3-1.2.8-1.8 1.2-.1.1.1.3.2.2m1.7-3.5c-.7.6-1.4 1.2-2 1.9-.1.1 0 .3.2.2.6-.7 1.2-1.3 2-1.9.1-.1-.1-.3-.2-.2m-.9-.9c-.8.6-1.5 1.3-2.1 2-.1.1.1.3.2.2.6-.7 1.3-1.3 2-1.9.1-.1-.1-.3-.2-.2m-.8-1.2c-.5.8-.9 1.5-1.5 2.2-.1.1 0 .3.2.2.6-.7 1.1-1.5 1.5-2.3 0-.1-.2-.3-.3-.1m-1.1-1.4l-1.4 2.9c-.1.1.1.3.2.1l1.3-2.9c0-.1-.2-.3-.2-.1m-.7-1l-1.6 3.1c-.1.1.1.3.2.1l1.6-3.1c.1-.1-.1-.2-.2-.1m-1.2-.4c-.5 1-.8 2.1-1 3.2 0 .2.2.2.3.1.2-1.1.5-2.1 1-3.1 0-.2-.2-.3-.3-.1m-1.3-.2l-.5 3.2c0 .1.2.2.3 0 .1-1.1.3-2.2.4-3.3 0-.1-.2-.2-.3 0m-1-1.3c-.3 1.4-.6 2.9-.7 4.4 0 .2.3.2.3 0 .1-1.5.3-2.9.7-4.3.1-.1-.2-.2-.2-.1m-2.5-.1l.3 4.4c0 .2.3.2.3 0l-.2-4c0-.1-.3-.1-.3 0m-1 0l.3 4.4c0 .2.2.2.2 0l-.1-4.2c0-.2-.3-.2-.3 0m-1.9.2c.7 1.7 1.3 3.4 1.6 5.2 0 .1.3.1.3-.1-.4-1.9-1-3.6-1.7-5.4-.1-.1-.3 0-.3.1" fill="#414141"/>
    <path d="M261.36 127.78c-2.22-.98-4.28.52-5.82 2.05-1.8 1.8-3.63 3.83-4.5 6.28-.96 2.7-.47 5.7.56 8.3.97 2.4 2.3 5.3 4.13 7.2 3.56 3.7 10.23 2.5 13.86-.4 3.8-3 5.7-8.4 4.5-13.2-.8-3-2.8-5.2-5.4-7-2.6-1.8-5.6-3.4-8.8-2.9-.5.1-.3.9.2.8 2.7-.5 5.2.9 7.4 2.3 2 1.4 4 2.9 5 5.2 1.9 4.2.9 9.4-2 12.8-3 3.5-8.3 5-12.5 3.2-2.3-.9-3.4-3.1-4.5-5.2-1.2-2.2-2.3-4.5-2.4-7-.2-2.9 1.1-5.3 2.9-7.5 1.5-1.7 4.1-5.1 6.7-3.9.4.2.8-.5.4-.7" fill="#414141"/>
    <path d="M270 140.26c-.05-1.1-.45-2.16-1.02-3.1-1.7-2.85-5.1-4.7-8.36-4.2-3.27.5-6.07 3.52-5.98 6.83.07 2.8 2 5.2 3.82 7.3.92 1.1 1.93 2.2 3.3 2.5 1.16.2 2.37-.1 3.4-.7 3.64-2.1 5.5-6.8 4.2-10.8" fill="#FFF"/>
    <path d="M270.4 140.26c-.66-7.57-11.7-10.86-15.4-3.64-1.86 3.63.18 7.18 2.5 10 1.1 1.38 2.35 3.05 4.17 3.47 1.7.4 3.5-.5 4.8-1.5 3.1-2.4 4.4-6.7 3.27-10.5-.14-.5-.9-.3-.76.2 1.1 3.6-.26 7.8-3.4 9.9-2.18 1.5-4.26 1.3-6.06-.6-1.4-1.5-2.8-3.2-3.7-5-1.9-3.9.22-8.5 4.54-9.4 4.22-.9 8.88 2.6 9.24 6.8.05.5.83.5.8 0" fill="#414141"/>
    <path d="M267.53 137.76c1.98-.38 3.92-1 5.76-1.8.2-.12.5-.24.7-.23.2 0 .5.17.6.44 0 .4-.4.65-.8.77l-5.3 1.63" fill="#FFF"/>
    <path d="M267.64 138.14c1.86-.37 3.67-.93 5.42-1.67 1.2-.5.7-.02.2.24-.42.3-.96.3-1.42.5l-3.32 1.1c-.48.2-.28.9.2.8 1.73-.5 3.55-.9 5.23-1.6.6-.2 1.37-.7.98-1.4-.46-.9-1.54-.4-2.22-.1-1.7.7-3.4 1.3-5.2 1.6-.5.1-.3.9.2.8M228 78c2.9.52 6.32 1.18 8.2 3.72 1.1 1.5 1.46 3.45 1.77 5.25.35 2 .5 4 .48 6.03 0 .17.26.17.26 0 .1-2.1-.1-4.17-.5-6.23-.3-1.84-.7-3.82-1.9-5.33-1.9-2.5-5.3-3.17-8.2-3.7-.1-.02-.2.23 0 .26m4.9 157.33c2.2-.47 4.4-.78 6.6-.9 1.8-.1 3.9.24 5.4-.74 1.3-.9 2-2.3 2.4-3.7.6-1.9.7-3.9.4-5.9 0-.2-.3-.1-.2 0 .3 1.9.2 3.9-.4 5.8-.5 1.6-1.4 3.3-3.1 3.8-.8.2-1.8.2-2.7.2-.9 0-1.8 0-2.8.1-1.8.1-3.7.4-5.5.8-.1 0-.1.3.1.2" fill="#414141"/>
    <path d="M244.5 82.75c6.8.34 13.56 1.15 20.23 2.46 1.47.3 3.13.5 4.47 1.2 1.5.8 2.17 2.2 2.54 3.8.76 3.3 1 6.7 1.4 10 1.62 13.4 2.67 26.9 3.14 40.3.1 3.4.2 6.8.24 10.1.02 1.7.04 3.3.04 5 0 1.5.4 3.7-.42 5-.85 1.4-2.82 1.2-4.2 1.2-1.8 0-3.6 0-5.42-.1-3.26-.1-6.52-.3-9.77-.7-1.76-.2-3.56-.3-5.3-.6-1.82-.3-2.98-1.2-3.44-3-.3-1.4-.3-2.9-.4-4.3l-.4-5.5-1.7-20.7-1.9-23-.9-11.2c-.1-1.3-1.7-10.2 1.4-9.5.5.1.7-.6.2-.7-1.9-.5-2.7 1.7-2.8 3.3-.1 1.7.2 3.4.3 5.1l.5 5.8 1.9 23.3c.7 7.7 1.3 15.4 1.9 23.1l1 11.8c.2 2.3.4 5.1 2.8 6.1 1.2.6 2.7.6 4 .8 2 .3 4.1.5 6.2.6 3.8.3 7.6.5 11.4.5 2.2.1 5.2.3 6-2.3.4-1.3.2-2.7.2-4.1 0-2 0-4.1-.1-6.2-.2-15.2-1.2-30.4-2.9-45.5-.4-4-.9-8.1-1.5-12.2-.4-2.9-1.1-5.6-4.1-6.7-1.8-.7-3.8-.9-5.7-1.3-2.1-.3-4.2-.7-6.3-1-4-.5-8.1-.9-12.2-1.1-.5 0-.5.8 0 .8m-53.9-3c6.2 1.3 12.5 2.2 18.6 3.9l13.6 3.8 5.8 1.6c1.1.3 1.5.4 2.4 1.1 4.8 3.3 5.7 10.1 6.9 15.4 2.2 9.8 3.7 19.7 4.9 29.7 1.8 15.7 2.7 31.6 2.8 47.4 0 4.9 0 9.8-.1 14.7 0 3.1.1 6.4-.4 9.6l-2.2 13.4c-.1.9-.3 1.7-.4 2.6 0 .1-.1.9-.1.8-.7 1.5-3 2.7-4.3 3.4-3.1 1.7-6.6 2.4-10.1 3-10.6 1.9-21.4 3.3-32.2 4.4-16.1 1.7-32.3 2.7-48.6 2.9-8.9.1-17.8-.1-26.7-.6-6.2-.4-12.5-1.3-18.7-1.7-4.3-.3-8.5-.7-12.8-1.1-4.8-.5-9.7-.9-14.5-1.9-1.3-.3-2.1-.6-3.2-1.4-1.2-.9-2.6-1.5-3.6-2.7-2.8-3.3-2.9-8.3-3.3-12.5-.7-8.6-1-17.2-1.5-25.8-.6-12.4-1-24.8-1.4-37.1-.4-11.7-.7-23.5-.7-35.2 0-7 .2-13.9.8-20.9l1.3-14.8c.2-2.2.1-4.6 1.1-6.4 2.2-3.8 6.9-4 10.8-4.1 3.8-.2 7.5-.3 11.3-.3 12.7-.3 25.3-.2 37.9.3 15.5.6 31.1 1.7 46.4 4 7 1 13.9 2.3 20.8 4 .5.1.7-.7.2-.8-14.8-3.7-30.1-5.5-45.4-6.7-14.8-1.2-29.6-1.7-44.5-1.8-9.2-.1-18.3 0-27.5.4-3.9.2-8.5.7-10.6 4.6-1 1.8-.9 4.2-1.1 6.2-.7 7.8-1.8 15.7-2.1 23.5-.3 9.9-.1 19.9.1 29.8.3 12.9.7 25.8 1.2 38.6.5 11.1 1 22.2 1.6 33.2.2 3.4.4 6.8.7 10.1.4 4.2.7 9.4 3.9 12.6 1 1 2.4 1.5 3.5 2.4 1 .8 2 1.1 3.2 1.3 4.8 1.1 9.8 1.5 14.7 1.9 4.3.4 8.6.8 12.9 1.1 2.1.2 4.1.4 6.1.7 4.5.4 9 .8 13.5 1 17.6 1 35.3.7 53-.5 14-.9 28-2.4 41.9-4.4 4.2-.6 8.5-1.3 12.7-2.1 3.8-.7 7.5-1.6 10.8-3.7 1.1-.7 2.8-1.7 3.3-2.9.5-1 .5-2.6.6-3.7l2.2-13.5c.5-3.2.4-6.5.4-9.7.1-4.9.2-9.8.1-14.7 0-8.8-.3-17.7-.8-26.5-.8-13-2.2-25.9-4.4-38.8-1.2-6.7-2.5-13.5-4.4-20.1-.9-3-2.3-5.7-5-7.6-.9-.6-1.6-.9-2.6-1.2l-5.7-1.5-14-3.8c-2.4-.7-4.9-1.1-7.4-1.6-3.7-.7-7.4-1.5-11.2-2.2-.5-.1-.7.6-.2.7" fill="#414141"/>
    <path d="M71.04 274.12l-.46 5.83c0 .17.25.16.26 0l.46-5.83c0-.17-.25-.17-.26 0m-3.12.28c-.32 1.17-.44 2.36-.4 3.56.02.17.28.17.28 0-.06-1.18.06-2.34.37-3.48.04-.17-.2-.24-.25-.07m-3.85 0c-.14.8-.22 1.6-.24 2.4 0 .2.26.2.26 0 0-.8.1-1.5.2-2.3 0-.1-.2-.2-.3-.1m169-9.4c-.3 1-.5 2-.6 3 0 .2.2.2.2 0 0-1 .2-1.9.5-2.9 0-.1-.2-.2-.3 0m31.4-32.4c-.5-1.4-1.8-2.6-3.3-3-1.5-.3-3.2.2-4.3 1.3-.9.9-1.4 2.2-1.6 3.4-.3 1.7-.2 3.4.5 4.9s2.1 2.7 3.7 3c1.6.3 3.5-.5 4.2-2 .1-.2.2-.5.4-.7.5-.5 1.3-.1 2-.1 1.2 0 2.1-1.2 2.5-2.3.3-1 .5-2.2-.1-3.2-.7-1.1-2.4-1.4-3.7-.8" fill="#FFF"/>
    <path d="M264.58 232.44c-.92-2.7-4-4.03-6.58-2.72-2.86 1.45-3.5 5.64-2.63 8.44.82 2.64 3.58 4.8 6.4 3.7.57-.22 1.12-.57 1.54-1.04.2-.2.4-.4.5-.62l.3-.53c.4-.52.8-.5 1.3-.44.6.07 1.1.15 1.6-.05.7-.25 1.2-.8 1.5-1.38.8-1.23 1.1-3.1.2-4.33-.8-1.1-2.4-1.26-3.7-.76-.1.1-.1.4.1.3 1.1-.4 2.5-.3 3.4.6 1.1 1.2.6 3.1-.1 4.2-.3.6-.8 1.1-1.5 1.3-.6.2-1.2-.1-1.9 0-.3.1-.6.2-.8.5-.4.6-.5 1.2-1.1 1.6-2.2 1.9-5.4.6-6.7-1.7-1.3-2.4-1.1-6.2.8-8.3 2.3-2.5 6.4-1.5 7.5 1.6.1.2.3.1.3 0" fill="#414141"/>
    <path d="M282.1 231.66c-.6-1.22-1.82-2.1-3.16-2.35-1.34-.2-2.78.3-3.76 1.2-1.43 1.4-1.77 3.5-1.8 5.5-.02.2-.02.4.02.6.07.4.25.7.44 1 .75 1.2 1.76 2.2 3.03 2.6 1.28.5 2.85.2 3.73-.8.27-.3.47-.7.8-.9 1.02-.9 2.8-.2 3.84-1.1.65-.5.8-1.4.9-2.3.06-.7.1-1.5-.43-2-.2-.2-.6-.3-1-.4l-2.5-.6" fill="#FFF"/>
    <path d="M282.22 231.6c-1.24-2.33-4.2-3.2-6.47-1.76-1.04.67-1.7 1.74-2.07 2.9-.2.63-.3 1.27-.37 1.9 0 .66-.1 1.44 0 2.08.3 1.15 1.5 2.3 2.5 2.95 1 .66 2.2.95 3.4.66.5-.12 1-.35 1.4-.7.7-.57.9-1.35 1.9-1.6 1.1-.27 2.5.03 3.3-.96.5-.5.6-1.14.7-1.76.1-.6.2-1.2 0-1.8-.1-.5-.5-.8-1-1-1-.3-2-.5-3-.7-.1 0-.2.2 0 .3l2 .5c.7.2 1.6.3 1.9 1.1.3.9.1 2.5-.5 3.3-.7 1-2 .8-3 1-.4.1-.8.2-1.1.5-.4.3-.6.8-1 1.2-2 1.9-4.9.2-6.2-1.7-.4-.5-.6-1-.6-1.7 0-.6.1-1.2.2-1.8.2-1.1.6-2.3 1.3-3.2 2-2.3 5.7-1.8 7.1.9.1.2.3 0 .2-.1m-26.6-6c-.6-.3-1.3.2-1.2.9.1.8 1 1.1 1.7.9.2-.1.1-.3-.1-.3-.5.2-1.1.1-1.3-.5-.2-.5.3-1.1.8-.8.2.1.3-.2.2-.2m1 .1c-.2.4-.5 1-.4 1.4.1.3.4.4.7.4.3-.1.6-.3.7-.6.1-.5-.2-1-.4-1.5-.1-.1-.3 0-.2.1.2.4.7 1.3 0 1.6-.4.2-.6-.1-.5-.4 0-.3.2-.6.4-.9 0-.2-.2-.3-.3-.2m1.5 1.6l-.1-1.5-.3.1 1 1.6c.1.1.2.1.2-.1.1-.5 0-1.1 0-1.6 0-.2-.3-.1-.3 0 .1.5.1 1 .1 1.6l.3-.1-1-1.6c-.1-.1-.3-.1-.2.1 0 .5.1 1 .1 1.5 0 .2.3.2.3 0m2-1.3c-.1.6 0 1.2.3 1.7.1.1.3 0 .2-.1-.2-.5-.3-1-.2-1.5 0-.1-.2-.2-.3 0m1.2.2c.3-.2.6-.4 1-.5l-.2-.1c0 .5-.3 1-.8 1.1-.1 0-.1.1-.1.2l1.1.9c.1.1.3-.1.2-.2l-1.2-.9-.1.2c.7-.1 1.1-.7 1.1-1.3 0-.1 0-.2-.1-.2-.4.1-.7.3-1 .5-.2.1 0 .3.1.2m1.6 1.3l.2-2h-.3c.3.7.4 1.5.3 2.3 0 .2.2.2.2.1.1-.8.1-1.6-.2-2.4-.1-.1-.3-.1-.3 0l-.2 2.1c0 .2.2.2.3 0" fill="#414141"/>
    <path d="M264.62 225.63c-.34-.1-.82-.1-.87.35-.02.2.06.4.15.55.08.13.2.25.24.4.03.1.04.22-.04.3-.03.03-.15.08-.18 0-.06-.14-.32-.08-.25.08.12.4.57.3.72 0 .1-.2 0-.4-.1-.6-.1-.1-.2-.2-.3-.4-.1 0-.1-.1-.1-.2l.2-.2c.1 0 .2.1.3.1.1.1.2-.2 0-.2" fill="#414141"/>
    <path d="M264.67 225.97c.4-.18.8-.26 1.24-.25.2 0 .2-.26 0-.27-.4 0-.9.1-1.3.3-.1.06 0 .3.2.22m6.6-.73l.9 2.37c.1.2.2.1.2 0l.7-2.2c.1-.1-.2-.2-.2 0l-.6 2.3h.3c-.3-.7-.6-1.5-.9-2.3 0-.1-.3-.1-.2.1m2.7-.1c-.8.5-.9 1.7-.2 2.2.1.1.2.1.2 0 .4-.6.5-1.4.3-2.1 0-.1-.3-.1-.2.1.2.7.1 1.4-.3 2h.2c-.5-.5-.5-1.4.2-1.8.1-.1 0-.3-.1-.2m.9 0c0 .7 0 1.3.1 2 0 .1.1.2.2.2h.8c.2 0 .2-.2 0-.2h-.7l.1.2v-2c0-.2-.3-.2-.3 0m1.4.2c.1.4-.1.9.1 1.2.1.2.4.5.6.4.3 0 .4-.3.5-.5.2-.4.2-.9.2-1.3 0-.2-.2-.2-.2 0v.8s-.1.7-.4.8c-.6.2-.3-1.1-.4-1.4 0-.1-.3-.1-.2.1m2 .3v1.3c0 .2.2.2.3 0l.7-1.5-.2.1c.2.3.3.7.2 1.1 0 .2.2.3.3.1.2-.4.4-.8.5-1.2h-.2l.2 1.5c.1.2.3.1.3 0l-.2-1.5c0-.1-.2-.1-.2 0-.1.4-.2.8-.4 1.2l.3.1c.1-.5 0-.9-.3-1.3-.1-.1-.2 0-.2.1l-.7 1.6h.3l.1-1.3c0-.2-.2-.2-.2 0m4-.3c-.5-.2-1-.2-1.5 0-.1 0-.1.1-.1.2.1.4-.2.9.1 1.3.1.3.4.4.7.3.1-.1 0-.3-.1-.2-.2 0-.4-.2-.4-.4-.1-.2 0-.3 0-.5.1-.2.1-.4 0-.7v.2c.4-.1.9-.1 1.3 0 .1.1.2-.2 0-.2m-32.1-59c-.6 1.1-.9 2.5-.4 3.6.4.9 1.4 1.4 2.3.7 1-.9.7-2.5.2-3.6-.4-.9-1.5-1.6-2.3-.7-.3.3.2.9.5.5.8-.8 1.2.9 1.3 1.3.1.4.2.9.1 1.3-.2.5-.7.9-1.2.5-.9-.7-.3-2.5.1-3.3.3-.4-.4-.8-.7-.4m6.7-.5c-1.2.4-2 1.4-2.1 2.7-.1 1.1.6 2.7 2 2.6 2.6-.2 2.2-5.8-.5-4.8-.4.1-.2.9.2.7 2.2-.9 1.2 4.8-.5 2.8-1-1.1 0-2.9 1.2-3.3.4-.2.2-.9-.2-.8m4.2.3c-.7.2-.8.9-.9 1.5-.2.7-.2 1.5.1 2.1.6 1.2 2.1 1.5 3 .5.9-.9.7-2.6-.1-3.5-.8-.9-2.4-.9-2.8.4-.1.5.7.7.8.2.3-1 1.4-.2 1.7.3.3.7.4 1.7-.3 2.2-.7.5-1.5.1-1.7-.7-.2-.4-.1-.8-.1-1.2 0-.2.1-1 .3-1.1.5-.2.3-.9-.2-.8m6.2.6c-1-1.1-1.8 1.4-2 2-.2 1.1.4 2.5 1.7 2.6 2.5 0 2.2-5.6-.3-4.5-.4.2 0 .9.4.7 1-.5 1.2 2.6.1 2.9-.8.2-1.1-.7-1.1-1.3 0-.3.1-.6.3-.9 0-.1.5-.9.4-.9.4.4.9-.2.6-.5m4.1 0c-1 .5-1.6 1.5-1.5 2.7.1.8.9 2.1 1.9 2.1 1-.1 1.6-1.6 1.7-2.4.2-1.1-.3-2.1-1.3-2.4-.5-.2-.7.6-.2.7 1.5.5.6 3.6-.5 3.1-.5-.2-.7-1.2-.6-1.7.1-.6.6-1 1.1-1.3.5-.2.1-.9-.4-.7m6.5.5c-1.7-1.3-3.4 3.3-1.1 4.1 2 .7 2.6-3.2 1-3.9-.5-.2-.9.4-.4.7.4.2.5.7.5 1.2-.1.3-.1 1-.5 1.3-.6.4-1.1-.5-1-1 0-.2.6-2.1.9-1.8.4.3 1-.2.6-.6m-.4 6.5c-.8 1-1.1 2.3-.8 3.6.2.7 1 2.5 2 1.8.5-.3.6-1.2.7-1.7.1-.7.1-1.4 0-2.1-.2-1.1-1.1-2.2-2.2-1.5-.4.3-.1 1 .4.7.8-.6 1 .9 1 1.2v1c0 .5-.1 2-.9 1.4-.4-.3-.5-1.2-.5-1.7 0-.7.2-1.4.6-1.9.3-.4-.2-1-.5-.6m-4.7.4c-1-.5-1.5.7-1.5 1.6 0 1 .6 2.7 1.7 3 1.3.3 1.5-1.7 1.5-2.6.1-1.3-.6-2.4-2-2.6-.5 0-.5.7 0 .8.8.1 1.2.9 1.2 1.6 0 .4 0 .8-.1 1.2-.1.3 0 .5-.4.5-.5.1-.8-.8-1-1.2 0-.1-.3-1.9.3-1.7.5.3.9-.4.4-.6m-4-.1c-2.8-2-4.6 4.5-1.1 4.5 1.6-.1 2.5-1.8 2.3-3.2-.1-1.3-1.4-2.4-2.6-1.4-.4.4.2.9.6.6.5-.4 1 .1 1.2.5.2.4.1.8 0 1.2-.1.8-.8 1.7-1.7 1.5-1.7-.5-.6-4.1 1-3 .4.3.8-.4.4-.7m-7.1-.6c-2.7.3-1.6 5.9 1.2 4.8 1.2-.5 1.6-2.2 1.1-3.4-.5-1.1-1.8-1.6-3-1.1-.4.2 0 .8.4.7 1.8-.8 2.6 1.9 1.4 2.9-.8.7-1.7-.2-1.8-1-.12-.6-.1-2 .7-2.1.5 0 .5-.8 0-.8m-5.5 0c-2.7.4-1.2 5.6 1.6 4.9 1.4-.3 2-1.8 1.5-3.2-.6-1.4-2.1-2-3.6-1.8-.5.1-.3.9.2.8.9-.1 1.9.2 2.4 1 .5.9.2 2.2-.9 2.5-1.8.4-2.8-3.1-1.2-3.4.5 0 .3-.8-.2-.7m-5.2 0c-.4 1-.9 2.5-.5 3.5.3.8 1.4.9 2.2.9.1 0 .3-.1.4-.3.2-1 .4-2.2-.3-3.1-.6-.7-1.5-1.1-2.3-.7-.3 0-.4.3-.3.5.2.3.46.5.8.6.5.2.7-.6.2-.7l-.3-.3-.2.6c.7-.3 1.3.1 1.6.7.4.7.2 1.5 0 2.2l.4-.3c-.3 0-.6 0-.9-.02-.5-.1-.6-.4-.6-.9-.1-.8.2-1.7.5-2.4.2-.5-.6-.7-.8-.2m3.4 9c-.1-1.2-1.1-2.6-2.5-2.5-1.3 0-2.1 1.3-2.2 2.5-.1 1.2.8 2.7 2.1 2.7 1.4-.04 2-1.6 1.7-2.7-.1-.4-.8-.2-.7.2.2.8-.3 2.1-1.3 1.8-.92-.3-1.2-1.46-1-2.3.2-.7.7-1.4 1.5-1.4.9.1 1.5 1 1.6 1.8 0 .5.7.5.7 0m2.1-1.6c-.8.9-.9 2.1-.4 3.1s1.8 1.9 2.9 1.1c1-.7 1-2.25.5-3.2-.65-1.2-2.1-1.6-3.27-.9-.4.2 0 .9.4.7.8-.5 1.8-.2 2.2.6.4.6.4 1.9-.3 2.3-.7.4-1.5-.6-1.6-1.2-.2-.63-.1-1.4.4-1.9.36-.4-.2-.9-.54-.5m4.9.1c-.88.8-1.2 2.1-.77 3.2.4 1 1.5 1.7 2.6 1.2.9-.4 1.5-1.43 1.2-2.5-.3-1.1-1.58-1.8-2.7-1.7-.5 0-.5.8 0 .8.7-.03 1.4.26 1.8.9.4.7 0 1.5-.7 1.8-.8.4-1.4-.4-1.6-1.16-.1-.8.2-1.5.7-2.05.4-.3-.2-.9-.5-.5m6.6-.5c-2.2.4-2.5 4.6.1 4.6 1.1 0 1.8-.9 1.9-1.9.1-1.2-.7-2.13-1.8-2.6-.5-.2-.7.6-.2.8.6.3 1.2.9 1.2 1.6 0 .7-.4 1.3-1.1 1.3-1.6 0-1.2-2.8.1-3 .5-.1.3-.83-.2-.73m4.4.6c-.7.8-1 1.9-.8 2.96.2.9.8 2 1.9 1.6 1-.4 1.4-1.6 1.3-2.5-.1-1-.7-1.9-1.6-2.3-.5-.2-.9.5-.4.7 1 .5 1.6 1.9.9 3-.7 1.1-1.3-.3-1.3-1s.2-1.4.7-1.9c.3-.35-.2-.9-.6-.5m5 .1c-.8.7-1.1 1.8-.8 2.8.25.8 1.2 1.9 2.14 1.4 1-.5 1.5-2.3 1.1-3.3-.4-.9-1.5-1.4-2.4-.8-.4.3 0 .9.4.6.7-.5 1.3.3 1.3 1 0 .6-.4 2-1.3 1.5-.95-.6-.7-2.1 0-2.7.4-.3-.2-.9-.6-.6m2.3 9c-.5-1-1.34-2.4-2.7-1.9-1.1.3-1.4 1.9-1.1 2.8.3 1 1.4 1.7 2.5 1.4 1-.3 1.5-1.5 1-2.4-.2-.5-.9-.1-.7.4.3.6-.2 1.33-.9 1.3-.76-.07-1.2-.7-1.3-1.4 0-.6.3-1.6 1.1-1.4.7.13 1.1 1 1.4 1.6.2.46.9.06.7-.4m-5.4 1.26c-.15-1.2-.4-2.7-1.7-3.2-1.3-.4-2.2.6-2.3 1.8-.16 1.1.4 2.4 1.6 2.6 1 .2 2.04-.5 2.1-1.6 0-.5-.8-.5-.8 0 0 .6-.8.9-1.35.7-.7-.3-.9-1.3-.7-2 .2-.8.9-1.2 1.6-.7.7.5.8 1.5.8 2.3.1.5.9.5.8 0m-5.2-.4c.6-1.1.6-2.7-.7-3.3-1.3-.6-2.3.5-2.5 1.7-.2 1.1 0 2.6 1.2 3 .9.4 2.2-.3 2-1.4-.1-.5-.9-.5-.8 0 .1.8-.9.8-1.3.4-.5-.4-.5-1.2-.5-1.7.1-.7.5-1.6 1.4-1.2.9.34.7 1.4.3 2.1-.2.44.5.84.7.4m-5 .16c.1-.8.1-1.6 0-2.46-.1-.5-.2-1-.6-1.3-1-.6-1.9.5-2.2 1.3-.5 1-.3 2.3.5 3.1.7.7 2 .7 2.6-.1.3-.4-.2-1-.6-.6-.5.6-1.3.5-1.8-.2-.4-.6-.4-1.4-.1-2.05.2-.4.4-.84.9-.7.2 0 .3.1.3.3l.1.67v2c-.1.5.7.5.8 0m-4.4.5c-.1-1.3-.4-3.1-1.8-3.6-1.1-.46-2.1.3-2.2 1.4-.2 1.1.4 2.4 1.4 2.94.9.5 2.1.1 2.5-.9.1-.5-.6-.7-.8-.2-.3.8-1.2.7-1.7.2-.5-.4-.7-1.2-.7-1.8.1-.9 1-1.2 1.7-.5.6.7.7 1.7.73 2.6 0 .5.8.5.8 0m-5.6-.8c.3-1.2.5-2.9-.8-3.5-1-.5-2.2.2-2.6 1.2-.4 1.13 0 2.7 1 3.4.8.7 2.1.5 2.7-.5.2-.4-.5-.8-.7-.4-.5.85-1.5.54-1.9-.1-.4-.5-.6-1.2-.4-1.87.1-.8 1.1-1.6 1.8-.9.6.6.3 1.7.1 2.47-.2.5.6.7.7.2m24 3.9c-.8.7-1.3 1.7-1.1 2.7.1.8.6 1.8 1.6 1.6 2-.4 1.5-4.63-.6-4-.5.2-.3.9.2.8.8-.2.9 1.07.9 1.5 0 .3-.1.8-.4.9-.6.3-.8-.14-.9-.5-.3-.9.16-1.9.8-2.4.4-.4-.1-.9-.5-.6m-5.8 0c-.4 1-.8 2.5.2 3.3.7.6 1.9.6 2.3-.4.4-.9.7-2.4-.1-3.2-.55-.6-1.7-.6-2.1.2-.2.47.5.87.7.4.27-.6 1-.05 1.1.4.1.5-.1 1.46-.4 1.9-.33.6-1.1.2-1.33-.3-.3-.64 0-1.5.3-2.2.2-.44-.6-.64-.8-.2m-4.4-.1c-2.63.8-1.6 6.1 1 4.7 1.2-.6 1.6-2.23 1-3.4-.6-1.2-2.2-1.44-3.2-.6-.4.4.2.9.6.6.7-.6 1.8-.2 2.1.7.2.7-.1 1.7-.8 2.1-1.5.7-2-2.9-.46-3.3.5-.2.3-.9-.2-.8m-5.5.2c-.8.8-1.12 2-.7 3.07.5 1.2 1.7.9 2.5.1.7-.8 1-1.9.4-2.8-.6-.8-1.6-1.1-2.5-.7-.5.2-.1.9.4.7 1.2-.6 2 1 1.4 2-.2.2-.4.5-.6.5-.7.3-.8-.2-.9-.7 0-.6.2-1.2.6-1.7.4-.3-.2-.9-.5-.5m-5-.4c-2.5.7-1.2 5.3 1.4 4.6 1.2-.4 1.5-2 1.1-3-.5-1.2-1.8-1.8-2.94-1.3-.4.2 0 .9.4.7 2.1-.9 2.7 3 .8 2.8-1.3-.1-2-2.7-.6-3.1.5-.2.3-.9-.2-.8m-5-.2c-2.5 1-.5 6.2 1.7 4.3 1.1-.8 1.3-2.8.4-3.8-1-1-2.7-.6-2.9.9 0 .5.8.5.8 0 .1-.9 1.1-.8 1.5-.3.3.3.4.7.4 1.1 0 .6-.4 2-1.3 1.8-1-.3-1.4-2.8-.4-3.2.5-.2.3-.93-.2-.8m.5 6.6c-2-.4-1.7 5.9.7 5.8 2.5-.1 1.3-7-1.5-5.2-.4.2 0 .9.4.6 1.2-.8 1.6 1.5 1.6 2.1.08.6-.2 2.1-1 1.2-.5-.5-.6-1.2-.62-1.9 0-.2 0-2 .2-2 .5.1.7-.6.2-.7m4.7.8c-1.4 1.2 0 5.2 1.8 3.7 1.7-1.3.1-4-1.7-4.1-.5 0-.5.8 0 .8 1 .1 1.9 1.26 1.5 2.3-.22.6-.7.7-1.1.2-.2-.2-.2-.4-.3-.6-.2-.6-.2-1.2.3-1.6.4-.4-.12-.9-.5-.6m5.2.3c-.9.6-1.4 1.7-1 2.75.4 1 1.5 1.4 2.46 1.1 2.7-.9.1-5.7-1.8-3.8-.3.4.2.9.6.6.95-.9 2.77 2.6.6 2.6-1.4.1-1.45-1.8-.5-2.4.4-.3 0-1-.4-.7m4.7.48c.2 1.1-.4 2.8.87 3.5 1.1.53 2.1-.5 2.2-1.5.1-1-.2-2.4-1.3-2.8-.9-.3-1.9.4-1.7 1.4.1.5.9.3.8-.2.1-.3.2-.5.5-.5.2 0 .4.1.5.3.2.13.28.4.3.7.2.5.3 1.5-.32 1.8-1.4.7-.9-2.3-1-2.9-.1-.5-.9-.3-.8.2m5.3-.9c-1 .5-1.2 2.4-.8 3.3.4 1 1.6 1.3 2.5.6 1.9-1.5.3-5.1-2.1-3.9-.5.2-.1.9.4.7 1.5-.7 2.3 1.6 1.4 2.5-.5.5-1.3.4-1.5-.3-.1-.5 0-1.9.5-2.1.5-.2.1-.9-.4-.7m5.3-.4c-.4 1-.9 2.5-.5 3.6.4.9 1.6 1.2 2.3.6 2.1-1.5.1-4.5-2-4.3-.5.1-.5.9 0 .8 1.3-.1 2.8 1.4 1.8 2.6-.2.3-.6.5-.9.3-.5-.2-.5-.7-.5-1.2 0-.7.2-1.4.5-2.1.2-.4-.5-.8-.7-.4m.75 7.4c-.33.97-.85 2.7-.23 3.7.6.88 1.7.4 2.2-.3.5-.8.86-2.1.2-2.9-.5-.64-1.6-.8-2.1-.1-.3.4.2.95.5.55.4-.5 1-.1 1.1.4.1.5-.1 1.3-.4 1.7-.4.4-.8.4-.9-.3-.1-.2 0-.5 0-.7 0-.63.2-1.3.4-1.9.1-.5-.6-.7-.8-.2m-4 3.2c.9-.6 1.2-1.9.5-2.8-.74-.9-2.3-1-3.16-.2-.9.9-1 2.48-.2 3.4 1.1 1.2 2.3.3 2.9-.8.2-.42-.42-.8-.7-.4-.4.7-1.1 1.5-1.7.5-.4-.7-.3-1.62.3-2.12.57-.4 1.5-.4 1.9.1.4.6.3 1.4-.22 1.7-.4.3 0 1 .4.7m-4.3-.7c.2-1.1-.6-2.7-1.6-3.3-1.1-.7-1.9.8-2.1 1.7-.2 1.1.1 2.4 1.3 2.9 1 .4 2.2-.4 2.1-1.5 0-.5-.8-.5-.8 0 .03 1.1-1.3.9-1.7.2-.3-.5-.2-1.3.05-1.9.1-.1.1-.3.2-.4l.8-.1c.2.1.5.6.6.7.34.5.55 1.1.5 1.7-.1.5.7.5.8 0m-5.4.1c-.4-1.3-1-3.1-2.7-3-1.4 0-2.1 1.8-1.9 3 .1 1.3 1.3 2.4 2.6 2.1 1.2-.2 1.8-1.6 1.2-2.6-.2-.4-.9 0-.7.4.4.9-.6 1.7-1.4 1.4-.9-.3-1.2-1.2-1.1-2 .1-.9.8-1.8 1.8-1.3.8.5 1 1.5 1.2 2.3.1.4.9.2.8-.3m-5.9-.2c0-1.1-.3-3-1.9-2.8-1.6.2-1.7 1.9-1.5 3.1.1 1.1.7 2.7 2.1 2.3 1.6-.5 1.4-2.4 1.1-3.7-.1-.5-.9-.3-.8.2.2.8.4 1.8-.2 2.5-.5.5-1.2.2-1.4-.4-.1-.2-.2-.5-.2-.7-.1-.6-.4-2.1.5-2.3.5-.1 1 .3 1.1.7.2.4.2.9.1 1.3 0 .5.8.5.8 0m-4.5.5c.1-1.2-.3-2.7-1.7-3.1-1.2-.4-2.3.5-2.5 1.7-.2 1.2.6 2.9 1.8 3.4 1.4.7 2-1.3 2.2-2.3.2-.5-.6-.7-.7-.2-.2.7-.6 2.4-1.7 1.5-.6-.5-1-1.5-.9-2.2.2-1 1-1.5 1.9-.9.7.5.8 1.4.7 2.2 0 .5.7.5.8 0m.9 6c-.5-.8-1.6-3-2.8-2.4-1.1.5-1.2 2.2-.9 3.1.3 1 1.2 2.2 2.3 2.1 1.5-.1 1.2-2.5 1.1-3.5-.1-.5-.9-.5-.8 0 0 .5.3 2.6-.5 2.8-.7.1-1.3-1-1.5-1.5-.2-.5-.3-1.5.14-1.9.8-.7 1.8 1.3 2 1.8.2.5.9.1.7-.4m1.65-2c-.6 1.4-.6 3.3.5 4.5 1 1.1 2.5.2 2.8-1.1.3-1.2 0-3-1.1-3.6-1-.5-2.2 0-2.3 1.1-.1.5.7.5.8 0 0-.6.8-.7 1.2-.4.3.2.5.6.6.9.2.6.3 1.5-.1 2.1-.8 1.3-1.7-.2-1.9-1.1-.2-.8 0-1.6.3-2.3.2-.4-.6-.6-.8-.2m4.72 0c-.3 1.3 0 2.7.9 3.7.3.4.8.9 1.3.7.6-.2.8-1 .9-1.5.24-1 .3-2.8-.9-3.3-.9-.4-1.9.3-1.8 1.3.1.5.9.3.8-.2-.1-.7.9-.2 1.1.1.1.2.2.5.2.8 0 .3-.1 1.9-.5 2-.5.2-1.07-1-1.2-1.3-.2-.7-.2-1.3-.1-2 .1-.4-.6-.7-.77-.2m5.3-.1c-.5 1.1-.9 2.3 0 3.3.6.7 1.6.7 2.2 0 1.3-1.4.8-4.7-1.4-4.6-.5 0-.5.8 0 .8 1.4-.1 1.6 2 1.1 2.9-.4.8-1.4.7-1.6-.2-.2-.7.14-1.4.4-2 .2-.4-.6-.6-.8-.2m4.2-.7c-.1 1 0 1.9.14 2.8.1.7.3 1.5 1 1.8 1.25.5 2.5-.7 2.8-1.8.4-1.3-.4-2.7-1.7-3-1.3-.3-2.6.8-2.4 2.1.1.5.9.5.8 0-.1-1 1-1.7 1.9-1.2.9.5 1 1.7.4 2.5-.2.4-.6.7-1 .8-.7.1-.86-.6-1-1.1-.2-.9-.2-1.8-.1-2.7.1-.5-.7-.5-.8 0m5.7-.3c0 .9 0 1.8.2 2.6.1.6.3 1.3.8 1.6 1.2.6 2.2-.7 2.3-1.8.2-1.2-.33-2.7-1.5-3.2-.5-.2-1-.1-1.3.3-.5.5-.4 1.2-.2 1.9.1.5.8.3.7-.2-.1-.3-.1-.6-.1-.9l.8-.2c.2 0 .5.5.6.7.3.6.4 1.4.1 2.1-.3.5-.9 1-1.3.3-.2-.3-.2-.7-.3-1-.1-.7-.2-1.5-.2-2.3 0-.5-.7-.5-.8 0" fill="#414141"/>
    <path d="M268.14 215.35v.7c0 .2.2.4.4.4s.4-.2.4-.4v-.7c0-.22-.2-.4-.4-.4s-.4.18-.4.4m-6.5-48.75c-.2 1.17-.1 2.32.25 3.44 0 .16.3.1.2-.07-.4-1.07-.5-2.17-.3-3.3 0-.15-.3-.23-.3-.06m4.8.5c-.1 1.3 0 2.5.3 3.7 0 .2.3.1.2 0-.3-1.2-.4-2.4-.3-3.6 0-.1-.3-.1-.3 0m9.6 1.1c.4.6.6 1.2.4 1.9 0 .2.2.3.2.1.1-.7-.1-1.5-.5-2.1-.1-.1-.3.1-.2.2m-24.7 5.4l.2 3.7c0 .2.2.2.2 0l-.3-3.7c0-.1-.2-.1-.2 0m6 .4c-.4 1.2-.6 2.5-.5 3.7 0 .2.3.2.3 0-.1-1.2.1-2.4.5-3.6 0-.1-.2-.2-.3 0" fill="#414141"/>
    <path d="M255.73 175.85c1.27.2 2.53.14 3.77-.17.17-.04.1-.3-.07-.26-1.2.3-2.4.36-3.63.18-.17-.03-.24.23-.07.25m21.57-1.47l.48 4.2c.02.17.28.17.26 0l-.48-4.2c-.02-.17-.3-.17-.27 0m-26.5 6.06c-.4 1.42-.4 2.87-.2 4.3 0 .18.3.1.2-.06-.3-1.4-.2-2.8.1-4.17 0-.1-.2-.2-.3 0" fill="#414141"/>
    <path d="M249.67 183.1c1.2-.23 2.4-.36 3.6-.4.06 0 .12-.04.13-.1.06-.33.1-.66.17-1 0-.08-.06-.18-.16-.15-1.3.36-2.5.8-3.8 1.32-.1.05 0 .26.1.25 1.1-.15 2.2-.4 3.2-.85.2-.07 0-.3-.1-.23-.9.43-1.9.67-3 .8l.1.26c1.3-.52 2.5-.94 3.8-1.3l-.1-.16c0 .38 0 .8-.4.9-.3.1-.8.06-1.2.1-.7.07-1.4.17-2.1.3-.2.04-.1.3.1.27m7.9-2.1c-.2 1.1-.1 2.2.3 3.2.1.2.3.1.3 0-.4-1-.5-2-.3-3 0-.1-.2-.2-.2 0m3.9.2c0 1.1.2 2.2.5 3.2 0 .2.3.1.2 0-.3-1-.5-2-.5-3.1 0-.1-.3-.1-.3 0m10.6-.3c.4 1.3.7 2.6 1.1 3.9 0 .2.3.1.2 0l-1-3.8c0-.2-.3-.1-.2.1" fill="#414141"/>
    <path d="M271.84 183.23c.9.18 1.8.02 2.58-.46.14-.1 0-.32-.13-.23-.8.45-1.6.6-2.4.44-.2-.04-.3.22-.1.25m4 7.2c.9-.03 1.7-.13 2.6-.3.1-.02.1-.27-.1-.24-.9.1-1.8.2-2.6.2-.2 0-.2.2 0 .2m-4.4-1.9c.1 1 .3 2 .7 3 0 .1.3.1.2-.1-.4-1-.6-2-.7-3-.1-.2-.3-.2-.3 0m-4.4-.2c-.1 1.2 0 2.5.4 3.7 0 .1.3.1.2-.1-.4-1.2-.5-2.4-.4-3.6 0-.2-.3-.2-.3 0" fill="#414141"/>
    <path d="M266.26 190.1c.86.04 1.68-.08 2.5-.37.15-.05.08-.3-.08-.25-.78.28-1.6.4-2.42.34-.17 0-.17.26 0 .27m-4.52-1.9c-.02 1.2.23 2.4.75 3.5 0 .1.2 0 .2-.2-.5-1.1-.7-2.3-.7-3.5 0-.2-.3-.2-.3 0m-4.4.7c-.1 1-.1 2 .2 3 0 .1.3.1.2-.1-.3-1-.3-2-.2-3 0-.2-.3-.2-.3 0m-5.6-.9c-.1 1.2.1 2.4.5 3.5 0 .1.3.1.2-.1-.4-1.1-.6-2.3-.5-3.5 0-.2-.3-.2-.3 0" fill="#414141"/>
    <path d="M251 188.98l2.97.6c.16.02.23-.23.07-.27-1-.1-1.98-.3-2.97-.5-.16 0-.23.2-.07.3m1.1 5.2c.1 1.6.36 3.2.74 4.8.05.2.3.1.26 0-.4-1.5-.63-3.1-.74-4.7 0-.1-.27-.1-.26 0m5.63.6c-.1 1.5.08 2.9.52 4.3.05.2.3.1.26 0-.4-1.3-.6-2.7-.5-4.1 0-.1-.2-.1-.2 0m4.5 0c-.1 1.1 0 2.2.4 3.2.1.2.3.1.3 0-.4-1-.5-2-.3-3.1 0-.1-.2-.1-.3 0" fill="#414141"/>
    <path d="M262.1 196.84c.4-.43.94-.6 1.5-.43.16.1.23-.2.06-.2-.63-.2-1.3 0-1.74.5-.1.1.07.3.2.2m5.94-1.8c-.4 1.3-.3 2.5.34 3.7.08.2.3 0 .23-.1-.6-1.1-.7-2.3-.32-3.4.1-.1-.2-.2-.2 0" fill="#414141"/>
    <path d="M266.34 197.32c1.1.47 2.25.45 3.3-.07.17-.08.03-.3-.12-.23-.97.48-2.05.5-3.05.07-.15-.1-.3.1-.13.2m6.96-2.8l.32 3.1c.02.1.28.1.27 0l-.4-3.2c0-.2-.3-.2-.3 0m3.8 2.7l1.9-.3c.1-.1.1-.3-.1-.3l-1.9.3c-.2 0-.1.3 0 .2" fill="#414141"/>
    <path d="M277.84 195.9c.06.93.25 1.8.57 2.67.1.15.4.1.3-.07-.3-.84-.5-1.7-.5-2.6 0-.16-.2-.16-.2 0m-15.5 6.53l.5 2.46c.1.1.3.1.3-.1l-.4-2.5c0-.2-.3-.1-.2 0" fill="#414141"/>
    <path d="M261.75 204.27c1-.2 2-.43 2.98-.65.17-.03.1-.3-.07-.25l-2.98.65c-.17.03-.1.3.07.25m6.32-1.9c-.24.96.1 1.97.87 2.6.13.1.32-.08.2-.18-.72-.6-1.04-1.5-.8-2.4.03-.2-.23-.3-.27-.1m5.05-.7c0 1.1.13 2.3.4 3.5.05.1.3.1.26-.1-.27-1.2-.4-2.3-.4-3.5 0-.2-.26-.2-.26 0" fill="#414141"/>
    <path d="M271.95 203.25c1.22.6 2.56.68 3.84.24.1-.1 0-.4-.1-.3-1.2.4-2.5.3-3.7-.2-.2-.1-.3.1-.2.2m6.3-1c.1.9.1 1.8.2 2.8 0 .1.3.1.2 0l-.3-2.8c-.1-.2-.3-.2-.3 0m.2 7c.1.9.4 1.8.7 2.6 0 .2.3 0 .2-.1-.4-.9-.6-1.7-.7-2.6 0-.2-.3-.1-.3 0" fill="#414141"/>
    <path d="M278.52 210.86c.67-.03 1.3-.24 1.84-.62.14-.1 0-.32-.13-.22-.5.35-1.1.55-1.7.57-.18 0-.18.2 0 .2m-5.96-.1c1.18.1 2.35 0 3.5-.3.1 0 .13-.2.06-.2-.13-.2-.24-.2-.43-.2-.17 0-.1.3.07.2h.18l.05-.2c-1.13.2-2.27.3-3.43.2-.17 0-.17.2 0 .2m-3.82-2.1l.3 3.6c0 .2.27.2.26 0l-.3-3.7c0-.2-.2-.2-.2 0" fill="#414141"/>
    <path d="M267.14 211.1c1.1.12 2.15 0 3.2-.34.15-.05.08-.3-.08-.25-1.02.4-2.06.5-3.12.4-.17 0-.17.3 0 .3m-9.3-1.8c.1 1.3.2 2.6.27 3.9.1.2.3.2.3 0l-.3-3.8c0-.1-.2-.1-.2 0m-4.8-.1c.3 1.4.5 2.7.8 4 .1.2.3.1.3 0l-.8-4c0-.1-.2 0-.2.1m1.1 7.5c.3 1.1.4 2.3.4 3.5 0 .2.3.2.3 0 .1-1.2-.1-2.4-.3-3.5 0-.1-.3-.1-.2.1" fill="#414141"/>
    <path d="M253.13 218.85l2.46-.33c.1-.02.1-.28 0-.26-.9.1-1.7.2-2.5.32-.2.03-.2.3 0 .27m5.6-2.25c.2 1.26.5 2.48.9 3.68 0 .16.3.1.2-.07-.4-1.2-.8-2.4-1-3.6-.1-.1-.3-.1-.3.1" fill="#414141"/>
    <path d="M258.07 218.83l3.33-.5c.17-.03.1-.28-.07-.26l-3.33.5c-.16.04-.1.3.07.26m5.88-3c-.22 1.3-.1 2.55.4 3.76.08.1.33 0 .26-.1-.4-1.2-.6-2.4-.4-3.7.1-.2-.2-.3-.2-.1m5.3-.5c-.1 1.2.1 2.4.4 3.5.1.1.3.1.3-.1-.3-1.1-.4-2.3-.4-3.5 0-.2-.2-.2-.2 0m4.5.3l.4 3.3c0 .2.3.2.3 0l-.4-3.3c0-.2-.2-.2-.2 0" fill="#414141"/>
    <path d="M272.74 217.58c.96 0 1.9-.1 2.85-.3.1-.03.1-.28-.1-.24-.9.2-1.9.28-2.8.27-.2 0-.2.3 0 .3m6.5-2.1c.7 1.3 1 2.7 1 4.2 0 .2.2.2.2 0 0-1.5-.4-2.9-1.1-4.2-.1-.1-.3 0-.3.2" fill="#414141"/>
    <path d="M278.84 217.55c.93.16 1.84.08 2.7-.28.17-.06.1-.3-.06-.25-.83.34-1.7.43-2.57.27-.1-.1-.2.2 0 .2" fill="#414141"/>
    <path d="M259.74 132.68c-1.38.38-2.02 1.76-2.54 2.97-.65 1.54-1.6 3.45-1.08 5.15.27.86.78 1.65 1.2 2.43.52.95 1 1.9 1.54 2.84.78 1.36 1.8 2.58 3.42 2.86 1.8.3 3.62-.44 5.14-1.33.14-.1 0-.32-.13-.23-1.7.95-3.8 1.8-5.7 1.13-2-.7-2.9-3-3.8-4.7-.5-.94-1.1-1.87-1.5-2.87-.4-1.1-.2-2.14.2-3.2.3-1 .7-1.98 1.1-2.9.4-.85 1-1.63 1.9-1.9.1-.04.1-.3-.1-.25" fill="#FFF"/>
    <path d="M269.4 136.65l-7.9 2.5c-.85.25-2.13.43-2.7 1.2-.4.48-.43 1.23.13 1.6.7.45 1.82.02 2.55-.14l3.7-.8c1.1-.2 2.2-.5 3.24-.9 1.1-.5 2.28-1.7 3.57-1.4.1.1.2-.2 0-.2-.8-.2-1.5.1-2.2.5-1 .6-1.8 1.1-2.9 1.4-2 .6-4.1 1-6.2 1.4-.5.1-1 .3-1.5.2-1.2-.2-.6-1.4.1-1.8.9-.5 2.1-.7 3.2-1l6.6-2.1c.2 0 .1-.3-.1-.2m-13.1-2.2c.4-.1.9 0 1.3.3.1.1.3-.1.2-.2-.5-.3-1-.5-1.6-.3-.2.1-.1.3 0 .3m-1.5 1.1c.8.4 1.6.5 2.4.3.2 0 .1-.3-.1-.2-.8.2-1.5.1-2.2-.2-.2-.1-.3.1-.1.2m-1.1 3.1l2.6-.4c.2-.1.1-.3-.1-.3l-2.6.4c-.2 0-.1.3 0 .3m-.1 1.5c.8-.4 1.7-.6 2.6-.6.2 0 .2-.2 0-.2-1 0-1.9.3-2.7.7-.2.1 0 .3.1.3m2.5.4c-.7.4-1.5.7-2.3.8-.2.1-.1.3 0 .3.8-.1 1.6-.4 2.3-.8.1-.1 0-.3-.1-.2m.5 1.5l-2 1.1c-.1.1 0 .3.1.3l1.9-1.1c.2-.1 0-.3-.1-.2m.7 1l-2.5 1.9c-.1.1 0 .4.1.3l2.5-1.9c.1-.1 0-.3-.1-.2m.7 1.3l-1.5 1.4c-.1.2 0 .3.2.2l1.4-1.3c.1-.1-.1-.3-.2-.2m-.5 2.8c.4-.5.9-.8 1.5-1 .1 0 .1-.3-.1-.3-.7.2-1.2.5-1.7 1.1-.1.2.1.3.2.2m1.9.1l-1.1 1.5c-.1.2.1.3.2.1l1-1.5c.1-.1-.1-.2-.2-.1m1.5.8c-.7.5-1.3 1.3-1.5 2.1 0 .2.2.2.3.1.2-.8.7-1.5 1.4-2 .1-.1 0-.3-.1-.2m.8.8c-.2.7-.4 1.4-.4 2.1 0 .2.2.2.2 0 0-.7.2-1.4.4-2 .1-.2-.2-.2-.3-.1m1 .8c-.3.4-.5.9-.6 1.4 0 .1.3.1.3 0 .1-.5.2-.9.5-1.2.1-.1-.1-.3-.2-.2m2.5-1c-.1.4 0 .9.3 1.2.1.1.3-.1.2-.2-.2-.2-.4-.6-.2-.9 0-.2-.2-.2-.3-.1m1.5-.4c.3.1.5.3.6.6 0 .2.3.1.2 0-.1-.4-.4-.7-.7-.8-.2 0-.2.2-.1.3m.4-.4l2.5-1.1c.2-.1.1-.3-.1-.2l-2.5 1.1c-.1.1 0 .3.1.2m-1.5-45.1l4.9 3.8c1 .8 2 1.6 2.5 2.7-1 .5-2.3 0-3.2-.7-.9-.6-1.8-1.5-2.9-1.8.2 1.6-.6 3.1-1.9 4.1-1.2 1-2.8 1.4-4.3 1.5-1.4.2-3 0-4-1-.4-.5-.7-1.2-.9-1.9l-1-2.9c-.5-1.4-1-2.9-.8-4.5.3-2.7 3.1-4.9 5.8-4.8 2.8.1 5.3 2.2 6.1 4.9.2.5.3.9.6 1.3.7.8 2.1.9 2.3 1.9" fill="#FFF"/>
    <path d="M265.16 102.8c1.35 1.07 2.7 2.14 4.07 3.2 1.23.97 2.53 1.86 3.28 3.28l.3-.58c-2.2.7-4-1.84-5.9-2.52-.2-.1-.5.13-.5.38.2 3.94-5 6.05-8.3 5.03-2.1-.7-2.5-3.6-3.1-5.5-.6-1.8-1.2-3.8-.4-5.6 1.5-3.5 5.9-4.1 8.7-1.8 1.4 1.1 1.8 2.4 2.5 3.9.2.5.5.8.9 1.1.6.4 1.4.5 1.6 1.3.2.5.9.3.8-.2-.4-1.4-2-1.4-2.6-2.6-.7-1.5-1-2.8-2.3-4-2.2-2-5.4-2.5-7.9-.8-3 2-3 5.1-2 8.3.6 1.6 1 4 2.2 5.3.9 1 2.3 1.3 3.6 1.2 3.5-.1 7.7-2 7.4-6l-.5.3c2.2.7 3.8 3.3 6.4 2.5.3-.1.4-.4.2-.6-.7-1.3-1.8-2.2-3-3.1L266 102c-.4-.3-.93.24-.53.55" fill="#414141"/>
    <g fill="#FFF">
      <path d="M265.68 233.88c-.44.72-.88 1.7-.52 2.55.23.54.9.92 1.47.7 1.23-.46.72-3.68-.74-3.3-.2.03-.1.28 0 .24 1.2-.3 1.6 3.3 0 2.8-1.3-.38-.6-2.1-.1-2.86.1-.1-.2-.2-.3-.1m17.8-.7h-.1c-.1 0-.1 0-.1.1-.3.3-.2.9-.2 1.3 0 .5-.1 1.2.1 1.6.4.8 1.3.4 1.7-.2.4-.8.2-1.8-.4-2.4-.4-.4-1.3-.8-1.4.1 0 .2.2.2.2 0 .4-.2.7-.1.9.2.1.1.1.2.2.3.1.2.2.4.2.6.1.5 0 1.1-.4 1.5-.4.4-1 .2-1.1-.3-.1-.2 0-.4 0-.6v-1.5c.1 0 .2-.2.1-.3"/>
      <path d="M265.35 232.36c-1.03-.16-2.06-.3-3.1-.36-.52-.04-1.03-.06-1.55-.08-.35 0-.77-.07-1.1.07-.6.2-1.1 1.1-1.38 1.6-.38.7-.45 1.5-.34 2.3.1.7.23 1.6.55 2.3.3.6.76.9 1.44 1.1 1.87.5 3.85.4 5.74.1.2 0 .1-.3 0-.3-1.6.3-3.2.3-4.8 0-.9-.2-1.7-.4-2-1.3-.2-.6-.3-1.3-.4-1.9-.1-.9-.1-1.7.3-2.5s1-1.6 1.9-1.6c1.7 0 3.3.1 5 .4.2 0 .3-.2.1-.3"/>
      <path d="M265.85 232.25c-1.83.02-2.78 1.9-2.6 3.54.15 1.2 1.25 4.6 3.07 3.5.15-.1.02-.3-.13-.3-1.7.9-2.7-2.6-2.7-3.6-.1-1.4.7-3 2.3-3 .1 0 .1-.3 0-.3m16.8-.5c-.3-.1-.4 0-.6.1-.1 0-.1.2.1.2h.7c.1 0 .2-.3 0-.3-1.7-.4-2.1 2.6-1.9 3.6.1.7.5 1.4 1.1 1.8.8.5 1.7.5 2.6.5.1 0 .1-.3 0-.3-1.4 0-2.8-.1-3.4-1.6-.3-.6-.3-1.3-.2-2 .1-.7.6-2.1 1.5-1.9v-.3h-.7v.2l.4-.1c.1 0 .2-.3 0-.3"/>
      <path d="M282.8 231.77c-1.06-.06-2.12-.12-3.18-.2-.64-.02-1.6-.28-2.18.08-.53.34-.83 1.14-1 1.72-.2.68-.22 1.4-.1 2.1.14.66.42 1.4.94 1.86.53.47 1.28.6 1.97.7 1.93.28 3.9.24 5.82-.1.17-.03.1-.28-.07-.26-1.56.28-3.14.36-4.72.22-.72-.1-1.5-.2-2.2-.4-.8-.4-1.24-1.1-1.43-1.9-.27-1.2-.06-3.7 1.47-3.9.72-.1 1.54.1 2.26.1l2.42.1c.16 0 .16-.3 0-.3m-23.93 1l5.03.7c.17 0 .24-.3.07-.3l-5.03-.8c-.16-.1-.24.2-.07.2m-.7.8c1.7.3 3.43.5 5.16.7.17 0 .17-.3 0-.3-1.7-.2-3.4-.4-5.1-.7-.17-.1-.24.2-.07.2m.14 4.4l5.64-.3c.16 0 .17-.3 0-.3l-5.65.3c-.2 0-.2.2 0 .2m3.2 1.5c1.2-.2 2.4-.5 3.5-.7.1 0 .1-.3-.1-.3l-3.6.6c-.2 0-.1.2 0 .2"/>
      <path d="M282.62 232.08c.72-.03 1.44.02 2.15.18 1 .22 1.57.68 1.65 1.74.08 1.08-.1 3.5-1.64 3.48-.17 0-.17.26 0 .26 1.73.04 2-2.5 1.9-3.74-.05-.76-.3-1.43-1.04-1.76-.9-.4-2.06-.46-3.02-.43-.17.1-.17.3 0 .3m-5.52.3c1.46.4 3-.2 4.44.3.16.1.23-.2.07-.2-1.4-.5-2.9.1-4.4-.3-.1 0-.2.2 0 .3m-.7 2.1c1.6.1 3.2-.1 4.7-.3.2 0 .1-.3 0-.2-1.5.3-3 .4-4.6.3-.1 0-.1.3 0 .3m.2.9c1.5 0 3-.2 4.5-.4.2 0 .1-.3-.1-.2-1.4.2-2.9.3-4.4.4-.1 0-.2.3 0 .3m0 1.1l4.4-.5c.2 0 .2-.2 0-.2l-4.4.6c-.2 0-.2.3 0 .3m.8 1l4.1-.5c.2 0 .1-.3-.1-.3l-4.1.6c-.2 0-.1.3.1.3m2.2.6c.9-.3 1.7-.5 2.6-.5.2 0 .2-.3 0-.3-.9 0-1.8.2-2.6.6-.1.1 0 .3.1.2m2.2.1c.4-.3.8-.4 1.3-.4.2 0 .2-.2 0-.2-.5 0-.9.1-1.3.4-.2.1 0 .3.1.2m-28-136.8c.8.1 1.4.8 2 1.3l1.6 1.4 3.2 2.7c1 .9 2 1.8 3.1 2.7.8.7 1.7 1.3 2.7 1.5.1.1.2-.2.1-.2-1.3-.3-2.3-1.2-3.3-2.1l-3.3-2.8-3.1-2.7c-.8-.7-1.7-1.8-2.8-1.9-.2 0-.2.3 0 .3m-.1-.3l3.8-1.9c.8-.4 1.7-.8 1.7-1.7 0-.1 0-.1-.1-.1-1.3.2-2.6.4-3.9.7-.1.1-.1.3.1.3.8-.2 1.6-.3 2.4-.5.2 0 1.1-.3 1.3 0 .1.2-.4.6-.5.6l-.4.3c-1.4.8-2.9 1.5-4.4 2.2-.1.1 0 .3.1.2"/>
      <path d="M258.88 97.58c.24.5.63.84 1.07 1.17.68.52 1.4 1.02 2.1 1.5 1.4.95 2.83 1.83 4.3 2.64.15 0 .28-.2.13-.3-1.32-.8-2.62-1.5-3.9-2.4-.6-.4-1.2-.9-1.8-1.3-.62-.5-1.34-.9-1.67-1.6 0-.2-.3 0-.2.1m-1 1.1c1.9 1.5 3.7 3 5.6 4.6 1.6 1.3 3.2 2.6 4 4.5.1.1.3 0 .2-.2-.8-1.9-2.3-3.2-3.8-4.5l-5.7-4.7c-.1-.1-.3 0-.2.2"/>
      <path d="M254.6 101.73c1.47-.6 2.92-1.2 4.37-1.86.15-.07.02-.3-.14-.23-1.42.65-2.85 1.26-4.3 1.84-.16.06-.1.3.07.25m1.2.73l4.23-2.03c.16-.07.02-.3-.13-.23l-4.24 2.03c-.15.07-.02.3.13.23m1 .86c1.3-.78 2.7-1.4 4.2-1.88.1-.05.1-.3-.1-.25-1.5.4-2.9 1.1-4.3 1.9-.2 0 0 .3.1.2m.8 1c1.3-.9 2.8-1.5 4.4-1.9.1-.1.1-.3-.1-.3-1.6.4-3.1 1-4.5 1.8-.2.1 0 .3.1.2m1.2.7c1.4-.8 2.9-1.5 4.5-1.9.1-.1 0-.3-.1-.3-1.6.5-3.2 1.1-4.6 1.9-.2 0 0 .3.1.2m.8.5c1.3-.7 2.7-1.2 4.2-1.5.2-.1.1-.3-.1-.3-1.5.3-2.9.8-4.3 1.5-.1.1 0 .3.2.2m1.3 1.3c-.2-.5 1.4-1.2 1.8-1.3.6-.4 1.3-.7 1.9-.9.1-.1.1-.3-.1-.3-1 .4-1.9.8-2.8 1.3-.4.2-1.4.6-1.1 1.2 0 .1.3.1.2-.1m.9.9l4.1-2.2c.2-.1 0-.3-.1-.2l-4.1 2.2c-.2 0 0 .3.1.2m1.2 1c1-1 2.1-1.6 3.4-2 .1 0 .1-.3-.1-.2-1.4.4-2.6 1.1-3.6 2.1-.1.1 0 .3.2.2m.5.6c1.1-.5 2.2-1.1 3.3-1.8.1-.1 0-.3-.2-.2-1.1.7-2.2 1.3-3.3 1.8-.2.1 0 .3.1.3m1 .9l2-1.1c.1-.1 0-.3-.1-.2l-2 1.1c-.2.1 0 .3.1.2m1.6-7.5c.3-.1.6.3.8.5.2.1.3.1.5.2.5.1.8.2 1.1.5l.8.8c.6.5 1.1 1.1 1.7 1.7.5.5 1.2 1.1 1.6 1.7.1.1.5.8.4.8-.1.2-.8.5-.9.5-.4 0-.8-.2-1.1-.4-1.3-.7-2.6-1.3-4-1.7-.2-.1-.3.2-.1.2 1 .3 2 .7 3 1.2.6.3 1.2.8 1.9.9.4 0 1-.3 1.2-.7.1-.3-.1-.4-.2-.7-.4-.8-1-1.3-1.5-1.9l-2.4-2.4c-.5-.5-.9-1.1-1.6-1.2-.5-.1-.6-.1-.9-.4l-.3-.2c-.2-.1-.4-.2-.6-.1-.2 0-.1.3 0 .2"/>
    </g>
  </g>
</svg>
