<?xml version="1.0" encoding="utf-8"?>
<!-- Generator: Adobe Illustrator 20.1.0, SVG Export Plug-In . SVG Version: 6.00 Build 0)  -->
<!DOCTYPE svg PUBLIC "-//W3C//DTD SVG 1.1//EN" "http://www.w3.org/Graphics/SVG/1.1/DTD/svg11.dtd">
<svg version="1.1" id="Layer_1" xmlns="http://www.w3.org/2000/svg" xmlns:xlink="http://www.w3.org/1999/xlink" x="0px" y="0px"
	 viewBox="0 0 20 14.5" style="enable-background:new 0 0 20 14.5;" xml:space="preserve">
<style type="text/css">
	.st0{fill:#AAAAAA;}
</style>
<path class="st0" d="M4.9,5.9c2.2,0,4,1.8,4,4s-1.8,4-4,4s-4-1.8-4-4l0-0.6C1,5,4.5,1.4,8.9,1.4v2.3c-1.5,0-2.9,0.6-4,1.7
	C4.7,5.5,4.5,5.7,4.3,6C4.5,5.9,4.7,5.9,4.9,5.9z M15.1,5.9c2.2,0,4,1.8,4,4s-1.8,4-4,4s-4-1.8-4-4l0-0.6c0-4.4,3.5-7.9,7.9-7.9v2.3
	c-1.5,0-2.9,0.6-4,1.7c-0.2,0.2-0.4,0.4-0.6,0.7C14.7,5.9,14.9,5.9,15.1,5.9z"/>
</svg>
